const unsigned char bora0_midi[] = {
  0x4d, 0x54, 0x68, 0x64, 0x00, 0x00, 0x00, 0x06, 0x00, 0x00, 0x00, 0x01,
  0x01, 0xe0, 0x4d, 0x54, 0x72, 0x6b, 0x00, 0x00, 0xb5, 0x34, 0x00, 0xff,
  0x51, 0x03, 0x0b, 0xbc, 0xce, 0x00, 0xff, 0x58, 0x04, 0x02, 0x02, 0x18,
  0x08, 0x00, 0xff, 0x01, 0x08, 0x4c, 0x65, 0x61, 0x64, 0x20, 0x56, 0x6f,
  0x78, 0x00, 0xff, 0x01, 0x0a, 0x4c, 0x65, 0x61, 0x64, 0x20, 0x56, 0x6f,
  0x78, 0x20, 0x32, 0x00, 0xff, 0x01, 0x05, 0x50, 0x69, 0x61, 0x6e, 0x6f,
  0x00, 0xff, 0x01, 0x04, 0x42, 0x61, 0x73, 0x73, 0x00, 0xff, 0x01, 0x07,
  0x53, 0x74, 0x72, 0x69, 0x6e, 0x67, 0x73, 0x00, 0xff, 0x01, 0x05, 0x43,
  0x68, 0x6f, 0x69, 0x72, 0x00, 0xff, 0x01, 0x05, 0x42, 0x72, 0x61, 0x73,
  0x73, 0x00, 0xff, 0x01, 0x04, 0x48, 0x6f, 0x72, 0x6e, 0x00, 0xff, 0x01,
  0x0a, 0x4c, 0x65, 0x61, 0x64, 0x20, 0x47, 0x75, 0x69, 0x74, 0x72, 0x00,
  0xff, 0x01, 0x0a, 0x4c, 0x65, 0x61, 0x64, 0x20, 0x47, 0x74, 0x45, 0x6b,
  0x6f, 0x00, 0xff, 0x01, 0x07, 0x4f, 0x72, 0x63, 0x20, 0x48, 0x69, 0x74,
  0x00, 0xff, 0x01, 0x05, 0x44, 0x72, 0x75, 0x6d, 0x73, 0x00, 0xff, 0x01,
  0x07, 0x54, 0x69, 0x6d, 0x70, 0x61, 0x6e, 0x69, 0x81, 0x20, 0xb0, 0x79,
  0x00, 0x02, 0xb1, 0x79, 0x00, 0x02, 0xb2, 0x79, 0x00, 0x02, 0xb3, 0x79,
  0x00, 0x02, 0xb4, 0x79, 0x00, 0x02, 0xb5, 0x79, 0x00, 0x02, 0xb6, 0x79,
  0x00, 0x02, 0xb7, 0x79, 0x00, 0x02, 0xb8, 0x79, 0x00, 0x02, 0xb9, 0x79,
  0x00, 0x02, 0xba, 0x79, 0x00, 0x02, 0xbb, 0x79, 0x00, 0x02, 0xbc, 0x79,
  0x00, 0x08, 0xb0, 0x00, 0x00, 0x02, 0x20, 0x00, 0x02, 0xc0, 0x00, 0x02,
  0xb0, 0x07, 0x7b, 0x00, 0x0a, 0x40, 0x00, 0x0b, 0x6e, 0x02, 0x5b, 0x7f,
  0x00, 0x5d, 0x00, 0x02, 0xb1, 0x00, 0x00, 0x02, 0x20, 0x00, 0x02, 0xc1,
  0x21, 0x02, 0xb1, 0x07, 0x7b, 0x00, 0x0a, 0x40, 0x00, 0x0b, 0x6e, 0x02,
  0x5b, 0x00, 0x00, 0x5d, 0x3c, 0x02, 0xb2, 0x00, 0x00, 0x02, 0x20, 0x00,
  0x02, 0xc2, 0x30, 0x02, 0xb2, 0x07, 0x7b, 0x00, 0x0a, 0x64, 0x00, 0x0b,
  0x50, 0x02, 0x5b, 0x7f, 0x00, 0x5d, 0x14, 0x02, 0xb3, 0x00, 0x00, 0x02,
  0x20, 0x00, 0x02, 0xc3, 0x34, 0x02, 0xb3, 0x07, 0x7b, 0x00, 0x0a, 0x14,
  0x00, 0x0b, 0x5f, 0x02, 0x5b, 0x7f, 0x00, 0x5d, 0x00, 0x02, 0xb4, 0x00,
  0x00, 0x02, 0x20, 0x00, 0x02, 0xc4, 0x41, 0x02, 0xb4, 0x07, 0x7b, 0x00,
  0x0a, 0x40, 0x00, 0x0b, 0x6e, 0x02, 0x5b, 0x7f, 0x00, 0x5d, 0x14, 0x02,
  0xb5, 0x00, 0x00, 0x02, 0x20, 0x00, 0x02, 0xc5, 0x3c, 0x02, 0xb5, 0x07,
  0x7b, 0x00, 0x0a, 0x40, 0x00, 0x0b, 0x64, 0x02, 0x5b, 0x7f, 0x00, 0x5d,
  0x3c, 0x02, 0xb6, 0x00, 0x00, 0x02, 0x20, 0x00, 0x02, 0xc6, 0x3e, 0x02,
  0xb6, 0x07, 0x7b, 0x00, 0x0a, 0x6e, 0x00, 0x0b, 0x6e, 0x02, 0x5b, 0x7f,
  0x00, 0x5d, 0x3c, 0x02, 0xb7, 0x00, 0x00, 0x02, 0x20, 0x00, 0x02, 0xc7,
  0x45, 0x02, 0xb7, 0x07, 0x7b, 0x00, 0x0a, 0x0a, 0x00, 0x0b, 0x5a, 0x02,
  0x5b, 0x7f, 0x00, 0x5d, 0x28, 0x02, 0xb8, 0x00, 0x00, 0x02, 0x20, 0x00,
  0x02, 0xc8, 0x1e, 0x02, 0xb8, 0x07, 0x7b, 0x00, 0x0a, 0x7f, 0x00, 0x0b,
  0x5a, 0x02, 0x5b, 0x7f, 0x00, 0x5d, 0x32, 0x02, 0xb9, 0x00, 0x00, 0x02,
  0x20, 0x00, 0x02, 0xc9, 0x00, 0x02, 0xb9, 0x07, 0x7b, 0x00, 0x0a, 0x40,
  0x00, 0x0b, 0x6e, 0x02, 0x5b, 0x7f, 0x00, 0x5d, 0x00, 0x02, 0xba, 0x00,
  0x00, 0x02, 0x20, 0x00, 0x02, 0xca, 0x2f, 0x02, 0xba, 0x07, 0x7b, 0x00,
  0x0a, 0x40, 0x00, 0x0b, 0x6e, 0x02, 0x5b, 0x7f, 0x00, 0x5d, 0x14, 0x02,
  0xbb, 0x00, 0x00, 0x02, 0x20, 0x00, 0x02, 0xcb, 0x1e, 0x02, 0xbb, 0x07,
  0x7b, 0x00, 0x0a, 0x00, 0x00, 0x0b, 0x5a, 0x02, 0x5b, 0x7f, 0x00, 0x5d,
  0x00, 0x02, 0xbc, 0x00, 0x00, 0x02, 0x20, 0x00, 0x02, 0xcc, 0x37, 0x02,
  0xbc, 0x07, 0x7b, 0x00, 0x0a, 0x40, 0x00, 0x0b, 0x6e, 0x02, 0x5b, 0x7e,
  0x00, 0x5d, 0x00, 0x82, 0x60, 0x93, 0x41, 0x71, 0x00, 0x44, 0x71, 0x00,
  0x46, 0x71, 0x00, 0x49, 0x71, 0x4c, 0x83, 0x49, 0x71, 0x04, 0x41, 0x71,
  0x0e, 0x46, 0x71, 0x00, 0x44, 0x71, 0x02, 0x93, 0x41, 0x71, 0x00, 0x44,
  0x71, 0x00, 0x46, 0x71, 0x00, 0x49, 0x71, 0x36, 0x83, 0x44, 0x71, 0x02,
  0x46, 0x71, 0x0e, 0x49, 0x71, 0x06, 0x41, 0x71, 0x14, 0x93, 0x41, 0x71,
  0x00, 0x44, 0x71, 0x00, 0x46, 0x71, 0x00, 0x49, 0x71, 0x52, 0x83, 0x49,
  0x71, 0x04, 0x44, 0x71, 0x00, 0x41, 0x71, 0x04, 0x46, 0x71, 0x06, 0x93,
  0x41, 0x71, 0x00, 0x44, 0x71, 0x00, 0x46, 0x71, 0x00, 0x49, 0x71, 0x81,
  0x24, 0x83, 0x49, 0x71, 0x06, 0x41, 0x71, 0x06, 0x44, 0x71, 0x04, 0x46,
  0x71, 0x0c, 0x93, 0x41, 0x71, 0x00, 0x44, 0x71, 0x00, 0x46, 0x71, 0x00,
  0x49, 0x71, 0x81, 0x1e, 0x83, 0x44, 0x71, 0x04, 0x46, 0x71, 0x06, 0x49,
  0x71, 0x04, 0x41, 0x71, 0x74, 0x93, 0x3f, 0x71, 0x00, 0x43, 0x71, 0x00,
  0x46, 0x71, 0x00, 0x49, 0x71, 0x4a, 0x83, 0x46, 0x71, 0x00, 0x43, 0x71,
  0x02, 0x49, 0x71, 0x04, 0x3f, 0x71, 0x10, 0x93, 0x3f, 0x71, 0x00, 0x43,
  0x71, 0x00, 0x46, 0x71, 0x00, 0x49, 0x71, 0x52, 0x83, 0x43, 0x71, 0x04,
  0x46, 0x71, 0x08, 0x49, 0x71, 0x00, 0x3f, 0x71, 0x02, 0x93, 0x41, 0x71,
  0x00, 0x44, 0x71, 0x00, 0x46, 0x71, 0x50, 0x83, 0x46, 0x71, 0x08, 0x44,
  0x71, 0x06, 0x41, 0x71, 0x02, 0x93, 0x43, 0x71, 0x00, 0x46, 0x71, 0x00,
  0x49, 0x71, 0x5e, 0x83, 0x49, 0x71, 0x00, 0x46, 0x71, 0x00, 0x43, 0x71,
  0x02, 0x93, 0x41, 0x71, 0x00, 0x44, 0x71, 0x2e, 0x83, 0x44, 0x71, 0x00,
  0x41, 0x71, 0x02, 0x93, 0x3f, 0x71, 0x00, 0x43, 0x71, 0x81, 0x2c, 0x83,
  0x43, 0x71, 0x1c, 0x3f, 0x71, 0x28, 0x93, 0x3f, 0x71, 0x00, 0x42, 0x71,
  0x00, 0x44, 0x71, 0x00, 0x48, 0x71, 0x48, 0x83, 0x42, 0x71, 0x08, 0x48,
  0x71, 0x08, 0x3f, 0x71, 0x02, 0x44, 0x71, 0x06, 0x93, 0x3f, 0x71, 0x00,
  0x42, 0x71, 0x00, 0x44, 0x71, 0x00, 0x48, 0x71, 0x48, 0x83, 0x42, 0x71,
  0x08, 0x3f, 0x71, 0x02, 0x44, 0x71, 0x02, 0x48, 0x71, 0x0c, 0x93, 0x3f,
  0x71, 0x00, 0x42, 0x71, 0x00, 0x44, 0x71, 0x00, 0x48, 0x71, 0x4a, 0x83,
  0x42, 0x71, 0x0e, 0x48, 0x71, 0x00, 0x3f, 0x71, 0x06, 0x44, 0x71, 0x02,
  0x93, 0x3f, 0x71, 0x00, 0x42, 0x71, 0x00, 0x46, 0x71, 0x00, 0x49, 0x71,
  0x81, 0x3e, 0x83, 0x49, 0x71, 0x00, 0x46, 0x71, 0x00, 0x42, 0x71, 0x00,
  0x3f, 0x71, 0x02, 0x93, 0x3f, 0x71, 0x00, 0x42, 0x71, 0x00, 0x44, 0x71,
  0x00, 0x48, 0x71, 0x30, 0x83, 0x42, 0x71, 0x06, 0x3f, 0x71, 0x70, 0x44,
  0x71, 0x18, 0x48, 0x71, 0x02, 0x93, 0x44, 0x71, 0x4e, 0x83, 0x44, 0x71,
  0x12, 0x93, 0x3d, 0x71, 0x00, 0x41, 0x71, 0x00, 0x44, 0x71, 0x00, 0x49,
  0x71, 0x2a, 0x83, 0x41, 0x71, 0x02, 0x44, 0x71, 0x00, 0x3d, 0x71, 0x08,
  0x49, 0x71, 0x2c, 0x93, 0x3d, 0x71, 0x00, 0x41, 0x71, 0x00, 0x44, 0x71,
  0x00, 0x49, 0x71, 0x2e, 0x83, 0x41, 0x71, 0x28, 0x44, 0x71, 0x08, 0x49,
  0x71, 0x00, 0x3d, 0x71, 0x02, 0x93, 0x42, 0x71, 0x00, 0x46, 0x71, 0x4a,
  0x83, 0x42, 0x71, 0x14, 0x46, 0x71, 0x02, 0x93, 0x41, 0x71, 0x00, 0x44,
  0x71, 0x5e, 0x83, 0x44, 0x71, 0x00, 0x41, 0x71, 0x02, 0x93, 0x3f, 0x71,
  0x00, 0x42, 0x71, 0x5e, 0x83, 0x42, 0x71, 0x00, 0x3f, 0x71, 0x02, 0x93,
  0x3d, 0x71, 0x00, 0x41, 0x71, 0x82, 0x60, 0x83, 0x41, 0x71, 0x0c, 0x3d,
  0x71, 0x74, 0x90, 0x2e, 0x78, 0x00, 0x35, 0x7b, 0x00, 0x3a, 0x7b, 0x00,
  0x3d, 0x7b, 0x00, 0x41, 0x7a, 0x00, 0x92, 0x41, 0x68, 0x00, 0x93, 0x2e,
  0x71, 0x00, 0x35, 0x71, 0x00, 0x3a, 0x71, 0x00, 0x3d, 0x71, 0x00, 0x41,
  0x71, 0x52, 0x80, 0x3a, 0x7b, 0x0e, 0x90, 0x3a, 0x5f, 0x08, 0x80, 0x41,
  0x7a, 0x10, 0x3d, 0x7b, 0x28, 0x82, 0x41, 0x68, 0x20, 0x90, 0x3d, 0x79,
  0x00, 0x41, 0x7a, 0x00, 0x92, 0x41, 0x6f, 0x0a, 0x80, 0x3a, 0x5f, 0x48,
  0x82, 0x41, 0x6f, 0x06, 0x80, 0x41, 0x7a, 0x08, 0x90, 0x3a, 0x68, 0x00,
  0x92, 0x41, 0x6e, 0x10, 0x80, 0x3d, 0x79, 0x50, 0x90, 0x3d, 0x79, 0x00,
  0x41, 0x7a, 0x0c, 0x80, 0x3a, 0x68, 0x54, 0x41, 0x7a, 0x00, 0x90, 0x3a,
  0x6d, 0x12, 0x80, 0x3d, 0x79, 0x4e, 0x90, 0x3d, 0x78, 0x00, 0x41, 0x78,
  0x14, 0x80, 0x3a, 0x6d, 0x3a, 0x82, 0x41, 0x6e, 0x08, 0x80, 0x35, 0x7b,
  0x0a, 0x90, 0x3a, 0x74, 0x00, 0x92, 0x41, 0x6f, 0x08, 0x80, 0x41, 0x78,
  0x08, 0x3d, 0x78, 0x18, 0x3a, 0x74, 0x1a, 0x83, 0x3a, 0x71, 0x12, 0x82,
  0x41, 0x6f, 0x02, 0x83, 0x35, 0x71, 0x00, 0x2e, 0x71, 0x02, 0x80, 0x2e,
  0x78, 0x06, 0x83, 0x41, 0x71, 0x00, 0x3d, 0x71, 0x02, 0x90, 0x31, 0x7b,
  0x00, 0x38, 0x7a, 0x00, 0x3b, 0x7b, 0x00, 0x3d, 0x7b, 0x00, 0x41, 0x7b,
  0x00, 0x92, 0x41, 0x75, 0x00, 0x93, 0x3b, 0x71, 0x48, 0x80, 0x3b, 0x7b,
  0x0a, 0x82, 0x41, 0x75, 0x0e, 0x90, 0x3b, 0x76, 0x00, 0x92, 0x41, 0x74,
  0x04, 0x80, 0x3d, 0x7b, 0x0c, 0x41, 0x7b, 0x4e, 0x83, 0x3b, 0x71, 0x02,
  0x90, 0x3d, 0x7a, 0x00, 0x41, 0x7b, 0x00, 0x82, 0x41, 0x74, 0x00, 0x92,
  0x42, 0x73, 0x00, 0x93, 0x42, 0x71, 0x14, 0x80, 0x3b, 0x76, 0x4a, 0x83,
  0x42, 0x71, 0x02, 0x90, 0x3b, 0x6e, 0x00, 0x92, 0x44, 0x71, 0x00, 0x93,
  0x44, 0x71, 0x06, 0x80, 0x41, 0x7b, 0x04, 0x82, 0x42, 0x73, 0x06, 0x80,
  0x3d, 0x7a, 0x50, 0x90, 0x3d, 0x79, 0x00, 0x41, 0x76, 0x0a, 0x80, 0x3b,
  0x6e, 0x54, 0x83, 0x44, 0x71, 0x02, 0x90, 0x3b, 0x75, 0x00, 0x92, 0x3d,
  0x67, 0x00, 0x93, 0x3d, 0x71, 0x08, 0x80, 0x41, 0x76, 0x00, 0x82, 0x44,
  0x71, 0x08, 0x80, 0x3d, 0x79, 0x50, 0x90, 0x3d, 0x78, 0x00, 0x41, 0x7a,
  0x0c, 0x80, 0x3b, 0x75, 0x4e, 0x41, 0x7a, 0x04, 0x83, 0x3d, 0x71, 0x02,
  0x90, 0x3b, 0x75, 0x00, 0x92, 0x46, 0x65, 0x00, 0x93, 0x42, 0x71, 0x00,
  0x46, 0x71, 0x14, 0x82, 0x3d, 0x67, 0x0c, 0x80, 0x3d, 0x78, 0x02, 0x38,
  0x7a, 0x0a, 0x3b, 0x75, 0x34, 0x90, 0x2a, 0x79, 0x00, 0x36, 0x76, 0x00,
  0x3d, 0x7b, 0x00, 0x42, 0x76, 0x00, 0x46, 0x79, 0x60, 0x3a, 0x74, 0x0c,
  0x80, 0x46, 0x79, 0x0a, 0x42, 0x76, 0x02, 0x3d, 0x7b, 0x48, 0x90, 0x3d,
  0x7a, 0x00, 0x42, 0x79, 0x00, 0x46, 0x79, 0x0a, 0x80, 0x3a, 0x74, 0x52,
  0x46, 0x79, 0x04, 0x42, 0x79, 0x00, 0x90, 0x3a, 0x75, 0x08, 0x80, 0x3d,
  0x7a, 0x58, 0x90, 0x3d, 0x79, 0x00, 0x42, 0x7a, 0x00, 0x46, 0x7b, 0x0c,
  0x80, 0x3a, 0x75, 0x54, 0x90, 0x3a, 0x74, 0x06, 0x80, 0x46, 0x7b, 0x0c,
  0x42, 0x7a, 0x02, 0x3d, 0x79, 0x4c, 0x90, 0x3d, 0x78, 0x00, 0x42, 0x77,
  0x00, 0x46, 0x79, 0x0e, 0x80, 0x3a, 0x74, 0x20, 0x82, 0x46, 0x65, 0x32,
  0x90, 0x3a, 0x73, 0x04, 0x80, 0x46, 0x79, 0x06, 0x42, 0x77, 0x00, 0x3d,
  0x78, 0x50, 0x36, 0x76, 0x04, 0x31, 0x7b, 0x00, 0x83, 0x46, 0x71, 0x00,
  0x42, 0x71, 0x02, 0x90, 0x33, 0x7b, 0x00, 0x3f, 0x7b, 0x00, 0x42, 0x7a,
  0x00, 0x46, 0x7b, 0x00, 0x92, 0x46, 0x6b, 0x00, 0x52, 0x2f, 0x00, 0x93,
  0x3a, 0x71, 0x00, 0x3f, 0x71, 0x02, 0x80, 0x2a, 0x79, 0x06, 0x3a, 0x73,
  0x54, 0x46, 0x7b, 0x04, 0x90, 0x3a, 0x6d, 0x08, 0x80, 0x42, 0x7a, 0x0e,
  0x3f, 0x7b, 0x42, 0x82, 0x52, 0x2f, 0x08, 0x90, 0x3f, 0x7a, 0x00, 0x42,
  0x77, 0x00, 0x46, 0x7a, 0x00, 0x92, 0x52, 0x68, 0x0a, 0x80, 0x3a, 0x6d,
  0x50, 0x82, 0x46, 0x6b, 0x02, 0x80, 0x46, 0x7a, 0x04, 0x90, 0x3a, 0x73,
  0x00, 0x92, 0x46, 0x75, 0x06, 0x80, 0x42, 0x77, 0x06, 0x3f, 0x7a, 0x54,
  0x90, 0x3f, 0x7a, 0x00, 0x42, 0x78, 0x00, 0x46, 0x78, 0x0c, 0x80, 0x3a,
  0x73, 0x3c, 0x46, 0x78, 0x0c, 0x82, 0x46, 0x75, 0x0c, 0x80, 0x42, 0x78,
  0x00, 0x90, 0x3a, 0x6c, 0x00, 0x92, 0x46, 0x73, 0x0c, 0x80, 0x3f, 0x7a,
  0x54, 0x90, 0x3f, 0x79, 0x00, 0x42, 0x75, 0x00, 0x46, 0x7a, 0x0a, 0x80,
  0x3a, 0x6c, 0x3a, 0x42, 0x75, 0x1c, 0x90, 0x3a, 0x73, 0x08, 0x80, 0x3f,
  0x79, 0x26, 0x3a, 0x73, 0x2a, 0x46, 0x7a, 0x06, 0x83, 0x3f, 0x71, 0x00,
  0x3a, 0x71, 0x02, 0x90, 0x2c, 0x6d, 0x00, 0x38, 0x7a, 0x00, 0x3c, 0x77,
  0x00, 0x3f, 0x7a, 0x00, 0x44, 0x7b, 0x00, 0x82, 0x46, 0x73, 0x00, 0x92,
  0x44, 0x6f, 0x00, 0x50, 0x4c, 0x00, 0x93, 0x38, 0x71, 0x00, 0x3c, 0x71,
  0x00, 0x44, 0x71, 0x04, 0x82, 0x52, 0x68, 0x08, 0x80, 0x33, 0x7b, 0x30,
  0x3c, 0x77, 0x10, 0x82, 0x44, 0x6f, 0x02, 0x50, 0x4c, 0x12, 0x80, 0x44,
  0x7b, 0x00, 0x90, 0x33, 0x78, 0x00, 0x3c, 0x77, 0x00, 0x92, 0x44, 0x74,
  0x00, 0x50, 0x6e, 0x06, 0x80, 0x3f, 0x7a, 0x08, 0x38, 0x7a, 0x50, 0x33,
  0x78, 0x00, 0x83, 0x44, 0x71, 0x00, 0x3c, 0x71, 0x00, 0x38, 0x71, 0x02,
  0x90, 0x38, 0x7b, 0x00, 0x3f, 0x7a, 0x00, 0x46, 0x7b, 0x00, 0x92, 0x46,
  0x75, 0x00, 0x52, 0x70, 0x00, 0x93, 0x3a, 0x71, 0x00, 0x46, 0x71, 0x0a,
  0x82, 0x44, 0x74, 0x02, 0x50, 0x6e, 0x02, 0x80, 0x3c, 0x77, 0x4a, 0x3f,
  0x7a, 0x06, 0x83, 0x46, 0x71, 0x00, 0x3a, 0x71, 0x02, 0x90, 0x33, 0x77,
  0x00, 0x3c, 0x72, 0x00, 0x44, 0x77, 0x00, 0x82, 0x46, 0x75, 0x00, 0x92,
  0x44, 0x6f, 0x00, 0x50, 0x70, 0x00, 0x93, 0x38, 0x71, 0x00, 0x44, 0x71,
  0x06, 0x80, 0x38, 0x7b, 0x04, 0x46, 0x7b, 0x06, 0x82, 0x52, 0x70, 0x1e,
  0x83, 0x44, 0x71, 0x00, 0x38, 0x71, 0x02, 0x90, 0x42, 0x71, 0x00, 0x92,
  0x42, 0x71, 0x00, 0x4e, 0x6c, 0x00, 0x93, 0x42, 0x71, 0x08, 0x82, 0x50,
  0x70, 0x02, 0x44, 0x6f, 0x04, 0x80, 0x44, 0x77, 0x20, 0x82, 0x4e, 0x6c,
  0x00, 0x42, 0x71, 0x00, 0x83, 0x42, 0x71, 0x02, 0x90, 0x3f, 0x73, 0x00,
  0x92, 0x3f, 0x74, 0x00, 0x4b, 0x76, 0x00, 0x93, 0x3f, 0x71, 0x12, 0x80,
  0x42, 0x71, 0x16, 0x83, 0x3f, 0x71, 0x0a, 0x80, 0x2c, 0x6d, 0x1a, 0x82,
  0x4b, 0x76, 0x06, 0x3f, 0x74, 0x48, 0x80, 0x3f, 0x73, 0x0a, 0x33, 0x77,
  0x02, 0x3c, 0x72, 0x1a, 0x90, 0x41, 0x79, 0x00, 0x92, 0x41, 0x53, 0x00,
  0x93, 0x41, 0x71, 0x5c, 0x80, 0x41, 0x79, 0x02, 0x83, 0x41, 0x71, 0x02,
  0x90, 0x42, 0x75, 0x00, 0x92, 0x42, 0x70, 0x00, 0x93, 0x42, 0x71, 0x1a,
  0x82, 0x41, 0x53, 0x44, 0x80, 0x42, 0x75, 0x00, 0x83, 0x42, 0x71, 0x02,
  0x90, 0x2f, 0x75, 0x00, 0x36, 0x7a, 0x00, 0x3b, 0x7b, 0x00, 0x3f, 0x79,
  0x00, 0x42, 0x7a, 0x00, 0x47, 0x7b, 0x00, 0x92, 0x47, 0x73, 0x00, 0x93,
  0x3b, 0x71, 0x00, 0x3f, 0x71, 0x00, 0x47, 0x71, 0x02, 0x80, 0x42, 0x7a,
  0x0a, 0x82, 0x42, 0x70, 0x32, 0x80, 0x47, 0x7b, 0x02, 0x83, 0x3b, 0x71,
  0x02, 0x80, 0x3f, 0x79, 0x02, 0x2f, 0x75, 0x02, 0x3b, 0x7b, 0x00, 0x83,
  0x47, 0x71, 0x00, 0x3f, 0x71, 0x06, 0x82, 0x47, 0x73, 0x14, 0x90, 0x2f,
  0x71, 0x00, 0x3b, 0x7a, 0x00, 0x3f, 0x7b, 0x00, 0x42, 0x7a, 0x00, 0x47,
  0x7a, 0x00, 0x92, 0x47, 0x72, 0x00, 0x93, 0x3b, 0x71, 0x00, 0x3f, 0x71,
  0x00, 0x47, 0x71, 0x34, 0x80, 0x3b, 0x7a, 0x02, 0x2f, 0x71, 0x02, 0x36,
  0x7a, 0x0a, 0x42, 0x7a, 0x04, 0x83, 0x3f, 0x71, 0x08, 0x80, 0x3f, 0x7b,
  0x08, 0x47, 0x7a, 0x00, 0x83, 0x47, 0x71, 0x08, 0x3b, 0x71, 0x02, 0x90,
  0x2e, 0x75, 0x00, 0x35, 0x7b, 0x00, 0x3a, 0x7b, 0x00, 0x3e, 0x7b, 0x00,
  0x41, 0x7b, 0x00, 0x46, 0x7b, 0x00, 0x92, 0x46, 0x74, 0x00, 0x93, 0x3a,
  0x71, 0x00, 0x41, 0x71, 0x00, 0x46, 0x71, 0x06, 0x82, 0x47, 0x72, 0x30,
  0x80, 0x46, 0x7b, 0x04, 0x3e, 0x7b, 0x08, 0x83, 0x46, 0x71, 0x04, 0x80,
  0x3a, 0x7b, 0x00, 0x35, 0x7b, 0x02, 0x41, 0x7b, 0x00, 0x82, 0x46, 0x74,
  0x08, 0x83, 0x41, 0x71, 0x08, 0x3a, 0x71, 0x02, 0x80, 0x2e, 0x75, 0x66,
  0x90, 0x2d, 0x78, 0x00, 0x34, 0x7b, 0x00, 0x39, 0x7b, 0x00, 0x3d, 0x71,
  0x00, 0x40, 0x7b, 0x00, 0x45, 0x75, 0x00, 0x92, 0x45, 0x6f, 0x00, 0x93,
  0x39, 0x71, 0x00, 0x40, 0x71, 0x00, 0x45, 0x71, 0x40, 0x83, 0x45, 0x71,
  0x02, 0x80, 0x45, 0x75, 0x00, 0x3d, 0x71, 0x00, 0x83, 0x39, 0x71, 0x02,
  0x80, 0x39, 0x7b, 0x04, 0x2d, 0x78, 0x02, 0x83, 0x40, 0x71, 0x02, 0x80,
  0x40, 0x7b, 0x00, 0x82, 0x45, 0x6f, 0x08, 0x80, 0x34, 0x7b, 0x0c, 0x90,
  0x2d, 0x75, 0x00, 0x34, 0x75, 0x00, 0x39, 0x7a, 0x00, 0x3d, 0x7b, 0x00,
  0x40, 0x7b, 0x00, 0x45, 0x78, 0x00, 0x92, 0x45, 0x76, 0x00, 0x93, 0x39,
  0x71, 0x00, 0x40, 0x71, 0x00, 0x45, 0x71, 0x24, 0x80, 0x2d, 0x75, 0x06,
  0x40, 0x7b, 0x08, 0x39, 0x7a, 0x0c, 0x34, 0x75, 0x04, 0x45, 0x78, 0x08,
  0x3d, 0x7b, 0x10, 0x83, 0x45, 0x71, 0x00, 0x39, 0x71, 0x04, 0x40, 0x71,
  0x02, 0x90, 0x2e, 0x76, 0x00, 0x35, 0x7b, 0x00, 0x3a, 0x7b, 0x00, 0x3e,
  0x7b, 0x00, 0x41, 0x7b, 0x00, 0x46, 0x7b, 0x00, 0x82, 0x45, 0x76, 0x00,
  0x92, 0x46, 0x75, 0x00, 0x93, 0x3a, 0x71, 0x00, 0x41, 0x71, 0x00, 0x46,
  0x71, 0x3a, 0x80, 0x3e, 0x7b, 0x12, 0x2e, 0x76, 0x02, 0x41, 0x7b, 0x02,
  0x35, 0x7b, 0x00, 0x83, 0x41, 0x71, 0x04, 0x80, 0x46, 0x7b, 0x02, 0x83,
  0x3a, 0x71, 0x02, 0x82, 0x46, 0x75, 0x04, 0x80, 0x3a, 0x7b, 0x06, 0x83,
  0x46, 0x71, 0x5e, 0x90, 0x2f, 0x77, 0x00, 0x36, 0x79, 0x00, 0x3b, 0x7b,
  0x00, 0x3f, 0x7a, 0x00, 0x42, 0x77, 0x00, 0x47, 0x7b, 0x00, 0x92, 0x47,
  0x6e, 0x00, 0x93, 0x3b, 0x71, 0x00, 0x42, 0x71, 0x00, 0x47, 0x71, 0x3a,
  0x80, 0x3f, 0x7a, 0x02, 0x83, 0x3b, 0x71, 0x06, 0x80, 0x47, 0x7b, 0x00,
  0x3b, 0x7b, 0x04, 0x2f, 0x77, 0x02, 0x83, 0x47, 0x71, 0x04, 0x42, 0x71,
  0x02, 0x82, 0x47, 0x6e, 0x02, 0x80, 0x42, 0x77, 0x10, 0x90, 0x2f, 0x75,
  0x00, 0x3b, 0x7b, 0x00, 0x3f, 0x79, 0x00, 0x42, 0x77, 0x00, 0x47, 0x7b,
  0x00, 0x92, 0x47, 0x76, 0x00, 0x93, 0x3b, 0x71, 0x00, 0x42, 0x71, 0x00,
  0x47, 0x71, 0x32, 0x80, 0x3b, 0x7b, 0x00, 0x2f, 0x75, 0x06, 0x42, 0x77,
  0x00, 0x36, 0x79, 0x08, 0x3f, 0x79, 0x0c, 0x47, 0x7b, 0x0e, 0x83, 0x42,
  0x71, 0x04, 0x47, 0x71, 0x00, 0x3b, 0x71, 0x02, 0x90, 0x2e, 0x12, 0x00,
  0x35, 0x79, 0x00, 0x3a, 0x7b, 0x00, 0x3e, 0x7b, 0x00, 0x41, 0x7b, 0x00,
  0x46, 0x79, 0x00, 0x82, 0x47, 0x76, 0x00, 0x92, 0x46, 0x75, 0x00, 0x93,
  0x3a, 0x71, 0x00, 0x41, 0x71, 0x00, 0x46, 0x71, 0x3a, 0x80, 0x3e, 0x7b,
  0x0e, 0x46, 0x79, 0x10, 0x35, 0x79, 0x04, 0x83, 0x46, 0x71, 0x02, 0x80,
  0x3a, 0x7b, 0x04, 0x41, 0x7b, 0x00, 0x83, 0x41, 0x71, 0x02, 0x3a, 0x71,
  0x0a, 0x80, 0x2e, 0x12, 0x00, 0x82, 0x46, 0x75, 0x52, 0x90, 0x2d, 0x75,
  0x00, 0x34, 0x79, 0x00, 0x39, 0x78, 0x00, 0x3d, 0x7a, 0x00, 0x40, 0x7b,
  0x00, 0x45, 0x75, 0x00, 0x92, 0x45, 0x73, 0x00, 0x93, 0x39, 0x71, 0x00,
  0x40, 0x71, 0x00, 0x45, 0x71, 0x32, 0x80, 0x3d, 0x7a, 0x08, 0x39, 0x78,
  0x06, 0x45, 0x75, 0x02, 0x40, 0x7b, 0x06, 0x83, 0x39, 0x71, 0x02, 0x82,
  0x45, 0x73, 0x14, 0x83, 0x45, 0x71, 0x00, 0x40, 0x71, 0x02, 0x90, 0x39,
  0x74, 0x00, 0x3d, 0x78, 0x00, 0x40, 0x77, 0x00, 0x45, 0x74, 0x00, 0x92,
  0x45, 0x73, 0x00, 0x93, 0x39, 0x71, 0x1a, 0x80, 0x2d, 0x75, 0x0c, 0x40,
  0x77, 0x0e, 0x34, 0x79, 0x02, 0x39, 0x74, 0x02, 0x82, 0x45, 0x73, 0x18,
  0x80, 0x45, 0x74, 0x00, 0x3d, 0x78, 0x0e, 0x83, 0x39, 0x71, 0x02, 0x90,
  0x2e, 0x70, 0x00, 0x35, 0x7a, 0x00, 0x3a, 0x7a, 0x00, 0x3e, 0x79, 0x00,
  0x41, 0x7a, 0x00, 0x46, 0x7a, 0x00, 0x92, 0x46, 0x71, 0x00, 0x93, 0x3a,
  0x71, 0x00, 0x41, 0x71, 0x00, 0x46, 0x71, 0x4e, 0x83, 0x46, 0x71, 0x14,
  0x41, 0x71, 0x0a, 0x3a, 0x71, 0x14, 0x80, 0x3e, 0x79, 0x0a, 0x3a, 0x7a,
  0x22, 0x2e, 0x70, 0x0e, 0x41, 0x7a, 0x00, 0x35, 0x7a, 0x06, 0x90, 0x33,
  0x7b, 0x00, 0x3a, 0x7b, 0x00, 0x3f, 0x7a, 0x00, 0x43, 0x7b, 0x00, 0x93,
  0x3f, 0x71, 0x00, 0x43, 0x71, 0x00, 0x46, 0x71, 0x0a, 0x80, 0x46, 0x7a,
  0x26, 0x82, 0x46, 0x71, 0x10, 0x80, 0x3f, 0x7a, 0x20, 0x90, 0x3f, 0x76,
  0x00, 0x92, 0x43, 0x4c, 0x1a, 0x80, 0x43, 0x7b, 0x0c, 0x3a, 0x7b, 0x20,
  0x82, 0x43, 0x4c, 0x1a, 0x90, 0x3a, 0x7b, 0x00, 0x43, 0x7a, 0x00, 0x46,
  0x7a, 0x00, 0x92, 0x43, 0x75, 0x0a, 0x80, 0x3f, 0x76, 0x04, 0x33, 0x7b,
  0x42, 0x82, 0x43, 0x75, 0x08, 0x80, 0x46, 0x7a, 0x08, 0x90, 0x33, 0x7a,
  0x00, 0x3f, 0x76, 0x00, 0x92, 0x43, 0x76, 0x06, 0x80, 0x3a, 0x7b, 0x4e,
  0x3f, 0x76, 0x04, 0x83, 0x3f, 0x71, 0x02, 0x43, 0x71, 0x04, 0x80, 0x43,
  0x7a, 0x00, 0x83, 0x46, 0x71, 0x02, 0x90, 0x32, 0x79, 0x00, 0x3a, 0x79,
  0x00, 0x3e, 0x7a, 0x00, 0x41, 0x7b, 0x00, 0x92, 0x41, 0x73, 0x00, 0x93,
  0x3e, 0x71, 0x00, 0x41, 0x71, 0x04, 0x80, 0x33, 0x7a, 0x14, 0x82, 0x43,
  0x76, 0x26, 0x80, 0x3e, 0x7a, 0x22, 0x90, 0x3e, 0x79, 0x12, 0x80, 0x41,
  0x7b, 0x22, 0x3a, 0x79, 0x2a, 0x82, 0x41, 0x73, 0x02, 0x90, 0x3a, 0x7a,
  0x00, 0x41, 0x7b, 0x00, 0x46, 0x78, 0x00, 0x92, 0x46, 0x70, 0x02, 0x80,
  0x32, 0x79, 0x0a, 0x3e, 0x79, 0x22, 0x83, 0x41, 0x71, 0x00, 0x3e, 0x71,
  0x02, 0x93, 0x46, 0x71, 0x30, 0x90, 0x32, 0x78, 0x00, 0x3e, 0x79, 0x08,
  0x80, 0x3a, 0x7a, 0x02, 0x41, 0x7b, 0x20, 0x3e, 0x79, 0x2a, 0x46, 0x78,
  0x0a, 0x83, 0x46, 0x71, 0x02, 0x90, 0x31, 0x7a, 0x00, 0x3a, 0x7b, 0x00,
  0x3d, 0x7b, 0x00, 0x40, 0x7b, 0x00, 0x43, 0x7b, 0x00, 0x92, 0x40, 0x73,
  0x00, 0x93, 0x3d, 0x71, 0x00, 0x40, 0x71, 0x08, 0x82, 0x46, 0x70, 0x02,
  0x80, 0x32, 0x78, 0x30, 0x3d, 0x7b, 0x18, 0x82, 0x40, 0x73, 0x0c, 0x83,
  0x40, 0x71, 0x00, 0x3d, 0x71, 0x02, 0x90, 0x3d, 0x78, 0x00, 0x92, 0x40,
  0x75, 0x00, 0x93, 0x43, 0x71, 0x16, 0x80, 0x40, 0x7b, 0x02, 0x43, 0x7b,
  0x36, 0x82, 0x40, 0x75, 0x06, 0x80, 0x3a, 0x7b, 0x0a, 0x83, 0x43, 0x71,
  0x02, 0x90, 0x40, 0x7b, 0x00, 0x43, 0x7a, 0x00, 0x92, 0x40, 0x75, 0x00,
  0x93, 0x46, 0x71, 0x48, 0x80, 0x3d, 0x78, 0x0a, 0x82, 0x40, 0x75, 0x08,
  0x80, 0x40, 0x7b, 0x06, 0x90, 0x3a, 0x7a, 0x00, 0x3d, 0x76, 0x00, 0x46,
  0x7a, 0x00, 0x92, 0x41, 0x6e, 0x46, 0x80, 0x43, 0x7a, 0x02, 0x3a, 0x7a,
  0x04, 0x3d, 0x76, 0x08, 0x46, 0x7a, 0x0a, 0x82, 0x41, 0x6e, 0x00, 0x83,
  0x46, 0x71, 0x02, 0x90, 0x30, 0x75, 0x00, 0x39, 0x7b, 0x00, 0x3c, 0x7b,
  0x00, 0x41, 0x7b, 0x00, 0x45, 0x7b, 0x00, 0x92, 0x41, 0x75, 0x00, 0x93,
  0x3c, 0x71, 0x00, 0x41, 0x71, 0x00, 0x45, 0x71, 0x12, 0x80, 0x31, 0x7a,
  0x28, 0x3c, 0x7b, 0x26, 0x90, 0x3c, 0x70, 0x1a, 0x80, 0x41, 0x7b, 0x06,
  0x45, 0x7b, 0x3e, 0x83, 0x45, 0x71, 0x00, 0x41, 0x71, 0x00, 0x3c, 0x71,
  0x02, 0x90, 0x41, 0x7b, 0x00, 0x45, 0x7a, 0x00, 0x92, 0x3c, 0x71, 0x00,
  0x93, 0x3f, 0x71, 0x0c, 0x82, 0x41, 0x75, 0x0e, 0x80, 0x3c, 0x70, 0x2e,
  0x39, 0x7b, 0x14, 0x82, 0x3c, 0x71, 0x04, 0x90, 0x3c, 0x75, 0x00, 0x92,
  0x3f, 0x6e, 0x06, 0x80, 0x30, 0x75, 0x0e, 0x41, 0x7b, 0x4a, 0x83, 0x3f,
  0x71, 0x02, 0x90, 0x29, 0x78, 0x00, 0x3f, 0x7b, 0x00, 0x43, 0x7b, 0x00,
  0x48, 0x7a, 0x00, 0x92, 0x41, 0x67, 0x00, 0x45, 0x68, 0x00, 0x93, 0x48,
  0x71, 0x60, 0x90, 0x30, 0x77, 0x60, 0x39, 0x7b, 0x14, 0x80, 0x3c, 0x75,
  0x4c, 0x45, 0x7a, 0x00, 0x90, 0x3c, 0x77, 0x3c, 0x80, 0x3f, 0x7b, 0x12,
  0x48, 0x7a, 0x0a, 0x43, 0x7b, 0x08, 0x90, 0x3f, 0x12, 0x00, 0x45, 0x75,
  0x00, 0x48, 0x79, 0x08, 0x80, 0x45, 0x75, 0x10, 0x82, 0x41, 0x67, 0x00,
  0x83, 0x48, 0x71, 0x06, 0x82, 0x45, 0x68, 0x12, 0x3f, 0x6e, 0x46, 0x80,
  0x39, 0x7b, 0x12, 0x3c, 0x77, 0x10, 0x48, 0x79, 0x1c, 0x29, 0x78, 0x02,
  0x3f, 0x12, 0x0a, 0x90, 0x39, 0x7a, 0x00, 0x92, 0x39, 0x62, 0x00, 0x93,
  0x39, 0x71, 0x02, 0x80, 0x30, 0x77, 0x81, 0x2e, 0x39, 0x7a, 0x0e, 0x83,
  0x39, 0x71, 0x02, 0x90, 0x22, 0x79, 0x00, 0x2e, 0x7b, 0x00, 0x3a, 0x77,
  0x00, 0x92, 0x3a, 0x59, 0x00, 0x93, 0x3a, 0x71, 0x06, 0x82, 0x39, 0x62,
  0x5a, 0x90, 0x35, 0x73, 0x22, 0x80, 0x3a, 0x77, 0x3e, 0x90, 0x3a, 0x75,
  0x60, 0x3e, 0x73, 0x60, 0x43, 0x74, 0x00, 0x4f, 0x74, 0x1e, 0x80, 0x35,
  0x73, 0x42, 0x90, 0x35, 0x65, 0x60, 0x41, 0x75, 0x00, 0x4d, 0x76, 0x0c,
  0x80, 0x35, 0x65, 0x16, 0x3e, 0x73, 0x3e, 0x90, 0x35, 0x6b, 0x06, 0x80,
  0x3a, 0x75, 0x24, 0x22, 0x79, 0x24, 0x41, 0x75, 0x08, 0x4d, 0x76, 0x0a,
  0x90, 0x22, 0x7b, 0x00, 0x3a, 0x76, 0x00, 0x3e, 0x7b, 0x0c, 0x80, 0x35,
  0x6b, 0x06, 0x4f, 0x74, 0x4e, 0x90, 0x35, 0x68, 0x10, 0x80, 0x3e, 0x7b,
  0x02, 0x3a, 0x76, 0x4e, 0x90, 0x3a, 0x71, 0x60, 0x3e, 0x74, 0x08, 0x80,
  0x43, 0x74, 0x58, 0x90, 0x43, 0x74, 0x00, 0x4f, 0x74, 0x16, 0x80, 0x35,
  0x68, 0x4a, 0x90, 0x35, 0x6c, 0x1e, 0x80, 0x3e, 0x74, 0x42, 0x90, 0x41,
  0x76, 0x00, 0x4d, 0x76, 0x18, 0x80, 0x35, 0x6c, 0x38, 0x82, 0x3a, 0x59,
  0x04, 0x83, 0x3a, 0x71, 0x08, 0x80, 0x3a, 0x71, 0x04, 0x90, 0x35, 0x73,
  0x1a, 0x80, 0x22, 0x7b, 0x02, 0x2e, 0x7b, 0x3a, 0x4d, 0x76, 0x00, 0x41,
  0x76, 0x0a, 0x95, 0x48, 0x79, 0x00, 0x4a, 0x77, 0x00, 0x90, 0x22, 0x7b,
  0x00, 0x2e, 0x7b, 0x00, 0x3a, 0x7a, 0x00, 0x3e, 0x7a, 0x06, 0x80, 0x35,
  0x73, 0x0c, 0x4f, 0x74, 0x00, 0x43, 0x74, 0x04, 0x85, 0x48, 0x79, 0x3c,
  0x80, 0x3a, 0x7a, 0x0e, 0x90, 0x35, 0x71, 0x60, 0x3a, 0x73, 0x02, 0x80,
  0x3e, 0x7a, 0x5e, 0x90, 0x3e, 0x73, 0x60, 0x43, 0x75, 0x00, 0x4f, 0x74,
  0x0a, 0x80, 0x35, 0x71, 0x56, 0x90, 0x35, 0x73, 0x60, 0x41, 0x78, 0x00,
  0x4d, 0x76, 0x08, 0x80, 0x3e, 0x73, 0x2e, 0x35, 0x73, 0x1e, 0x85, 0x4a,
  0x77, 0x0c, 0x95, 0x46, 0x79, 0x00, 0x90, 0x35, 0x72, 0x06, 0x80, 0x3a,
  0x73, 0x50, 0x4d, 0x76, 0x06, 0x2e, 0x7b, 0x04, 0x85, 0x46, 0x79, 0x00,
  0x95, 0x48, 0x7a, 0x00, 0x90, 0x2b, 0x7a, 0x00, 0x3a, 0x78, 0x00, 0x3e,
  0x7b, 0x02, 0x80, 0x22, 0x7b, 0x02, 0x35, 0x72, 0x04, 0x41, 0x78, 0x08,
  0x43, 0x75, 0x02, 0x4f, 0x74, 0x48, 0x85, 0x48, 0x7a, 0x06, 0x95, 0x4a,
  0x75, 0x00, 0x90, 0x37, 0x74, 0x0e, 0x80, 0x3a, 0x78, 0x22, 0x95, 0x49,
  0x76, 0x24, 0x85, 0x49, 0x76, 0x0c, 0x90, 0x3a, 0x75, 0x14, 0x80, 0x3e,
  0x7b, 0x4c, 0x90, 0x3e, 0x76, 0x60, 0x45, 0x75, 0x00, 0x51, 0x74, 0x2a,
  0x80, 0x37, 0x74, 0x36, 0x90, 0x37, 0x75, 0x08, 0x80, 0x45, 0x75, 0x58,
  0x90, 0x43, 0x79, 0x00, 0x4f, 0x76, 0x04, 0x80, 0x3e, 0x76, 0x32, 0x85,
  0x4a, 0x75, 0x2a, 0x95, 0x4a, 0x7b, 0x00, 0x90, 0x3e, 0x75, 0x16, 0x80,
  0x3a, 0x75, 0x0a, 0x3e, 0x75, 0x36, 0x4f, 0x76, 0x02, 0x37, 0x75, 0x06,
  0x85, 0x4a, 0x7b, 0x02, 0x95, 0x4b, 0x7b, 0x00, 0x90, 0x24, 0x7b, 0x00,
  0x30, 0x7b, 0x00, 0x3c, 0x7b, 0x00, 0x3f, 0x7b, 0x04, 0x80, 0x2b, 0x7a,
  0x0e, 0x51, 0x74, 0x02, 0x43, 0x79, 0x44, 0x3c, 0x7b, 0x08, 0x85, 0x4b,
  0x7b, 0x00, 0x95, 0x4d, 0x7a, 0x00, 0x90, 0x3c, 0x77, 0x28, 0x80, 0x3f,
  0x7b, 0x08, 0x95, 0x4b, 0x79, 0x02, 0x85, 0x4d, 0x7a, 0x2e, 0x90, 0x3f,
  0x75, 0x30, 0x85, 0x4b, 0x79, 0x00, 0x95, 0x4a, 0x78, 0x30, 0x90, 0x43,
  0x6d, 0x24, 0x85, 0x4a, 0x78, 0x0c, 0x95, 0x48, 0x78, 0x30, 0x90, 0x4a,
  0x74, 0x00, 0x56, 0x74, 0x1c, 0x80, 0x3c, 0x77, 0x44, 0x90, 0x3c, 0x77,
  0x0e, 0x80, 0x4a, 0x74, 0x52, 0x90, 0x48, 0x79, 0x00, 0x54, 0x76, 0x10,
  0x80, 0x43, 0x6d, 0x2e, 0x3f, 0x75, 0x08, 0x85, 0x48, 0x78, 0x1a, 0x95,
  0x48, 0x78, 0x00, 0x90, 0x3f, 0x79, 0x28, 0x80, 0x30, 0x7b, 0x08, 0x95,
  0x4a, 0x7a, 0x02, 0x80, 0x24, 0x7b, 0x0e, 0x85, 0x48, 0x78, 0x16, 0x80,
  0x54, 0x76, 0x0a, 0x95, 0x4b, 0x79, 0x00, 0x90, 0x24, 0x7b, 0x00, 0x30,
  0x7b, 0x00, 0x43, 0x7b, 0x0c, 0x80, 0x3c, 0x77, 0x06, 0x56, 0x74, 0x04,
  0x85, 0x4a, 0x7a, 0x40, 0x80, 0x3f, 0x79, 0x06, 0x85, 0x4b, 0x79, 0x04,
  0x95, 0x4d, 0x79, 0x00, 0x90, 0x3c, 0x72, 0x10, 0x80, 0x24, 0x7b, 0x20,
  0x95, 0x4b, 0x78, 0x00, 0x90, 0x24, 0x63, 0x14, 0x85, 0x4d, 0x79, 0x12,
  0x80, 0x43, 0x7b, 0x0a, 0x90, 0x3f, 0x76, 0x0a, 0x80, 0x24, 0x63, 0x16,
  0x85, 0x4b, 0x78, 0x10, 0x95, 0x4a, 0x78, 0x2a, 0x80, 0x3c, 0x72, 0x06,
  0x95, 0x48, 0x76, 0x00, 0x80, 0x3f, 0x76, 0x00, 0x90, 0x43, 0x75, 0x1c,
  0x85, 0x4a, 0x78, 0x34, 0x80, 0x48, 0x79, 0x08, 0x30, 0x7b, 0x02, 0x43,
  0x75, 0x06, 0x90, 0x29, 0x71, 0x00, 0x35, 0x79, 0x00, 0x45, 0x7b, 0x60,
  0x3f, 0x75, 0x60, 0x41, 0x77, 0x54, 0x80, 0x3f, 0x75, 0x00, 0x45, 0x7b,
  0x0c, 0x90, 0x48, 0x77, 0x0a, 0x80, 0x41, 0x77, 0x12, 0x48, 0x77, 0x2e,
  0x85, 0x48, 0x76, 0x16, 0x95, 0x49, 0x7a, 0x00, 0x4a, 0x7b, 0x00, 0x80,
  0x35, 0x79, 0x00, 0x90, 0x2e, 0x79, 0x00, 0x3a, 0x77, 0x00, 0x3e, 0x7a,
  0x08, 0x80, 0x29, 0x71, 0x02, 0x85, 0x49, 0x7a, 0x42, 0x4a, 0x7b, 0x14,
  0x95, 0x4a, 0x7a, 0x00, 0x90, 0x35, 0x71, 0x12, 0x80, 0x3a, 0x77, 0x4e,
  0x90, 0x3a, 0x76, 0x14, 0x80, 0x3e, 0x7a, 0x4c, 0x95, 0x48, 0x78, 0x00,
  0x90, 0x3e, 0x78, 0x0c, 0x85, 0x4a, 0x7a, 0x22, 0x48, 0x78, 0x02, 0x95,
  0x46, 0x78, 0x2a, 0x85, 0x46, 0x78, 0x06, 0x95, 0x48, 0x76, 0x00, 0x90,
  0x43, 0x78, 0x00, 0x4f, 0x74, 0x0e, 0x80, 0x35, 0x71, 0x22, 0x95, 0x4a,
  0x76, 0x10, 0x85, 0x48, 0x76, 0x20, 0x90, 0x35, 0x74, 0x0a, 0x85, 0x4a,
  0x76, 0x52, 0x80, 0x3e, 0x78, 0x04, 0x90, 0x41, 0x77, 0x00, 0x4d, 0x76,
  0x0c, 0x80, 0x35, 0x74, 0x54, 0x95, 0x4d, 0x7b, 0x00, 0x90, 0x35, 0x70,
  0x04, 0x80, 0x3a, 0x76, 0x48, 0x85, 0x4d, 0x7b, 0x0a, 0x80, 0x35, 0x70,
  0x00, 0x4d, 0x76, 0x06, 0x41, 0x77, 0x04, 0x95, 0x50, 0x7a, 0x00, 0x51,
  0x7a, 0x00, 0x90, 0x2b, 0x78, 0x00, 0x3a, 0x7a, 0x00, 0x3e, 0x7b, 0x02,
  0x80, 0x2e, 0x79, 0x0c, 0x85, 0x50, 0x7a, 0x04, 0x80, 0x4f, 0x74, 0x00,
  0x43, 0x78, 0x4e, 0x90, 0x37, 0x75, 0x10, 0x80, 0x3a, 0x7a, 0x16, 0x85,
  0x51, 0x7a, 0x0a, 0x95, 0x4f, 0x78, 0x30, 0x90, 0x3a, 0x79, 0x22, 0x80,
  0x3e, 0x7b, 0x3e, 0x90, 0x3e, 0x78, 0x60, 0x45, 0x75, 0x00, 0x51, 0x74,
  0x0a, 0x80, 0x37, 0x75, 0x56, 0x90, 0x37, 0x79, 0x06, 0x80, 0x45, 0x75,
  0x5a, 0x90, 0x43, 0x78, 0x00, 0x4f, 0x76, 0x08, 0x80, 0x37, 0x79, 0x1a,
  0x3e, 0x78, 0x2e, 0x3a, 0x79, 0x10, 0x95, 0x4e, 0x7a, 0x00, 0x90, 0x37,
  0x75, 0x08, 0x85, 0x4f, 0x78, 0x20, 0x4e, 0x7a, 0x08, 0x95, 0x4f, 0x7a,
  0x26, 0x80, 0x37, 0x75, 0x00, 0x4f, 0x76, 0x0a, 0x85, 0x4f, 0x7a, 0x00,
  0x95, 0x52, 0x7b, 0x00, 0x90, 0x30, 0x7b, 0x00, 0x3c, 0x7b, 0x00, 0x3f,
  0x7a, 0x04, 0x80, 0x2b, 0x78, 0x0e, 0x51, 0x74, 0x3e, 0x85, 0x52, 0x7b,
  0x10, 0x95, 0x52, 0x7a, 0x00, 0x90, 0x37, 0x75, 0x10, 0x80, 0x3c, 0x7b,
  0x06, 0x3f, 0x7a, 0x16, 0x85, 0x52, 0x7a, 0x04, 0x95, 0x52, 0x7a, 0x30,
  0x90, 0x3c, 0x76, 0x5a, 0x80, 0x37, 0x75, 0x06, 0x90, 0x2f, 0x7a, 0x00,
  0x37, 0x77, 0x00, 0x3f, 0x79, 0x1a, 0x80, 0x3c, 0x76, 0x12, 0x85, 0x52,
  0x7a, 0x04, 0x95, 0x51, 0x78, 0x00, 0x52, 0x77, 0x0a, 0x80, 0x30, 0x7b,
  0x02, 0x2f, 0x7a, 0x02, 0x3f, 0x79, 0x04, 0x85, 0x51, 0x78, 0x16, 0x80,
  0x37, 0x77, 0x08, 0x90, 0x2e, 0x7b, 0x00, 0x3a, 0x7b, 0x00, 0x3f, 0x7a,
  0x12, 0x80, 0x43, 0x78, 0x1e, 0x90, 0x43, 0x12, 0x2c, 0x80, 0x3a, 0x7b,
  0x02, 0x85, 0x52, 0x77, 0x02, 0x95, 0x4f, 0x7b, 0x00, 0x90, 0x37, 0x75,
  0x12, 0x80, 0x3f, 0x7a, 0x44, 0x85, 0x4f, 0x7b, 0x02, 0x80, 0x2e, 0x7b,
  0x08, 0x95, 0x4a, 0x7b, 0x00, 0x4b, 0x7b, 0x00, 0x90, 0x2d, 0x7b, 0x00,
  0x39, 0x7b, 0x00, 0x3f, 0x7b, 0x0a, 0x80, 0x43, 0x12, 0x04, 0x37, 0x75,
  0x0a, 0x85, 0x4b, 0x7b, 0x44, 0x80, 0x39, 0x7b, 0x04, 0x95, 0x48, 0x7b,
  0x00, 0x90, 0x37, 0x76, 0x20, 0x85, 0x4a, 0x7b, 0x06, 0x80, 0x3f, 0x7b,
  0x3a, 0x37, 0x76, 0x00, 0x90, 0x2c, 0x7b, 0x00, 0x3a, 0x7b, 0x00, 0x3f,
  0x7b, 0x02, 0x80, 0x2d, 0x7b, 0x5e, 0x3a, 0x7b, 0x00, 0x90, 0x38, 0x78,
  0x30, 0x80, 0x3f, 0x7b, 0x26, 0x38, 0x78, 0x08, 0x99, 0x23, 0x6f, 0x00,
  0x2d, 0x6f, 0x02, 0x90, 0x3c, 0x79, 0x00, 0x3f, 0x78, 0x0a, 0x89, 0x23,
  0x6f, 0x08, 0x2d, 0x6f, 0x1c, 0x99, 0x23, 0x71, 0x00, 0x2d, 0x71, 0x0c,
  0x89, 0x23, 0x71, 0x06, 0x2d, 0x71, 0x1e, 0x99, 0x23, 0x72, 0x00, 0x2d,
  0x72, 0x02, 0x90, 0x38, 0x74, 0x0a, 0x89, 0x23, 0x72, 0x08, 0x2d, 0x72,
  0x08, 0x80, 0x3f, 0x78, 0x14, 0x99, 0x23, 0x73, 0x00, 0x2d, 0x73, 0x14,
  0x89, 0x2d, 0x73, 0x02, 0x23, 0x73, 0x12, 0x80, 0x2c, 0x7b, 0x04, 0x38,
  0x74, 0x04, 0x99, 0x23, 0x74, 0x00, 0x2d, 0x74, 0x02, 0x80, 0x3c, 0x79,
  0x00, 0x90, 0x2b, 0x7a, 0x00, 0x3a, 0x7b, 0x00, 0x3f, 0x7b, 0x08, 0x85,
  0x48, 0x7b, 0x0a, 0x89, 0x2d, 0x74, 0x02, 0x23, 0x74, 0x1a, 0x99, 0x23,
  0x75, 0x00, 0x2d, 0x75, 0x12, 0x89, 0x2d, 0x75, 0x00, 0x23, 0x75, 0x1e,
  0x99, 0x23, 0x76, 0x00, 0x2d, 0x76, 0x02, 0x90, 0x37, 0x71, 0x02, 0x80,
  0x3a, 0x7b, 0x10, 0x89, 0x2d, 0x76, 0x00, 0x23, 0x76, 0x1c, 0x99, 0x23,
  0x77, 0x00, 0x2d, 0x77, 0x14, 0x89, 0x2d, 0x77, 0x00, 0x23, 0x77, 0x02,
  0x80, 0x37, 0x71, 0x00, 0x3f, 0x7b, 0x1a, 0x99, 0x23, 0x79, 0x00, 0x2b,
  0x79, 0x02, 0x90, 0x29, 0x7a, 0x00, 0x38, 0x7b, 0x00, 0x3f, 0x7b, 0x08,
  0x80, 0x2b, 0x7a, 0x0a, 0x89, 0x2b, 0x79, 0x00, 0x23, 0x79, 0x1c, 0x99,
  0x23, 0x7a, 0x00, 0x2b, 0x7a, 0x14, 0x89, 0x2b, 0x7a, 0x00, 0x23, 0x7a,
  0x1c, 0x99, 0x23, 0x7b, 0x00, 0x2b, 0x7b, 0x02, 0x90, 0x35, 0x75, 0x08,
  0x80, 0x38, 0x7b, 0x08, 0x89, 0x2b, 0x7b, 0x02, 0x23, 0x7b, 0x16, 0x80,
  0x3f, 0x7b, 0x06, 0x99, 0x23, 0x7b, 0x00, 0x2b, 0x7b, 0x18, 0x89, 0x2b,
  0x7b, 0x00, 0x23, 0x7b, 0x14, 0x80, 0x35, 0x75, 0x04, 0x29, 0x7a, 0x00,
  0x99, 0x23, 0x7c, 0x00, 0x31, 0x7c, 0x02, 0x95, 0x4e, 0x7b, 0x00, 0x4f,
  0x7b, 0x00, 0x90, 0x27, 0x7b, 0x00, 0x33, 0x7a, 0x00, 0x3a, 0x7b, 0x00,
  0x3f, 0x7b, 0x00, 0x43, 0x7b, 0x00, 0x92, 0x4b, 0x50, 0x00, 0x52, 0x5c,
  0x0c, 0x91, 0x27, 0x7d, 0x04, 0x85, 0x4e, 0x7b, 0x4e, 0x99, 0x33, 0x78,
  0x02, 0x90, 0x37, 0x5d, 0x10, 0x80, 0x43, 0x7b, 0x04, 0x3a, 0x7b, 0x08,
  0x3f, 0x7b, 0x10, 0x89, 0x33, 0x78, 0x32, 0x99, 0x28, 0x7c, 0x00, 0x2a,
  0x7a, 0x00, 0x33, 0x7a, 0x02, 0x90, 0x3a, 0x7b, 0x00, 0x3f, 0x7a, 0x00,
  0x43, 0x7b, 0x12, 0x80, 0x37, 0x5d, 0x1a, 0x89, 0x33, 0x7a, 0x14, 0x2a,
  0x7a, 0x00, 0x23, 0x7c, 0x02, 0x81, 0x27, 0x7d, 0x1c, 0x99, 0x23, 0x75,
  0x00, 0x33, 0x78, 0x02, 0x90, 0x37, 0x75, 0x04, 0x80, 0x43, 0x7b, 0x08,
  0x91, 0x27, 0x7d, 0x0a, 0x80, 0x3a, 0x7b, 0x02, 0x89, 0x33, 0x78, 0x04,
  0x23, 0x75, 0x02, 0x80, 0x3f, 0x7a, 0x0c, 0x81, 0x27, 0x7d, 0x34, 0x99,
  0x23, 0x7b, 0x00, 0x33, 0x7a, 0x02, 0x90, 0x3a, 0x7a, 0x00, 0x3f, 0x79,
  0x00, 0x43, 0x7b, 0x0c, 0x91, 0x27, 0x7d, 0x04, 0x80, 0x37, 0x75, 0x1c,
  0x89, 0x33, 0x7a, 0x32, 0x80, 0x43, 0x7b, 0x00, 0x99, 0x33, 0x75, 0x02,
  0x90, 0x37, 0x76, 0x10, 0x80, 0x3a, 0x7a, 0x02, 0x89, 0x33, 0x75, 0x06,
  0x28, 0x7c, 0x1e, 0x80, 0x3f, 0x79, 0x18, 0x37, 0x76, 0x06, 0x33, 0x7a,
  0x08, 0x85, 0x4f, 0x7b, 0x02, 0x99, 0x28, 0x7c, 0x00, 0x2a, 0x7b, 0x00,
  0x33, 0x7b, 0x02, 0x95, 0x4d, 0x7b, 0x00, 0x90, 0x26, 0x7a, 0x00, 0x32,
  0x7b, 0x00, 0x3a, 0x7b, 0x00, 0x3e, 0x7b, 0x00, 0x41, 0x7b, 0x00, 0x92,
  0x4a, 0x65, 0x0a, 0x80, 0x27, 0x7b, 0x02, 0x81, 0x27, 0x7d, 0x00, 0x91,
  0x22, 0x7d, 0x08, 0x82, 0x4b, 0x50, 0x18, 0x89, 0x33, 0x7b, 0x06, 0x2a,
  0x7b, 0x24, 0x80, 0x3e, 0x7b, 0x08, 0x99, 0x33, 0x76, 0x02, 0x95, 0x4f,
  0x7a, 0x00, 0x80, 0x3a, 0x7b, 0x00, 0x90, 0x35, 0x75, 0x0a, 0x85, 0x4d,
  0x7b, 0x08, 0x89, 0x23, 0x7b, 0x0e, 0x33, 0x76, 0x10, 0x95, 0x50, 0x79,
  0x08, 0x85, 0x4f, 0x7a, 0x0c, 0x80, 0x32, 0x7b, 0x0e, 0x35, 0x75, 0x0a,
  0x26, 0x7a, 0x02, 0x99, 0x23, 0x7c, 0x00, 0x33, 0x7a, 0x02, 0x95, 0x4f,
  0x7a, 0x00, 0x90, 0x24, 0x7b, 0x00, 0x30, 0x7b, 0x00, 0x3c, 0x7b, 0x00,
  0x3f, 0x7b, 0x00, 0x82, 0x4a, 0x65, 0x00, 0x92, 0x48, 0x5b, 0x00, 0x4b,
  0x50, 0x00, 0x4f, 0x45, 0x00, 0x54, 0x5b, 0x04, 0x85, 0x50, 0x79, 0x02,
  0x82, 0x52, 0x5c, 0x04, 0x80, 0x41, 0x7b, 0x02, 0x91, 0x24, 0x7d, 0x06,
  0x81, 0x22, 0x7d, 0x08, 0x89, 0x33, 0x7a, 0x26, 0x80, 0x3c, 0x7b, 0x1e,
  0x99, 0x33, 0x77, 0x02, 0x90, 0x3c, 0x74, 0x02, 0x89, 0x28, 0x7c, 0x0e,
  0x80, 0x3f, 0x7b, 0x02, 0x89, 0x33, 0x77, 0x4c, 0x99, 0x28, 0x7c, 0x00,
  0x2a, 0x7b, 0x00, 0x33, 0x7b, 0x02, 0x90, 0x3f, 0x79, 0x10, 0x80, 0x3c,
  0x74, 0x0a, 0x89, 0x23, 0x7c, 0x0a, 0x81, 0x24, 0x7d, 0x08, 0x89, 0x33,
  0x7b, 0x0a, 0x2a, 0x7b, 0x28, 0x99, 0x23, 0x79, 0x00, 0x33, 0x78, 0x02,
  0x90, 0x43, 0x75, 0x0c, 0x91, 0x24, 0x7d, 0x04, 0x89, 0x23, 0x79, 0x10,
  0x33, 0x78, 0x0c, 0x81, 0x24, 0x7d, 0x16, 0x80, 0x3f, 0x79, 0x1c, 0x89,
  0x31, 0x7c, 0x00, 0x99, 0x23, 0x7c, 0x00, 0x33, 0x7a, 0x02, 0x90, 0x3e,
  0x77, 0x00, 0x4a, 0x76, 0x00, 0x92, 0x4d, 0x64, 0x06, 0x80, 0x43, 0x75,
  0x06, 0x91, 0x24, 0x7d, 0x12, 0x89, 0x33, 0x7a, 0x40, 0x99, 0x33, 0x78,
  0x02, 0x90, 0x3f, 0x77, 0x04, 0x80, 0x3e, 0x77, 0x02, 0x89, 0x28, 0x7c,
  0x12, 0x33, 0x78, 0x0a, 0x80, 0x4a, 0x76, 0x2a, 0x82, 0x4d, 0x64, 0x0e,
  0x85, 0x4f, 0x7a, 0x04, 0x99, 0x28, 0x7c, 0x00, 0x2a, 0x7c, 0x00, 0x33,
  0x7b, 0x02, 0x90, 0x3c, 0x74, 0x00, 0x48, 0x7a, 0x00, 0x92, 0x52, 0x5f,
  0x0c, 0x91, 0x1f, 0x7d, 0x08, 0x81, 0x24, 0x7d, 0x08, 0x89, 0x33, 0x7b,
  0x04, 0x23, 0x7c, 0x1c, 0x80, 0x24, 0x7b, 0x00, 0x89, 0x2a, 0x7c, 0x16,
  0x80, 0x30, 0x7b, 0x0c, 0x99, 0x23, 0x74, 0x00, 0x33, 0x71, 0x02, 0x95,
  0x4f, 0x7b, 0x00, 0x90, 0x43, 0x72, 0x0c, 0x91, 0x1e, 0x7d, 0x04, 0x89,
  0x23, 0x74, 0x02, 0x81, 0x1f, 0x7d, 0x0e, 0x89, 0x33, 0x71, 0x28, 0x80,
  0x3f, 0x77, 0x08, 0x43, 0x72, 0x04, 0x85, 0x4f, 0x7b, 0x08, 0x82, 0x52,
  0x5f, 0x00, 0x4f, 0x45, 0x02, 0x99, 0x23, 0x7c, 0x00, 0x31, 0x7a, 0x02,
  0x95, 0x4f, 0x7b, 0x00, 0x50, 0x77, 0x00, 0x90, 0x29, 0x78, 0x00, 0x35,
  0x7b, 0x00, 0x41, 0x7a, 0x00, 0x44, 0x7b, 0x00, 0x82, 0x4b, 0x50, 0x00,
  0x92, 0x4d, 0x62, 0x00, 0x50, 0x60, 0x0c, 0x91, 0x1d, 0x7d, 0x0c, 0x81,
  0x1e, 0x7d, 0x06, 0x85, 0x4f, 0x7b, 0x0a, 0x80, 0x3c, 0x74, 0x36, 0x89,
  0x31, 0x7a, 0x00, 0x99, 0x33, 0x76, 0x02, 0x90, 0x3c, 0x78, 0x04, 0x80,
  0x44, 0x7b, 0x00, 0x89, 0x28, 0x7c, 0x08, 0x80, 0x48, 0x7a, 0x0c, 0x89,
  0x33, 0x76, 0x0e, 0x85, 0x50, 0x77, 0x0a, 0x95, 0x4f, 0x7b, 0x00, 0x80,
  0x41, 0x7a, 0x2e, 0x99, 0x28, 0x7c, 0x00, 0x2a, 0x7b, 0x00, 0x33, 0x7b,
  0x02, 0x90, 0x41, 0x7b, 0x00, 0x44, 0x79, 0x00, 0x48, 0x78, 0x00, 0x92,
  0x4c, 0x60, 0x0a, 0x80, 0x3c, 0x78, 0x08, 0x85, 0x4f, 0x7b, 0x0a, 0x82,
  0x4d, 0x62, 0x00, 0x89, 0x23, 0x7c, 0x06, 0x33, 0x7b, 0x0e, 0x95, 0x4f,
  0x7b, 0x04, 0x80, 0x35, 0x7b, 0x04, 0x89, 0x2a, 0x7b, 0x14, 0x80, 0x41,
  0x7b, 0x12, 0x99, 0x23, 0x76, 0x00, 0x31, 0x78, 0x02, 0x95, 0x4d, 0x7a,
  0x00, 0x90, 0x28, 0x79, 0x00, 0x34, 0x73, 0x00, 0x3c, 0x70, 0x00, 0x40,
  0x7a, 0x08, 0x85, 0x4f, 0x7b, 0x00, 0x81, 0x1d, 0x7d, 0x04, 0x80, 0x29,
  0x78, 0x00, 0x91, 0x28, 0x7d, 0x08, 0x89, 0x23, 0x76, 0x22, 0x80, 0x34,
  0x73, 0x02, 0x85, 0x4d, 0x7a, 0x08, 0x80, 0x40, 0x7a, 0x02, 0x44, 0x79,
  0x0c, 0x82, 0x4c, 0x60, 0x10, 0x89, 0x31, 0x7b, 0x00, 0x99, 0x23, 0x7b,
  0x00, 0x31, 0x7b, 0x02, 0x95, 0x4d, 0x7b, 0x00, 0x90, 0x27, 0x7a, 0x00,
  0x33, 0x7b, 0x00, 0x3f, 0x7b, 0x00, 0x44, 0x7b, 0x00, 0x92, 0x4b, 0x5c,
  0x06, 0x80, 0x28, 0x79, 0x06, 0x91, 0x27, 0x7d, 0x0c, 0x81, 0x28, 0x7d,
  0x2a, 0x80, 0x3c, 0x70, 0x02, 0x89, 0x28, 0x7c, 0x1a, 0x31, 0x78, 0x00,
  0x99, 0x33, 0x77, 0x02, 0x90, 0x3c, 0x5f, 0x0e, 0x80, 0x3f, 0x7b, 0x06,
  0x89, 0x33, 0x77, 0x10, 0x80, 0x44, 0x7b, 0x0a, 0x48, 0x78, 0x1a, 0x33,
  0x7b, 0x16, 0x99, 0x28, 0x7c, 0x00, 0x2a, 0x7b, 0x00, 0x33, 0x7b, 0x02,
  0x90, 0x26, 0x7a, 0x00, 0x32, 0x7b, 0x00, 0x3e, 0x7b, 0x00, 0x44, 0x7b,
  0x00, 0x48, 0x7b, 0x00, 0x92, 0x4a, 0x63, 0x00, 0x89, 0x23, 0x7b, 0x0a,
  0x80, 0x3c, 0x5f, 0x02, 0x91, 0x26, 0x7d, 0x04, 0x82, 0x4b, 0x5c, 0x06,
  0x80, 0x27, 0x7a, 0x00, 0x81, 0x27, 0x7d, 0x10, 0x89, 0x33, 0x7b, 0x12,
  0x2a, 0x7b, 0x18, 0x80, 0x32, 0x7b, 0x0e, 0x44, 0x7b, 0x00, 0x99, 0x23,
  0x75, 0x00, 0x33, 0x78, 0x02, 0x90, 0x3c, 0x6e, 0x02, 0x80, 0x48, 0x7b,
  0x0e, 0x82, 0x48, 0x5b, 0x02, 0x89, 0x23, 0x75, 0x06, 0x33, 0x78, 0x02,
  0x80, 0x3e, 0x7b, 0x0c, 0x81, 0x26, 0x7d, 0x0a, 0x95, 0x46, 0x7b, 0x0c,
  0x91, 0x24, 0x77, 0x06, 0x85, 0x4d, 0x7b, 0x0c, 0x80, 0x3c, 0x6e, 0x08,
  0x26, 0x7a, 0x06, 0x85, 0x46, 0x7b, 0x02, 0x82, 0x4a, 0x63, 0x00, 0x99,
  0x23, 0x7b, 0x00, 0x33, 0x7b, 0x02, 0x95, 0x46, 0x7b, 0x00, 0x90, 0x22,
  0x79, 0x00, 0x2e, 0x7b, 0x00, 0x3e, 0x7b, 0x00, 0x42, 0x12, 0x00, 0x46,
  0x7a, 0x00, 0x92, 0x46, 0x5c, 0x00, 0x4a, 0x56, 0x00, 0x4d, 0x4a, 0x00,
  0x52, 0x58, 0x0c, 0x91, 0x22, 0x7d, 0x04, 0x82, 0x4a, 0x56, 0x00, 0x54,
  0x5b, 0x06, 0x50, 0x60, 0x08, 0x89, 0x33, 0x7b, 0x06, 0x81, 0x24, 0x77,
  0x18, 0x80, 0x42, 0x12, 0x16, 0x85, 0x46, 0x7b, 0x0c, 0x99, 0x33, 0x77,
  0x02, 0x95, 0x4d, 0x7a, 0x00, 0x90, 0x3a, 0x6b, 0x0c, 0x89, 0x28, 0x7c,
  0x08, 0x80, 0x3e, 0x7b, 0x00, 0x89, 0x33, 0x77, 0x26, 0x85, 0x4d, 0x7a,
  0x24, 0x99, 0x28, 0x7c, 0x00, 0x2a, 0x79, 0x00, 0x33, 0x7c, 0x02, 0x95,
  0x4d, 0x7b, 0x00, 0x90, 0x3e, 0x7b, 0x00, 0x41, 0x7b, 0x0e, 0x80, 0x3a,
  0x6b, 0x0c, 0x89, 0x23, 0x7b, 0x06, 0x33, 0x7c, 0x0a, 0x2a, 0x79, 0x18,
  0x81, 0x22, 0x7d, 0x18, 0x85, 0x4d, 0x7b, 0x04, 0x99, 0x23, 0x7a, 0x00,
  0x33, 0x78, 0x02, 0x95, 0x4f, 0x7b, 0x00, 0x90, 0x3a, 0x69, 0x0c, 0x80,
  0x41, 0x7b, 0x00, 0x91, 0x22, 0x79, 0x04, 0x80, 0x46, 0x7a, 0x00, 0x89,
  0x23, 0x7a, 0x02, 0x80, 0x3e, 0x7b, 0x0a, 0x89, 0x33, 0x78, 0x1c, 0x85,
  0x4f, 0x7b, 0x02, 0x81, 0x22, 0x79, 0x24, 0x99, 0x23, 0x7c, 0x00, 0x33,
  0x7a, 0x02, 0x95, 0x4f, 0x7b, 0x00, 0x90, 0x3e, 0x7a, 0x00, 0x41, 0x7a,
  0x00, 0x46, 0x78, 0x06, 0x80, 0x3a, 0x69, 0x06, 0x91, 0x22, 0x7d, 0x04,
  0x89, 0x28, 0x7c, 0x0a, 0x33, 0x7a, 0x2c, 0x81, 0x22, 0x7d, 0x18, 0x99,
  0x28, 0x7c, 0x00, 0x33, 0x78, 0x02, 0x95, 0x50, 0x7a, 0x00, 0x90, 0x3a,
  0x75, 0x08, 0x85, 0x4f, 0x7b, 0x04, 0x91, 0x22, 0x7d, 0x04, 0x89, 0x33,
  0x78, 0x06, 0x80, 0x3e, 0x7a, 0x04, 0x89, 0x28, 0x7c, 0x02, 0x80, 0x41,
  0x7a, 0x10, 0x46, 0x78, 0x1e, 0x85, 0x50, 0x7a, 0x0e, 0x81, 0x22, 0x7d,
  0x06, 0x99, 0x28, 0x7c, 0x00, 0x2a, 0x79, 0x02, 0x95, 0x50, 0x7a, 0x00,
  0x90, 0x3e, 0x7a, 0x00, 0x41, 0x7a, 0x00, 0x46, 0x75, 0x00, 0x92, 0x50,
  0x5a, 0x0c, 0x91, 0x22, 0x7d, 0x08, 0x89, 0x23, 0x7c, 0x04, 0x28, 0x7c,
  0x0c, 0x2a, 0x79, 0x0a, 0x99, 0x2b, 0x7b, 0x04, 0x80, 0x46, 0x75, 0x0a,
  0x81, 0x22, 0x7d, 0x00, 0x91, 0x24, 0x7d, 0x12, 0x80, 0x3e, 0x7a, 0x04,
  0x41, 0x7a, 0x08, 0x89, 0x2b, 0x7b, 0x04, 0x99, 0x23, 0x7c, 0x00, 0x2d,
  0x7a, 0x02, 0x95, 0x52, 0x7a, 0x04, 0x85, 0x50, 0x7a, 0x02, 0x80, 0x22,
  0x79, 0x06, 0x81, 0x24, 0x7d, 0x00, 0x91, 0x26, 0x7d, 0x06, 0x80, 0x2e,
  0x7b, 0x0c, 0x89, 0x2d, 0x7a, 0x00, 0x23, 0x7c, 0x40, 0x99, 0x23, 0x7b,
  0x00, 0x31, 0x7c, 0x02, 0x95, 0x50, 0x77, 0x00, 0x90, 0x27, 0x79, 0x00,
  0x33, 0x7a, 0x00, 0x3f, 0x7a, 0x00, 0x43, 0x7b, 0x00, 0x92, 0x4b, 0x5a,
  0x00, 0x4f, 0x5c, 0x06, 0x85, 0x52, 0x7a, 0x00, 0x82, 0x50, 0x5a, 0x02,
  0x91, 0x27, 0x7d, 0x02, 0x81, 0x26, 0x7d, 0x08, 0x82, 0x4d, 0x4a, 0x1c,
  0x80, 0x3a, 0x75, 0x28, 0x81, 0x27, 0x7d, 0x04, 0x85, 0x50, 0x77, 0x00,
  0x80, 0x43, 0x7b, 0x04, 0x82, 0x4b, 0x5a, 0x00, 0x99, 0x33, 0x7a, 0x02,
  0x95, 0x4f, 0x76, 0x00, 0x90, 0x3a, 0x66, 0x00, 0x92, 0x4b, 0x12, 0x08,
  0x91, 0x27, 0x7d, 0x0c, 0x89, 0x33, 0x7a, 0x20, 0x81, 0x27, 0x7d, 0x2a,
  0x99, 0x28, 0x7c, 0x00, 0x2a, 0x7b, 0x00, 0x33, 0x7b, 0x02, 0x90, 0x43,
  0x75, 0x08, 0x91, 0x27, 0x7d, 0x16, 0x89, 0x33, 0x7b, 0x02, 0x23, 0x7b,
  0x10, 0x2a, 0x7b, 0x16, 0x81, 0x27, 0x7d, 0x06, 0x85, 0x4f, 0x76, 0x0e,
  0x80, 0x3f, 0x7a, 0x04, 0x99, 0x23, 0x78, 0x00, 0x33, 0x77, 0x02, 0x95,
  0x4d, 0x7b, 0x00, 0x90, 0x41, 0x72, 0x08, 0x91, 0x27, 0x7d, 0x0e, 0x80,
  0x43, 0x75, 0x04, 0x89, 0x23, 0x78, 0x04, 0x33, 0x77, 0x10, 0x80, 0x41,
  0x72, 0x02, 0x85, 0x4d, 0x7b, 0x00, 0x95, 0x4b, 0x7a, 0x00, 0x90, 0x3f,
  0x73, 0x0c, 0x80, 0x3a, 0x66, 0x02, 0x33, 0x7a, 0x10, 0x82, 0x4b, 0x12,
  0x08, 0x85, 0x4b, 0x7a, 0x00, 0x82, 0x4f, 0x5c, 0x08, 0x99, 0x23, 0x7c,
  0x00, 0x33, 0x7a, 0x02, 0x95, 0x4d, 0x77, 0x00, 0x90, 0x26, 0x77, 0x00,
  0x32, 0x77, 0x00, 0x3a, 0x7b, 0x00, 0x3e, 0x7b, 0x00, 0x41, 0x7b, 0x00,
  0x92, 0x4a, 0x62, 0x00, 0x4d, 0x49, 0x06, 0x80, 0x27, 0x79, 0x00, 0x81,
  0x27, 0x7d, 0x02, 0x91, 0x26, 0x7d, 0x04, 0x80, 0x3f, 0x73, 0x16, 0x89,
  0x33, 0x7a, 0x18, 0x81, 0x26, 0x7d, 0x02, 0x80, 0x3a, 0x7b, 0x22, 0x89,
  0x31, 0x7c, 0x00, 0x99, 0x33, 0x75, 0x02, 0x90, 0x3a, 0x5d, 0x08, 0x91,
  0x26, 0x7d, 0x08, 0x89, 0x33, 0x75, 0x02, 0x28, 0x7c, 0x06, 0x80, 0x41,
  0x7b, 0x04, 0x3e, 0x7b, 0x24, 0x81, 0x26, 0x7d, 0x1e, 0x99, 0x28, 0x7c,
  0x00, 0x2a, 0x7a, 0x00, 0x33, 0x7b, 0x02, 0x90, 0x3e, 0x75, 0x00, 0x41,
  0x75, 0x08, 0x91, 0x26, 0x7d, 0x0a, 0x89, 0x23, 0x7c, 0x12, 0x33, 0x7b,
  0x0a, 0x2a, 0x7a, 0x0c, 0x81, 0x26, 0x7d, 0x16, 0x80, 0x3e, 0x75, 0x0e,
  0x99, 0x23, 0x7a, 0x00, 0x33, 0x73, 0x02, 0x95, 0x4b, 0x7b, 0x00, 0x90,
  0x3f, 0x6b, 0x08, 0x85, 0x4d, 0x77, 0x00, 0x91, 0x26, 0x7d, 0x0e, 0x80,
  0x41, 0x75, 0x06, 0x89, 0x33, 0x73, 0x06, 0x23, 0x7a, 0x08, 0x80, 0x3a,
  0x5d, 0x06, 0x95, 0x4a, 0x74, 0x00, 0x90, 0x3e, 0x73, 0x06, 0x80, 0x3f,
  0x6b, 0x06, 0x85, 0x4b, 0x7b, 0x08, 0x80, 0x32, 0x77, 0x12, 0x82, 0x46,
  0x5c, 0x08, 0x99, 0x23, 0x7c, 0x00, 0x33, 0x7a, 0x02, 0x85, 0x4a, 0x74,
  0x00, 0x95, 0x4b, 0x77, 0x00, 0x80, 0x3e, 0x73, 0x00, 0x90, 0x24, 0x77,
  0x00, 0x30, 0x79, 0x00, 0x3c, 0x7a, 0x00, 0x3f, 0x76, 0x00, 0x92, 0x48,
  0x5b, 0x00, 0x4b, 0x53, 0x02, 0x82, 0x4a, 0x62, 0x06, 0x80, 0x26, 0x77,
  0x00, 0x81, 0x26, 0x7d, 0x00, 0x82, 0x52, 0x58, 0x04, 0x91, 0x24, 0x7d,
  0x0a, 0x82, 0x4d, 0x49, 0x0e, 0x89, 0x33, 0x7a, 0x2c, 0x81, 0x24, 0x7d,
  0x0e, 0x99, 0x33, 0x77, 0x02, 0x90, 0x37, 0x3f, 0x0c, 0x91, 0x24, 0x7d,
  0x08, 0x80, 0x3c, 0x7a, 0x02, 0x3f, 0x76, 0x02, 0x89, 0x33, 0x77, 0x02,
  0x28, 0x7c, 0x32, 0x81, 0x24, 0x7d, 0x12, 0x99, 0x28, 0x7c, 0x00, 0x2a,
  0x79, 0x00, 0x33, 0x7c, 0x02, 0x90, 0x3c, 0x75, 0x00, 0x3f, 0x75, 0x0c,
  0x91, 0x24, 0x7d, 0x04, 0x80, 0x37, 0x3f, 0x08, 0x89, 0x23, 0x7c, 0x02,
  0x33, 0x7c, 0x06, 0x2a, 0x79, 0x3e, 0x80, 0x3c, 0x75, 0x00, 0x99, 0x23,
  0x79, 0x00, 0x2a, 0x78, 0x02, 0x95, 0x46, 0x79, 0x00, 0x90, 0x37, 0x70,
  0x06, 0x81, 0x24, 0x7d, 0x06, 0x85, 0x4b, 0x77, 0x00, 0x91, 0x1f, 0x7d,
  0x04, 0x80, 0x3f, 0x75, 0x06, 0x89, 0x2a, 0x78, 0x02, 0x23, 0x79, 0x04,
  0x85, 0x46, 0x79, 0x14, 0x95, 0x46, 0x7a, 0x02, 0x89, 0x28, 0x7c, 0x28,
  0x85, 0x46, 0x7a, 0x00, 0x80, 0x37, 0x70, 0x04, 0x99, 0x23, 0x7c, 0x00,
  0x31, 0x7b, 0x02, 0x95, 0x47, 0x7a, 0x00, 0x90, 0x2c, 0x7a, 0x00, 0x3b,
  0x7a, 0x00, 0x3f, 0x75, 0x00, 0x92, 0x44, 0x43, 0x00, 0x47, 0x5c, 0x02,
  0x80, 0x30, 0x79, 0x02, 0x24, 0x77, 0x06, 0x81, 0x1f, 0x7d, 0x02, 0x91,
  0x20, 0x7d, 0x02, 0x82, 0x48, 0x5b, 0x46, 0x85, 0x47, 0x7a, 0x0c, 0x95,
  0x49, 0x77, 0x00, 0x90, 0x38, 0x6b, 0x12, 0x80, 0x3f, 0x75, 0x02, 0x3b,
  0x7a, 0x1c, 0x95, 0x47, 0x78, 0x0e, 0x85, 0x49, 0x77, 0x22, 0x95, 0x49,
  0x77, 0x00, 0x90, 0x3b, 0x79, 0x00, 0x3f, 0x75, 0x08, 0x80, 0x38, 0x6b,
  0x06, 0x85, 0x47, 0x78, 0x1c, 0x49, 0x77, 0x06, 0x95, 0x47, 0x77, 0x1e,
  0x89, 0x23, 0x7c, 0x04, 0x85, 0x47, 0x77, 0x0e, 0x95, 0x49, 0x77, 0x00,
  0x90, 0x38, 0x6d, 0x22, 0x85, 0x49, 0x77, 0x00, 0x82, 0x47, 0x5c, 0x0e,
  0x95, 0x47, 0x79, 0x02, 0x89, 0x31, 0x7b, 0x18, 0x80, 0x2c, 0x7a, 0x04,
  0x38, 0x6d, 0x04, 0x85, 0x47, 0x79, 0x08, 0x80, 0x3b, 0x79, 0x04, 0x99,
  0x23, 0x7c, 0x00, 0x31, 0x7b, 0x02, 0x95, 0x46, 0x78, 0x00, 0x90, 0x27,
  0x79, 0x00, 0x33, 0x75, 0x00, 0x92, 0x3f, 0x3f, 0x00, 0x46, 0x4d, 0x0c,
  0x91, 0x1b, 0x7d, 0x00, 0x27, 0x7d, 0x04, 0x82, 0x4b, 0x53, 0x02, 0x80,
  0x3f, 0x75, 0x04, 0x81, 0x20, 0x7d, 0x08, 0x82, 0x44, 0x43, 0x42, 0x90,
  0x3f, 0x72, 0x60, 0x43, 0x75, 0x5a, 0x80, 0x43, 0x75, 0x06, 0x90, 0x46,
  0x78, 0x4a, 0x82, 0x3f, 0x3f, 0x14, 0x80, 0x46, 0x78, 0x00, 0x82, 0x46,
  0x4d, 0x02, 0x90, 0x44, 0x79, 0x00, 0x48, 0x74, 0x00, 0x92, 0x44, 0x4c,
  0x00, 0x48, 0x3c, 0x00, 0x4b, 0x12, 0x00, 0x50, 0x33, 0x30, 0x85, 0x46,
  0x78, 0x30, 0x90, 0x4b, 0x70, 0x04, 0x80, 0x48, 0x74, 0x12, 0x44, 0x79,
  0x44, 0x82, 0x4b, 0x12, 0x04, 0x50, 0x33, 0x02, 0x90, 0x43, 0x74, 0x00,
  0x46, 0x76, 0x00, 0x92, 0x43, 0x60, 0x00, 0x46, 0x5a, 0x06, 0x82, 0x44,
  0x4c, 0x02, 0x80, 0x4b, 0x70, 0x00, 0x82, 0x48, 0x3c, 0x58, 0x90, 0x4b,
  0x74, 0x0e, 0x80, 0x43, 0x74, 0x0a, 0x46, 0x76, 0x48, 0x90, 0x42, 0x6c,
  0x00, 0x45, 0x76, 0x00, 0x92, 0x42, 0x3f, 0x00, 0x45, 0x3f, 0x0a, 0x80,
  0x4b, 0x74, 0x02, 0x82, 0x46, 0x5a, 0x0a, 0x43, 0x60, 0x48, 0x99, 0x2a,
  0x79, 0x02, 0x90, 0x4b, 0x77, 0x02, 0x80, 0x45, 0x76, 0x12, 0x42, 0x6c,
  0x00, 0x89, 0x31, 0x7b, 0x10, 0x82, 0x45, 0x3f, 0x3a, 0x99, 0x28, 0x7a,
  0x02, 0x90, 0x41, 0x77, 0x00, 0x44, 0x78, 0x00, 0x92, 0x41, 0x61, 0x00,
  0x44, 0x58, 0x04, 0x80, 0x4b, 0x77, 0x04, 0x82, 0x42, 0x3f, 0x26, 0x89,
  0x28, 0x7a, 0x00, 0x99, 0x2b, 0x77, 0x1a, 0x81, 0x27, 0x7d, 0x04, 0x1b,
  0x7d, 0x0a, 0x89, 0x23, 0x7c, 0x06, 0x2b, 0x77, 0x02, 0x99, 0x2d, 0x75,
  0x02, 0x90, 0x4b, 0x79, 0x1c, 0x80, 0x44, 0x78, 0x12, 0x82, 0x44, 0x58,
  0x0a, 0x80, 0x41, 0x77, 0x0a, 0x3f, 0x72, 0x04, 0x4b, 0x79, 0x06, 0x89,
  0x2d, 0x75, 0x0a, 0x80, 0x27, 0x79, 0x02, 0x82, 0x41, 0x61, 0x02, 0x80,
  0x33, 0x75, 0x04, 0x99, 0x23, 0x7c, 0x00, 0x31, 0x7c, 0x02, 0x90, 0x22,
  0x79, 0x00, 0x2e, 0x7b, 0x00, 0x3a, 0x77, 0x00, 0x91, 0x22, 0x7d, 0x54,
  0x89, 0x2a, 0x79, 0x0c, 0x90, 0x35, 0x73, 0x22, 0x80, 0x3a, 0x77, 0x32,
  0x89, 0x23, 0x7c, 0x08, 0x99, 0x2a, 0x7a, 0x02, 0x28, 0x7c, 0x02, 0x90,
  0x3a, 0x75, 0x2a, 0x89, 0x2a, 0x7a, 0x04, 0x81, 0x22, 0x7d, 0x2e, 0x99,
  0x23, 0x77, 0x02, 0x2a, 0x74, 0x02, 0x90, 0x3e, 0x73, 0x04, 0x91, 0x22,
  0x7a, 0x0e, 0x89, 0x23, 0x77, 0x06, 0x2a, 0x74, 0x12, 0x81, 0x22, 0x7a,
  0x34, 0x91, 0x22, 0x7c, 0x00, 0x99, 0x23, 0x7c, 0x00, 0x2a, 0x7a, 0x02,
  0x90, 0x43, 0x74, 0x00, 0x4f, 0x74, 0x1e, 0x80, 0x35, 0x73, 0x04, 0x89,
  0x2a, 0x7a, 0x3c, 0x99, 0x2a, 0x72, 0x02, 0x90, 0x35, 0x65, 0x0e, 0x89,
  0x28, 0x7c, 0x0a, 0x2a, 0x72, 0x46, 0x99, 0x28, 0x7c, 0x00, 0x2a, 0x7b,
  0x02, 0x90, 0x41, 0x75, 0x00, 0x4d, 0x76, 0x0c, 0x80, 0x35, 0x65, 0x16,
  0x3e, 0x73, 0x0c, 0x89, 0x2a, 0x7b, 0x30, 0x99, 0x2a, 0x72, 0x02, 0x90,
  0x35, 0x6b, 0x06, 0x80, 0x3a, 0x75, 0x14, 0x89, 0x2a, 0x72, 0x02, 0x23,
  0x7c, 0x0e, 0x80, 0x22, 0x79, 0x00, 0x81, 0x22, 0x7c, 0x24, 0x80, 0x41,
  0x75, 0x08, 0x4d, 0x76, 0x08, 0x91, 0x22, 0x7d, 0x00, 0x99, 0x23, 0x7b,
  0x00, 0x2a, 0x7a, 0x02, 0x90, 0x22, 0x7b, 0x00, 0x3a, 0x76, 0x00, 0x3e,
  0x7b, 0x0c, 0x80, 0x35, 0x6b, 0x06, 0x4f, 0x74, 0x04, 0x89, 0x31, 0x7c,
  0x12, 0x2a, 0x7a, 0x36, 0x99, 0x2a, 0x71, 0x02, 0x90, 0x35, 0x68, 0x10,
  0x80, 0x3e, 0x7b, 0x02, 0x3a, 0x76, 0x02, 0x89, 0x28, 0x7c, 0x08, 0x2a,
  0x71, 0x42, 0x99, 0x28, 0x7c, 0x00, 0x2a, 0x7a, 0x02, 0x90, 0x3a, 0x71,
  0x20, 0x81, 0x22, 0x7d, 0x00, 0x89, 0x23, 0x7b, 0x06, 0x2a, 0x7a, 0x38,
  0x91, 0x22, 0x7d, 0x00, 0x99, 0x23, 0x79, 0x00, 0x2a, 0x74, 0x02, 0x90,
  0x3e, 0x74, 0x08, 0x80, 0x43, 0x74, 0x10, 0x89, 0x2a, 0x74, 0x02, 0x23,
  0x79, 0x0a, 0x81, 0x22, 0x7d, 0x3a, 0x91, 0x22, 0x7d, 0x00, 0x99, 0x23,
  0x7b, 0x00, 0x2a, 0x78, 0x02, 0x90, 0x43, 0x74, 0x00, 0x4f, 0x74, 0x16,
  0x80, 0x35, 0x68, 0x0c, 0x89, 0x2a, 0x78, 0x3c, 0x99, 0x2a, 0x73, 0x02,
  0x90, 0x35, 0x6c, 0x02, 0x89, 0x28, 0x7c, 0x1a, 0x2a, 0x73, 0x02, 0x80,
  0x3e, 0x74, 0x40, 0x91, 0x1d, 0x7b, 0x00, 0x99, 0x28, 0x7c, 0x00, 0x2a,
  0x79, 0x02, 0x90, 0x41, 0x76, 0x00, 0x4d, 0x76, 0x06, 0x81, 0x22, 0x7d,
  0x0e, 0x89, 0x2a, 0x79, 0x04, 0x80, 0x35, 0x6c, 0x16, 0x99, 0x2a, 0x78,
  0x2e, 0x80, 0x3a, 0x71, 0x02, 0x89, 0x2a, 0x78, 0x00, 0x99, 0x2e, 0x78,
  0x02, 0x90, 0x35, 0x73, 0x12, 0x89, 0x23, 0x7b, 0x08, 0x80, 0x22, 0x7b,
  0x02, 0x2e, 0x7b, 0x3a, 0x4d, 0x76, 0x00, 0x41, 0x76, 0x08, 0x94, 0x3e,
  0x7a, 0x00, 0x81, 0x1d, 0x7b, 0x00, 0x91, 0x22, 0x7d, 0x00, 0x99, 0x23,
  0x7b, 0x00, 0x31, 0x7b, 0x02, 0x90, 0x22, 0x7b, 0x00, 0x2e, 0x7b, 0x00,
  0x3a, 0x7a, 0x00, 0x3e, 0x7a, 0x04, 0x89, 0x2e, 0x78, 0x02, 0x80, 0x35,
  0x73, 0x0c, 0x4f, 0x74, 0x00, 0x43, 0x74, 0x32, 0xe4, 0x00, 0x32, 0x08,
  0x00, 0x0e, 0x06, 0x80, 0x3a, 0x7a, 0x02, 0xe4, 0x00, 0x04, 0x08, 0x00,
  0x40, 0x02, 0x99, 0x2a, 0x71, 0x02, 0x90, 0x35, 0x71, 0x08, 0x89, 0x28,
  0x7c, 0x14, 0x2a, 0x71, 0x42, 0x99, 0x28, 0x7c, 0x00, 0x2a, 0x7b, 0x02,
  0x90, 0x3a, 0x73, 0x02, 0x80, 0x3e, 0x7a, 0x1a, 0x81, 0x22, 0x7d, 0x02,
  0x89, 0x23, 0x7b, 0x10, 0x2a, 0x7b, 0x30, 0x91, 0x22, 0x7a, 0x00, 0x99,
  0x23, 0x78, 0x00, 0x2a, 0x75, 0x02, 0x90, 0x3e, 0x73, 0x1a, 0x89, 0x23,
  0x78, 0x06, 0x2a, 0x75, 0x06, 0x81, 0x22, 0x7a, 0x38, 0x91, 0x22, 0x7d,
  0x00, 0x99, 0x23, 0x7b, 0x00, 0x2a, 0x73, 0x02, 0x90, 0x43, 0x75, 0x00,
  0x4f, 0x74, 0x0a, 0x80, 0x35, 0x71, 0x20, 0x89, 0x2a, 0x73, 0x04, 0x31,
  0x7b, 0x18, 0xe4, 0x00, 0x3d, 0x0c, 0x00, 0x40, 0x0c, 0x99, 0x2a, 0x72,
  0x02, 0x90, 0x35, 0x73, 0x04, 0x89, 0x28, 0x7c, 0x18, 0x2a, 0x72, 0x26,
  0xb4, 0x01, 0x14, 0x10, 0x01, 0x3c, 0x0c, 0x99, 0x28, 0x7c, 0x00, 0x2a,
  0x7b, 0x02, 0x90, 0x41, 0x78, 0x00, 0x4d, 0x76, 0x02, 0xb4, 0x01, 0x4c,
  0x06, 0x80, 0x3e, 0x73, 0x0a, 0xb4, 0x01, 0x52, 0x10, 0x01, 0x64, 0x0a,
  0x89, 0x2a, 0x7b, 0x06, 0xb4, 0x01, 0x49, 0x04, 0x80, 0x35, 0x73, 0x04,
  0xb4, 0x00, 0x28, 0x08, 0x01, 0x00, 0x1c, 0x99, 0x2a, 0x72, 0x02, 0x84,
  0x3e, 0x7a, 0x00, 0x90, 0x35, 0x72, 0x04, 0x94, 0x3a, 0x7b, 0x02, 0x80,
  0x3a, 0x73, 0x0a, 0x89, 0x23, 0x7b, 0x10, 0x2a, 0x72, 0x2a, 0x84, 0x3a,
  0x7b, 0x0c, 0x80, 0x4d, 0x76, 0x06, 0x94, 0x3c, 0x7b, 0x00, 0x80, 0x2e,
  0x7b, 0x00, 0x81, 0x22, 0x7d, 0x02, 0x91, 0x1f, 0x7d, 0x00, 0x99, 0x23,
  0x7b, 0x00, 0x2a, 0x78, 0x02, 0x90, 0x2b, 0x7a, 0x00, 0x3a, 0x78, 0x00,
  0x3e, 0x7b, 0x02, 0x80, 0x22, 0x7b, 0x02, 0x35, 0x72, 0x04, 0x41, 0x78,
  0x08, 0x43, 0x75, 0x02, 0x4f, 0x74, 0x10, 0x89, 0x2a, 0x78, 0x2e, 0x84,
  0x3c, 0x7b, 0x06, 0x94, 0x3e, 0x7b, 0x02, 0x89, 0x28, 0x7c, 0x06, 0x99,
  0x2a, 0x73, 0x02, 0x90, 0x37, 0x74, 0x0e, 0x80, 0x3a, 0x78, 0x0a, 0x89,
  0x2a, 0x73, 0x08, 0xe4, 0x00, 0x2a, 0x08, 0x00, 0x1b, 0x0a, 0x00, 0x28,
  0x08, 0x00, 0x40, 0x24, 0x99, 0x28, 0x7c, 0x00, 0x2a, 0x7b, 0x02, 0x90,
  0x3a, 0x75, 0x14, 0x80, 0x3e, 0x7b, 0x04, 0x89, 0x23, 0x7b, 0x02, 0x81,
  0x1f, 0x7d, 0x14, 0x89, 0x2a, 0x7b, 0x30, 0x91, 0x1f, 0x7b, 0x00, 0x99,
  0x23, 0x79, 0x00, 0x2a, 0x74, 0x02, 0x90, 0x3e, 0x76, 0x18, 0x89, 0x23,
  0x79, 0x08, 0x2a, 0x74, 0x04, 0xb4, 0x01, 0x0b, 0x08, 0x81, 0x1f, 0x7b,
  0x08, 0xb4, 0x01, 0x1c, 0x10, 0x01, 0x29, 0x10, 0x01, 0x35, 0x0a, 0x91,
  0x1f, 0x7c, 0x00, 0x99, 0x23, 0x7b, 0x00, 0x2a, 0x79, 0x02, 0x90, 0x45,
  0x75, 0x00, 0x51, 0x74, 0x04, 0xb4, 0x01, 0x4b, 0x12, 0x01, 0x4d, 0x06,
  0x89, 0x2a, 0x79, 0x0e, 0x80, 0x37, 0x74, 0x0c, 0xb4, 0x01, 0x56, 0x10,
  0x01, 0x60, 0x18, 0x99, 0x2a, 0x74, 0x02, 0x90, 0x37, 0x75, 0x08, 0xb4,
  0x01, 0x65, 0x00, 0x80, 0x45, 0x75, 0x04, 0x89, 0x28, 0x7c, 0x04, 0x2a,
  0x74, 0x0a, 0xb4, 0x01, 0x61, 0x10, 0x01, 0x3d, 0x10, 0x01, 0x00, 0x04,
  0x84, 0x3e, 0x7b, 0x20, 0x99, 0x28, 0x7c, 0x00, 0x2a, 0x7b, 0x02, 0x90,
  0x43, 0x79, 0x00, 0x4f, 0x76, 0x04, 0x80, 0x3e, 0x76, 0x22, 0x89, 0x2a,
  0x7b, 0x38, 0x99, 0x2a, 0x74, 0x02, 0x90, 0x3e, 0x75, 0x02, 0x94, 0x3e,
  0x7a, 0x10, 0x89, 0x23, 0x7b, 0x04, 0x80, 0x3a, 0x75, 0x08, 0x89, 0x2a,
  0x74, 0x02, 0x80, 0x3e, 0x75, 0x36, 0x84, 0x3e, 0x7a, 0x00, 0x80, 0x4f,
  0x76, 0x02, 0x37, 0x75, 0x06, 0x91, 0x24, 0x7c, 0x00, 0x99, 0x23, 0x7c,
  0x00, 0x2a, 0x78, 0x02, 0x94, 0x3f, 0x7a, 0x00, 0x90, 0x24, 0x7b, 0x00,
  0x30, 0x7b, 0x00, 0x3c, 0x7b, 0x00, 0x3f, 0x7b, 0x04, 0x80, 0x2b, 0x7a,
  0x04, 0x81, 0x1f, 0x7c, 0x0a, 0x80, 0x51, 0x74, 0x02, 0x43, 0x79, 0x10,
  0x89, 0x2a, 0x78, 0x34, 0x80, 0x3c, 0x7b, 0x02, 0x84, 0x3f, 0x7a, 0x04,
  0x99, 0x2a, 0x74, 0x02, 0x90, 0x3c, 0x77, 0x02, 0x94, 0x41, 0x7a, 0x02,
  0x89, 0x28, 0x7c, 0x14, 0x2a, 0x74, 0x10, 0x80, 0x3f, 0x7b, 0x08, 0x94,
  0x3f, 0x7b, 0x16, 0x84, 0x41, 0x7a, 0x18, 0x99, 0x28, 0x7c, 0x00, 0x2a,
  0x7b, 0x02, 0x90, 0x3f, 0x75, 0x14, 0x81, 0x24, 0x7c, 0x10, 0x89, 0x23,
  0x7c, 0x08, 0x2a, 0x7b, 0x04, 0x84, 0x3f, 0x7b, 0x00, 0x94, 0x3e, 0x7a,
  0x2e, 0x91, 0x24, 0x7a, 0x00, 0x99, 0x23, 0x78, 0x00, 0x2a, 0x75, 0x02,
  0x90, 0x43, 0x6d, 0x06, 0x84, 0x3e, 0x7a, 0x02, 0x94, 0x3c, 0x7a, 0x16,
  0x89, 0x2a, 0x75, 0x00, 0x23, 0x78, 0x06, 0x81, 0x24, 0x7a, 0x3a, 0x91,
  0x24, 0x7d, 0x00, 0x99, 0x23, 0x7b, 0x00, 0x2a, 0x78, 0x02, 0x90, 0x4a,
  0x74, 0x00, 0x56, 0x74, 0x1c, 0x80, 0x3c, 0x77, 0x02, 0x89, 0x2a, 0x78,
  0x18, 0xb4, 0x01, 0x01, 0x10, 0x01, 0x21, 0x10, 0x01, 0x33, 0x08, 0x99,
  0x2a, 0x71, 0x02, 0x90, 0x3c, 0x77, 0x08, 0xb4, 0x01, 0x4c, 0x06, 0x80,
  0x4a, 0x74, 0x00, 0x89, 0x28, 0x7c, 0x0a, 0xb4, 0x01, 0x67, 0x00, 0x89,
  0x2a, 0x71, 0x10, 0xb4, 0x01, 0x79, 0x10, 0x01, 0x6b, 0x10, 0x01, 0x41,
  0x02, 0x84, 0x3c, 0x7a, 0x0e, 0xb4, 0x01, 0x00, 0x06, 0x99, 0x28, 0x7c,
  0x00, 0x2a, 0x7a, 0x02, 0x90, 0x48, 0x79, 0x00, 0x54, 0x76, 0x10, 0x80,
  0x43, 0x6d, 0x18, 0x89, 0x2a, 0x7a, 0x16, 0x80, 0x3f, 0x75, 0x1c, 0x94,
  0x3c, 0x7a, 0x02, 0x81, 0x24, 0x7d, 0x02, 0x91, 0x1f, 0x7b, 0x00, 0x99,
  0x2a, 0x76, 0x02, 0x90, 0x3f, 0x79, 0x18, 0x89, 0x23, 0x7b, 0x02, 0x2a,
  0x76, 0x0e, 0x80, 0x30, 0x7b, 0x04, 0x94, 0x3e, 0x7a, 0x06, 0x80, 0x24,
  0x7b, 0x06, 0x84, 0x3c, 0x7a, 0x1e, 0x80, 0x54, 0x76, 0x08, 0x84, 0x3e,
  0x7a, 0x00, 0x91, 0x24, 0x7d, 0x00, 0x99, 0x23, 0x7b, 0x00, 0x2a, 0x78,
  0x02, 0x90, 0x24, 0x7b, 0x00, 0x30, 0x7b, 0x00, 0x43, 0x7b, 0x02, 0x94,
  0x3f, 0x7a, 0x06, 0x81, 0x1f, 0x7b, 0x04, 0x80, 0x3c, 0x77, 0x06, 0x56,
  0x74, 0x12, 0x89, 0x2a, 0x78, 0x2c, 0x84, 0x3f, 0x7a, 0x06, 0x80, 0x3f,
  0x79, 0x02, 0x94, 0x41, 0x7a, 0x06, 0x99, 0x2a, 0x71, 0x02, 0x90, 0x3c,
  0x72, 0x00, 0x89, 0x28, 0x7c, 0x10, 0x80, 0x24, 0x7b, 0x02, 0x89, 0x2a,
  0x71, 0x1e, 0x90, 0x24, 0x63, 0x04, 0x94, 0x3f, 0x7a, 0x0a, 0x84, 0x41,
  0x7a, 0x18, 0x80, 0x43, 0x7b, 0x08, 0x99, 0x28, 0x7c, 0x00, 0x2a, 0x7a,
  0x02, 0x90, 0x3f, 0x76, 0x0a, 0x80, 0x24, 0x63, 0x12, 0x89, 0x23, 0x7b,
  0x02, 0x94, 0x3e, 0x7a, 0x00, 0x89, 0x2a, 0x7a, 0x04, 0x84, 0x3f, 0x7a,
  0x2c, 0x3e, 0x7a, 0x02, 0xe4, 0x00, 0x3e, 0x08, 0x00, 0x32, 0x00, 0x81,
  0x24, 0x7d, 0x02, 0x80, 0x3c, 0x72, 0x04, 0x91, 0x1f, 0x7b, 0x00, 0x99,
  0x23, 0x79, 0x00, 0x2e, 0x78, 0x02, 0xe4, 0x00, 0x29, 0x00, 0x80, 0x3f,
  0x76, 0x00, 0x90, 0x43, 0x75, 0x02, 0x94, 0x3e, 0x7a, 0x06, 0xe4, 0x00,
  0x1c, 0x0a, 0x00, 0x1d, 0x08, 0x00, 0x40, 0x02, 0x89, 0x23, 0x79, 0x12,
  0x91, 0x1e, 0x78, 0x06, 0x81, 0x1f, 0x7b, 0x1c, 0x80, 0x48, 0x79, 0x08,
  0x30, 0x7b, 0x00, 0x89, 0x2e, 0x78, 0x02, 0x84, 0x3e, 0x7a, 0x00, 0x94,
  0x3c, 0x7a, 0x00, 0x80, 0x43, 0x75, 0x04, 0x91, 0x1d, 0x7d, 0x00, 0x99,
  0x23, 0x7b, 0x00, 0x2a, 0x79, 0x02, 0x90, 0x29, 0x71, 0x00, 0x35, 0x79,
  0x00, 0x45, 0x7b, 0x0a, 0x81, 0x1e, 0x78, 0x02, 0x89, 0x28, 0x7c, 0x10,
  0x2a, 0x79, 0x42, 0x99, 0x28, 0x7c, 0x02, 0x90, 0x3f, 0x75, 0x26, 0x89,
  0x28, 0x7c, 0x36, 0x81, 0x1d, 0x7d, 0x02, 0x91, 0x1d, 0x7d, 0x00, 0x99,
  0x2a, 0x74, 0x00, 0x2b, 0x7c, 0x02, 0x90, 0x41, 0x77, 0x24, 0x89, 0x23,
  0x7b, 0x02, 0x2b, 0x7c, 0x08, 0x2a, 0x74, 0x00, 0x99, 0x2d, 0x7a, 0x26,
  0x80, 0x3f, 0x75, 0x00, 0x45, 0x7b, 0x0a, 0x99, 0x23, 0x7b, 0x02, 0x90,
  0x48, 0x77, 0x0a, 0x80, 0x41, 0x77, 0x0a, 0x89, 0x2d, 0x7a, 0x08, 0x80,
  0x48, 0x77, 0x18, 0x89, 0x23, 0x7b, 0x24, 0x84, 0x3c, 0x7a, 0x06, 0x81,
  0x1d, 0x7d, 0x00, 0x91, 0x22, 0x7d, 0x00, 0x99, 0x23, 0x7b, 0x00, 0x31,
  0x7a, 0x02, 0x80, 0x35, 0x79, 0x00, 0x90, 0x2e, 0x79, 0x00, 0x3a, 0x77,
  0x00, 0x3e, 0x7a, 0x02, 0x94, 0x3e, 0x7a, 0x06, 0x80, 0x29, 0x71, 0x44,
  0xe4, 0x00, 0x35, 0x08, 0x00, 0x27, 0x08, 0x00, 0x24, 0x02, 0x99, 0x2a,
  0x6f, 0x02, 0x90, 0x35, 0x71, 0x04, 0xe4, 0x00, 0x40, 0x0e, 0x80, 0x3a,
  0x77, 0x1c, 0x89, 0x2a, 0x6f, 0x30, 0x99, 0x28, 0x7b, 0x00, 0x2a, 0x7a,
  0x02, 0x90, 0x3a, 0x76, 0x14, 0x80, 0x3e, 0x7a, 0x02, 0x89, 0x23, 0x7b,
  0x10, 0x2a, 0x7a, 0x0a, 0x81, 0x22, 0x7d, 0x2e, 0x91, 0x22, 0x79, 0x00,
  0x99, 0x23, 0x79, 0x00, 0x2a, 0x71, 0x02, 0x94, 0x3c, 0x7a, 0x00, 0x90,
  0x3e, 0x78, 0x08, 0x84, 0x3e, 0x7a, 0x12, 0x89, 0x2a, 0x71, 0x08, 0x23,
  0x79, 0x0c, 0x84, 0x3c, 0x7a, 0x00, 0x94, 0x3a, 0x7a, 0x18, 0x81, 0x22,
  0x79, 0x0c, 0x84, 0x3a, 0x7a, 0x0a, 0x94, 0x3c, 0x7a, 0x02, 0x91, 0x22,
  0x7d, 0x00, 0x99, 0x23, 0x7c, 0x00, 0x2a, 0x78, 0x02, 0x90, 0x43, 0x78,
  0x00, 0x4f, 0x74, 0x0e, 0x80, 0x35, 0x71, 0x14, 0x89, 0x2a, 0x78, 0x10,
  0x84, 0x3c, 0x7a, 0x02, 0x94, 0x3e, 0x7a, 0x22, 0x84, 0x3e, 0x7a, 0x08,
  0x99, 0x2a, 0x73, 0x02, 0x90, 0x35, 0x74, 0x0e, 0x89, 0x28, 0x7b, 0x10,
  0x2a, 0x73, 0x3e, 0x80, 0x3e, 0x78, 0x02, 0x99, 0x28, 0x7c, 0x00, 0x2a,
  0x7b, 0x02, 0x90, 0x41, 0x77, 0x00, 0x4d, 0x76, 0x0c, 0x80, 0x35, 0x74,
  0x1a, 0x89, 0x2a, 0x7b, 0x08, 0x31, 0x7a, 0x2e, 0x94, 0x41, 0x7a, 0x02,
  0x99, 0x2a, 0x74, 0x02, 0x90, 0x35, 0x70, 0x04, 0x80, 0x3a, 0x76, 0x16,
  0x89, 0x2a, 0x74, 0x00, 0x23, 0x7c, 0x02, 0x84, 0x41, 0x7a, 0x38, 0x81,
  0x22, 0x7d, 0x02, 0x80, 0x35, 0x70, 0x00, 0x4d, 0x76, 0x06, 0x94, 0x43,
  0x7a, 0x00, 0x80, 0x41, 0x77, 0x02, 0x91, 0x1f, 0x7d, 0x00, 0x99, 0x23,
  0x7c, 0x00, 0x2a, 0x79, 0x02, 0x90, 0x2b, 0x78, 0x00, 0x3a, 0x7a, 0x00,
  0x3e, 0x7b, 0x02, 0x80, 0x2e, 0x79, 0x0c, 0xe4, 0x2a, 0x55, 0x04, 0x80,
  0x4f, 0x74, 0x00, 0x43, 0x78, 0x04, 0xe4, 0x5a, 0x6d, 0x00, 0x90, 0x3c,
  0x6d, 0x02, 0x80, 0x3c, 0x6d, 0x06, 0xe4, 0x7e, 0x7f, 0x06, 0x89, 0x2a,
  0x79, 0x3a, 0x99, 0x2a, 0x74, 0x02, 0x90, 0x37, 0x75, 0x08, 0x89, 0x28,
  0x7c, 0x08, 0x80, 0x3a, 0x7a, 0x0c, 0x89, 0x2a, 0x74, 0x02, 0xe4, 0x72,
  0x79, 0x08, 0x46, 0x63, 0x08, 0x00, 0x40, 0x14, 0x84, 0x43, 0x7a, 0x00,
  0x94, 0x41, 0x7a, 0x14, 0x43, 0x7a, 0x02, 0x81, 0x1f, 0x7d, 0x06, 0x84,
  0x41, 0x7a, 0x00, 0x91, 0x22, 0x7c, 0x00, 0x99, 0x28, 0x7c, 0x00, 0x2a,
  0x7a, 0x02, 0x90, 0x3a, 0x79, 0x18, 0x89, 0x23, 0x7c, 0x0a, 0x80, 0x3e,
  0x7b, 0x04, 0x89, 0x2a, 0x7a, 0x38, 0x91, 0x26, 0x7a, 0x00, 0x99, 0x23,
  0x76, 0x00, 0x2a, 0x73, 0x02, 0x90, 0x3e, 0x78, 0x04, 0x81, 0x22, 0x7c,
  0x1c, 0x89, 0x2a, 0x73, 0x02, 0x23, 0x76, 0x3c, 0x91, 0x2b, 0x7d, 0x00,
  0x99, 0x23, 0x7c, 0x00, 0x2a, 0x79, 0x02, 0x90, 0x45, 0x75, 0x00, 0x51,
  0x74, 0x02, 0x81, 0x26, 0x7a, 0x06, 0xb4, 0x01, 0x09, 0x02, 0x80, 0x37,
  0x75, 0x0e, 0xb4, 0x01, 0x1b, 0x0a, 0x89, 0x2a, 0x79, 0x06, 0xb4, 0x01,
  0x33, 0x10, 0x01, 0x4a, 0x10, 0x01, 0x50, 0x10, 0x01, 0x5b, 0x06, 0x99,
  0x2a, 0x71, 0x02, 0x90, 0x37, 0x79, 0x06, 0x80, 0x45, 0x75, 0x02, 0xb4,
  0x01, 0x73, 0x0e, 0x89, 0x28, 0x7c, 0x02, 0xb4, 0x01, 0x7e, 0x00, 0x89,
  0x2a, 0x71, 0x10, 0xb4, 0x01, 0x74, 0x10, 0x01, 0x4e, 0x10, 0x01, 0x00,
  0x02, 0x84, 0x43, 0x7a, 0x14, 0x99, 0x28, 0x7c, 0x00, 0x2a, 0x7a, 0x02,
  0x90, 0x43, 0x78, 0x00, 0x4f, 0x76, 0x08, 0x80, 0x37, 0x79, 0x1a, 0x3e,
  0x78, 0x04, 0x89, 0x2a, 0x7a, 0x10, 0x23, 0x7c, 0x1a, 0x80, 0x3a, 0x79,
  0x02, 0x94, 0x41, 0x7a, 0x0a, 0x81, 0x2b, 0x7d, 0x02, 0x91, 0x26, 0x7d,
  0x00, 0x99, 0x23, 0x78, 0x00, 0x2b, 0x79, 0x02, 0x90, 0x37, 0x75, 0x1c,
  0x89, 0x2b, 0x79, 0x04, 0x23, 0x78, 0x04, 0x94, 0x43, 0x7a, 0x10, 0x84,
  0x41, 0x7a, 0x22, 0x80, 0x37, 0x75, 0x00, 0x4f, 0x76, 0x04, 0x84, 0x43,
  0x7a, 0x04, 0x91, 0x24, 0x7c, 0x00, 0x99, 0x23, 0x7b, 0x00, 0x31, 0x7b,
  0x02, 0x90, 0x30, 0x7b, 0x00, 0x3c, 0x7b, 0x00, 0x3f, 0x7a, 0x04, 0x80,
  0x2b, 0x78, 0x06, 0x94, 0x46, 0x7a, 0x08, 0x80, 0x51, 0x74, 0x00, 0x81,
  0x26, 0x7d, 0x46, 0x84, 0x46, 0x7a, 0x06, 0x99, 0x2e, 0x78, 0x02, 0x90,
  0x37, 0x75, 0x0a, 0x89, 0x28, 0x7c, 0x06, 0x80, 0x3c, 0x7b, 0x02, 0x94,
  0x46, 0x7a, 0x04, 0x80, 0x3f, 0x7a, 0x2a, 0x84, 0x46, 0x7a, 0x1e, 0x89,
  0x2e, 0x79, 0x00, 0x99, 0x28, 0x7c, 0x00, 0x2e, 0x79, 0x02, 0x90, 0x3c,
  0x76, 0x0a, 0x94, 0x46, 0x7a, 0x0e, 0x89, 0x23, 0x7b, 0x20, 0x84, 0x46,
  0x7a, 0x12, 0x94, 0x46, 0x7a, 0x10, 0x80, 0x37, 0x75, 0x04, 0x91, 0x23,
  0x7d, 0x00, 0x89, 0x31, 0x7c, 0x00, 0x2e, 0x78, 0x00, 0x99, 0x23, 0x7b,
  0x00, 0x31, 0x7c, 0x02, 0x90, 0x2f, 0x7a, 0x00, 0x37, 0x77, 0x00, 0x3f,
  0x79, 0x00, 0x81, 0x24, 0x7c, 0x1a, 0x80, 0x3c, 0x76, 0x02, 0x84, 0x46,
  0x7a, 0x06, 0x89, 0x23, 0x7b, 0x16, 0x94, 0x46, 0x7a, 0x02, 0x80, 0x30,
  0x7b, 0x02, 0x2f, 0x7a, 0x02, 0x3f, 0x79, 0x02, 0xe4, 0x00, 0x33, 0x08,
  0x00, 0x2b, 0x0c, 0x00, 0x2d, 0x04, 0x80, 0x37, 0x77, 0x02, 0x81, 0x23,
  0x7d, 0x02, 0xe4, 0x74, 0x42, 0x02, 0x91, 0x22, 0x7d, 0x00, 0x89, 0x31,
  0x7c, 0x00, 0x99, 0x23, 0x7c, 0x00, 0x31, 0x7c, 0x02, 0x90, 0x2e, 0x7b,
  0x00, 0x3a, 0x7b, 0x00, 0x3f, 0x7a, 0x12, 0x80, 0x43, 0x78, 0x1e, 0x90,
  0x43, 0x12, 0x22, 0x89, 0x23, 0x7c, 0x0a, 0x80, 0x3a, 0x7b, 0x02, 0x99,
  0x2e, 0x77, 0x02, 0x90, 0x37, 0x75, 0x12, 0x80, 0x3f, 0x7a, 0x0c, 0x94,
  0x43, 0x7a, 0x08, 0x89, 0x28, 0x7c, 0x04, 0x84, 0x46, 0x7a, 0x04, 0x99,
  0x23, 0x78, 0x2a, 0x80, 0x2e, 0x7b, 0x06, 0x84, 0x43, 0x7a, 0x00, 0x91,
  0x21, 0x7d, 0x00, 0x89, 0x31, 0x7c, 0x00, 0x2e, 0x77, 0x00, 0x31, 0x7b,
  0x00, 0x99, 0x28, 0x7c, 0x00, 0x31, 0x7c, 0x02, 0x90, 0x2d, 0x7b, 0x00,
  0x39, 0x7b, 0x00, 0x3f, 0x7b, 0x02, 0x94, 0x3e, 0x7a, 0x00, 0x81, 0x22,
  0x7d, 0x08, 0x80, 0x43, 0x12, 0x04, 0x37, 0x75, 0x22, 0xe4, 0x73, 0x62,
  0x1e, 0x89, 0x23, 0x78, 0x0e, 0x80, 0x39, 0x7b, 0x02, 0x99, 0x23, 0x7b,
  0x00, 0x2e, 0x77, 0x02, 0xe4, 0x68, 0x45, 0x00, 0x90, 0x37, 0x76, 0x26,
  0xe4, 0x3a, 0x43, 0x00, 0x80, 0x3f, 0x7b, 0x08, 0x89, 0x23, 0x7b, 0x02,
  0xe4, 0x74, 0x42, 0x02, 0x94, 0x3c, 0x7a, 0x0c, 0x84, 0x3e, 0x7a, 0x1c,
  0x81, 0x21, 0x7d, 0x04, 0x91, 0x20, 0x7d, 0x00, 0x89, 0x2e, 0x77, 0x00,
  0x99, 0x23, 0x7c, 0x00, 0x31, 0x7c, 0x02, 0x80, 0x37, 0x76, 0x00, 0x90,
  0x2c, 0x7b, 0x00, 0x3a, 0x7b, 0x00, 0x3f, 0x7b, 0x02, 0x80, 0x2d, 0x7b,
  0x5c, 0x99, 0x2e, 0x79, 0x02, 0x80, 0x3a, 0x7b, 0x00, 0x90, 0x38, 0x78,
  0x1c, 0x89, 0x23, 0x7c, 0x14, 0x80, 0x3f, 0x7b, 0x04, 0x89, 0x28, 0x7c,
  0x22, 0x80, 0x38, 0x78, 0x08, 0x89, 0x2e, 0x78, 0x00, 0x99, 0x28, 0x7c,
  0x00, 0x2e, 0x78, 0x02, 0x90, 0x3c, 0x79, 0x00, 0x3f, 0x78, 0x5e, 0x89,
  0x2e, 0x78, 0x00, 0x2e, 0x79, 0x00, 0x99, 0x23, 0x7c, 0x00, 0x2e, 0x78,
  0x02, 0x90, 0x38, 0x74, 0x04, 0xb4, 0x01, 0x0c, 0x08, 0x89, 0x28, 0x7c,
  0x08, 0xb4, 0x01, 0x26, 0x06, 0x80, 0x3f, 0x78, 0x0a, 0xb4, 0x01, 0x37,
  0x10, 0x01, 0x47, 0x10, 0x01, 0x53, 0x10, 0x01, 0x61, 0x02, 0x80, 0x2c,
  0x7b, 0x04, 0x38, 0x74, 0x04, 0x91, 0x1f, 0x7c, 0x00, 0x89, 0x2e, 0x7b,
  0x00, 0x31, 0x7c, 0x00, 0x99, 0x28, 0x7c, 0x00, 0x2e, 0x7b, 0x02, 0x80,
  0x3c, 0x79, 0x00, 0x90, 0x2b, 0x7a, 0x00, 0x3a, 0x7b, 0x00, 0x3f, 0x7b,
  0x04, 0xb4, 0x01, 0x6d, 0x00, 0x89, 0x23, 0x7c, 0x04, 0x81, 0x20, 0x7d,
  0x0c, 0xb4, 0x01, 0x77, 0x10, 0x01, 0x7f, 0x3a, 0x99, 0x23, 0x7c, 0x02,
  0x90, 0x37, 0x71, 0x02, 0x84, 0x3c, 0x7a, 0x00, 0x80, 0x3a, 0x7b, 0x08,
  0xb4, 0x01, 0x7e, 0x02, 0x89, 0x28, 0x7c, 0x0e, 0xb4, 0x01, 0x44, 0x10,
  0x01, 0x00, 0x1a, 0x80, 0x37, 0x71, 0x00, 0x3f, 0x7b, 0x14, 0x81, 0x1f,
  0x7c, 0x00, 0x89, 0x23, 0x7c, 0x06, 0x91, 0x22, 0x79, 0x00, 0x99, 0x28,
  0x7c, 0x00, 0x2a, 0x78, 0x02, 0x90, 0x29, 0x7a, 0x00, 0x38, 0x7b, 0x00,
  0x3f, 0x7b, 0x08, 0x80, 0x2b, 0x7a, 0x14, 0x89, 0x28, 0x7c, 0x12, 0x2a,
  0x78, 0x00, 0x99, 0x2b, 0x7b, 0x20, 0x89, 0x2b, 0x7b, 0x10, 0x99, 0x23,
  0x7b, 0x00, 0x2d, 0x7c, 0x02, 0x90, 0x35, 0x75, 0x08, 0x80, 0x38, 0x7b,
  0x1e, 0x89, 0x23, 0x7b, 0x02, 0x80, 0x3f, 0x7b, 0x06, 0x89, 0x2d, 0x7c,
  0x2c, 0x80, 0x35, 0x75, 0x04, 0x29, 0x7a, 0x00, 0x91, 0x27, 0x7d, 0x00,
  0x99, 0x23, 0x7c, 0x00, 0x31, 0x7b, 0x02, 0x90, 0x27, 0x7b, 0x00, 0x33,
  0x7a, 0x00, 0x3a, 0x7b, 0x00, 0x3f, 0x7b, 0x00, 0x43, 0x7b, 0x00, 0x92,
  0x46, 0x61, 0x00, 0x4b, 0x56, 0x02, 0x94, 0x43, 0x7b, 0x02, 0x81, 0x22,
  0x79, 0x4c, 0xe4, 0x00, 0x31, 0x08, 0x74, 0x22, 0x06, 0x89, 0x31, 0x7b,
  0x00, 0x99, 0x33, 0x78, 0x02, 0x90, 0x37, 0x5d, 0x06, 0xe4, 0x22, 0x27,
  0x08, 0x4c, 0x29, 0x02, 0x80, 0x43, 0x7b, 0x04, 0x3a, 0x7b, 0x02, 0xe4,
  0x74, 0x42, 0x06, 0x80, 0x3f, 0x7b, 0x10, 0x89, 0x33, 0x78, 0x1c, 0x81,
  0x27, 0x7d, 0x16, 0x91, 0x27, 0x7b, 0x00, 0x99, 0x28, 0x7c, 0x00, 0x2a,
  0x7a, 0x00, 0x33, 0x7a, 0x02, 0x90, 0x3a, 0x7b, 0x00, 0x3f, 0x7a, 0x00,
  0x43, 0x7b, 0x12, 0x80, 0x37, 0x5d, 0x1a, 0x81, 0x27, 0x7b, 0x00, 0x89,
  0x33, 0x7a, 0x14, 0x2a, 0x7a, 0x00, 0x23, 0x7c, 0x1e, 0x91, 0x27, 0x7b,
  0x00, 0x99, 0x23, 0x75, 0x00, 0x33, 0x78, 0x02, 0x90, 0x37, 0x75, 0x04,
  0x80, 0x43, 0x7b, 0x12, 0xb4, 0x01, 0x0c, 0x00, 0x80, 0x3a, 0x7b, 0x02,
  0x89, 0x33, 0x78, 0x04, 0x23, 0x75, 0x02, 0x80, 0x3f, 0x7a, 0x08, 0xb4,
  0x01, 0x20, 0x06, 0x81, 0x27, 0x7b, 0x0a, 0xb4, 0x01, 0x2d, 0x10, 0x01,
  0x35, 0x10, 0x01, 0x41, 0x08, 0x91, 0x27, 0x7c, 0x00, 0x99, 0x23, 0x7b,
  0x00, 0x33, 0x7a, 0x02, 0x90, 0x3a, 0x7a, 0x00, 0x3f, 0x79, 0x00, 0x43,
  0x7b, 0x06, 0xb4, 0x01, 0x4d, 0x0a, 0x80, 0x37, 0x75, 0x06, 0xb4, 0x01,
  0x58, 0x10, 0x01, 0x60, 0x06, 0x89, 0x33, 0x7a, 0x04, 0x81, 0x27, 0x7c,
  0x06, 0xb4, 0x01, 0x65, 0x10, 0x01, 0x65, 0x18, 0x80, 0x43, 0x7b, 0x00,
  0x91, 0x27, 0x7b, 0x00, 0x99, 0x33, 0x75, 0x02, 0x90, 0x37, 0x76, 0x0e,
  0xb4, 0x01, 0x67, 0x02, 0x80, 0x3a, 0x7a, 0x02, 0x89, 0x33, 0x75, 0x06,
  0x28, 0x7c, 0x0a, 0xb4, 0x01, 0x65, 0x10, 0x01, 0x5e, 0x04, 0x80, 0x3f,
  0x79, 0x0c, 0xb4, 0x01, 0x56, 0x0c, 0x80, 0x37, 0x76, 0x02, 0x81, 0x27,
  0x7b, 0x02, 0xb4, 0x01, 0x41, 0x02, 0x80, 0x33, 0x7a, 0x0a, 0x84, 0x43,
  0x7b, 0x00, 0x91, 0x26, 0x7c, 0x00, 0x99, 0x28, 0x7c, 0x00, 0x2a, 0x7b,
  0x00, 0x33, 0x7b, 0x02, 0x90, 0x26, 0x7a, 0x00, 0x32, 0x7b, 0x00, 0x3a,
  0x7b, 0x00, 0x3e, 0x7b, 0x00, 0x41, 0x7b, 0x00, 0x82, 0x46, 0x61, 0x00,
  0x92, 0x4a, 0x64, 0x00, 0x4d, 0x66, 0x02, 0x94, 0x41, 0x7b, 0x00, 0xb4,
  0x01, 0x00, 0x02, 0x82, 0x4b, 0x56, 0x06, 0x80, 0x27, 0x7b, 0x22, 0x89,
  0x33, 0x7b, 0x06, 0x2a, 0x7b, 0x10, 0x81, 0x26, 0x7c, 0x14, 0x80, 0x3e,
  0x7b, 0x08, 0x91, 0x26, 0x7b, 0x00, 0x99, 0x33, 0x76, 0x02, 0x80, 0x3a,
  0x7b, 0x00, 0x90, 0x35, 0x75, 0x02, 0x94, 0x43, 0x7b, 0x08, 0x84, 0x41,
  0x7b, 0x08, 0x89, 0x23, 0x7b, 0x0e, 0x33, 0x76, 0x04, 0xe4, 0x12, 0x49,
  0x08, 0x20, 0x50, 0x08, 0x2a, 0x55, 0x08, 0x38, 0x5c, 0x08, 0x46, 0x63,
  0x00, 0x80, 0x32, 0x7b, 0x08, 0xe4, 0x52, 0x69, 0x00, 0x81, 0x26, 0x7b,
  0x06, 0x80, 0x35, 0x75, 0x02, 0xe4, 0x50, 0x68, 0x08, 0x26, 0x53, 0x00,
  0x80, 0x26, 0x7a, 0x02, 0x91, 0x24, 0x7b, 0x00, 0x99, 0x23, 0x7c, 0x00,
  0x33, 0x7a, 0x02, 0x90, 0x24, 0x7b, 0x00, 0x30, 0x7b, 0x00, 0x3c, 0x7b,
  0x00, 0x3f, 0x7b, 0x00, 0x92, 0x48, 0x62, 0x00, 0x4b, 0x5c, 0x04, 0xe4,
  0x00, 0x40, 0x06, 0x80, 0x41, 0x7b, 0x00, 0x82, 0x4d, 0x66, 0x02, 0x4a,
  0x64, 0x0e, 0x89, 0x33, 0x7a, 0x1a, 0x81, 0x24, 0x7b, 0x0c, 0x80, 0x3c,
  0x7b, 0x1e, 0x91, 0x24, 0x7a, 0x00, 0x99, 0x33, 0x77, 0x02, 0x90, 0x3c,
  0x74, 0x02, 0x89, 0x28, 0x7c, 0x0e, 0x80, 0x3f, 0x7b, 0x02, 0x89, 0x33,
  0x77, 0x12, 0x81, 0x24, 0x7a, 0x3a, 0x91, 0x24, 0x7b, 0x00, 0x99, 0x28,
  0x7c, 0x00, 0x2a, 0x7b, 0x00, 0x33, 0x7b, 0x02, 0x90, 0x3f, 0x79, 0x00,
  0x92, 0x4f, 0x62, 0x10, 0x80, 0x3c, 0x74, 0x04, 0xb4, 0x01, 0x01, 0x06,
  0x89, 0x23, 0x7c, 0x0c, 0xb4, 0x01, 0x07, 0x06, 0x89, 0x33, 0x7b, 0x0a,
  0xb4, 0x01, 0x0f, 0x00, 0x89, 0x2a, 0x7b, 0x12, 0xb4, 0x01, 0x16, 0x0a,
  0x81, 0x24, 0x7b, 0x08, 0xb4, 0x01, 0x1c, 0x04, 0x91, 0x1f, 0x7d, 0x00,
  0x99, 0x23, 0x79, 0x00, 0x33, 0x78, 0x02, 0x90, 0x43, 0x75, 0x0c, 0xb4,
  0x01, 0x24, 0x04, 0x89, 0x23, 0x79, 0x0c, 0xb4, 0x01, 0x2e, 0x04, 0x89,
  0x33, 0x78, 0x0c, 0xb4, 0x01, 0x3c, 0x10, 0x01, 0x41, 0x02, 0x81, 0x1f,
  0x7d, 0x04, 0x80, 0x3f, 0x79, 0x0a, 0xb4, 0x01, 0x44, 0x10, 0x01, 0x4e,
  0x02, 0x91, 0x24, 0x7b, 0x00, 0x99, 0x23, 0x7c, 0x00, 0x33, 0x7a, 0x02,
  0x90, 0x3e, 0x77, 0x00, 0x4a, 0x76, 0x00, 0x92, 0x45, 0x5c, 0x00, 0x47,
  0x4d, 0x00, 0x4a, 0x5f, 0x06, 0x80, 0x43, 0x75, 0x00, 0x82, 0x48, 0x62,
  0x02, 0x4b, 0x5c, 0x04, 0xb4, 0x01, 0x5e, 0x00, 0x82, 0x45, 0x5c, 0x10,
  0xb4, 0x01, 0x6d, 0x02, 0x89, 0x33, 0x7a, 0x0e, 0xb4, 0x01, 0x72, 0x18,
  0x01, 0x6c, 0x06, 0x81, 0x24, 0x7b, 0x0a, 0xb4, 0x01, 0x5e, 0x0a, 0x91,
  0x24, 0x79, 0x00, 0x99, 0x33, 0x78, 0x02, 0x90, 0x3f, 0x77, 0x04, 0xb4,
  0x01, 0x53, 0x00, 0x80, 0x3e, 0x77, 0x02, 0x89, 0x28, 0x7c, 0x10, 0xb4,
  0x01, 0x33, 0x02, 0x89, 0x33, 0x78, 0x0a, 0x80, 0x4a, 0x76, 0x04, 0xb4,
  0x01, 0x00, 0x18, 0x84, 0x43, 0x7b, 0x02, 0x81, 0x24, 0x79, 0x0e, 0x82,
  0x47, 0x4d, 0x04, 0x4a, 0x5f, 0x0c, 0x91, 0x24, 0x7b, 0x00, 0x99, 0x28,
  0x7c, 0x00, 0x2a, 0x7c, 0x00, 0x33, 0x7b, 0x02, 0x90, 0x3c, 0x74, 0x00,
  0x48, 0x7a, 0x00, 0x92, 0x48, 0x63, 0x00, 0x4b, 0x5c, 0x18, 0x81, 0x24,
  0x7b, 0x04, 0x89, 0x33, 0x7b, 0x04, 0x23, 0x7c, 0x0e, 0x91, 0x24, 0x7a,
  0x0e, 0x80, 0x24, 0x7b, 0x00, 0x89, 0x2a, 0x7c, 0x16, 0x80, 0x30, 0x7b,
  0x08, 0x94, 0x43, 0x70, 0x02, 0x81, 0x24, 0x7a, 0x02, 0x91, 0x1f, 0x7a,
  0x00, 0x99, 0x23, 0x74, 0x00, 0x33, 0x71, 0x02, 0x90, 0x43, 0x72, 0x10,
  0x89, 0x23, 0x74, 0x02, 0x94, 0x48, 0x75, 0x0e, 0x84, 0x43, 0x70, 0x00,
  0x89, 0x33, 0x71, 0x0a, 0x94, 0x4b, 0x7b, 0x04, 0x91, 0x1e, 0x7d, 0x02,
  0x81, 0x1f, 0x7a, 0x04, 0x84, 0x48, 0x75, 0x0e, 0x94, 0x4f, 0x7b, 0x06,
  0x80, 0x3f, 0x77, 0x04, 0x84, 0x4b, 0x7b, 0x04, 0x80, 0x43, 0x72, 0x0c,
  0x81, 0x1e, 0x7d, 0x02, 0x91, 0x1d, 0x7b, 0x00, 0x99, 0x23, 0x7c, 0x00,
  0x33, 0x7a, 0x02, 0x90, 0x29, 0x78, 0x00, 0x35, 0x7b, 0x00, 0x41, 0x7a,
  0x00, 0x44, 0x7b, 0x00, 0x92, 0x44, 0x63, 0x00, 0x4d, 0x62, 0x0a, 0x82,
  0x4f, 0x62, 0x02, 0x4b, 0x5c, 0x08, 0x48, 0x63, 0x02, 0xe4, 0x0e, 0x47,
  0x08, 0x50, 0x53, 0x02, 0x89, 0x33, 0x7a, 0x06, 0xe4, 0x73, 0x56, 0x02,
  0x80, 0x3c, 0x74, 0x08, 0xe4, 0x16, 0x5a, 0x08, 0x32, 0x59, 0x08, 0x33,
  0x5a, 0x08, 0x0b, 0x5d, 0x08, 0x81, 0x1d, 0x7b, 0x0e, 0x91, 0x1d, 0x7a,
  0x00, 0x99, 0x33, 0x76, 0x02, 0x90, 0x3c, 0x78, 0x04, 0x80, 0x44, 0x7b,
  0x00, 0x89, 0x28, 0x7c, 0x08, 0x80, 0x48, 0x7a, 0x0c, 0x89, 0x33, 0x76,
  0x18, 0xe4, 0x28, 0x54, 0x00, 0x80, 0x41, 0x7a, 0x04, 0x81, 0x1d, 0x7a,
  0x04, 0xe4, 0x00, 0x40, 0x26, 0x91, 0x1d, 0x78, 0x00, 0x99, 0x28, 0x7c,
  0x00, 0x2a, 0x7b, 0x00, 0x33, 0x7b, 0x02, 0x90, 0x41, 0x7b, 0x00, 0x44,
  0x79, 0x00, 0x48, 0x78, 0x0a, 0x80, 0x3c, 0x78, 0x06, 0x84, 0x4f, 0x7b,
  0x0c, 0x89, 0x23, 0x7c, 0x06, 0x33, 0x7b, 0x02, 0x94, 0x4f, 0x7b, 0x10,
  0x80, 0x35, 0x7b, 0x04, 0x89, 0x2a, 0x7b, 0x14, 0x80, 0x41, 0x7b, 0x02,
  0x81, 0x1d, 0x78, 0x10, 0x94, 0x4d, 0x7b, 0x00, 0x91, 0x29, 0x7d, 0x00,
  0x99, 0x23, 0x76, 0x00, 0x33, 0x78, 0x02, 0x90, 0x28, 0x79, 0x00, 0x34,
  0x73, 0x00, 0x3c, 0x70, 0x00, 0x40, 0x7a, 0x02, 0x84, 0x4f, 0x7b, 0x0a,
  0x80, 0x29, 0x78, 0x08, 0x89, 0x23, 0x76, 0x06, 0x33, 0x78, 0x0c, 0x81,
  0x29, 0x7d, 0x06, 0x84, 0x4d, 0x7b, 0x02, 0x91, 0x28, 0x7d, 0x08, 0x80,
  0x34, 0x73, 0x0a, 0x94, 0x4d, 0x7b, 0x00, 0x80, 0x40, 0x7a, 0x02, 0x44,
  0x79, 0x1c, 0x91, 0x27, 0x7d, 0x00, 0x99, 0x23, 0x7b, 0x00, 0x33, 0x7b,
  0x02, 0x90, 0x27, 0x7a, 0x00, 0x33, 0x7b, 0x00, 0x3f, 0x7b, 0x00, 0x44,
  0x7b, 0x00, 0x82, 0x44, 0x63, 0x00, 0x92, 0x43, 0x68, 0x04, 0x81, 0x28,
  0x7d, 0x02, 0x80, 0x28, 0x79, 0x1e, 0x89, 0x33, 0x7b, 0x1e, 0x80, 0x3c,
  0x70, 0x02, 0x89, 0x28, 0x7c, 0x08, 0x81, 0x27, 0x7d, 0x04, 0xb4, 0x01,
  0x21, 0x0e, 0x91, 0x27, 0x78, 0x00, 0x99, 0x33, 0x77, 0x02, 0xb4, 0x01,
  0x3b, 0x00, 0x90, 0x3c, 0x5f, 0x0e, 0x80, 0x3f, 0x7b, 0x02, 0xb4, 0x01,
  0x4a, 0x04, 0x89, 0x33, 0x77, 0x0c, 0xb4, 0x01, 0x55, 0x04, 0x80, 0x44,
  0x7b, 0x0a, 0x48, 0x78, 0x02, 0xb4, 0x01, 0x63, 0x10, 0x01, 0x70, 0x08,
  0x80, 0x33, 0x7b, 0x08, 0xb4, 0x01, 0x78, 0x0e, 0x91, 0x26, 0x7d, 0x00,
  0x99, 0x28, 0x7c, 0x00, 0x2a, 0x7b, 0x00, 0x33, 0x7b, 0x02, 0x90, 0x26,
  0x7a, 0x00, 0x32, 0x7b, 0x00, 0x3e, 0x7b, 0x00, 0x44, 0x7b, 0x00, 0x48,
  0x7b, 0x00, 0x81, 0x27, 0x78, 0x00, 0x92, 0x44, 0x64, 0x00, 0x89, 0x23,
  0x7b, 0x08, 0x82, 0x43, 0x68, 0x02, 0x80, 0x3c, 0x5f, 0x04, 0xb4, 0x01,
  0x7e, 0x08, 0x80, 0x27, 0x7a, 0x0a, 0xb4, 0x01, 0x7d, 0x06, 0x89, 0x33,
  0x7b, 0x0a, 0xb4, 0x01, 0x60, 0x08, 0x89, 0x2a, 0x7b, 0x08, 0xb4, 0x01,
  0x32, 0x02, 0x81, 0x26, 0x7d, 0x0e, 0xb4, 0x01, 0x00, 0x00, 0x80, 0x32,
  0x7b, 0x0c, 0x84, 0x4d, 0x7b, 0x02, 0x80, 0x44, 0x7b, 0x00, 0x91, 0x26,
  0x7d, 0x00, 0x99, 0x23, 0x75, 0x00, 0x33, 0x78, 0x02, 0x90, 0x3c, 0x6e,
  0x02, 0x80, 0x48, 0x7b, 0x10, 0x89, 0x23, 0x75, 0x06, 0x33, 0x78, 0x02,
  0x80, 0x3e, 0x7b, 0x0a, 0x94, 0x46, 0x7b, 0x0a, 0x91, 0x24, 0x79, 0x0a,
  0x81, 0x26, 0x7d, 0x16, 0x80, 0x3c, 0x6e, 0x04, 0x84, 0x46, 0x7b, 0x04,
  0x80, 0x26, 0x7a, 0x08, 0x81, 0x24, 0x79, 0x00, 0x91, 0x22, 0x7d, 0x00,
  0x99, 0x23, 0x7b, 0x00, 0x33, 0x7b, 0x02, 0x90, 0x22, 0x79, 0x00, 0x2e,
  0x7b, 0x00, 0x3e, 0x7b, 0x00, 0x42, 0x12, 0x00, 0x46, 0x7a, 0x00, 0x92,
  0x46, 0x5f, 0x00, 0x4a, 0x60, 0x04, 0x82, 0x44, 0x64, 0x04, 0x94, 0x46,
  0x7b, 0x00, 0x82, 0x4d, 0x62, 0x16, 0x89, 0x33, 0x7b, 0x1e, 0x80, 0x42,
  0x12, 0x14, 0x81, 0x22, 0x7d, 0x06, 0x84, 0x46, 0x7b, 0x08, 0x91, 0x22,
  0x79, 0x00, 0x99, 0x33, 0x77, 0x02, 0x94, 0x4d, 0x7b, 0x00, 0x90, 0x3a,
  0x6b, 0x0c, 0x89, 0x28, 0x7c, 0x08, 0x80, 0x3e, 0x7b, 0x00, 0x89, 0x33,
  0x77, 0x1a, 0x81, 0x22, 0x79, 0x1c, 0x84, 0x4d, 0x7b, 0x14, 0x91, 0x22,
  0x7a, 0x00, 0x99, 0x28, 0x7c, 0x00, 0x2a, 0x79, 0x00, 0x33, 0x7c, 0x02,
  0x90, 0x3e, 0x7b, 0x00, 0x41, 0x7b, 0x02, 0x94, 0x4d, 0x7b, 0x0c, 0x80,
  0x3a, 0x6b, 0x0c, 0x89, 0x23, 0x7b, 0x06, 0x33, 0x7c, 0x0a, 0x2a, 0x79,
  0x0a, 0x81, 0x22, 0x7a, 0x26, 0x84, 0x4d, 0x7b, 0x04, 0x91, 0x22, 0x7b,
  0x00, 0x99, 0x23, 0x7a, 0x00, 0x33, 0x78, 0x02, 0x90, 0x3a, 0x69, 0x04,
  0x94, 0x4f, 0x7b, 0x08, 0x80, 0x41, 0x7b, 0x04, 0x46, 0x7a, 0x00, 0x89,
  0x23, 0x7a, 0x02, 0x80, 0x3e, 0x7b, 0x0a, 0x89, 0x33, 0x78, 0x12, 0x81,
  0x22, 0x7b, 0x24, 0x84, 0x4f, 0x7b, 0x0c, 0x91, 0x22, 0x7d, 0x00, 0x99,
  0x23, 0x7c, 0x00, 0x33, 0x7a, 0x02, 0x90, 0x3e, 0x7a, 0x00, 0x41, 0x7a,
  0x00, 0x46, 0x78, 0x00, 0x92, 0x48, 0x64, 0x00, 0x4b, 0x60, 0x06, 0x80,
  0x3a, 0x69, 0x02, 0x94, 0x4f, 0x7b, 0x08, 0x89, 0x28, 0x7c, 0x02, 0x82,
  0x46, 0x5f, 0x02, 0x4a, 0x60, 0x06, 0x89, 0x33, 0x7a, 0x20, 0x81, 0x22,
  0x7d, 0x22, 0x84, 0x4f, 0x7b, 0x02, 0x91, 0x22, 0x7d, 0x00, 0x99, 0x28,
  0x7c, 0x00, 0x33, 0x78, 0x02, 0x90, 0x3a, 0x75, 0x06, 0x94, 0x50, 0x7b,
  0x0a, 0x89, 0x33, 0x78, 0x06, 0x80, 0x3e, 0x7a, 0x04, 0x89, 0x28, 0x7c,
  0x02, 0x80, 0x41, 0x7a, 0x10, 0x46, 0x78, 0x08, 0x81, 0x22, 0x7d, 0x1a,
  0x84, 0x50, 0x7b, 0x10, 0x91, 0x22, 0x7b, 0x00, 0x82, 0x48, 0x64, 0x00,
  0x99, 0x28, 0x7c, 0x00, 0x2a, 0x79, 0x02, 0x90, 0x3e, 0x7a, 0x00, 0x41,
  0x7a, 0x00, 0x46, 0x75, 0x00, 0x92, 0x4a, 0x5f, 0x00, 0x4d, 0x60, 0x04,
  0x82, 0x4b, 0x60, 0x02, 0x94, 0x50, 0x7b, 0x0e, 0x89, 0x23, 0x7c, 0x04,
  0x28, 0x7c, 0x0c, 0x2a, 0x79, 0x08, 0x81, 0x22, 0x7b, 0x02, 0x91, 0x24,
  0x7c, 0x00, 0x99, 0x2b, 0x7b, 0x04, 0x80, 0x46, 0x75, 0x1c, 0x3e, 0x7a,
  0x04, 0x41, 0x7a, 0x04, 0xe4, 0x06, 0x43, 0x04, 0x89, 0x2b, 0x7b, 0x04,
  0xe4, 0x28, 0x54, 0x00, 0x91, 0x26, 0x7d, 0x00, 0x99, 0x23, 0x7c, 0x00,
  0x2d, 0x7a, 0x04, 0x81, 0x24, 0x7c, 0x04, 0xe4, 0x52, 0x69, 0x00, 0x80,
  0x22, 0x79, 0x08, 0xe4, 0x7e, 0x7f, 0x04, 0x80, 0x2e, 0x7b, 0x0c, 0x89,
  0x2d, 0x7a, 0x00, 0x23, 0x7c, 0x24, 0xe4, 0x78, 0x7c, 0x08, 0x6e, 0x77,
  0x00, 0x81, 0x26, 0x7d, 0x08, 0xe4, 0x62, 0x71, 0x08, 0x3e, 0x5f, 0x04,
  0x80, 0x3a, 0x75, 0x00, 0x91, 0x27, 0x7a, 0x00, 0x99, 0x23, 0x7b, 0x00,
  0x31, 0x7a, 0x02, 0x90, 0x27, 0x7a, 0x00, 0x33, 0x7b, 0x00, 0x3a, 0x7b,
  0x00, 0x3f, 0x7a, 0x00, 0x43, 0x7a, 0x00, 0x92, 0x4b, 0x62, 0x00, 0x4f,
  0x66, 0x02, 0xe4, 0x00, 0x40, 0x00, 0x82, 0x4a, 0x5f, 0x06, 0x4d, 0x60,
  0x26, 0x80, 0x3a, 0x7b, 0x28, 0x94, 0x4f, 0x7b, 0x00, 0x89, 0x31, 0x7a,
  0x06, 0x84, 0x50, 0x7b, 0x02, 0x99, 0x33, 0x78, 0x28, 0x80, 0x33, 0x7b,
  0x04, 0xb4, 0x01, 0x02, 0x08, 0x89, 0x33, 0x78, 0x08, 0xb4, 0x01, 0x11,
  0x10, 0x01, 0x18, 0x08, 0x80, 0x43, 0x7a, 0x08, 0xb4, 0x01, 0x1f, 0x00,
  0x98, 0x43, 0x7a, 0x04, 0x82, 0x4b, 0x62, 0x00, 0x99, 0x28, 0x7c, 0x00,
  0x2a, 0x7a, 0x00, 0x33, 0x7a, 0x02, 0x90, 0x33, 0x7b, 0x00, 0x3a, 0x7a,
  0x00, 0x43, 0x7a, 0x00, 0x92, 0x46, 0x57, 0x00, 0x4b, 0x4a, 0x0c, 0xb4,
  0x01, 0x2d, 0x10, 0x01, 0x3e, 0x0c, 0x89, 0x33, 0x7a, 0x02, 0x81, 0x27,
  0x7a, 0x02, 0xb4, 0x01, 0x56, 0x10, 0x01, 0x62, 0x00, 0x89, 0x23, 0x7b,
  0x12, 0xb4, 0x01, 0x6a, 0x0a, 0x98, 0x41, 0x7c, 0x02, 0x9b, 0x43, 0x75,
  0x04, 0xb4, 0x01, 0x78, 0x00, 0x91, 0x27, 0x78, 0x00, 0x88, 0x43, 0x7a,
  0x00, 0x99, 0x23, 0x76, 0x00, 0x33, 0x78, 0x02, 0x80, 0x3f, 0x7a, 0x00,
  0x90, 0x41, 0x7a, 0x06, 0x89, 0x2a, 0x7a, 0x02, 0x80, 0x43, 0x7a, 0x06,
  0xb4, 0x01, 0x7f, 0x08, 0x89, 0x23, 0x76, 0x08, 0x33, 0x78, 0x0c, 0x88,
  0x41, 0x7c, 0x02, 0x98, 0x3f, 0x7c, 0x04, 0x90, 0x3f, 0x70, 0x04, 0x80,
  0x41, 0x7a, 0x16, 0x27, 0x7a, 0x08, 0x3a, 0x7a, 0x00, 0x82, 0x4b, 0x4a,
  0x02, 0x88, 0x3f, 0x7c, 0x04, 0x81, 0x27, 0x78, 0x00, 0x9b, 0x41, 0x77,
  0x02, 0x80, 0x3f, 0x70, 0x00, 0x98, 0x46, 0x7c, 0x04, 0x80, 0x33, 0x7b,
  0x00, 0x91, 0x26, 0x7b, 0x00, 0x8b, 0x43, 0x75, 0x00, 0x99, 0x23, 0x7b,
  0x00, 0x33, 0x7b, 0x02, 0x90, 0x26, 0x7b, 0x00, 0x3a, 0x66, 0x00, 0x3e,
  0x7b, 0x00, 0x41, 0x7b, 0x00, 0x46, 0x7a, 0x00, 0x92, 0x4d, 0x59, 0x0c,
  0x82, 0x4f, 0x66, 0x0a, 0x89, 0x33, 0x7b, 0x14, 0x8b, 0x41, 0x77, 0x02,
  0x9b, 0x3f, 0x77, 0x1c, 0x84, 0x4f, 0x7b, 0x0c, 0x8b, 0x3f, 0x77, 0x06,
  0x9b, 0x46, 0x77, 0x04, 0x99, 0x33, 0x77, 0x02, 0x89, 0x28, 0x7c, 0x0c,
  0x33, 0x77, 0x02, 0xb8, 0x01, 0x0e, 0x10, 0x01, 0x34, 0x10, 0x01, 0x54,
  0x10, 0x01, 0x5f, 0x10, 0x01, 0x65, 0x10, 0x99, 0x28, 0x7c, 0x00, 0x2a,
  0x7b, 0x00, 0x33, 0x7b, 0x02, 0x90, 0x32, 0x7a, 0x00, 0x92, 0x41, 0x52,
  0x00, 0x4a, 0x59, 0x00, 0xb8, 0x01, 0x72, 0x0e, 0xbb, 0x01, 0x0e, 0x02,
  0xb8, 0x01, 0x7f, 0x04, 0x82, 0x4d, 0x59, 0x00, 0x46, 0x57, 0x00, 0x89,
  0x23, 0x7b, 0x06, 0x33, 0x7b, 0x04, 0xbb, 0x01, 0x34, 0x02, 0x81, 0x26,
  0x7b, 0x0e, 0xb8, 0x01, 0x6f, 0x00, 0xbb, 0x01, 0x54, 0x04, 0x80, 0x3e,
  0x7b, 0x02, 0x89, 0x2a, 0x7b, 0x0a, 0xb8, 0x01, 0x4b, 0x00, 0xbb, 0x01,
  0x5f, 0x02, 0x80, 0x3a, 0x66, 0x0a, 0x41, 0x7b, 0x04, 0xb8, 0x01, 0x00,
  0x00, 0xbb, 0x01, 0x65, 0x06, 0xb4, 0x01, 0x77, 0x04, 0x80, 0x46, 0x7a,
  0x06, 0x91, 0x26, 0x7c, 0x00, 0x88, 0x46, 0x7c, 0x00, 0x98, 0x43, 0x7c,
  0x00, 0x99, 0x23, 0x72, 0x00, 0x33, 0x76, 0x02, 0x90, 0x43, 0x7a, 0x00,
  0xbb, 0x01, 0x72, 0x10, 0x01, 0x7f, 0x0c, 0x89, 0x33, 0x76, 0x04, 0x23,
  0x72, 0x0e, 0xbb, 0x01, 0x6f, 0x0c, 0x80, 0x26, 0x7b, 0x04, 0xbb, 0x01,
  0x4b, 0x10, 0x01, 0x00, 0x02, 0x80, 0x43, 0x7a, 0x08, 0x82, 0x4a, 0x59,
  0x04, 0x88, 0x43, 0x7c, 0x02, 0x81, 0x26, 0x7c, 0x00, 0x91, 0x24, 0x7a,
  0x00, 0x82, 0x41, 0x52, 0x00, 0x98, 0x48, 0x7c, 0x00, 0x8b, 0x46, 0x77,
  0x00, 0x9b, 0x43, 0x77, 0x00, 0x99, 0x23, 0x7c, 0x00, 0x33, 0x7b, 0x02,
  0x90, 0x24, 0x7b, 0x00, 0x3c, 0x7a, 0x00, 0x3f, 0x7a, 0x00, 0x43, 0x7b,
  0x00, 0x48, 0x7a, 0x00, 0x92, 0x43, 0x59, 0x00, 0x4b, 0x4d, 0x06, 0x80,
  0x32, 0x7a, 0x12, 0x89, 0x33, 0x7b, 0x38, 0xb4, 0x01, 0x7b, 0x0c, 0x8b,
  0x43, 0x77, 0x02, 0x9b, 0x48, 0x77, 0x00, 0x99, 0x33, 0x72, 0x06, 0x89,
  0x28, 0x7c, 0x0e, 0xb8, 0x01, 0x05, 0x04, 0x89, 0x33, 0x72, 0x0c, 0xb8,
  0x01, 0x0e, 0x10, 0x01, 0x17, 0x10, 0x01, 0x1f, 0x10, 0x01, 0x29, 0x0c,
  0x99, 0x28, 0x7c, 0x00, 0x2a, 0x7a, 0x00, 0x33, 0x7b, 0x02, 0x90, 0x30,
  0x79, 0x00, 0x92, 0x48, 0x4d, 0x00, 0x4f, 0x5c, 0x02, 0xb8, 0x01, 0x33,
  0x08, 0x82, 0x4b, 0x4d, 0x02, 0xb4, 0x01, 0x7d, 0x00, 0x82, 0x43, 0x59,
  0x06, 0xb8, 0x01, 0x3c, 0x00, 0xbb, 0x01, 0x05, 0x0a, 0x89, 0x33, 0x7b,
  0x04, 0x23, 0x7c, 0x02, 0xb8, 0x01, 0x48, 0x00, 0xbb, 0x01, 0x0e, 0x0c,
  0xb4, 0x01, 0x7f, 0x04, 0xb8, 0x01, 0x56, 0x00, 0xbb, 0x01, 0x17, 0x02,
  0x81, 0x24, 0x7a, 0x02, 0x89, 0x2a, 0x7a, 0x0c, 0xb8, 0x01, 0x64, 0x00,
  0xbb, 0x01, 0x1f, 0x10, 0x01, 0x29, 0x02, 0xb8, 0x01, 0x62, 0x0a, 0x91,
  0x24, 0x77, 0x00, 0x99, 0x23, 0x72, 0x00, 0x33, 0x73, 0x04, 0xbb, 0x01,
  0x33, 0x02, 0xb8, 0x01, 0x42, 0x0e, 0xbb, 0x01, 0x3c, 0x02, 0xb4, 0x01,
  0x7c, 0x00, 0xb8, 0x01, 0x00, 0x04, 0x89, 0x33, 0x73, 0x02, 0x23, 0x72,
  0x08, 0x81, 0x24, 0x77, 0x00, 0xbb, 0x01, 0x48, 0x04, 0xb4, 0x01, 0x78,
  0x0c, 0xbb, 0x01, 0x56, 0x06, 0xb4, 0x01, 0x6b, 0x00, 0x80, 0x3c, 0x7a,
  0x02, 0x88, 0x48, 0x7c, 0x04, 0x80, 0x48, 0x7a, 0x02, 0x24, 0x7b, 0x02,
  0x3f, 0x7a, 0x00, 0xbb, 0x01, 0x64, 0x02, 0x80, 0x43, 0x7b, 0x04, 0xb4,
  0x01, 0x42, 0x0c, 0xbb, 0x01, 0x62, 0x04, 0xb4, 0x01, 0x00, 0x02, 0x98,
  0x48, 0x7c, 0x04, 0x91, 0x24, 0x7a, 0x00, 0x99, 0x23, 0x7c, 0x00, 0x33,
  0x7a, 0x02, 0x90, 0x24, 0x7b, 0x00, 0x3c, 0x7b, 0x00, 0x3f, 0x7b, 0x00,
  0x43, 0x7b, 0x00, 0x48, 0x7b, 0x00, 0x92, 0x4b, 0x56, 0x00, 0x54, 0x4e,
  0x04, 0x82, 0x4f, 0x5c, 0x00, 0xbb, 0x01, 0x42, 0x08, 0x82, 0x48, 0x4d,
  0x08, 0xbb, 0x01, 0x00, 0x06, 0x89, 0x33, 0x7a, 0x20, 0x8b, 0x48, 0x77,
  0x06, 0x80, 0x3c, 0x7b, 0x08, 0x89, 0x28, 0x7c, 0x10, 0x80, 0x3f, 0x7b,
  0x02, 0x9b, 0x48, 0x77, 0x04, 0x99, 0x33, 0x73, 0x02, 0x90, 0x3e, 0x7a,
  0x00, 0x98, 0x4a, 0x7c, 0x0c, 0x88, 0x48, 0x7c, 0x06, 0x89, 0x33, 0x73,
  0x02, 0x80, 0x43, 0x7b, 0x1a, 0x3e, 0x7a, 0x00, 0x98, 0x4b, 0x7c, 0x02,
  0x90, 0x3f, 0x77, 0x00, 0x88, 0x4a, 0x7c, 0x08, 0x80, 0x30, 0x79, 0x08,
  0x48, 0x7b, 0x1c, 0x82, 0x54, 0x4e, 0x02, 0x81, 0x24, 0x7a, 0x00, 0x91,
  0x1f, 0x7a, 0x00, 0x99, 0x28, 0x7b, 0x00, 0x2a, 0x7c, 0x00, 0x33, 0x7a,
  0x02, 0x90, 0x30, 0x79, 0x00, 0x3c, 0x7b, 0x00, 0x43, 0x7b, 0x00, 0x48,
  0x7a, 0x00, 0x92, 0x4f, 0x54, 0x00, 0x9b, 0x4a, 0x77, 0x0a, 0x98, 0x48,
  0x7c, 0x02, 0x8b, 0x48, 0x77, 0x02, 0x88, 0x4b, 0x7c, 0x08, 0x89, 0x23,
  0x7c, 0x0e, 0x33, 0x7a, 0x0a, 0x9b, 0x4b, 0x77, 0x02, 0x8b, 0x4a, 0x77,
  0x08, 0x80, 0x3c, 0x7b, 0x0a, 0x89, 0x2a, 0x7c, 0x0c, 0x80, 0x3f, 0x77,
  0x10, 0x91, 0x1e, 0x78, 0x00, 0x99, 0x23, 0x76, 0x00, 0x33, 0x79, 0x02,
  0x90, 0x3e, 0x77, 0x02, 0x81, 0x1f, 0x7a, 0x00, 0x98, 0x4a, 0x7c, 0x08,
  0x80, 0x43, 0x7b, 0x00, 0x88, 0x48, 0x7c, 0x00, 0x9b, 0x48, 0x77, 0x04,
  0x8b, 0x4b, 0x77, 0x10, 0x89, 0x23, 0x76, 0x02, 0x33, 0x79, 0x0c, 0x80,
  0x24, 0x7b, 0x04, 0x90, 0x2b, 0x76, 0x00, 0x3f, 0x72, 0x00, 0x98, 0x4b,
  0x7c, 0x06, 0x88, 0x4a, 0x7c, 0x08, 0x80, 0x3e, 0x77, 0x0a, 0x2b, 0x76,
  0x08, 0x3f, 0x72, 0x02, 0x30, 0x79, 0x0a, 0x82, 0x4f, 0x54, 0x00, 0x4b,
  0x56, 0x02, 0x91, 0x1d, 0x7b, 0x00, 0x99, 0x23, 0x7c, 0x00, 0x31, 0x7b,
  0x02, 0x90, 0x29, 0x7a, 0x00, 0x41, 0x79, 0x00, 0x44, 0x79, 0x00, 0x92,
  0x4d, 0x59, 0x00, 0x50, 0x54, 0x02, 0x81, 0x1e, 0x78, 0x00, 0x9b, 0x4a,
  0x77, 0x04, 0x88, 0x4b, 0x7c, 0x04, 0x98, 0x4d, 0x7c, 0x00, 0x8b, 0x48,
  0x77, 0x26, 0x9b, 0x4b, 0x77, 0x06, 0x8b, 0x4a, 0x77, 0x22, 0xb8, 0x01,
  0x01, 0x02, 0x89, 0x31, 0x7b, 0x04, 0x99, 0x33, 0x78, 0x08, 0x8b, 0x4b,
  0x77, 0x02, 0xb8, 0x01, 0x0d, 0x02, 0x9b, 0x4d, 0x77, 0x02, 0x89, 0x28,
  0x7b, 0x0c, 0xb8, 0x01, 0x1f, 0x02, 0x89, 0x33, 0x78, 0x0e, 0xb8, 0x01,
  0x2b, 0x12, 0x01, 0x2f, 0x10, 0x01, 0x34, 0x0e, 0xbb, 0x01, 0x01, 0x04,
  0xb8, 0x01, 0x3b, 0x02, 0x99, 0x28, 0x7c, 0x00, 0x2a, 0x7b, 0x00, 0x33,
  0x7c, 0x02, 0x90, 0x35, 0x7a, 0x00, 0x92, 0x4c, 0x5e, 0x08, 0xbb, 0x01,
  0x0d, 0x04, 0x82, 0x4d, 0x59, 0x00, 0xb8, 0x01, 0x45, 0x0c, 0xbb, 0x01,
  0x1f, 0x04, 0xb8, 0x01, 0x50, 0x02, 0x89, 0x23, 0x7c, 0x0a, 0xbb, 0x01,
  0x2b, 0x04, 0xb8, 0x01, 0x56, 0x0e, 0xbb, 0x01, 0x2f, 0x04, 0x80, 0x48,
  0x7a, 0x04, 0xb8, 0x01, 0x53, 0x04, 0x89, 0x2a, 0x7b, 0x02, 0x80, 0x35,
  0x7a, 0x02, 0x41, 0x79, 0x00, 0x29, 0x7a, 0x00, 0xbb, 0x01, 0x34, 0x08,
  0xb8, 0x01, 0x32, 0x08, 0x81, 0x1d, 0x7b, 0x02, 0xbb, 0x01, 0x3b, 0x02,
  0x91, 0x29, 0x7a, 0x00, 0x99, 0x23, 0x78, 0x02, 0x90, 0x28, 0x7b, 0x00,
  0x34, 0x7a, 0x00, 0x3c, 0x7b, 0x00, 0x40, 0x7b, 0x00, 0x48, 0x7b, 0x02,
  0xb8, 0x01, 0x00, 0x02, 0x88, 0x4d, 0x7c, 0x00, 0x89, 0x33, 0x7c, 0x02,
  0x98, 0x48, 0x7c, 0x06, 0xbb, 0x01, 0x45, 0x0c, 0x89, 0x23, 0x78, 0x04,
  0xbb, 0x01, 0x50, 0x10, 0x01, 0x56, 0x02, 0x91, 0x28, 0x79, 0x06, 0x81,
  0x29, 0x7a, 0x0e, 0x80, 0x40, 0x7b, 0x00, 0xbb, 0x01, 0x53, 0x0a, 0x88,
  0x48, 0x7c, 0x06, 0xbb, 0x01, 0x32, 0x02, 0x80, 0x48, 0x7b, 0x02, 0x98,
  0x4d, 0x7c, 0x04, 0x80, 0x44, 0x79, 0x04, 0x91, 0x27, 0x7b, 0x00, 0x99,
  0x23, 0x7b, 0x00, 0x33, 0x7b, 0x02, 0x90, 0x27, 0x7b, 0x00, 0x3f, 0x7b,
  0x00, 0x44, 0x7b, 0x00, 0x48, 0x7b, 0x00, 0x92, 0x4b, 0x54, 0x02, 0x82,
  0x4c, 0x5e, 0x00, 0xbb, 0x01, 0x00, 0x02, 0x80, 0x34, 0x7a, 0x00, 0x8b,
  0x4d, 0x77, 0x02, 0x80, 0x28, 0x7b, 0x00, 0x9b, 0x48, 0x77, 0x06, 0x81,
  0x28, 0x79, 0x06, 0x89, 0x33, 0x7b, 0x1e, 0x88, 0x4d, 0x7c, 0x00, 0x98,
  0x4f, 0x7b, 0x1c, 0x8b, 0x48, 0x77, 0x00, 0x89, 0x28, 0x7c, 0x08, 0x88,
  0x4f, 0x7b, 0x02, 0x9b, 0x4d, 0x77, 0x12, 0x98, 0x50, 0x7c, 0x1c, 0x88,
  0x50, 0x7c, 0x0c, 0x98, 0x52, 0x7c, 0x00, 0x8b, 0x4d, 0x77, 0x00, 0x9b,
  0x4f, 0x76, 0x06, 0x80, 0x48, 0x7b, 0x02, 0x3f, 0x7b, 0x0e, 0x88, 0x52,
  0x7c, 0x08, 0x80, 0x3c, 0x7b, 0x06, 0x81, 0x27, 0x7b, 0x00, 0x8b, 0x4f,
  0x76, 0x08, 0x98, 0x52, 0x7c, 0x02, 0x91, 0x26, 0x7d, 0x00, 0x99, 0x28,
  0x7c, 0x00, 0x2a, 0x7b, 0x00, 0x33, 0x7b, 0x02, 0x90, 0x32, 0x7b, 0x00,
  0x3c, 0x7b, 0x00, 0x3e, 0x7b, 0x00, 0x48, 0x7b, 0x00, 0x92, 0x4a, 0x57,
  0x08, 0x9b, 0x50, 0x77, 0x04, 0x80, 0x27, 0x7b, 0x00, 0x82, 0x4b, 0x54,
  0x02, 0xe8, 0x14, 0x4a, 0x08, 0x42, 0x61, 0x08, 0x7e, 0x7f, 0x06, 0x8b,
  0x50, 0x77, 0x04, 0x89, 0x33, 0x7b, 0x08, 0x9b, 0x52, 0x77, 0x16, 0x8b,
  0x52, 0x77, 0x02, 0x89, 0x2a, 0x7b, 0x06, 0x80, 0x48, 0x7b, 0x0e, 0x9b,
  0x52, 0x77, 0x00, 0x89, 0x23, 0x7b, 0x02, 0x99, 0x33, 0x78, 0x04, 0x80,
  0x32, 0x7b, 0x02, 0x3c, 0x7b, 0x0a, 0xeb, 0x14, 0x4a, 0x08, 0x42, 0x61,
  0x02, 0x89, 0x33, 0x78, 0x06, 0xeb, 0x7e, 0x7f, 0x0c, 0x80, 0x44, 0x7b,
  0x22, 0x3e, 0x7b, 0x0c, 0x82, 0x4a, 0x57, 0x06, 0x91, 0x22, 0x7d, 0x00,
  0x99, 0x23, 0x7c, 0x00, 0x31, 0x7b, 0x02, 0x90, 0x22, 0x7b, 0x00, 0x2e,
  0x7b, 0x00, 0x3a, 0x7b, 0x00, 0x3e, 0x7b, 0x00, 0x41, 0x7b, 0x00, 0x46,
  0x7b, 0x00, 0x92, 0x46, 0x54, 0x00, 0x52, 0x53, 0x08, 0x81, 0x26, 0x7d,
  0x00, 0x82, 0x50, 0x54, 0x24, 0x89, 0x31, 0x7b, 0x0a, 0xe8, 0x7a, 0x7d,
  0x08, 0x38, 0x5c, 0x08, 0x00, 0x40, 0x18, 0x99, 0x33, 0x75, 0x06, 0x89,
  0x28, 0x7c, 0x0c, 0x98, 0x50, 0x7c, 0x04, 0x88, 0x52, 0x7c, 0x0a, 0x89,
  0x33, 0x75, 0x10, 0x80, 0x2e, 0x7b, 0x02, 0x88, 0x50, 0x7c, 0x02, 0x98,
  0x52, 0x7c, 0x04, 0xeb, 0x7a, 0x7d, 0x08, 0x38, 0x5c, 0x08, 0x00, 0x40,
  0x0e, 0x98, 0x50, 0x7c, 0x08, 0x88, 0x52, 0x7c, 0x02, 0x99, 0x28, 0x7b,
  0x00, 0x2a, 0x7c, 0x00, 0x33, 0x7b, 0x02, 0x90, 0x2e, 0x78, 0x00, 0x92,
  0x48, 0x61, 0x00, 0x4b, 0x59, 0x00, 0x4c, 0x59, 0x04, 0x80, 0x22, 0x7b,
  0x0c, 0x9b, 0x50, 0x77, 0x02, 0x88, 0x50, 0x7c, 0x00, 0x98, 0x4f, 0x7c,
  0x02, 0x8b, 0x52, 0x77, 0x02, 0x89, 0x23, 0x7c, 0x0a, 0x82, 0x4c, 0x59,
  0x06, 0x89, 0x33, 0x7b, 0x02, 0x82, 0x4b, 0x59, 0x02, 0x46, 0x54, 0x06,
  0x92, 0x4b, 0x2a, 0x00, 0x8b, 0x50, 0x77, 0x02, 0x9b, 0x52, 0x77, 0x02,
  0x88, 0x4f, 0x7c, 0x00, 0x98, 0x50, 0x7c, 0x04, 0x80, 0x3a, 0x7b, 0x08,
  0x81, 0x22, 0x7d, 0x02, 0x89, 0x2a, 0x7c, 0x0c, 0x98, 0x4f, 0x7c, 0x04,
  0x88, 0x50, 0x7c, 0x02, 0x9b, 0x50, 0x77, 0x08, 0x8b, 0x52, 0x77, 0x02,
  0x91, 0x22, 0x77, 0x00, 0x99, 0x23, 0x77, 0x00, 0x33, 0x78, 0x02, 0x90,
  0x22, 0x77, 0x00, 0x3a, 0x76, 0x0e, 0x98, 0x4d, 0x7c, 0x02, 0x88, 0x4f,
  0x7c, 0x02, 0x8b, 0x50, 0x77, 0x00, 0x9b, 0x4f, 0x77, 0x06, 0x89, 0x33,
  0x78, 0x0c, 0x98, 0x4f, 0x7c, 0x04, 0x89, 0x23, 0x77, 0x02, 0x81, 0x22,
  0x77, 0x00, 0x88, 0x4d, 0x7c, 0x0a, 0x8b, 0x4f, 0x77, 0x00, 0x9b, 0x50,
  0x77, 0x04, 0x82, 0x4b, 0x2a, 0x06, 0x98, 0x4d, 0x7c, 0x0c, 0x88, 0x4f,
  0x7c, 0x04, 0x80, 0x22, 0x77, 0x00, 0x82, 0x48, 0x61, 0x00, 0x9b, 0x4f,
  0x77, 0x04, 0x80, 0x3e, 0x7b, 0x00, 0x8b, 0x50, 0x77, 0x0c, 0x91, 0x22,
  0x7b, 0x00, 0x98, 0x4b, 0x7c, 0x00, 0x99, 0x23, 0x7a, 0x00, 0x33, 0x7b,
  0x02, 0x90, 0x22, 0x75, 0x00, 0x3e, 0x78, 0x00, 0x92, 0x4a, 0x5c, 0x00,
  0x4d, 0x59, 0x00, 0x88, 0x4d, 0x7c, 0x0e, 0x9b, 0x4d, 0x77, 0x02, 0x8b,
  0x4f, 0x77, 0x0e, 0x80, 0x41, 0x7b, 0x00, 0x89, 0x33, 0x7b, 0x02, 0x88,
  0x4b, 0x7c, 0x00, 0x98, 0x4d, 0x7c, 0x04, 0x9b, 0x4f, 0x77, 0x06, 0x8b,
  0x4d, 0x77, 0x0c, 0x98, 0x4b, 0x7c, 0x04, 0x88, 0x4d, 0x7c, 0x02, 0x89,
  0x28, 0x7b, 0x02, 0x9b, 0x4d, 0x77, 0x0c, 0x8b, 0x4f, 0x77, 0x08, 0x98,
  0x4a, 0x7c, 0x04, 0x88, 0x4b, 0x7c, 0x08, 0x9b, 0x4b, 0x77, 0x00, 0x99,
  0x28, 0x7b, 0x00, 0x2a, 0x7b, 0x00, 0x33, 0x7a, 0x02, 0x90, 0x41, 0x78,
  0x00, 0x8b, 0x4d, 0x77, 0x06, 0x88, 0x4a, 0x7c, 0x00, 0x98, 0x4b, 0x7c,
  0x10, 0x89, 0x28, 0x7b, 0x04, 0x80, 0x46, 0x7b, 0x02, 0x89, 0x33, 0x7a,
  0x02, 0x98, 0x4a, 0x7c, 0x02, 0x8b, 0x4b, 0x77, 0x00, 0x9b, 0x4d, 0x77,
  0x02, 0x88, 0x4b, 0x7c, 0x0a, 0x80, 0x2e, 0x78, 0x0a, 0x88, 0x4a, 0x7c,
  0x00, 0x9b, 0x4b, 0x77, 0x02, 0x98, 0x48, 0x7c, 0x00, 0x89, 0x2a, 0x7b,
  0x02, 0x8b, 0x4d, 0x77, 0x18, 0x80, 0x3a, 0x76, 0x00, 0x9b, 0x4a, 0x77,
  0x04, 0x8b, 0x4b, 0x77, 0x02, 0x98, 0x46, 0x7c, 0x06, 0x99, 0x28, 0x7b,
  0x02, 0x90, 0x2e, 0x7a, 0x00, 0x3a, 0x78, 0x00, 0x46, 0x78, 0x00, 0x92,
  0x50, 0x52, 0x00, 0x88, 0x48, 0x7c, 0x06, 0x8b, 0x4a, 0x77, 0x00, 0x9b,
  0x4b, 0x77, 0x04, 0x89, 0x23, 0x7a, 0x02, 0x80, 0x41, 0x78, 0x02, 0x22,
  0x75, 0x02, 0x82, 0x52, 0x53, 0x0e, 0x9b, 0x4a, 0x77, 0x02, 0x89, 0x28,
  0x7b, 0x02, 0x8b, 0x4b, 0x77, 0x06, 0x80, 0x3e, 0x78, 0x06, 0x91, 0x24,
  0x79, 0x00, 0x99, 0x2b, 0x7a, 0x00, 0x33, 0x7b, 0x02, 0x90, 0x41, 0x6b,
  0x02, 0x81, 0x22, 0x7b, 0x04, 0x8b, 0x4a, 0x77, 0x02, 0x9b, 0x48, 0x77,
  0x08, 0xb8, 0x01, 0x04, 0x0a, 0x89, 0x33, 0x7b, 0x06, 0xb8, 0x01, 0x26,
  0x08, 0x9b, 0x46, 0x77, 0x04, 0x89, 0x2b, 0x7a, 0x02, 0x91, 0x26, 0x7c,
  0x00, 0x99, 0x23, 0x7b, 0x00, 0x2a, 0x7b, 0x00, 0x2d, 0x7a, 0x02, 0x90,
  0x22, 0x74, 0x00, 0x81, 0x24, 0x79, 0x00, 0xb8, 0x01, 0x3b, 0x00, 0x8b,
  0x48, 0x77, 0x10, 0xb8, 0x01, 0x54, 0x04, 0x89, 0x2a, 0x7b, 0x0a, 0x80,
  0x22, 0x74, 0x02, 0xb8, 0x01, 0x6b, 0x04, 0x89, 0x23, 0x7b, 0x0c, 0xb8,
  0x01, 0x78, 0x04, 0x80, 0x2e, 0x7a, 0x0a, 0x46, 0x78, 0x02, 0xb8, 0x01,
  0x75, 0x00, 0xbb, 0x01, 0x04, 0x04, 0x80, 0x3a, 0x78, 0x0c, 0xb8, 0x01,
  0x55, 0x00, 0xbb, 0x01, 0x26, 0x06, 0x88, 0x46, 0x7c, 0x02, 0x89, 0x2d,
  0x7a, 0x02, 0x80, 0x41, 0x6b, 0x02, 0x82, 0x4d, 0x59, 0x02, 0x91, 0x27,
  0x7b, 0x00, 0x82, 0x4a, 0x5c, 0x00, 0x99, 0x23, 0x7b, 0x00, 0x31, 0x7b,
  0x02, 0x90, 0x27, 0x7b, 0x00, 0x3a, 0x7b, 0x00, 0x3f, 0x7b, 0x00, 0x43,
  0x7b, 0x00, 0x46, 0x7b, 0x00, 0x92, 0x4b, 0x53, 0x00, 0x4f, 0x58, 0x00,
  0xbb, 0x01, 0x3b, 0x02, 0x82, 0x50, 0x52, 0x00, 0xb8, 0x01, 0x00, 0x02,
  0x81, 0x26, 0x7c, 0x0c, 0xbb, 0x01, 0x54, 0x10, 0x01, 0x6b, 0x10, 0x01,
  0x78, 0x0e, 0x98, 0x46, 0x7c, 0x04, 0xbb, 0x01, 0x72, 0x10, 0x01, 0x50,
  0x04, 0x8b, 0x46, 0x77, 0x0c, 0xbb, 0x01, 0x00, 0x04, 0x88, 0x46, 0x7c,
  0x04, 0x98, 0x48, 0x7c, 0x14, 0x89, 0x31, 0x7b, 0x14, 0x98, 0x4a, 0x7c,
  0x0a, 0x88, 0x48, 0x7c, 0x02, 0x9b, 0x46, 0x77, 0x02, 0x81, 0x27, 0x7b,
  0x12, 0x88, 0x4a, 0x7c, 0x08, 0x98, 0x4b, 0x7c, 0x04, 0x91, 0x27, 0x77,
  0x00, 0x99, 0x28, 0x7c, 0x00, 0x2a, 0x7b, 0x00, 0x33, 0x7b, 0x02, 0x90,
  0x33, 0x78, 0x00, 0x92, 0x52, 0x5a, 0x06, 0x8b, 0x46, 0x77, 0x04, 0x9b,
  0x48, 0x77, 0x06, 0x82, 0x4f, 0x58, 0x04, 0x89, 0x23, 0x7b, 0x02, 0x88,
  0x4b, 0x7c, 0x08, 0x98, 0x4d, 0x7c, 0x14, 0x9b, 0x4a, 0x77, 0x02, 0x81,
  0x27, 0x77, 0x02, 0x80, 0x3a, 0x7b, 0x00, 0x89, 0x33, 0x7b, 0x06, 0x80,
  0x27, 0x7b, 0x00, 0x8b, 0x48, 0x77, 0x02, 0x80, 0x46, 0x7b, 0x00, 0x98,
  0x4f, 0x7c, 0x04, 0x80, 0x43, 0x7b, 0x02, 0x88, 0x4d, 0x7c, 0x0a, 0x80,
  0x3f, 0x7b, 0x04, 0x8b, 0x4a, 0x77, 0x04, 0x89, 0x2a, 0x7b, 0x04, 0x9b,
  0x4b, 0x77, 0x02, 0x88, 0x4f, 0x7c, 0x02, 0x91, 0x27, 0x7a, 0x00, 0x99,
  0x23, 0x74, 0x00, 0x33, 0x79, 0x02, 0x90, 0x27, 0x7a, 0x00, 0x3a, 0x7b,
  0x00, 0x3f, 0x78, 0x00, 0x43, 0x78, 0x00, 0x46, 0x7a, 0x00, 0x98, 0x50,
  0x7c, 0x16, 0x8b, 0x4b, 0x77, 0x02, 0x89, 0x33, 0x79, 0x06, 0x98, 0x52,
  0x7c, 0x00, 0x9b, 0x4d, 0x77, 0x02, 0x88, 0x50, 0x7c, 0x04, 0x89, 0x23,
  0x74, 0x1a, 0x9b, 0x4f, 0x77, 0x06, 0x8b, 0x4d, 0x77, 0x02, 0xb8, 0x01,
  0x06, 0x06, 0x80, 0x27, 0x7a, 0x0a, 0x3f, 0x78, 0x00, 0xb8, 0x01, 0x12,
  0x04, 0x80, 0x43, 0x78, 0x02, 0x8b, 0x4f, 0x77, 0x02, 0x91, 0x26, 0x7d,
  0x00, 0x99, 0x23, 0x7b, 0x00, 0x31, 0x7b, 0x02, 0x90, 0x26, 0x79, 0x00,
  0x3e, 0x7b, 0x00, 0x41, 0x7b, 0x00, 0x81, 0x27, 0x7a, 0x00, 0x82, 0x52,
  0x5a, 0x00, 0x4b, 0x53, 0x00, 0x92, 0x4a, 0x5c, 0x00, 0x4d, 0x4e, 0x00,
  0x9b, 0x50, 0x77, 0x02, 0x80, 0x33, 0x78, 0x04, 0xb8, 0x01, 0x26, 0x10,
  0x01, 0x41, 0x08, 0x9b, 0x52, 0x77, 0x02, 0x8b, 0x50, 0x77, 0x06, 0xb8,
  0x01, 0x54, 0x08, 0x89, 0x31, 0x7b, 0x08, 0xb8, 0x01, 0x44, 0x08, 0x98,
  0x46, 0x7c, 0x02, 0x88, 0x52, 0x7c, 0x06, 0xb8, 0x01, 0x00, 0x00, 0xbb,
  0x01, 0x06, 0x0c, 0x80, 0x3a, 0x7b, 0x04, 0xbb, 0x01, 0x12, 0x02, 0x88,
  0x46, 0x7c, 0x06, 0x98, 0x48, 0x7c, 0x00, 0x99, 0x33, 0x78, 0x02, 0x90,
  0x3a, 0x75, 0x06, 0xbb, 0x01, 0x26, 0x00, 0x89, 0x28, 0x7c, 0x02, 0x80,
  0x3e, 0x7b, 0x0e, 0xbb, 0x01, 0x41, 0x06, 0x89, 0x33, 0x78, 0x08, 0x98,
  0x4a, 0x7c, 0x02, 0xbb, 0x01, 0x54, 0x06, 0x88, 0x48, 0x7c, 0x04, 0x90,
  0x3e, 0x6e, 0x06, 0xbb, 0x01, 0x44, 0x08, 0x80, 0x41, 0x7b, 0x00, 0x9b,
  0x46, 0x77, 0x02, 0x8b, 0x52, 0x77, 0x04, 0x88, 0x4a, 0x7c, 0x02, 0xbb,
  0x01, 0x00, 0x02, 0x98, 0x4b, 0x7c, 0x0a, 0x81, 0x26, 0x7d, 0x06, 0x8b,
  0x46, 0x77, 0x06, 0x91, 0x26, 0x79, 0x00, 0x9b, 0x48, 0x77, 0x00, 0x99,
  0x28, 0x7c, 0x00, 0x2a, 0x7b, 0x00, 0x33, 0x7b, 0x02, 0x90, 0x32, 0x7b,
  0x00, 0x92, 0x52, 0x4e, 0x06, 0x88, 0x4b, 0x7c, 0x04, 0x98, 0x4d, 0x7c,
  0x08, 0x80, 0x3a, 0x75, 0x02, 0x26, 0x79, 0x06, 0x89, 0x23, 0x7b, 0x02,
  0x81, 0x26, 0x79, 0x06, 0x80, 0x46, 0x7a, 0x02, 0x9b, 0x4a, 0x77, 0x00,
  0x89, 0x33, 0x7b, 0x08, 0x8b, 0x48, 0x77, 0x04, 0x90, 0x3a, 0x7a, 0x00,
  0x41, 0x7b, 0x00, 0x46, 0x7a, 0x00, 0x98, 0x4f, 0x7c, 0x08, 0x88, 0x4d,
  0x7c, 0x0c, 0x8b, 0x4a, 0x77, 0x04, 0x9b, 0x4b, 0x77, 0x06, 0x89, 0x2a,
  0x7b, 0x02, 0x88, 0x4f, 0x7c, 0x06, 0x98, 0x50, 0x7c, 0x08, 0x91, 0x26,
  0x7d, 0x00, 0x99, 0x23, 0x79, 0x00, 0x33, 0x7a, 0x02, 0x90, 0x2b, 0x74,
  0x04, 0x80, 0x3e, 0x6e, 0x02, 0x8b, 0x4b, 0x77, 0x04, 0x9b, 0x4d, 0x77,
  0x06, 0x80, 0x41, 0x7b, 0x04, 0x88, 0x50, 0x7c, 0x02, 0x89, 0x33, 0x7a,
  0x02, 0x98, 0x52, 0x7c, 0x12, 0x89, 0x23, 0x79, 0x02, 0x80, 0x46, 0x7a,
  0x04, 0x90, 0x43, 0x70, 0x00, 0x9b, 0x4f, 0x77, 0x08, 0x8b, 0x4d, 0x77,
  0x04, 0x80, 0x43, 0x70, 0x00, 0x3a, 0x7a, 0x14, 0xe8, 0x0a, 0x45, 0x00,
  0x8b, 0x4f, 0x77, 0x06, 0x82, 0x52, 0x4e, 0x00, 0x9b, 0x50, 0x77, 0x02,
  0xe8, 0x28, 0x54, 0x06, 0x91, 0x24, 0x7d, 0x00, 0x99, 0x23, 0x7c, 0x00,
  0x31, 0x7b, 0x02, 0x80, 0x32, 0x7b, 0x00, 0x90, 0x24, 0x7b, 0x00, 0x3c,
  0x7b, 0x00, 0x3f, 0x7b, 0x00, 0x43, 0x7b, 0x00, 0x48, 0x7b, 0x00, 0x92,
  0x48, 0x59, 0x00, 0x4b, 0x56, 0x00, 0xe8, 0x54, 0x6a, 0x02, 0x80, 0x2b,
  0x74, 0x06, 0xe8, 0x7e, 0x7f, 0x02, 0x82, 0x4d, 0x4e, 0x04, 0x81, 0x26,
  0x7d, 0x06, 0x82, 0x4a, 0x5c, 0x00, 0x8b, 0x50, 0x77, 0x04, 0x9b, 0x52,
  0x77, 0x1e, 0x89, 0x31, 0x7b, 0x1a, 0xeb, 0x0a, 0x45, 0x08, 0x28, 0x54,
  0x06, 0x99, 0x33, 0x76, 0x02, 0xeb, 0x54, 0x6a, 0x06, 0x89, 0x28, 0x7c,
  0x02, 0xeb, 0x7e, 0x7f, 0x12, 0x89, 0x33, 0x76, 0x44, 0x99, 0x28, 0x7c,
  0x00, 0x2a, 0x7b, 0x00, 0x33, 0x7b, 0x02, 0x90, 0x30, 0x7a, 0x00, 0x92,
  0x52, 0x57, 0x0c, 0x80, 0x3c, 0x7b, 0x02, 0xb8, 0x01, 0x06, 0x10, 0x01,
  0x1c, 0x04, 0x89, 0x23, 0x7c, 0x04, 0x33, 0x7b, 0x08, 0xb8, 0x01, 0x4f,
  0x10, 0x01, 0x64, 0x06, 0x89, 0x2a, 0x7b, 0x04, 0x80, 0x3f, 0x7b, 0x06,
  0x81, 0x24, 0x7d, 0x00, 0xb8, 0x01, 0x70, 0x10, 0x91, 0x1f, 0x79, 0x00,
  0x99, 0x23, 0x79, 0x00, 0x33, 0x78, 0x02, 0x90, 0x3e, 0x75, 0x00, 0x88,
  0x52, 0x7c, 0x00, 0xe8, 0x00, 0x40, 0x00, 0x98, 0x4a, 0x7c, 0x04, 0xb8,
  0x01, 0x52, 0x02, 0x80, 0x43, 0x7b, 0x08, 0xbb, 0x01, 0x06, 0x06, 0xb8,
  0x01, 0x00, 0x08, 0x89, 0x33, 0x78, 0x02, 0xbb, 0x01, 0x1c, 0x02, 0x89,
  0x23, 0x79, 0x0c, 0x88, 0x4a, 0x7c, 0x02, 0x80, 0x3e, 0x75, 0x00, 0x91,
  0x22, 0x7a, 0x00, 0xbb, 0x01, 0x4f, 0x02, 0x90, 0x3f, 0x74, 0x00, 0x98,
  0x4b, 0x7c, 0x00, 0xe8, 0x74, 0x42, 0x04, 0x80, 0x48, 0x7b, 0x0a, 0x81,
  0x1f, 0x79, 0x00, 0xbb, 0x01, 0x64, 0x0e, 0x80, 0x24, 0x7b, 0x02, 0xbb,
  0x01, 0x70, 0x0c, 0x81, 0x22, 0x7a, 0x02, 0x82, 0x4b, 0x56, 0x02, 0x91,
  0x24, 0x7c, 0x00, 0x99, 0x23, 0x7c, 0x00, 0x33, 0x7b, 0x02, 0x90, 0x24,
  0x79, 0x00, 0x3c, 0x7a, 0x00, 0x43, 0x7a, 0x00, 0x48, 0x7b, 0x00, 0x82,
  0x52, 0x57, 0x00, 0x92, 0x46, 0x51, 0x00, 0x4a, 0x4a, 0x00, 0x4d, 0x4e,
  0x00, 0x88, 0x4b, 0x7c, 0x00, 0x98, 0x48, 0x7c, 0x00, 0x8b, 0x52, 0x77,
  0x00, 0xeb, 0x00, 0x40, 0x00, 0x9b, 0x4a, 0x77, 0x02, 0x82, 0x48, 0x59,
  0x02, 0xbb, 0x01, 0x52, 0x0e, 0x80, 0x3f, 0x74, 0x02, 0xbb, 0x01, 0x00,
  0x14, 0x89, 0x33, 0x7b, 0x04, 0x8b, 0x4a, 0x77, 0x04, 0x9b, 0x4b, 0x77,
  0x00, 0xeb, 0x74, 0x42, 0x14, 0x80, 0x3c, 0x7a, 0x14, 0x89, 0x28, 0x7c,
  0x02, 0x88, 0x48, 0x7c, 0x04, 0x99, 0x33, 0x78, 0x02, 0x90, 0x3e, 0x78,
  0x00, 0x98, 0x4a, 0x7c, 0x00, 0x8b, 0x4b, 0x77, 0x00, 0x9b, 0x48, 0x77,
  0x18, 0x80, 0x30, 0x7a, 0x02, 0x89, 0x33, 0x78, 0x10, 0x98, 0x4b, 0x7c,
  0x06, 0x80, 0x3e, 0x78, 0x00, 0x90, 0x3f, 0x7a, 0x00, 0x88, 0x4a, 0x7c,
  0x10, 0x80, 0x43, 0x7a, 0x04, 0x48, 0x7b, 0x16, 0x8b, 0x48, 0x77, 0x04,
  0x91, 0x1f, 0x7a, 0x00, 0x82, 0x46, 0x51, 0x00, 0x99, 0x28, 0x7c, 0x00,
  0x2a, 0x7b, 0x00, 0x33, 0x7c, 0x02, 0x90, 0x30, 0x7a, 0x00, 0x3c, 0x7b,
  0x00, 0x43, 0x7b, 0x00, 0x48, 0x7b, 0x00, 0x81, 0x24, 0x7c, 0x00, 0x92,
  0x48, 0x4a, 0x00, 0x4b, 0x5a, 0x00, 0x52, 0x4a, 0x00, 0x9b, 0x4a, 0x77,
  0x02, 0x80, 0x3f, 0x7a, 0x02, 0x98, 0x48, 0x7c, 0x02, 0x88, 0x4b, 0x7c,
  0x0a, 0x82, 0x4d, 0x4e, 0x0a, 0x52, 0x4a, 0x04, 0x89, 0x23, 0x7c, 0x02,
  0x82, 0x4a, 0x4a, 0x06, 0x89, 0x33, 0x7c, 0x04, 0x9b, 0x4b, 0x77, 0x06,
  0x8b, 0x4a, 0x77, 0x02, 0x80, 0x3c, 0x7b, 0x0c, 0x24, 0x79, 0x20, 0x91,
  0x1e, 0x7a, 0x00, 0x98, 0x4a, 0x7c, 0x00, 0x99, 0x23, 0x7b, 0x00, 0x33,
  0x7a, 0x02, 0x90, 0x3e, 0x72, 0x02, 0x89, 0x2a, 0x7b, 0x02, 0x9b, 0x48,
  0x77, 0x02, 0x81, 0x1f, 0x7a, 0x00, 0x8b, 0x4b, 0x77, 0x06, 0x88, 0x48,
  0x7c, 0x06, 0x80, 0x43, 0x7b, 0x0e, 0x89, 0x33, 0x7a, 0x04, 0x23, 0x7b,
  0x06, 0x98, 0x4b, 0x7c, 0x04, 0x80, 0x30, 0x7a, 0x00, 0x88, 0x4a, 0x7c,
  0x02, 0x90, 0x2b, 0x77, 0x00, 0x3f, 0x75, 0x08, 0x80, 0x48, 0x7b, 0x04,
  0x3e, 0x72, 0x0c, 0x2b, 0x77, 0x08, 0x3f, 0x75, 0x08, 0x81, 0x1e, 0x7a,
  0x06, 0x91, 0x1d, 0x7c, 0x00, 0x88, 0x4b, 0x7c, 0x00, 0x9b, 0x4a, 0x77,
  0x00, 0x99, 0x23, 0x7b, 0x00, 0x31, 0x7b, 0x02, 0x90, 0x29, 0x77, 0x00,
  0x3c, 0x7b, 0x00, 0x41, 0x7b, 0x00, 0x44, 0x7a, 0x00, 0x48, 0x7b, 0x00,
  0x82, 0x48, 0x51, 0x00, 0x4b, 0x5a, 0x00, 0x92, 0x41, 0x51, 0x00, 0x48,
  0x51, 0x00, 0x4d, 0x51, 0x00, 0x50, 0x51, 0x04, 0x98, 0x4d, 0x7c, 0x08,
  0x8b, 0x48, 0x77, 0x1e, 0x9b, 0x4b, 0x77, 0x04, 0x8b, 0x4a, 0x77, 0x02,
  0x89, 0x31, 0x7b, 0x2e, 0x8b, 0x4b, 0x77, 0x00, 0x99, 0x33, 0x79, 0x02,
  0xe8, 0x74, 0x42, 0x04, 0x9b, 0x4d, 0x77, 0x06, 0x89, 0x28, 0x7c, 0x10,
  0x33, 0x79, 0x26, 0x80, 0x3c, 0x7b, 0x0e, 0xe8, 0x08, 0x42, 0x0a, 0x6d,
  0x40, 0x04, 0x80, 0x41, 0x7b, 0x02, 0x99, 0x28, 0x7b, 0x00, 0x2a, 0x7b,
  0x00, 0x33, 0x7b, 0x02, 0x90, 0x35, 0x7b, 0x00, 0x82, 0x48, 0x4a, 0x00,
  0xe8, 0x00, 0x40, 0x00, 0xeb, 0x74, 0x42, 0x02, 0x80, 0x48, 0x7b, 0x04,
  0x44, 0x7a, 0x12, 0x89, 0x23, 0x7b, 0x0a, 0xe8, 0x55, 0x42, 0x0e, 0x82,
  0x4d, 0x51, 0x00, 0x41, 0x51, 0x08, 0x89, 0x33, 0x7b, 0x02, 0xe8, 0x0a,
  0x42, 0x0e, 0x82, 0x50, 0x51, 0x04, 0x88, 0x4d, 0x7c, 0x02, 0x98, 0x41,
  0x7c, 0x00, 0xeb, 0x08, 0x42, 0x00, 0x89, 0x2a, 0x7b, 0x04, 0xe8, 0x40,
  0x41, 0x06, 0xeb, 0x6d, 0x40, 0x02, 0x81, 0x1d, 0x7c, 0x04, 0x91, 0x29,
  0x7d, 0x00, 0x89, 0x28, 0x7a, 0x00, 0x99, 0x28, 0x7a, 0x02, 0x80, 0x29,
  0x77, 0x00, 0x90, 0x41, 0x7a, 0x00, 0x4d, 0x79, 0x00, 0x92, 0x35, 0x64,
  0x00, 0x41, 0x64, 0x00, 0x4d, 0x64, 0x00, 0x59, 0x5c, 0x00, 0xeb, 0x00,
  0x40, 0x06, 0x80, 0x35, 0x7b, 0x04, 0xe8, 0x75, 0x40, 0x0c, 0x80, 0x41,
  0x7a, 0x02, 0x4d, 0x79, 0x00, 0x82, 0x4d, 0x64, 0x00, 0x41, 0x64, 0x00,
  0x35, 0x64, 0x06, 0x59, 0x5c, 0x04, 0xe8, 0x2b, 0x40, 0x00, 0xeb, 0x55,
  0x42, 0x0a, 0x98, 0x43, 0x7c, 0x02, 0x91, 0x28, 0x79, 0x00, 0x99, 0x28,
  0x7c, 0x02, 0x90, 0x34, 0x78, 0x00, 0x43, 0x7b, 0x00, 0x4f, 0x7b, 0x00,
  0x92, 0x34, 0x64, 0x00, 0x40, 0x64, 0x00, 0x4f, 0x64, 0x00, 0x5b, 0x64,
  0x06, 0x81, 0x29, 0x7d, 0x02, 0x80, 0x34, 0x78, 0x02, 0xeb, 0x0a, 0x42,
  0x02, 0x88, 0x41, 0x7c, 0x06, 0x80, 0x43, 0x7b, 0x06, 0x82, 0x5b, 0x64,
  0x00, 0x4f, 0x64, 0x00, 0x40, 0x64, 0x00, 0x34, 0x64, 0x00, 0x89, 0x28,
  0x7c, 0x02, 0x80, 0x4f, 0x7b, 0x02, 0x8b, 0x4d, 0x77, 0x02, 0x9b, 0x41,
  0x77, 0x04, 0xeb, 0x40, 0x41, 0x0c, 0x91, 0x27, 0x7d, 0x00, 0x89, 0x28,
  0x7b, 0x00, 0x99, 0x23, 0x7c, 0x00, 0x31, 0x78, 0x02, 0x90, 0x33, 0x7a,
  0x00, 0x3f, 0x7b, 0x00, 0x44, 0x7a, 0x00, 0x50, 0x7b, 0x00, 0x92, 0x33,
  0x64, 0x00, 0x3f, 0x64, 0x00, 0x44, 0x64, 0x00, 0x4b, 0x64, 0x00, 0x50,
  0x64, 0x00, 0x5c, 0x64, 0x08, 0x81, 0x28, 0x79, 0x02, 0x88, 0x43, 0x7c,
  0x00, 0xeb, 0x75, 0x40, 0x02, 0x98, 0x44, 0x7c, 0x16, 0xeb, 0x2b, 0x40,
  0x0a, 0x9b, 0x43, 0x77, 0x10, 0x8b, 0x41, 0x77, 0x0e, 0x89, 0x31, 0x78,
  0x0c, 0x80, 0x44, 0x7a, 0x0a, 0x82, 0x33, 0x64, 0x0a, 0x8b, 0x43, 0x77,
  0x02, 0x80, 0x50, 0x7b, 0x00, 0x9b, 0x44, 0x77, 0x02, 0x82, 0x44, 0x64,
  0x02, 0x80, 0x3f, 0x7b, 0x08, 0x33, 0x7a, 0x00, 0x82, 0x50, 0x64, 0x06,
  0x3f, 0x64, 0x20, 0x4b, 0x64, 0x02, 0x5c, 0x64, 0x10, 0x88, 0x44, 0x7c,
  0x06, 0x81, 0x27, 0x7d, 0x00, 0x98, 0x4d, 0x7c, 0x08, 0x91, 0x26, 0x7d,
  0x00, 0x99, 0x28, 0x7c, 0x00, 0x39, 0x79, 0x02, 0x90, 0x32, 0x79, 0x00,
  0x3e, 0x7b, 0x00, 0x4d, 0x7b, 0x00, 0x59, 0x7a, 0x00, 0x92, 0x32, 0x5f,
  0x00, 0x3e, 0x5a, 0x00, 0x4d, 0x68, 0x00, 0x59, 0x67, 0x2a, 0x89, 0x39,
  0x79, 0x26, 0x8b, 0x44, 0x77, 0x06, 0x9b, 0x4d, 0x77, 0x04, 0x80, 0x59,
  0x7a, 0x02, 0x4d, 0x7b, 0x0a, 0x32, 0x79, 0x02, 0x3e, 0x7b, 0x04, 0x82,
  0x59, 0x67, 0x06, 0x89, 0x23, 0x7c, 0x04, 0x82, 0x4d, 0x68, 0x0a, 0x32,
  0x5f, 0x06, 0x3e, 0x5a, 0x38, 0x81, 0x26, 0x7d, 0x00, 0x91, 0x25, 0x7d,
  0x00, 0x98, 0x44, 0x7c, 0x00, 0x99, 0x23, 0x7c, 0x00, 0x31, 0x79, 0x02,
  0x90, 0x31, 0x7b, 0x00, 0x3d, 0x7b, 0x00, 0x44, 0x7b, 0x00, 0x50, 0x7a,
  0x00, 0x92, 0x31, 0x61, 0x00, 0x3d, 0x68, 0x00, 0x44, 0x67, 0x00, 0x50,
  0x62, 0x00, 0x88, 0x4d, 0x7c, 0x32, 0x89, 0x31, 0x79, 0x2c, 0x9b, 0x44,
  0x77, 0x02, 0x8b, 0x4d, 0x77, 0x26, 0x89, 0x28, 0x7c, 0x38, 0x99, 0x28,
  0x7c, 0x00, 0x33, 0x7a, 0x0a, 0x82, 0x44, 0x67, 0x02, 0x80, 0x44, 0x7b,
  0x02, 0x82, 0x50, 0x62, 0x04, 0x89, 0x23, 0x7c, 0x02, 0x80, 0x50, 0x7a,
  0x0e, 0x89, 0x33, 0x7a, 0x0e, 0x81, 0x25, 0x7b, 0x00, 0x91, 0x25, 0x7b,
  0x00, 0x99, 0x23, 0x7b, 0x00, 0x34, 0x7a, 0x02, 0x80, 0x3d, 0x76, 0x00,
  0x90, 0x3d, 0x76, 0x00, 0x49, 0x76, 0x00, 0x55, 0x76, 0x00, 0x92, 0x49,
  0x64, 0x00, 0x55, 0x66, 0x08, 0x89, 0x28, 0x7c, 0x06, 0x98, 0x49, 0x7c,
  0x02, 0x88, 0x44, 0x7c, 0x0c, 0x82, 0x3d, 0x68, 0x02, 0x80, 0x55, 0x76,
  0x00, 0x49, 0x76, 0x00, 0x89, 0x34, 0x7a, 0x04, 0x82, 0x55, 0x66, 0x00,
  0x49, 0x64, 0x02, 0x31, 0x61, 0x04, 0x89, 0x23, 0x7b, 0x0e, 0x88, 0x49,
  0x7c, 0x0a, 0x80, 0x31, 0x7b, 0x06, 0x91, 0x24, 0x7d, 0x00, 0x99, 0x23,
  0x7c, 0x00, 0x31, 0x78, 0x02, 0x90, 0x30, 0x75, 0x00, 0x3c, 0x79, 0x00,
  0x49, 0x7b, 0x00, 0x55, 0x7b, 0x00, 0x98, 0x49, 0x7c, 0x18, 0x92, 0x30,
  0x5c, 0x00, 0x3c, 0x59, 0x00, 0x49, 0x64, 0x00, 0x55, 0x64, 0x0e, 0x9b,
  0x49, 0x77, 0x00, 0x89, 0x23, 0x7c, 0x02, 0x80, 0x55, 0x7b, 0x00, 0x49,
  0x7b, 0x00, 0x8b, 0x44, 0x77, 0x00, 0x89, 0x31, 0x78, 0x0c, 0x80, 0x3c,
  0x79, 0x00, 0x30, 0x75, 0x04, 0x88, 0x49, 0x7c, 0x02, 0x82, 0x55, 0x64,
  0x04, 0x3c, 0x59, 0x02, 0x49, 0x64, 0x04, 0x30, 0x5c, 0x02, 0x91, 0x23,
  0x7d, 0x00, 0x99, 0x23, 0x7c, 0x00, 0x39, 0x79, 0x02, 0x90, 0x2f, 0x7b,
  0x00, 0x3b, 0x7b, 0x00, 0x49, 0x7b, 0x00, 0x55, 0x7a, 0x00, 0x92, 0x2f,
  0x5f, 0x00, 0x3b, 0x64, 0x00, 0x49, 0x68, 0x00, 0x55, 0x67, 0x06, 0x81,
  0x24, 0x7d, 0x00, 0x8b, 0x49, 0x77, 0x02, 0x98, 0x49, 0x7c, 0x10, 0x9b,
  0x49, 0x77, 0x30, 0x89, 0x39, 0x79, 0x08, 0x8b, 0x49, 0x77, 0x0c, 0x80,
  0x55, 0x7a, 0x02, 0x81, 0x25, 0x7d, 0x00, 0x82, 0x55, 0x67, 0x02, 0x80,
  0x3d, 0x7b, 0x08, 0x49, 0x7b, 0x00, 0x9b, 0x49, 0x77, 0x04, 0x82, 0x49,
  0x68, 0x04, 0x2f, 0x5f, 0x08, 0x3b, 0x64, 0x08, 0x80, 0x2f, 0x7b, 0x06,
  0x3b, 0x7b, 0x32, 0x88, 0x49, 0x7c, 0x04, 0x98, 0x3d, 0x7c, 0x02, 0x81,
  0x23, 0x7d, 0x00, 0x91, 0x22, 0x7d, 0x00, 0x99, 0x28, 0x7c, 0x00, 0x2b,
  0x7c, 0x00, 0x31, 0x7b, 0x02, 0x90, 0x2e, 0x78, 0x00, 0x3a, 0x7b, 0x00,
  0x3d, 0x7b, 0x00, 0x49, 0x7b, 0x00, 0x92, 0x2e, 0x66, 0x00, 0x3a, 0x66,
  0x00, 0x3d, 0x68, 0x00, 0x49, 0x64, 0x26, 0x89, 0x31, 0x7b, 0x32, 0x8b,
  0x49, 0x77, 0x04, 0x9b, 0x3d, 0x77, 0x06, 0x80, 0x49, 0x7b, 0x00, 0x3a,
  0x7b, 0x04, 0x89, 0x23, 0x7c, 0x04, 0x80, 0x3d, 0x7b, 0x06, 0x2e, 0x78,
  0x04, 0x82, 0x3d, 0x68, 0x00, 0x2e, 0x66, 0x00, 0x89, 0x28, 0x7c, 0x02,
  0x2b, 0x7c, 0x02, 0x82, 0x49, 0x64, 0x04, 0x3a, 0x66, 0x0e, 0x88, 0x3d,
  0x7c, 0x2c, 0x81, 0x22, 0x7d, 0x08, 0x91, 0x21, 0x7d, 0x02, 0x90, 0x21,
  0x7b, 0x00, 0x2d, 0x7b, 0x00, 0x45, 0x7b, 0x00, 0x4c, 0x7b, 0x00, 0x51,
  0x7b, 0x00, 0x92, 0x21, 0x77, 0x00, 0x2d, 0x7a, 0x00, 0x39, 0x79, 0x00,
  0x99, 0x28, 0x7c, 0x08, 0x89, 0x28, 0x7c, 0x02, 0x99, 0x28, 0x7b, 0x12,
  0x80, 0x45, 0x7b, 0x02, 0x4c, 0x7b, 0x02, 0x51, 0x7b, 0x0a, 0x8b, 0x3d,
  0x77, 0x04, 0x80, 0x21, 0x7b, 0x02, 0x2d, 0x7b, 0x08, 0x82, 0x39, 0x79,
  0x00, 0x21, 0x77, 0x08, 0x2d, 0x7a, 0x02, 0x81, 0x21, 0x7d, 0x1e, 0x90,
  0x39, 0x78, 0x00, 0x3d, 0x7a, 0x00, 0x40, 0x7a, 0x00, 0x89, 0x28, 0x7b,
  0x04, 0x99, 0x51, 0x67, 0x0c, 0x80, 0x39, 0x78, 0x06, 0x40, 0x7a, 0x00,
  0x3d, 0x7a, 0x0a, 0x89, 0x51, 0x67, 0x3e, 0x99, 0x51, 0x67, 0x02, 0x90,
  0x39, 0x79, 0x00, 0x3d, 0x77, 0x00, 0x40, 0x7a, 0x12, 0x80, 0x3d, 0x77,
  0x00, 0x39, 0x79, 0x04, 0x89, 0x51, 0x67, 0x02, 0x80, 0x40, 0x7a, 0x42,
  0x99, 0x51, 0x68, 0x06, 0x90, 0x39, 0x79, 0x00, 0x3d, 0x79, 0x00, 0x40,
  0x7b, 0x12, 0x89, 0x51, 0x68, 0x04, 0x80, 0x39, 0x79, 0x02, 0x3d, 0x79,
  0x04, 0x40, 0x7b, 0x3c, 0x99, 0x51, 0x67, 0x08, 0x90, 0x39, 0x78, 0x00,
  0x3d, 0x78, 0x00, 0x40, 0x78, 0x12, 0x89, 0x51, 0x67, 0x04, 0x80, 0x39,
  0x78, 0x04, 0x3d, 0x78, 0x02, 0x40, 0x78, 0x3e, 0x99, 0x51, 0x68, 0x06,
  0x90, 0x39, 0x79, 0x00, 0x3d, 0x77, 0x00, 0x40, 0x76, 0x16, 0x80, 0x3d,
  0x77, 0x00, 0x39, 0x79, 0x00, 0x89, 0x51, 0x68, 0x06, 0x80, 0x40, 0x76,
  0x3e, 0x99, 0x51, 0x68, 0x06, 0x90, 0x39, 0x73, 0x00, 0x3d, 0x76, 0x00,
  0x40, 0x77, 0x12, 0x80, 0x39, 0x73, 0x04, 0x89, 0x51, 0x68, 0x02, 0x80,
  0x40, 0x77, 0x00, 0x3d, 0x76, 0x42, 0x99, 0x51, 0x68, 0x06, 0x90, 0x39,
  0x76, 0x00, 0x3d, 0x76, 0x00, 0x40, 0x78, 0x14, 0x80, 0x39, 0x76, 0x02,
  0x89, 0x51, 0x68, 0x02, 0x80, 0x3d, 0x76, 0x02, 0x40, 0x78, 0x44, 0x99,
  0x51, 0x68, 0x02, 0x90, 0x39, 0x7a, 0x00, 0x3e, 0x7b, 0x00, 0x42, 0x7a,
  0x00, 0x97, 0x4a, 0x77, 0x16, 0x80, 0x39, 0x7a, 0x00, 0x89, 0x51, 0x68,
  0x0a, 0x80, 0x3e, 0x7b, 0x04, 0x42, 0x7a, 0x2a, 0x87, 0x4a, 0x77, 0x0c,
  0x99, 0x51, 0x68, 0x06, 0x90, 0x39, 0x7a, 0x00, 0x3d, 0x79, 0x00, 0x40,
  0x7b, 0x00, 0x97, 0x49, 0x76, 0x12, 0x80, 0x39, 0x7a, 0x00, 0x87, 0x49,
  0x76, 0x00, 0x89, 0x51, 0x68, 0x04, 0x80, 0x40, 0x7b, 0x00, 0x3d, 0x79,
  0x1a, 0x90, 0x39, 0x75, 0x00, 0x3d, 0x79, 0x00, 0x40, 0x76, 0x00, 0x97,
  0x49, 0x77, 0x0c, 0x80, 0x39, 0x75, 0x0a, 0x40, 0x76, 0x00, 0x3d, 0x79,
  0x00, 0x87, 0x49, 0x77, 0x14, 0x99, 0x51, 0x68, 0x06, 0x90, 0x39, 0x7a,
  0x00, 0x3c, 0x7a, 0x00, 0x3f, 0x7a, 0x00, 0x97, 0x47, 0x71, 0x00, 0x48,
  0x75, 0x08, 0x87, 0x47, 0x71, 0x0c, 0x48, 0x75, 0x02, 0x89, 0x51, 0x68,
  0x06, 0x80, 0x3c, 0x7a, 0x00, 0x39, 0x7a, 0x0c, 0x3f, 0x7a, 0x08, 0x97,
  0x48, 0x76, 0x14, 0x87, 0x48, 0x76, 0x18, 0x99, 0x51, 0x6a, 0x04, 0x90,
  0x39, 0x7b, 0x00, 0x3d, 0x7b, 0x00, 0x40, 0x7b, 0x00, 0x97, 0x49, 0x77,
  0x12, 0x87, 0x49, 0x77, 0x02, 0x89, 0x51, 0x6a, 0x06, 0x80, 0x39, 0x7b,
  0x06, 0x40, 0x7b, 0x02, 0x3d, 0x7b, 0x0e, 0x97, 0x49, 0x76, 0x10, 0x87,
  0x49, 0x76, 0x1a, 0x99, 0x51, 0x66, 0x06, 0x90, 0x39, 0x7b, 0x00, 0x3e,
  0x7b, 0x00, 0x42, 0x7a, 0x00, 0x97, 0x4a, 0x76, 0x12, 0x87, 0x4a, 0x76,
  0x04, 0x80, 0x39, 0x7b, 0x00, 0x89, 0x51, 0x66, 0x06, 0x80, 0x3e, 0x7b,
  0x06, 0x42, 0x7a, 0x0e, 0x97, 0x4a, 0x77, 0x16, 0x87, 0x4a, 0x77, 0x12,
  0x99, 0x51, 0x68, 0x08, 0x90, 0x39, 0x7a, 0x00, 0x3d, 0x7b, 0x00, 0x40,
  0x7a, 0x00, 0x97, 0x49, 0x77, 0x10, 0x89, 0x51, 0x68, 0x02, 0x80, 0x3d,
  0x7b, 0x00, 0x39, 0x7a, 0x02, 0x87, 0x49, 0x77, 0x02, 0x80, 0x40, 0x7a,
  0x1a, 0x90, 0x39, 0x76, 0x00, 0x3d, 0x77, 0x00, 0x40, 0x7a, 0x00, 0x97,
  0x49, 0x76, 0x0c, 0x80, 0x39, 0x76, 0x06, 0x40, 0x7a, 0x00, 0x3d, 0x77,
  0x02, 0x87, 0x49, 0x76, 0x18, 0x99, 0x51, 0x66, 0x04, 0x90, 0x39, 0x79,
  0x00, 0x3c, 0x7b, 0x00, 0x3f, 0x7b, 0x00, 0x97, 0x48, 0x76, 0x14, 0x89,
  0x51, 0x66, 0x20, 0x80, 0x3c, 0x7b, 0x02, 0x39, 0x79, 0x06, 0x3f, 0x7b,
  0x10, 0x87, 0x48, 0x76, 0x10, 0x99, 0x51, 0x67, 0x02, 0x91, 0x25, 0x7d,
  0x02, 0x95, 0x58, 0x79, 0x00, 0x90, 0x39, 0x78, 0x00, 0x3d, 0x79, 0x00,
  0x40, 0x7b, 0x00, 0x92, 0x40, 0x77, 0x00, 0x45, 0x72, 0x00, 0x49, 0x70,
  0x00, 0x4c, 0x73, 0x00, 0x51, 0x60, 0x00, 0x96, 0x4c, 0x78, 0x10, 0x80,
  0x40, 0x7b, 0x00, 0x82, 0x51, 0x60, 0x02, 0x85, 0x58, 0x79, 0x00, 0x86,
  0x4c, 0x78, 0x02, 0x80, 0x3d, 0x79, 0x00, 0x39, 0x78, 0x00, 0x82, 0x4c,
  0x73, 0x00, 0x89, 0x51, 0x67, 0x02, 0x82, 0x49, 0x70, 0x00, 0x45, 0x72,
  0x04, 0x81, 0x25, 0x7d, 0x06, 0x82, 0x40, 0x77, 0x0e, 0x91, 0x25, 0x7c,
  0x02, 0x95, 0x58, 0x78, 0x00, 0x90, 0x39, 0x76, 0x00, 0x3d, 0x79, 0x00,
  0x40, 0x7b, 0x00, 0x92, 0x40, 0x77, 0x00, 0x45, 0x73, 0x00, 0x49, 0x70,
  0x00, 0x4c, 0x75, 0x00, 0x51, 0x70, 0x00, 0x96, 0x4c, 0x77, 0x14, 0x85,
  0x58, 0x78, 0x00, 0x86, 0x4c, 0x77, 0x02, 0x80, 0x39, 0x76, 0x02, 0x40,
  0x7b, 0x00, 0x82, 0x45, 0x73, 0x02, 0x80, 0x3d, 0x79, 0x00, 0x82, 0x51,
  0x70, 0x08, 0x49, 0x70, 0x02, 0x81, 0x25, 0x7c, 0x00, 0x82, 0x4c, 0x75,
  0x08, 0x40, 0x77, 0x02, 0x91, 0x26, 0x7d, 0x00, 0x99, 0x51, 0x67, 0x02,
  0x95, 0x5d, 0x7a, 0x00, 0x90, 0x39, 0x7b, 0x00, 0x3e, 0x7b, 0x00, 0x42,
  0x7b, 0x00, 0x45, 0x7b, 0x00, 0x92, 0x3e, 0x77, 0x00, 0x42, 0x6e, 0x00,
  0x45, 0x79, 0x00, 0x4a, 0x79, 0x00, 0x4e, 0x76, 0x00, 0x51, 0x76, 0x00,
  0x96, 0x51, 0x79, 0x14, 0x89, 0x51, 0x67, 0x1e, 0x80, 0x39, 0x7b, 0x06,
  0x45, 0x7b, 0x06, 0x3e, 0x7b, 0x02, 0x82, 0x4a, 0x79, 0x04, 0x80, 0x42,
  0x7b, 0x06, 0x82, 0x3e, 0x77, 0x06, 0x85, 0x5d, 0x7a, 0x00, 0x81, 0x26,
  0x7d, 0x00, 0x86, 0x51, 0x79, 0x06, 0x82, 0x4e, 0x76, 0x04, 0x51, 0x76,
  0x00, 0x42, 0x6e, 0x02, 0x45, 0x79, 0x02, 0x91, 0x25, 0x7c, 0x02, 0x95,
  0x58, 0x78, 0x00, 0x90, 0x39, 0x73, 0x00, 0x3d, 0x76, 0x00, 0x40, 0x76,
  0x00, 0x92, 0x3d, 0x6c, 0x00, 0x40, 0x70, 0x00, 0x45, 0x72, 0x00, 0x49,
  0x73, 0x00, 0x4c, 0x74, 0x00, 0x51, 0x12, 0x00, 0x96, 0x4c, 0x77, 0x06,
  0x82, 0x51, 0x12, 0x00, 0x99, 0x51, 0x68, 0x06, 0x80, 0x40, 0x76, 0x02,
  0x39, 0x73, 0x04, 0x3d, 0x76, 0x02, 0x85, 0x58, 0x78, 0x00, 0x82, 0x49,
  0x73, 0x00, 0x45, 0x72, 0x00, 0x40, 0x70, 0x00, 0x86, 0x4c, 0x77, 0x02,
  0x81, 0x25, 0x7c, 0x02, 0x82, 0x4c, 0x74, 0x02, 0x89, 0x51, 0x68, 0x06,
  0x82, 0x3d, 0x6c, 0x0e, 0x91, 0x25, 0x7d, 0x02, 0x95, 0x58, 0x7a, 0x00,
  0x90, 0x39, 0x71, 0x00, 0x3d, 0x76, 0x00, 0x40, 0x7b, 0x00, 0x92, 0x3d,
  0x76, 0x00, 0x40, 0x6c, 0x00, 0x45, 0x75, 0x00, 0x49, 0x73, 0x00, 0x4c,
  0x6c, 0x00, 0x51, 0x72, 0x00, 0x96, 0x4c, 0x78, 0x16, 0x85, 0x58, 0x7a,
  0x00, 0x80, 0x39, 0x71, 0x00, 0x86, 0x4c, 0x78, 0x02, 0x82, 0x51, 0x72,
  0x02, 0x81, 0x25, 0x7d, 0x00, 0x82, 0x45, 0x75, 0x04, 0x80, 0x3d, 0x76,
  0x02, 0x82, 0x4c, 0x6c, 0x00, 0x49, 0x73, 0x02, 0x80, 0x40, 0x7b, 0x02,
  0x82, 0x3d, 0x76, 0x0a, 0x91, 0x26, 0x7d, 0x02, 0x95, 0x5d, 0x7a, 0x00,
  0x90, 0x39, 0x7b, 0x00, 0x3e, 0x7b, 0x00, 0x42, 0x7b, 0x00, 0x45, 0x7b,
  0x00, 0x92, 0x3e, 0x7b, 0x00, 0x42, 0x77, 0x00, 0x45, 0x77, 0x00, 0x4a,
  0x78, 0x00, 0x4e, 0x77, 0x00, 0x51, 0x77, 0x00, 0x96, 0x51, 0x79, 0x06,
  0x82, 0x40, 0x6c, 0x02, 0x99, 0x51, 0x67, 0x16, 0x89, 0x51, 0x67, 0x14,
  0x82, 0x4a, 0x78, 0x10, 0x80, 0x39, 0x7b, 0x02, 0x45, 0x7b, 0x00, 0x3e,
  0x7b, 0x08, 0x81, 0x26, 0x7d, 0x02, 0x80, 0x42, 0x7b, 0x02, 0x82, 0x51,
  0x77, 0x00, 0x4e, 0x77, 0x02, 0x3e, 0x7b, 0x02, 0x42, 0x77, 0x02, 0x85,
  0x5d, 0x7a, 0x00, 0x86, 0x51, 0x79, 0x08, 0x91, 0x25, 0x7d, 0x02, 0x95,
  0x58, 0x79, 0x00, 0x90, 0x39, 0x75, 0x00, 0x3d, 0x79, 0x00, 0x40, 0x7a,
  0x00, 0x92, 0x3d, 0x71, 0x00, 0x40, 0x75, 0x00, 0x49, 0x72, 0x00, 0x4c,
  0x70, 0x00, 0x96, 0x4c, 0x78, 0x08, 0x99, 0x51, 0x69, 0x08, 0x80, 0x39,
  0x75, 0x02, 0x40, 0x7a, 0x02, 0x3d, 0x79, 0x00, 0x82, 0x4c, 0x70, 0x00,
  0x45, 0x77, 0x02, 0x85, 0x58, 0x79, 0x00, 0x81, 0x25, 0x7d, 0x00, 0x86,
  0x4c, 0x78, 0x02, 0x82, 0x3d, 0x71, 0x02, 0x49, 0x72, 0x04, 0x40, 0x75,
  0x00, 0x89, 0x51, 0x69, 0x10, 0x91, 0x25, 0x7d, 0x02, 0x95, 0x58, 0x78,
  0x00, 0x90, 0x39, 0x75, 0x00, 0x3d, 0x79, 0x00, 0x40, 0x7a, 0x00, 0x45,
  0x7a, 0x00, 0x92, 0x3d, 0x6b, 0x00, 0x40, 0x78, 0x00, 0x45, 0x73, 0x00,
  0x49, 0x74, 0x00, 0x4c, 0x72, 0x00, 0x51, 0x65, 0x00, 0x96, 0x4c, 0x77,
  0x08, 0x82, 0x51, 0x65, 0x0a, 0x4c, 0x72, 0x00, 0x45, 0x73, 0x04, 0x80,
  0x40, 0x7a, 0x02, 0x39, 0x75, 0x02, 0x3d, 0x79, 0x00, 0x82, 0x49, 0x74,
  0x00, 0x40, 0x78, 0x02, 0x85, 0x58, 0x78, 0x00, 0x82, 0x3d, 0x6b, 0x00,
  0x86, 0x4c, 0x77, 0x02, 0x80, 0x45, 0x7a, 0x04, 0x81, 0x25, 0x7d, 0x0c,
  0x91, 0x24, 0x7b, 0x02, 0x95, 0x57, 0x79, 0x00, 0x90, 0x39, 0x79, 0x00,
  0x3c, 0x79, 0x00, 0x3f, 0x7b, 0x00, 0x45, 0x7b, 0x00, 0x92, 0x3c, 0x71,
  0x00, 0x3f, 0x74, 0x00, 0x45, 0x6f, 0x00, 0x48, 0x76, 0x00, 0x4b, 0x76,
  0x00, 0x96, 0x4b, 0x78, 0x08, 0x99, 0x51, 0x67, 0x0a, 0x80, 0x39, 0x79,
  0x00, 0x82, 0x45, 0x6f, 0x04, 0x80, 0x45, 0x7b, 0x00, 0x82, 0x4b, 0x76,
  0x02, 0x85, 0x57, 0x79, 0x00, 0x80, 0x3c, 0x79, 0x00, 0x82, 0x48, 0x76,
  0x00, 0x3f, 0x74, 0x00, 0x86, 0x4b, 0x78, 0x02, 0x80, 0x3f, 0x7b, 0x00,
  0x82, 0x3c, 0x71, 0x02, 0x81, 0x24, 0x7b, 0x06, 0x89, 0x51, 0x67, 0x0c,
  0x91, 0x24, 0x7a, 0x02, 0x95, 0x57, 0x77, 0x00, 0x90, 0x39, 0x7a, 0x00,
  0x3c, 0x75, 0x00, 0x3f, 0x7a, 0x00, 0x45, 0x7a, 0x00, 0x92, 0x3c, 0x70,
  0x00, 0x3f, 0x73, 0x00, 0x45, 0x71, 0x00, 0x48, 0x73, 0x00, 0x4b, 0x72,
  0x00, 0x96, 0x4b, 0x76, 0x0e, 0x82, 0x45, 0x71, 0x06, 0x48, 0x73, 0x02,
  0x80, 0x3c, 0x75, 0x00, 0x39, 0x7a, 0x02, 0x45, 0x7a, 0x00, 0x82, 0x4b,
  0x72, 0x04, 0x85, 0x57, 0x77, 0x00, 0x80, 0x3f, 0x7a, 0x00, 0x86, 0x4b,
  0x76, 0x02, 0x82, 0x3c, 0x70, 0x04, 0x3f, 0x73, 0x02, 0x81, 0x24, 0x7a,
  0x0a, 0x91, 0x25, 0x7d, 0x02, 0x95, 0x58, 0x79, 0x00, 0x90, 0x39, 0x7b,
  0x00, 0x3d, 0x7b, 0x00, 0x40, 0x7b, 0x00, 0x45, 0x79, 0x00, 0x92, 0x3d,
  0x74, 0x00, 0x40, 0x70, 0x00, 0x45, 0x77, 0x00, 0x49, 0x74, 0x00, 0x4c,
  0x76, 0x00, 0x96, 0x4c, 0x77, 0x06, 0x99, 0x51, 0x66, 0x12, 0x80, 0x45,
  0x79, 0x06, 0x89, 0x51, 0x66, 0x02, 0x80, 0x39, 0x7b, 0x02, 0x82, 0x45,
  0x77, 0x02, 0x80, 0x40, 0x7b, 0x02, 0x85, 0x58, 0x79, 0x00, 0x80, 0x3d,
  0x7b, 0x00, 0x86, 0x4c, 0x77, 0x02, 0x82, 0x4c, 0x76, 0x02, 0x81, 0x25,
  0x7d, 0x00, 0x82, 0x49, 0x74, 0x0a, 0x3d, 0x74, 0x04, 0x40, 0x70, 0x26,
  0x91, 0x26, 0x7d, 0x02, 0x95, 0x5a, 0x79, 0x00, 0x90, 0x39, 0x7b, 0x00,
  0x3e, 0x7a, 0x00, 0x42, 0x7a, 0x00, 0x45, 0x7b, 0x00, 0x92, 0x3e, 0x77,
  0x00, 0x42, 0x6f, 0x00, 0x45, 0x78, 0x00, 0x4a, 0x77, 0x00, 0x4e, 0x77,
  0x00, 0x96, 0x4e, 0x78, 0x06, 0x99, 0x51, 0x67, 0x12, 0x82, 0x45, 0x78,
  0x06, 0x89, 0x51, 0x67, 0x02, 0x82, 0x4a, 0x77, 0x04, 0x80, 0x39, 0x7b,
  0x04, 0x3e, 0x7a, 0x02, 0x82, 0x4e, 0x77, 0x02, 0x42, 0x6f, 0x02, 0x80,
  0x45, 0x7b, 0x02, 0x85, 0x5a, 0x79, 0x00, 0x86, 0x4e, 0x78, 0x02, 0x82,
  0x3e, 0x77, 0x04, 0x80, 0x42, 0x7a, 0x06, 0x81, 0x26, 0x7d, 0x22, 0x91,
  0x25, 0x7d, 0x02, 0x95, 0x58, 0x7a, 0x00, 0x90, 0x39, 0x7b, 0x00, 0x3d,
  0x7b, 0x00, 0x40, 0x7b, 0x00, 0x45, 0x7b, 0x00, 0x92, 0x3d, 0x77, 0x00,
  0x40, 0x78, 0x00, 0x45, 0x7a, 0x00, 0x49, 0x76, 0x00, 0x4c, 0x7a, 0x00,
  0x96, 0x4c, 0x79, 0x08, 0x99, 0x51, 0x68, 0x18, 0x82, 0x45, 0x7a, 0x04,
  0x89, 0x51, 0x68, 0x02, 0x82, 0x49, 0x76, 0x02, 0x85, 0x58, 0x7a, 0x00,
  0x86, 0x4c, 0x79, 0x04, 0x80, 0x40, 0x7b, 0x00, 0x3d, 0x7b, 0x00, 0x39,
  0x7b, 0x00, 0x81, 0x25, 0x7d, 0x00, 0x82, 0x4c, 0x7a, 0x04, 0x40, 0x78,
  0x02, 0x80, 0x45, 0x7b, 0x00, 0x82, 0x3d, 0x77, 0x2c, 0x91, 0x24, 0x7d,
  0x00, 0x99, 0x23, 0x7b, 0x00, 0x2d, 0x7b, 0x00, 0x2f, 0x76, 0x02, 0x90,
  0x30, 0x78, 0x00, 0x37, 0x7b, 0x00, 0x3c, 0x7b, 0x00, 0x40, 0x7b, 0x00,
  0x43, 0x7b, 0x00, 0x92, 0x3c, 0x78, 0x00, 0x40, 0x77, 0x00, 0x43, 0x77,
  0x00, 0x48, 0x78, 0x00, 0x4c, 0x76, 0x00, 0x9a, 0x24, 0x7a, 0x00, 0x30,
  0x76, 0x06, 0x89, 0x2f, 0x76, 0x00, 0x99, 0x51, 0x66, 0x02, 0x93, 0x58,
  0x71, 0x04, 0x83, 0x58, 0x71, 0x00, 0x93, 0x4c, 0x71, 0x02, 0x89, 0x2d,
  0x7b, 0x00, 0x23, 0x7b, 0x02, 0x80, 0x40, 0x7b, 0x00, 0x3c, 0x7b, 0x00,
  0x82, 0x48, 0x78, 0x00, 0x43, 0x77, 0x00, 0x3c, 0x78, 0x00, 0x8a, 0x24,
  0x7a, 0x02, 0x80, 0x43, 0x7b, 0x00, 0x82, 0x4c, 0x76, 0x00, 0x40, 0x77,
  0x00, 0x8a, 0x30, 0x76, 0x02, 0x80, 0x30, 0x78, 0x02, 0x37, 0x7b, 0x04,
  0x89, 0x51, 0x66, 0x02, 0x81, 0x24, 0x7d, 0x06, 0x83, 0x4c, 0x71, 0x06,
  0x90, 0x37, 0x77, 0x02, 0x30, 0x76, 0x00, 0x3c, 0x7b, 0x00, 0x43, 0x7b,
  0x02, 0x40, 0x7b, 0x02, 0x91, 0x24, 0x78, 0x00, 0x99, 0x23, 0x7b, 0x00,
  0x2d, 0x7b, 0x02, 0x92, 0x3c, 0x74, 0x00, 0x40, 0x6c, 0x00, 0x43, 0x74,
  0x00, 0x48, 0x72, 0x00, 0x4c, 0x74, 0x00, 0x9a, 0x24, 0x7a, 0x00, 0x30,
  0x75, 0x06, 0x93, 0x4c, 0x71, 0x00, 0x58, 0x71, 0x00, 0x99, 0x51, 0x63,
  0x0a, 0x80, 0x3c, 0x7b, 0x02, 0x82, 0x48, 0x72, 0x00, 0x8a, 0x30, 0x75,
  0x02, 0x80, 0x40, 0x7b, 0x00, 0x30, 0x76, 0x00, 0x82, 0x43, 0x74, 0x00,
  0x89, 0x23, 0x7b, 0x02, 0x80, 0x43, 0x7b, 0x00, 0x82, 0x4c, 0x74, 0x00,
  0x89, 0x2d, 0x7b, 0x00, 0x8a, 0x24, 0x7a, 0x02, 0x80, 0x37, 0x77, 0x00,
  0x82, 0x3c, 0x74, 0x00, 0x83, 0x58, 0x71, 0x00, 0x89, 0x51, 0x63, 0x02,
  0x82, 0x40, 0x6c, 0x02, 0x81, 0x24, 0x78, 0x00, 0x83, 0x4c, 0x71, 0x0e,
  0x90, 0x3c, 0x7a, 0x02, 0x30, 0x7b, 0x00, 0x37, 0x79, 0x00, 0x43, 0x7b,
  0x02, 0x40, 0x7b, 0x00, 0x91, 0x24, 0x74, 0x00, 0x99, 0x23, 0x7b, 0x00,
  0x2d, 0x7c, 0x00, 0x51, 0x68, 0x02, 0x92, 0x3c, 0x73, 0x00, 0x40, 0x75,
  0x00, 0x43, 0x71, 0x00, 0x48, 0x74, 0x00, 0x4c, 0x71, 0x00, 0x93, 0x58,
  0x71, 0x00, 0x9a, 0x24, 0x78, 0x00, 0x30, 0x75, 0x02, 0x83, 0x58, 0x71,
  0x02, 0x93, 0x4c, 0x71, 0x0e, 0x80, 0x3c, 0x7a, 0x00, 0x82, 0x48, 0x74,
  0x00, 0x8a, 0x30, 0x75, 0x00, 0x24, 0x78, 0x02, 0x80, 0x40, 0x7b, 0x00,
  0x82, 0x43, 0x71, 0x00, 0x89, 0x51, 0x68, 0x00, 0x2d, 0x7c, 0x00, 0x23,
  0x7b, 0x02, 0x80, 0x43, 0x7b, 0x00, 0x82, 0x4c, 0x71, 0x00, 0x83, 0x4c,
  0x71, 0x02, 0x80, 0x30, 0x7b, 0x02, 0x37, 0x79, 0x02, 0x82, 0x40, 0x75,
  0x00, 0x3c, 0x73, 0x0a, 0x81, 0x24, 0x74, 0x02, 0x90, 0x30, 0x6d, 0x02,
  0x37, 0x7a, 0x00, 0x3c, 0x7a, 0x00, 0x43, 0x7b, 0x00, 0x99, 0x51, 0x6e,
  0x02, 0x90, 0x40, 0x7a, 0x00, 0x93, 0x4c, 0x71, 0x00, 0x58, 0x71, 0x02,
  0x91, 0x1f, 0x7d, 0x00, 0x99, 0x23, 0x7b, 0x00, 0x2d, 0x7a, 0x02, 0x92,
  0x3c, 0x73, 0x00, 0x40, 0x76, 0x00, 0x43, 0x77, 0x00, 0x48, 0x78, 0x00,
  0x4c, 0x75, 0x00, 0x9a, 0x24, 0x78, 0x00, 0x30, 0x76, 0x10, 0x89, 0x51,
  0x6e, 0x02, 0x8a, 0x30, 0x76, 0x00, 0x24, 0x78, 0x02, 0x80, 0x3c, 0x7a,
  0x00, 0x83, 0x58, 0x71, 0x00, 0x4c, 0x71, 0x02, 0x80, 0x43, 0x7b, 0x00,
  0x89, 0x23, 0x7b, 0x02, 0x80, 0x37, 0x7a, 0x02, 0x82, 0x43, 0x77, 0x02,
  0x80, 0x40, 0x7a, 0x02, 0x30, 0x6d, 0x00, 0x89, 0x2d, 0x7a, 0x02, 0x82,
  0x48, 0x78, 0x02, 0x81, 0x1f, 0x7d, 0x00, 0x82, 0x4c, 0x75, 0x00, 0x40,
  0x76, 0x04, 0x3c, 0x73, 0x08, 0x90, 0x2f, 0x78, 0x00, 0x91, 0x23, 0x7d,
  0x00, 0x99, 0x23, 0x7c, 0x00, 0x2b, 0x7c, 0x02, 0x90, 0x37, 0x7b, 0x00,
  0x3b, 0x7b, 0x00, 0x3e, 0x7b, 0x00, 0x43, 0x7b, 0x00, 0x92, 0x3b, 0x76,
  0x00, 0x3e, 0x77, 0x00, 0x43, 0x77, 0x00, 0x47, 0x79, 0x00, 0x4a, 0x77,
  0x00, 0x99, 0x51, 0x72, 0x00, 0x9a, 0x24, 0x77, 0x00, 0x30, 0x78, 0x02,
  0x93, 0x4a, 0x71, 0x00, 0x56, 0x71, 0x12, 0x8a, 0x30, 0x78, 0x00, 0x24,
  0x77, 0x02, 0x89, 0x51, 0x72, 0x08, 0x83, 0x56, 0x71, 0x00, 0x4a, 0x71,
  0x04, 0x80, 0x2f, 0x78, 0x00, 0x82, 0x43, 0x77, 0x02, 0x80, 0x37, 0x7b,
  0x00, 0x82, 0x47, 0x79, 0x02, 0x80, 0x3b, 0x7b, 0x02, 0x43, 0x7b, 0x00,
  0x3e, 0x7b, 0x00, 0x89, 0x23, 0x7c, 0x02, 0x82, 0x4a, 0x77, 0x02, 0x3e,
  0x77, 0x00, 0x89, 0x2b, 0x7c, 0x02, 0x82, 0x3b, 0x76, 0x02, 0x81, 0x23,
  0x7d, 0x2c, 0x90, 0x2f, 0x78, 0x02, 0x37, 0x7b, 0x00, 0x43, 0x7b, 0x00,
  0x91, 0x23, 0x7d, 0x00, 0x99, 0x23, 0x7c, 0x00, 0x2b, 0x7b, 0x00, 0x2d,
  0x79, 0x02, 0x90, 0x3b, 0x7b, 0x00, 0x3e, 0x7b, 0x00, 0x92, 0x3b, 0x73,
  0x00, 0x3e, 0x77, 0x00, 0x43, 0x75, 0x00, 0x47, 0x79, 0x00, 0x4a, 0x77,
  0x00, 0x99, 0x51, 0x6d, 0x00, 0x9a, 0x24, 0x7a, 0x00, 0x30, 0x7a, 0x02,
  0x93, 0x4a, 0x71, 0x00, 0x56, 0x71, 0x0a, 0x89, 0x2d, 0x79, 0x06, 0x8a,
  0x30, 0x7a, 0x02, 0x24, 0x7a, 0x04, 0x82, 0x47, 0x79, 0x00, 0x89, 0x51,
  0x6d, 0x06, 0x80, 0x3b, 0x7b, 0x02, 0x82, 0x3e, 0x77, 0x02, 0x83, 0x56,
  0x71, 0x02, 0x80, 0x43, 0x7b, 0x00, 0x82, 0x43, 0x75, 0x00, 0x3b, 0x73,
  0x02, 0x80, 0x37, 0x7b, 0x00, 0x83, 0x4a, 0x71, 0x04, 0x89, 0x23, 0x7c,
  0x02, 0x80, 0x3e, 0x7b, 0x00, 0x2f, 0x78, 0x00, 0x82, 0x4a, 0x77, 0x00,
  0x89, 0x2b, 0x7b, 0x02, 0x81, 0x23, 0x7d, 0x2e, 0x90, 0x35, 0x7b, 0x02,
  0x91, 0x22, 0x7d, 0x00, 0x99, 0x23, 0x7c, 0x00, 0x2b, 0x7b, 0x00, 0x51,
  0x6c, 0x02, 0x90, 0x2e, 0x7a, 0x00, 0x3a, 0x7b, 0x00, 0x3e, 0x7b, 0x00,
  0x92, 0x3a, 0x79, 0x00, 0x41, 0x72, 0x00, 0x46, 0x76, 0x00, 0x4a, 0x7a,
  0x00, 0x4d, 0x74, 0x00, 0x93, 0x56, 0x71, 0x00, 0x9a, 0x24, 0x77, 0x00,
  0x30, 0x78, 0x02, 0x90, 0x41, 0x7b, 0x00, 0x83, 0x56, 0x71, 0x02, 0x93,
  0x4a, 0x71, 0x0a, 0x89, 0x23, 0x7c, 0x02, 0x51, 0x6c, 0x02, 0x8a, 0x30,
  0x78, 0x02, 0x89, 0x2b, 0x7b, 0x00, 0x8a, 0x24, 0x77, 0x02, 0x82, 0x46,
  0x76, 0x02, 0x80, 0x3e, 0x7b, 0x00, 0x82, 0x4d, 0x74, 0x00, 0x83, 0x4a,
  0x71, 0x02, 0x80, 0x3a, 0x7b, 0x00, 0x82, 0x4a, 0x7a, 0x00, 0x41, 0x72,
  0x02, 0x80, 0x35, 0x7b, 0x02, 0x41, 0x7b, 0x00, 0x2e, 0x7a, 0x02, 0x82,
  0x3a, 0x79, 0x08, 0x90, 0x3e, 0x73, 0x02, 0x35, 0x7a, 0x00, 0x3a, 0x78,
  0x00, 0x99, 0x51, 0x6a, 0x02, 0x90, 0x2e, 0x79, 0x00, 0x41, 0x7b, 0x02,
  0x81, 0x22, 0x7d, 0x00, 0x91, 0x21, 0x7d, 0x00, 0x99, 0x23, 0x7b, 0x00,
  0x2b, 0x7b, 0x02, 0x92, 0x3a, 0x73, 0x00, 0x41, 0x72, 0x00, 0x46, 0x78,
  0x00, 0x4a, 0x68, 0x00, 0x4d, 0x75, 0x00, 0x93, 0x4a, 0x71, 0x00, 0x56,
  0x71, 0x00, 0x9a, 0x24, 0x79, 0x00, 0x30, 0x76, 0x0e, 0x89, 0x51, 0x6a,
  0x04, 0x83, 0x56, 0x71, 0x00, 0x89, 0x23, 0x7b, 0x00, 0x8a, 0x30, 0x76,
  0x00, 0x24, 0x79, 0x02, 0x80, 0x3e, 0x73, 0x00, 0x82, 0x4a, 0x68, 0x00,
  0x83, 0x4a, 0x71, 0x00, 0x89, 0x2b, 0x7b, 0x04, 0x80, 0x41, 0x7b, 0x00,
  0x2e, 0x79, 0x00, 0x3a, 0x78, 0x00, 0x82, 0x46, 0x78, 0x02, 0x80, 0x35,
  0x7a, 0x04, 0x81, 0x21, 0x7d, 0x00, 0x82, 0x4d, 0x75, 0x02, 0x41, 0x72,
  0x02, 0x3a, 0x73, 0x04, 0x99, 0x51, 0x6c, 0x02, 0x90, 0x3e, 0x7b, 0x02,
  0x35, 0x7a, 0x00, 0x3a, 0x7b, 0x00, 0x41, 0x71, 0x02, 0x93, 0x56, 0x71,
  0x02, 0x90, 0x2e, 0x78, 0x00, 0x91, 0x20, 0x7d, 0x00, 0x99, 0x23, 0x7b,
  0x00, 0x2b, 0x7b, 0x02, 0x92, 0x41, 0x69, 0x00, 0x46, 0x69, 0x00, 0x4a,
  0x69, 0x00, 0x4d, 0x69, 0x00, 0x83, 0x56, 0x71, 0x00, 0x93, 0x4a, 0x71,
  0x00, 0x9a, 0x24, 0x7a, 0x00, 0x30, 0x77, 0x0c, 0x89, 0x51, 0x6c, 0x02,
  0x8a, 0x30, 0x77, 0x04, 0x83, 0x4a, 0x71, 0x00, 0x8a, 0x24, 0x7a, 0x02,
  0x80, 0x3e, 0x7b, 0x00, 0x82, 0x4a, 0x69, 0x00, 0x89, 0x2b, 0x7b, 0x00,
  0x23, 0x7b, 0x04, 0x80, 0x2e, 0x78, 0x00, 0x3a, 0x7b, 0x00, 0x82, 0x46,
  0x69, 0x02, 0x80, 0x41, 0x71, 0x00, 0x82, 0x4d, 0x69, 0x0c, 0x99, 0x51,
  0x6f, 0x02, 0x90, 0x3a, 0x7a, 0x00, 0x3e, 0x7b, 0x00, 0x82, 0x41, 0x69,
  0x02, 0x90, 0x41, 0x75, 0x00, 0x81, 0x20, 0x7d, 0x02, 0x90, 0x2e, 0x79,
  0x00, 0x42, 0x78, 0x00, 0x93, 0x4a, 0x71, 0x00, 0x56, 0x71, 0x02, 0x91,
  0x1f, 0x7d, 0x00, 0x99, 0x23, 0x7a, 0x00, 0x2b, 0x7b, 0x02, 0x92, 0x3a,
  0x77, 0x00, 0x46, 0x74, 0x00, 0x4a, 0x6f, 0x00, 0x4d, 0x76, 0x00, 0x9a,
  0x24, 0x7a, 0x00, 0x30, 0x77, 0x0c, 0x89, 0x51, 0x6f, 0x02, 0x83, 0x4a,
  0x71, 0x02, 0x80, 0x35, 0x7a, 0x02, 0x3e, 0x7b, 0x00, 0x83, 0x56, 0x71,
  0x00, 0x8a, 0x30, 0x77, 0x02, 0x80, 0x42, 0x78, 0x00, 0x82, 0x4a, 0x6f,
  0x00, 0x8a, 0x24, 0x7a, 0x04, 0x80, 0x41, 0x75, 0x00, 0x3a, 0x7a, 0x00,
  0x89, 0x23, 0x7a, 0x02, 0x82, 0x46, 0x74, 0x00, 0x89, 0x2b, 0x7b, 0x08,
  0x80, 0x2e, 0x79, 0x00, 0x81, 0x1f, 0x7d, 0x00, 0x82, 0x4d, 0x76, 0x02,
  0x3a, 0x77, 0x04, 0x99, 0x51, 0x70, 0x04, 0x90, 0x42, 0x7b, 0x02, 0x32,
  0x7a, 0x00, 0x36, 0x7b, 0x00, 0x3c, 0x7b, 0x00, 0x3e, 0x7b, 0x00, 0x91,
  0x1e, 0x7d, 0x00, 0x99, 0x23, 0x7b, 0x00, 0x2d, 0x7c, 0x02, 0x92, 0x32,
  0x7a, 0x00, 0x3e, 0x7b, 0x00, 0x48, 0x75, 0x00, 0x4a, 0x75, 0x00, 0x4e,
  0x76, 0x00, 0x93, 0x4e, 0x71, 0x00, 0x9a, 0x24, 0x7a, 0x00, 0x30, 0x78,
  0x02, 0x83, 0x4e, 0x71, 0x02, 0x93, 0x5a, 0x71, 0x0e, 0x89, 0x51, 0x70,
  0x02, 0x8a, 0x30, 0x78, 0x02, 0x24, 0x7a, 0x06, 0x83, 0x5a, 0x71, 0x0c,
  0x82, 0x4a, 0x75, 0x00, 0x89, 0x23, 0x7b, 0x04, 0x80, 0x3c, 0x7b, 0x00,
  0x82, 0x32, 0x7a, 0x02, 0x4e, 0x76, 0x00, 0x89, 0x2d, 0x7c, 0x02, 0x80,
  0x36, 0x7b, 0x00, 0x42, 0x7b, 0x02, 0x82, 0x48, 0x75, 0x02, 0x80, 0x32,
  0x7a, 0x02, 0x3e, 0x7b, 0x02, 0x82, 0x3e, 0x7b, 0x06, 0x81, 0x1e, 0x7d,
  0x1a, 0x99, 0x51, 0x70, 0x06, 0x91, 0x1a, 0x7d, 0x00, 0x1c, 0x7d, 0x00,
  0x99, 0x23, 0x7c, 0x00, 0x2b, 0x7c, 0x02, 0x92, 0x32, 0x7a, 0x00, 0x3e,
  0x78, 0x00, 0x48, 0x79, 0x00, 0x4a, 0x7a, 0x00, 0x4e, 0x77, 0x00, 0x9a,
  0x24, 0x78, 0x00, 0x30, 0x78, 0x02, 0x93, 0x4e, 0x71, 0x00, 0x5a, 0x71,
  0x02, 0x90, 0x32, 0x7a, 0x00, 0x36, 0x7b, 0x02, 0x3c, 0x7b, 0x00, 0x3e,
  0x7b, 0x00, 0x42, 0x7b, 0x06, 0x81, 0x1c, 0x7d, 0x06, 0x89, 0x51, 0x70,
  0x02, 0x8a, 0x30, 0x78, 0x04, 0x24, 0x78, 0x06, 0x83, 0x5a, 0x71, 0x00,
  0x4e, 0x71, 0x06, 0x82, 0x3e, 0x78, 0x04, 0x48, 0x79, 0x00, 0x89, 0x2b,
  0x7c, 0x00, 0x23, 0x7c, 0x02, 0x82, 0x4a, 0x7a, 0x02, 0x4e, 0x77, 0x04,
  0x80, 0x3c, 0x7b, 0x00, 0x82, 0x32, 0x7a, 0x02, 0x80, 0x36, 0x7b, 0x04,
  0x3e, 0x7b, 0x02, 0x81, 0x1a, 0x7d, 0x02, 0x80, 0x32, 0x7a, 0x02, 0x42,
  0x7b, 0x22, 0x91, 0x1f, 0x7d, 0x00, 0x99, 0x23, 0x7c, 0x00, 0x28, 0x7c,
  0x02, 0x92, 0x2b, 0x79, 0x00, 0x37, 0x7a, 0x00, 0x47, 0x7a, 0x00, 0x4a,
  0x79, 0x00, 0x4f, 0x77, 0x00, 0x99, 0x51, 0x75, 0x00, 0x9a, 0x24, 0x7a,
  0x00, 0x30, 0x78, 0x02, 0x90, 0x32, 0x7b, 0x00, 0x43, 0x7b, 0x00, 0x93,
  0x4f, 0x71, 0x00, 0x5b, 0x71, 0x02, 0x90, 0x2b, 0x7b, 0x00, 0x37, 0x7b,
  0x00, 0x3b, 0x7b, 0x00, 0x3e, 0x7b, 0x00, 0x83, 0x4f, 0x71, 0x08, 0x90,
  0x42, 0x65, 0x06, 0x80, 0x42, 0x65, 0x00, 0x89, 0x51, 0x75, 0x02, 0x8a,
  0x24, 0x7a, 0x02, 0x30, 0x78, 0x0c, 0x83, 0x5b, 0x71, 0x08, 0x82, 0x47,
  0x7a, 0x06, 0x4a, 0x79, 0x00, 0x2b, 0x79, 0x02, 0x4f, 0x77, 0x00, 0x37,
  0x7a, 0x10, 0x80, 0x3e, 0x7b, 0x00, 0x81, 0x1f, 0x7d, 0x02, 0x80, 0x3b,
  0x7b, 0x02, 0x43, 0x7b, 0x02, 0x37, 0x7b, 0x00, 0x2b, 0x7b, 0x02, 0x32,
  0x7b, 0x04, 0x89, 0x28, 0x7c, 0x00, 0x23, 0x7c, 0x12, 0x97, 0x3b, 0x77,
  0x00, 0x43, 0x77, 0x18, 0x87, 0x43, 0x77, 0x04, 0x3b, 0x77, 0x14, 0x97,
  0x3b, 0x77, 0x00, 0x43, 0x77, 0x16, 0x87, 0x43, 0x77, 0x1a, 0x3b, 0x77,
  0x00, 0x97, 0x3c, 0x78, 0x00, 0x43, 0x78, 0x30, 0x3b, 0x78, 0x0a, 0x87,
  0x3c, 0x78, 0x0a, 0x43, 0x78, 0x0e, 0x3b, 0x78, 0x0e, 0x92, 0x32, 0x74,
  0x00, 0x3e, 0x72, 0x00, 0x93, 0x3e, 0x71, 0x00, 0x4a, 0x71, 0x12, 0x82,
  0x3e, 0x72, 0x00, 0x32, 0x74, 0x00, 0x83, 0x3e, 0x71, 0x06, 0x4a, 0x71,
  0x18, 0x92, 0x32, 0x71, 0x00, 0x3e, 0x72, 0x00, 0x93, 0x3e, 0x71, 0x00,
  0x4a, 0x71, 0x0c, 0x82, 0x32, 0x71, 0x02, 0x3e, 0x72, 0x0c, 0x83, 0x4a,
  0x71, 0x00, 0x3e, 0x71, 0x16, 0x92, 0x34, 0x77, 0x00, 0x40, 0x77, 0x00,
  0x93, 0x40, 0x71, 0x00, 0x4c, 0x71, 0x2a, 0x82, 0x34, 0x77, 0x04, 0x40,
  0x77, 0x00, 0x83, 0x4c, 0x71, 0x00, 0x40, 0x71, 0x02, 0x92, 0x32, 0x73,
  0x00, 0x3e, 0x72, 0x00, 0x93, 0x3e, 0x71, 0x00, 0x4a, 0x71, 0x14, 0x82,
  0x3e, 0x72, 0x02, 0x32, 0x73, 0x14, 0x83, 0x4a, 0x71, 0x06, 0x3e, 0x71,
  0x00, 0x97, 0x3b, 0x78, 0x00, 0x43, 0x78, 0x14, 0x87, 0x43, 0x78, 0x04,
  0x3b, 0x78, 0x18, 0x97, 0x3b, 0x78, 0x00, 0x43, 0x78, 0x14, 0x87, 0x43,
  0x78, 0x1c, 0x3b, 0x78, 0x00, 0x97, 0x3c, 0x78, 0x00, 0x43, 0x78, 0x2e,
  0x87, 0x3c, 0x78, 0x02, 0x43, 0x78, 0x00, 0x97, 0x3b, 0x78, 0x1c, 0x87,
  0x3b, 0x78, 0x14, 0x92, 0x32, 0x74, 0x00, 0x3e, 0x76, 0x00, 0x93, 0x3c,
  0x71, 0x00, 0x4a, 0x71, 0x0e, 0x82, 0x32, 0x74, 0x02, 0x3e, 0x76, 0x06,
  0x83, 0x4a, 0x71, 0x06, 0x3c, 0x71, 0x14, 0x92, 0x32, 0x74, 0x00, 0x3e,
  0x74, 0x00, 0x93, 0x4a, 0x71, 0x10, 0x82, 0x32, 0x74, 0x02, 0x3e, 0x74,
  0x08, 0x83, 0x4a, 0x71, 0x16, 0x92, 0x34, 0x77, 0x00, 0x40, 0x77, 0x00,
  0x93, 0x40, 0x71, 0x00, 0x4c, 0x71, 0x20, 0x82, 0x34, 0x77, 0x04, 0x40,
  0x77, 0x0a, 0x83, 0x4c, 0x71, 0x00, 0x40, 0x71, 0x02, 0x92, 0x32, 0x74,
  0x00, 0x3e, 0x77, 0x00, 0x93, 0x3e, 0x71, 0x00, 0x4a, 0x71, 0x12, 0x82,
  0x3e, 0x77, 0x02, 0x32, 0x74, 0x0c, 0x83, 0x4a, 0x71, 0x00, 0x3e, 0x71,
  0x10, 0x92, 0x3e, 0x77, 0x00, 0x4a, 0x77, 0x00, 0x97, 0x37, 0x78, 0x00,
  0x3b, 0x78, 0x00, 0x43, 0x78, 0x0a, 0x82, 0x3e, 0x77, 0x08, 0x4a, 0x77,
  0x06, 0x87, 0x43, 0x78, 0x02, 0x3b, 0x78, 0x00, 0x37, 0x78, 0x16, 0x92,
  0x3e, 0x77, 0x00, 0x4a, 0x79, 0x00, 0x97, 0x37, 0x78, 0x00, 0x3b, 0x77,
  0x00, 0x43, 0x78, 0x16, 0x82, 0x3e, 0x77, 0x06, 0x87, 0x43, 0x78, 0x06,
  0x82, 0x4a, 0x79, 0x02, 0x87, 0x37, 0x78, 0x0a, 0x3b, 0x77, 0x02, 0x92,
  0x40, 0x79, 0x00, 0x4c, 0x74, 0x00, 0x97, 0x39, 0x78, 0x00, 0x3c, 0x77,
  0x00, 0x43, 0x78, 0x2a, 0x82, 0x4c, 0x74, 0x04, 0x87, 0x3c, 0x77, 0x02,
  0x92, 0x3e, 0x77, 0x00, 0x4a, 0x75, 0x00, 0x87, 0x39, 0x78, 0x00, 0x97,
  0x37, 0x77, 0x00, 0x3b, 0x6f, 0x04, 0x82, 0x40, 0x79, 0x22, 0x3e, 0x77,
  0x04, 0x4a, 0x75, 0x00, 0x87, 0x37, 0x77, 0x06, 0x92, 0x3c, 0x77, 0x00,
  0x48, 0x78, 0x00, 0x97, 0x36, 0x77, 0x00, 0x39, 0x77, 0x06, 0x87, 0x3b,
  0x6f, 0x16, 0x36, 0x77, 0x06, 0x82, 0x48, 0x78, 0x00, 0x3c, 0x77, 0x0e,
  0x92, 0x3b, 0x77, 0x00, 0x47, 0x77, 0x00, 0x97, 0x34, 0x78, 0x00, 0x37,
  0x78, 0x06, 0x87, 0x39, 0x77, 0x18, 0x82, 0x47, 0x77, 0x06, 0x3b, 0x77,
  0x04, 0x87, 0x37, 0x78, 0x00, 0x43, 0x78, 0x08, 0x92, 0x39, 0x77, 0x00,
  0x45, 0x78, 0x00, 0x87, 0x34, 0x78, 0x00, 0x97, 0x32, 0x78, 0x00, 0x36,
  0x78, 0x00, 0x3e, 0x78, 0x00, 0x42, 0x78, 0x1e, 0x82, 0x45, 0x78, 0x0c,
  0x87, 0x32, 0x78, 0x02, 0x82, 0x39, 0x77, 0x04, 0x87, 0x36, 0x78, 0x04,
  0x42, 0x78, 0x06, 0x3e, 0x78, 0x26, 0x95, 0x54, 0x77, 0x00, 0x93, 0x48,
  0x71, 0x00, 0x96, 0x48, 0x75, 0x00, 0x97, 0x48, 0x76, 0x1e, 0x85, 0x54,
  0x77, 0x00, 0x86, 0x48, 0x75, 0x00, 0x87, 0x48, 0x76, 0x02, 0x83, 0x48,
  0x71, 0x10, 0x95, 0x54, 0x77, 0x00, 0x93, 0x48, 0x71, 0x00, 0x96, 0x48,
  0x75, 0x00, 0x97, 0x48, 0x76, 0x18, 0x85, 0x54, 0x77, 0x00, 0x86, 0x48,
  0x75, 0x00, 0x87, 0x48, 0x76, 0x0c, 0x83, 0x48, 0x71, 0x0c, 0x95, 0x54,
  0x77, 0x00, 0x93, 0x48, 0x71, 0x00, 0x96, 0x48, 0x75, 0x00, 0x97, 0x48,
  0x76, 0x2e, 0x83, 0x48, 0x71, 0x02, 0x95, 0x51, 0x77, 0x00, 0x93, 0x45,
  0x71, 0x00, 0x96, 0x45, 0x75, 0x00, 0x97, 0x45, 0x76, 0x5e, 0x83, 0x45,
  0x71, 0x02, 0x95, 0x4d, 0x77, 0x00, 0x93, 0x41, 0x71, 0x00, 0x96, 0x41,
  0x75, 0x00, 0x97, 0x41, 0x76, 0x5e, 0x83, 0x41, 0x71, 0x02, 0x95, 0x4a,
  0x78, 0x00, 0x93, 0x3e, 0x71, 0x00, 0x96, 0x3e, 0x77, 0x00, 0x97, 0x3e,
  0x77, 0x3e, 0x85, 0x54, 0x77, 0x00, 0x86, 0x48, 0x75, 0x00, 0x87, 0x48,
  0x76, 0x20, 0x83, 0x3e, 0x71, 0x02, 0x95, 0x48, 0x78, 0x00, 0x93, 0x3c,
  0x71, 0x00, 0x96, 0x3c, 0x76, 0x00, 0x97, 0x3c, 0x77, 0x60, 0x85, 0x51,
  0x77, 0x00, 0x86, 0x45, 0x75, 0x00, 0x87, 0x45, 0x76, 0x02, 0x83, 0x3c,
  0x71, 0x08, 0x85, 0x4d, 0x77, 0x00, 0x86, 0x41, 0x75, 0x00, 0x87, 0x41,
  0x76, 0x04, 0x85, 0x4a, 0x78, 0x00, 0x86, 0x3e, 0x77, 0x00, 0x87, 0x3e,
  0x77, 0x10, 0x85, 0x48, 0x78, 0x00, 0x86, 0x3c, 0x76, 0x00, 0x87, 0x3c,
  0x77, 0x12, 0x90, 0x3d, 0x71, 0x00, 0x41, 0x71, 0x00, 0x44, 0x71, 0x00,
  0x49, 0x71, 0x00, 0x92, 0x31, 0x74, 0x00, 0x38, 0x71, 0x00, 0x3d, 0x71,
  0x12, 0x82, 0x31, 0x74, 0x02, 0x3d, 0x71, 0x02, 0x80, 0x44, 0x71, 0x00,
  0x82, 0x38, 0x71, 0x02, 0x80, 0x49, 0x71, 0x00, 0x41, 0x71, 0x06, 0x3d,
  0x71, 0x42, 0x90, 0x3c, 0x72, 0x00, 0x40, 0x72, 0x00, 0x43, 0x72, 0x00,
  0x48, 0x72, 0x00, 0x92, 0x30, 0x67, 0x00, 0x37, 0x6b, 0x00, 0x3c, 0x6f,
  0x10, 0x80, 0x43, 0x72, 0x00, 0x40, 0x72, 0x00, 0x82, 0x37, 0x6b, 0x00,
  0x30, 0x67, 0x02, 0x3c, 0x6f, 0x02, 0x80, 0x48, 0x72, 0x00, 0x3c, 0x72,
  0x1c, 0x90, 0x3c, 0x72, 0x00, 0x40, 0x72, 0x00, 0x43, 0x72, 0x00, 0x48,
  0x72, 0x00, 0x92, 0x30, 0x71, 0x00, 0x37, 0x6f, 0x00, 0x3c, 0x6c, 0x0e,
  0x82, 0x37, 0x6f, 0x02, 0x80, 0x40, 0x72, 0x02, 0x48, 0x72, 0x00, 0x43,
  0x72, 0x00, 0x82, 0x3c, 0x6c, 0x00, 0x30, 0x71, 0x02, 0x80, 0x3c, 0x72,
  0x1c, 0x90, 0x3b, 0x72, 0x00, 0x3f, 0x72, 0x00, 0x42, 0x72, 0x00, 0x47,
  0x72, 0x00, 0x92, 0x2f, 0x75, 0x00, 0x36, 0x75, 0x00, 0x3b, 0x76, 0x10,
  0x82, 0x3b, 0x76, 0x00, 0x36, 0x75, 0x02, 0x80, 0x3f, 0x72, 0x00, 0x82,
  0x2f, 0x75, 0x0a, 0x80, 0x3b, 0x72, 0x02, 0x47, 0x72, 0x02, 0x42, 0x72,
  0x40, 0x90, 0x3c, 0x72, 0x00, 0x40, 0x72, 0x00, 0x43, 0x72, 0x00, 0x48,
  0x72, 0x00, 0x92, 0x30, 0x72, 0x00, 0x37, 0x74, 0x00, 0x3c, 0x77, 0x12,
  0x82, 0x37, 0x74, 0x02, 0x80, 0x40, 0x72, 0x00, 0x82, 0x3c, 0x77, 0x02,
  0x30, 0x72, 0x08, 0x80, 0x48, 0x72, 0x02, 0x43, 0x72, 0x08, 0x3c, 0x72,
  0x38, 0x90, 0x3d, 0x72, 0x00, 0x41, 0x72, 0x00, 0x44, 0x72, 0x00, 0x49,
  0x72, 0x00, 0x92, 0x31, 0x74, 0x00, 0x38, 0x75, 0x00, 0x3d, 0x76, 0x14,
  0x82, 0x3d, 0x76, 0x00, 0x38, 0x75, 0x02, 0x31, 0x74, 0x04, 0x80, 0x44,
  0x72, 0x00, 0x41, 0x72, 0x04, 0x49, 0x72, 0x08, 0x3d, 0x72, 0x3a, 0x90,
  0x3c, 0x72, 0x00, 0x40, 0x72, 0x00, 0x43, 0x72, 0x00, 0x48, 0x72, 0x00,
  0x92, 0x30, 0x71, 0x00, 0x37, 0x71, 0x00, 0x3c, 0x72, 0x0e, 0x80, 0x40,
  0x72, 0x04, 0x43, 0x72, 0x00, 0x82, 0x37, 0x71, 0x00, 0x30, 0x71, 0x02,
  0x80, 0x3c, 0x72, 0x00, 0x82, 0x3c, 0x72, 0x04, 0x80, 0x48, 0x72, 0x18,
  0x90, 0x3c, 0x72, 0x00, 0x40, 0x72, 0x00, 0x43, 0x72, 0x00, 0x48, 0x72,
  0x00, 0x92, 0x30, 0x68, 0x00, 0x37, 0x64, 0x00, 0x3c, 0x6e, 0x0a, 0x80,
  0x40, 0x72, 0x02, 0x82, 0x37, 0x64, 0x04, 0x3c, 0x6e, 0x02, 0x30, 0x68,
  0x04, 0x80, 0x48, 0x72, 0x00, 0x43, 0x72, 0x00, 0x3c, 0x72, 0x1a, 0x90,
  0x3b, 0x72, 0x00, 0x3f, 0x72, 0x00, 0x42, 0x72, 0x00, 0x47, 0x72, 0x00,
  0x92, 0x2f, 0x76, 0x00, 0x36, 0x74, 0x00, 0x3b, 0x72, 0x30, 0x80, 0x3f,
  0x72, 0x08, 0x47, 0x72, 0x00, 0x42, 0x72, 0x1a, 0x82, 0x36, 0x74, 0x02,
  0x3b, 0x72, 0x02, 0x80, 0x3b, 0x72, 0x04, 0x82, 0x2f, 0x76, 0x06, 0x90,
  0x3c, 0x7a, 0x00, 0x40, 0x7a, 0x00, 0x43, 0x78, 0x00, 0x48, 0x78, 0x00,
  0x92, 0x30, 0x76, 0x00, 0x37, 0x73, 0x00, 0x3c, 0x75, 0x26, 0x80, 0x3c,
  0x7a, 0x08, 0x82, 0x37, 0x73, 0x0c, 0x3c, 0x75, 0x04, 0x80, 0x40, 0x7a,
  0x02, 0x48, 0x78, 0x16, 0x82, 0x30, 0x76, 0x08, 0x91, 0x1d, 0x7d, 0x00,
  0x99, 0x23, 0x7b, 0x00, 0x2b, 0x7b, 0x02, 0x80, 0x43, 0x78, 0x00, 0x90,
  0x29, 0x75, 0x00, 0x35, 0x7b, 0x00, 0x41, 0x7b, 0x00, 0x46, 0x7b, 0x00,
  0x4a, 0x79, 0x00, 0x92, 0x35, 0x77, 0x00, 0x41, 0x75, 0x00, 0x46, 0x76,
  0x00, 0x4a, 0x78, 0x00, 0x93, 0x4a, 0x71, 0x00, 0x56, 0x71, 0x00, 0x9c,
  0x4a, 0x7b, 0x00, 0x9a, 0x24, 0x79, 0x00, 0x30, 0x7a, 0x0a, 0x99, 0x51,
  0x72, 0x04, 0x8a, 0x30, 0x7a, 0x04, 0x24, 0x79, 0x10, 0x89, 0x51, 0x72,
  0x0a, 0x80, 0x35, 0x7b, 0x04, 0x89, 0x23, 0x7b, 0x04, 0x2b, 0x7b, 0x02,
  0x80, 0x29, 0x75, 0x02, 0x41, 0x7b, 0x06, 0x81, 0x1d, 0x7d, 0x00, 0x82,
  0x41, 0x75, 0x02, 0x35, 0x77, 0x02, 0x4a, 0x78, 0x06, 0x46, 0x76, 0x02,
  0x80, 0x46, 0x7b, 0x02, 0x4a, 0x79, 0x02, 0x8c, 0x4a, 0x7b, 0x0c, 0x83,
  0x56, 0x71, 0x04, 0x91, 0x1d, 0x7d, 0x00, 0x83, 0x4a, 0x71, 0x00, 0x99,
  0x23, 0x7a, 0x00, 0x2b, 0x7a, 0x02, 0x90, 0x29, 0x7a, 0x00, 0x35, 0x72,
  0x00, 0x41, 0x7b, 0x00, 0x45, 0x7b, 0x00, 0x48, 0x7b, 0x00, 0x92, 0x35,
  0x75, 0x00, 0x41, 0x75, 0x00, 0x45, 0x77, 0x00, 0x48, 0x77, 0x00, 0x93,
  0x48, 0x71, 0x00, 0x54, 0x71, 0x00, 0x9c, 0x48, 0x7b, 0x00, 0x9a, 0x24,
  0x7a, 0x00, 0x30, 0x79, 0x06, 0x99, 0x51, 0x6c, 0x08, 0x82, 0x45, 0x77,
  0x02, 0x48, 0x77, 0x00, 0x41, 0x75, 0x00, 0x8a, 0x30, 0x79, 0x02, 0x80,
  0x35, 0x72, 0x00, 0x82, 0x35, 0x75, 0x00, 0x83, 0x54, 0x71, 0x00, 0x8c,
  0x48, 0x7b, 0x00, 0x89, 0x2b, 0x7a, 0x00, 0x23, 0x7a, 0x00, 0x8a, 0x24,
  0x7a, 0x02, 0x80, 0x45, 0x7b, 0x00, 0x41, 0x7b, 0x00, 0x81, 0x1d, 0x7d,
  0x02, 0x80, 0x29, 0x7a, 0x00, 0x83, 0x48, 0x71, 0x02, 0x80, 0x48, 0x7b,
  0x04, 0x89, 0x51, 0x6c, 0x12, 0x91, 0x1d, 0x7c, 0x00, 0x99, 0x23, 0x79,
  0x00, 0x2b, 0x79, 0x02, 0x90, 0x29, 0x74, 0x00, 0x35, 0x76, 0x00, 0x41,
  0x75, 0x00, 0x45, 0x79, 0x00, 0x48, 0x74, 0x00, 0x92, 0x35, 0x74, 0x00,
  0x41, 0x72, 0x00, 0x45, 0x76, 0x00, 0x48, 0x71, 0x00, 0x93, 0x48, 0x71,
  0x00, 0x54, 0x71, 0x00, 0x9c, 0x48, 0x7a, 0x06, 0x99, 0x51, 0x6c, 0x06,
  0x80, 0x41, 0x75, 0x00, 0x82, 0x41, 0x72, 0x02, 0x80, 0x45, 0x79, 0x00,
  0x82, 0x45, 0x76, 0x00, 0x35, 0x74, 0x00, 0x89, 0x2b, 0x79, 0x02, 0x23,
  0x79, 0x02, 0x80, 0x29, 0x74, 0x00, 0x81, 0x1d, 0x7c, 0x00, 0x8c, 0x48,
  0x7a, 0x02, 0x83, 0x54, 0x71, 0x02, 0x80, 0x35, 0x76, 0x00, 0x82, 0x48,
  0x71, 0x02, 0x83, 0x48, 0x71, 0x02, 0x80, 0x48, 0x74, 0x00, 0x89, 0x51,
  0x6c, 0x14, 0x91, 0x1d, 0x7d, 0x00, 0x99, 0x23, 0x7a, 0x00, 0x2b, 0x79,
  0x02, 0x90, 0x29, 0x76, 0x00, 0x35, 0x7b, 0x00, 0x41, 0x78, 0x00, 0x44,
  0x7a, 0x00, 0x47, 0x75, 0x00, 0x92, 0x35, 0x75, 0x00, 0x41, 0x77, 0x00,
  0x44, 0x75, 0x00, 0x47, 0x77, 0x00, 0x93, 0x47, 0x71, 0x00, 0x53, 0x71,
  0x00, 0x9c, 0x47, 0x7b, 0x00, 0x9a, 0x24, 0x79, 0x00, 0x30, 0x79, 0x08,
  0x99, 0x51, 0x6f, 0x06, 0x8a, 0x30, 0x79, 0x00, 0x24, 0x79, 0x12, 0x8c,
  0x47, 0x7b, 0x00, 0x89, 0x51, 0x6f, 0x10, 0x23, 0x7a, 0x06, 0x2b, 0x79,
  0x04, 0x80, 0x41, 0x78, 0x02, 0x29, 0x76, 0x02, 0x44, 0x7a, 0x00, 0x35,
  0x7b, 0x00, 0x82, 0x41, 0x77, 0x00, 0x35, 0x75, 0x02, 0x44, 0x75, 0x06,
  0x47, 0x77, 0x02, 0x80, 0x47, 0x75, 0x00, 0x81, 0x1d, 0x7d, 0x00, 0x83,
  0x47, 0x71, 0x04, 0x53, 0x71, 0x12, 0x91, 0x1d, 0x7d, 0x00, 0x99, 0x23,
  0x7b, 0x00, 0x2b, 0x7b, 0x02, 0x90, 0x29, 0x75, 0x00, 0x35, 0x7b, 0x00,
  0x41, 0x7b, 0x00, 0x45, 0x7b, 0x00, 0x48, 0x7b, 0x00, 0x92, 0x35, 0x75,
  0x00, 0x41, 0x72, 0x00, 0x45, 0x76, 0x00, 0x48, 0x73, 0x00, 0x93, 0x48,
  0x71, 0x00, 0x54, 0x71, 0x00, 0x9c, 0x48, 0x7b, 0x00, 0x9a, 0x24, 0x78,
  0x00, 0x30, 0x79, 0x08, 0x99, 0x51, 0x71, 0x0a, 0x8a, 0x30, 0x79, 0x00,
  0x24, 0x78, 0x0c, 0x89, 0x51, 0x71, 0x14, 0x8c, 0x48, 0x7b, 0x0a, 0x89,
  0x2b, 0x7b, 0x00, 0x23, 0x7b, 0x04, 0x80, 0x41, 0x7b, 0x02, 0x29, 0x75,
  0x00, 0x82, 0x41, 0x72, 0x02, 0x80, 0x35, 0x7b, 0x00, 0x81, 0x1d, 0x7d,
  0x02, 0x80, 0x45, 0x7b, 0x04, 0x82, 0x45, 0x76, 0x00, 0x35, 0x75, 0x02,
  0x80, 0x48, 0x7b, 0x00, 0x82, 0x48, 0x73, 0x06, 0x83, 0x54, 0x71, 0x04,
  0x48, 0x71, 0x08, 0x91, 0x1d, 0x7d, 0x00, 0x99, 0x23, 0x7b, 0x00, 0x2d,
  0x7a, 0x02, 0x90, 0x29, 0x69, 0x00, 0x35, 0x77, 0x00, 0x41, 0x7b, 0x00,
  0x46, 0x7b, 0x00, 0x4a, 0x76, 0x00, 0x92, 0x35, 0x78, 0x00, 0x41, 0x73,
  0x00, 0x46, 0x77, 0x00, 0x4a, 0x70, 0x00, 0x93, 0x4a, 0x71, 0x00, 0x56,
  0x71, 0x00, 0x9c, 0x4a, 0x7b, 0x00, 0x9a, 0x24, 0x78, 0x00, 0x30, 0x79,
  0x06, 0x99, 0x51, 0x6f, 0x08, 0x80, 0x46, 0x7b, 0x00, 0x82, 0x46, 0x77,
  0x00, 0x41, 0x73, 0x00, 0x8a, 0x30, 0x79, 0x02, 0x80, 0x4a, 0x76, 0x00,
  0x41, 0x7b, 0x00, 0x29, 0x69, 0x00, 0x82, 0x4a, 0x70, 0x00, 0x35, 0x78,
  0x02, 0x80, 0x35, 0x77, 0x00, 0x8a, 0x24, 0x78, 0x02, 0x81, 0x1d, 0x7d,
  0x00, 0x83, 0x56, 0x71, 0x00, 0x89, 0x2d, 0x7a, 0x00, 0x23, 0x7b, 0x02,
  0x83, 0x4a, 0x71, 0x00, 0x8c, 0x4a, 0x7b, 0x00, 0x89, 0x51, 0x6f, 0x18,
  0x91, 0x1d, 0x7b, 0x00, 0x99, 0x23, 0x79, 0x00, 0x2d, 0x78, 0x02, 0x90,
  0x29, 0x75, 0x00, 0x35, 0x78, 0x00, 0x41, 0x78, 0x00, 0x46, 0x78, 0x00,
  0x4a, 0x78, 0x00, 0x92, 0x35, 0x76, 0x00, 0x41, 0x71, 0x00, 0x46, 0x76,
  0x00, 0x4a, 0x75, 0x00, 0x93, 0x4a, 0x71, 0x00, 0x56, 0x71, 0x00, 0x9c,
  0x4a, 0x79, 0x04, 0x99, 0x51, 0x6d, 0x06, 0x80, 0x4a, 0x78, 0x00, 0x82,
  0x41, 0x71, 0x02, 0x80, 0x41, 0x78, 0x02, 0x29, 0x75, 0x02, 0x82, 0x4a,
  0x75, 0x00, 0x35, 0x76, 0x02, 0x80, 0x35, 0x78, 0x00, 0x82, 0x46, 0x76,
  0x02, 0x89, 0x2d, 0x78, 0x02, 0x80, 0x46, 0x78, 0x00, 0x81, 0x1d, 0x7b,
  0x00, 0x8c, 0x4a, 0x79, 0x02, 0x83, 0x56, 0x71, 0x00, 0x4a, 0x71, 0x00,
  0x89, 0x23, 0x79, 0x02, 0x51, 0x6d, 0x14, 0x91, 0x1d, 0x7d, 0x00, 0x99,
  0x23, 0x7c, 0x00, 0x2b, 0x7b, 0x02, 0x90, 0x29, 0x78, 0x00, 0x35, 0x78,
  0x00, 0x41, 0x7a, 0x00, 0x45, 0x7a, 0x00, 0x48, 0x75, 0x00, 0x92, 0x35,
  0x79, 0x00, 0x41, 0x75, 0x00, 0x45, 0x79, 0x00, 0x48, 0x74, 0x00, 0x93,
  0x48, 0x71, 0x00, 0x54, 0x71, 0x00, 0x9c, 0x48, 0x7c, 0x00, 0x9a, 0x24,
  0x79, 0x00, 0x30, 0x77, 0x04, 0x99, 0x51, 0x6e, 0x0a, 0x8a, 0x30, 0x77,
  0x00, 0x24, 0x79, 0x0e, 0x89, 0x51, 0x6e, 0x0c, 0x8c, 0x48, 0x7c, 0x10,
  0x80, 0x45, 0x7a, 0x04, 0x29, 0x78, 0x06, 0x41, 0x7a, 0x00, 0x82, 0x45,
  0x79, 0x00, 0x89, 0x2b, 0x7b, 0x02, 0x80, 0x48, 0x75, 0x00, 0x35, 0x78,
  0x00, 0x82, 0x41, 0x75, 0x00, 0x89, 0x23, 0x7c, 0x04, 0x81, 0x1d, 0x7d,
  0x00, 0x82, 0x35, 0x79, 0x06, 0x48, 0x74, 0x08, 0x83, 0x48, 0x71, 0x04,
  0x54, 0x71, 0x04, 0x91, 0x1d, 0x7d, 0x00, 0x99, 0x23, 0x7a, 0x00, 0x29,
  0x7b, 0x00, 0x51, 0x71, 0x02, 0x90, 0x29, 0x75, 0x00, 0x35, 0x78, 0x00,
  0x41, 0x72, 0x00, 0x44, 0x7a, 0x00, 0x47, 0x75, 0x00, 0x92, 0x35, 0x77,
  0x00, 0x41, 0x68, 0x00, 0x44, 0x75, 0x00, 0x47, 0x72, 0x00, 0x93, 0x47,
  0x71, 0x00, 0x53, 0x71, 0x00, 0x9c, 0x47, 0x7c, 0x00, 0x9a, 0x24, 0x78,
  0x00, 0x30, 0x79, 0x0c, 0x80, 0x47, 0x75, 0x02, 0x8a, 0x30, 0x79, 0x00,
  0x24, 0x78, 0x02, 0x82, 0x47, 0x72, 0x02, 0x80, 0x41, 0x72, 0x00, 0x29,
  0x75, 0x00, 0x82, 0x41, 0x68, 0x00, 0x83, 0x53, 0x71, 0x00, 0x47, 0x71,
  0x00, 0x8c, 0x47, 0x7c, 0x00, 0x89, 0x51, 0x71, 0x04, 0x80, 0x35, 0x78,
  0x00, 0x82, 0x35, 0x77, 0x00, 0x89, 0x29, 0x7b, 0x00, 0x23, 0x7a, 0x02,
  0x80, 0x44, 0x7a, 0x00, 0x81, 0x1d, 0x7d, 0x00, 0x82, 0x44, 0x75, 0x16,
  0x91, 0x1d, 0x7a, 0x00, 0x99, 0x23, 0x7a, 0x00, 0x29, 0x79, 0x00, 0x51,
  0x6b, 0x02, 0x90, 0x29, 0x72, 0x00, 0x35, 0x7a, 0x00, 0x41, 0x5d, 0x00,
  0x44, 0x6e, 0x00, 0x47, 0x73, 0x00, 0x92, 0x35, 0x76, 0x00, 0x41, 0x71,
  0x00, 0x44, 0x72, 0x00, 0x47, 0x74, 0x00, 0x93, 0x47, 0x71, 0x00, 0x53,
  0x71, 0x00, 0x9c, 0x47, 0x7c, 0x12, 0x89, 0x51, 0x6b, 0x02, 0x83, 0x53,
  0x71, 0x02, 0x80, 0x41, 0x5d, 0x00, 0x29, 0x72, 0x00, 0x82, 0x41, 0x71,
  0x00, 0x83, 0x47, 0x71, 0x00, 0x8c, 0x47, 0x7c, 0x00, 0x89, 0x29, 0x79,
  0x02, 0x82, 0x35, 0x76, 0x02, 0x80, 0x35, 0x7a, 0x00, 0x89, 0x23, 0x7a,
  0x02, 0x80, 0x44, 0x6e, 0x02, 0x47, 0x73, 0x00, 0x81, 0x1d, 0x7a, 0x00,
  0x82, 0x44, 0x72, 0x04, 0x47, 0x74, 0x0c, 0x91, 0x1d, 0x7d, 0x00, 0x99,
  0x23, 0x7c, 0x00, 0x2b, 0x7b, 0x02, 0x90, 0x29, 0x77, 0x00, 0x35, 0x7b,
  0x00, 0x41, 0x7b, 0x00, 0x45, 0x7b, 0x00, 0x48, 0x7b, 0x00, 0x92, 0x35,
  0x77, 0x00, 0x41, 0x75, 0x00, 0x45, 0x79, 0x00, 0x48, 0x77, 0x00, 0x93,
  0x48, 0x71, 0x00, 0x54, 0x71, 0x00, 0x9c, 0x48, 0x7b, 0x00, 0x99, 0x51,
  0x6d, 0x00, 0x9a, 0x24, 0x79, 0x00, 0x30, 0x7a, 0x12, 0x8a, 0x30, 0x7a,
  0x00, 0x24, 0x79, 0x06, 0x89, 0x51, 0x6d, 0x0c, 0x80, 0x45, 0x7b, 0x02,
  0x48, 0x7b, 0x00, 0x29, 0x77, 0x02, 0x8c, 0x48, 0x7b, 0x08, 0x80, 0x35,
  0x7b, 0x04, 0x41, 0x7b, 0x06, 0x89, 0x2b, 0x7b, 0x02, 0x83, 0x54, 0x71,
  0x04, 0x48, 0x71, 0x02, 0x82, 0x35, 0x77, 0x00, 0x89, 0x23, 0x7c, 0x04,
  0x82, 0x45, 0x79, 0x00, 0x41, 0x75, 0x04, 0x48, 0x77, 0x0e, 0x81, 0x1d,
  0x7d, 0x06, 0x91, 0x22, 0x7d, 0x00, 0x99, 0x23, 0x7c, 0x00, 0x31, 0x7b,
  0x02, 0x90, 0x2e, 0x79, 0x00, 0x3a, 0x7a, 0x00, 0x41, 0x7b, 0x00, 0x46,
  0x7b, 0x00, 0x4a, 0x79, 0x00, 0x92, 0x3a, 0x76, 0x00, 0x41, 0x6f, 0x00,
  0x46, 0x76, 0x00, 0x4a, 0x75, 0x00, 0x93, 0x4a, 0x71, 0x00, 0x56, 0x71,
  0x00, 0x9c, 0x4a, 0x7a, 0x00, 0x99, 0x51, 0x72, 0x00, 0x9a, 0x24, 0x7a,
  0x00, 0x30, 0x7a, 0x0e, 0x8a, 0x24, 0x7a, 0x04, 0x30, 0x7a, 0x06, 0x89,
  0x51, 0x72, 0x08, 0x8c, 0x4a, 0x7a, 0x16, 0x80, 0x41, 0x7b, 0x04, 0x4a,
  0x79, 0x02, 0x83, 0x4a, 0x71, 0x02, 0x80, 0x46, 0x7b, 0x02, 0x83, 0x56,
  0x71, 0x02, 0x80, 0x2e, 0x79, 0x00, 0x82, 0x41, 0x6f, 0x04, 0x81, 0x22,
  0x7d, 0x00, 0x82, 0x46, 0x76, 0x02, 0x80, 0x3a, 0x7a, 0x00, 0x82, 0x4a,
  0x75, 0x04, 0x3a, 0x76, 0x12, 0x91, 0x22, 0x7d, 0x00, 0x89, 0x23, 0x79,
  0x00, 0x99, 0x23, 0x79, 0x00, 0x2b, 0x79, 0x02, 0x90, 0x2e, 0x77, 0x00,
  0x3a, 0x7b, 0x00, 0x41, 0x7b, 0x00, 0x46, 0x7a, 0x00, 0x4a, 0x7a, 0x00,
  0x92, 0x3a, 0x77, 0x00, 0x41, 0x70, 0x00, 0x46, 0x75, 0x00, 0x4a, 0x77,
  0x00, 0x93, 0x4a, 0x71, 0x00, 0x56, 0x71, 0x00, 0x9c, 0x4a, 0x7b, 0x04,
  0x99, 0x51, 0x6c, 0x0e, 0x89, 0x51, 0x6c, 0x04, 0x8c, 0x4a, 0x7b, 0x02,
  0x82, 0x41, 0x70, 0x06, 0x81, 0x22, 0x7d, 0x00, 0x82, 0x3a, 0x77, 0x00,
  0x83, 0x56, 0x71, 0x04, 0x82, 0x4a, 0x77, 0x02, 0x46, 0x75, 0x08, 0x83,
  0x4a, 0x71, 0x02, 0x91, 0x22, 0x77, 0x00, 0x89, 0x2b, 0x7c, 0x00, 0x23,
  0x7c, 0x00, 0x99, 0x23, 0x7c, 0x00, 0x2b, 0x7c, 0x00, 0x51, 0x6a, 0x02,
  0x90, 0x4c, 0x75, 0x00, 0x92, 0x3a, 0x75, 0x00, 0x41, 0x6b, 0x00, 0x4c,
  0x68, 0x00, 0x93, 0x4c, 0x71, 0x00, 0x58, 0x71, 0x00, 0x9c, 0x4c, 0x7a,
  0x08, 0x89, 0x31, 0x7b, 0x04, 0x80, 0x4a, 0x7a, 0x02, 0x46, 0x7a, 0x04,
  0x41, 0x7b, 0x00, 0x82, 0x41, 0x6b, 0x00, 0x89, 0x51, 0x6a, 0x02, 0x80,
  0x3a, 0x7b, 0x02, 0x2e, 0x77, 0x00, 0x82, 0x4c, 0x68, 0x02, 0x8c, 0x4c,
  0x7a, 0x06, 0x80, 0x4c, 0x75, 0x04, 0x82, 0x3a, 0x75, 0x00, 0x83, 0x4c,
  0x71, 0x02, 0x58, 0x71, 0x02, 0x81, 0x22, 0x77, 0x08, 0x91, 0x21, 0x7d,
  0x00, 0x89, 0x2b, 0x79, 0x00, 0x23, 0x7c, 0x00, 0x99, 0x23, 0x7c, 0x00,
  0x39, 0x7b, 0x02, 0x90, 0x2d, 0x7b, 0x00, 0x39, 0x7a, 0x00, 0x41, 0x7a,
  0x00, 0x45, 0x7b, 0x00, 0x48, 0x7b, 0x00, 0x92, 0x39, 0x77, 0x00, 0x41,
  0x79, 0x00, 0x45, 0x78, 0x00, 0x48, 0x75, 0x00, 0x93, 0x48, 0x71, 0x00,
  0x54, 0x71, 0x00, 0x9c, 0x48, 0x7c, 0x00, 0x99, 0x51, 0x71, 0x00, 0x9a,
  0x24, 0x7a, 0x00, 0x30, 0x7a, 0x12, 0x8a, 0x30, 0x7a, 0x00, 0x24, 0x7a,
  0x06, 0x89, 0x51, 0x71, 0x02, 0x82, 0x41, 0x79, 0x02, 0x45, 0x78, 0x02,
  0x80, 0x48, 0x7b, 0x02, 0x45, 0x7b, 0x00, 0x39, 0x7a, 0x00, 0x2d, 0x7b,
  0x00, 0x82, 0x39, 0x77, 0x00, 0x8c, 0x48, 0x7c, 0x02, 0x80, 0x41, 0x7a,
  0x00, 0x82, 0x48, 0x75, 0x12, 0x83, 0x54, 0x71, 0x02, 0x48, 0x71, 0x08,
  0x81, 0x21, 0x7d, 0x20, 0x91, 0x21, 0x7d, 0x00, 0x89, 0x23, 0x78, 0x00,
  0x99, 0x23, 0x78, 0x00, 0x2b, 0x78, 0x02, 0x90, 0x2d, 0x7b, 0x00, 0x39,
  0x7b, 0x00, 0x41, 0x7b, 0x00, 0x45, 0x7b, 0x00, 0x48, 0x7b, 0x00, 0x92,
  0x39, 0x77, 0x00, 0x45, 0x77, 0x00, 0x48, 0x77, 0x00, 0x93, 0x48, 0x71,
  0x00, 0x54, 0x71, 0x00, 0x9c, 0x48, 0x7b, 0x06, 0x99, 0x51, 0x72, 0x0c,
  0x83, 0x54, 0x71, 0x00, 0x8c, 0x48, 0x7b, 0x04, 0x80, 0x41, 0x7b, 0x00,
  0x82, 0x39, 0x77, 0x00, 0x83, 0x48, 0x71, 0x02, 0x89, 0x51, 0x72, 0x02,
  0x81, 0x21, 0x7d, 0x00, 0x89, 0x39, 0x7b, 0x0a, 0x82, 0x48, 0x77, 0x02,
  0x45, 0x77, 0x04, 0x80, 0x48, 0x7b, 0x04, 0x45, 0x7b, 0x00, 0x91, 0x21,
  0x7b, 0x00, 0x89, 0x2b, 0x7b, 0x00, 0x23, 0x7b, 0x00, 0x99, 0x23, 0x7b,
  0x00, 0x2b, 0x7b, 0x02, 0x90, 0x41, 0x7a, 0x00, 0x92, 0x39, 0x77, 0x00,
  0x41, 0x76, 0x00, 0x93, 0x48, 0x71, 0x00, 0x54, 0x71, 0x00, 0x9c, 0x48,
  0x79, 0x00, 0x99, 0x51, 0x6f, 0x0c, 0x80, 0x39, 0x7b, 0x0a, 0x8c, 0x48,
  0x79, 0x02, 0x80, 0x2d, 0x7b, 0x00, 0x83, 0x54, 0x71, 0x00, 0x89, 0x51,
  0x6f, 0x04, 0x83, 0x48, 0x71, 0x02, 0x82, 0x41, 0x76, 0x06, 0x81, 0x21,
  0x7b, 0x02, 0x82, 0x39, 0x77, 0x08, 0x91, 0x1f, 0x7d, 0x00, 0x89, 0x2b,
  0x78, 0x00, 0x23, 0x7c, 0x00, 0x99, 0x23, 0x7c, 0x00, 0x31, 0x7c, 0x02,
  0x90, 0x2b, 0x7b, 0x00, 0x37, 0x78, 0x00, 0x43, 0x7a, 0x00, 0x47, 0x7b,
  0x00, 0x92, 0x37, 0x79, 0x00, 0x41, 0x74, 0x00, 0x43, 0x76, 0x00, 0x47,
  0x77, 0x00, 0x93, 0x47, 0x71, 0x00, 0x53, 0x71, 0x00, 0x9c, 0x47, 0x7b,
  0x00, 0x9a, 0x24, 0x7a, 0x00, 0x30, 0x7a, 0x02, 0x99, 0x51, 0x74, 0x10,
  0x8a, 0x30, 0x7a, 0x00, 0x24, 0x7a, 0x04, 0x89, 0x51, 0x74, 0x06, 0x82,
  0x41, 0x74, 0x00, 0x8c, 0x47, 0x7b, 0x02, 0x82, 0x43, 0x76, 0x02, 0x47,
  0x77, 0x04, 0x80, 0x47, 0x7b, 0x02, 0x37, 0x78, 0x00, 0x2b, 0x7b, 0x00,
  0x41, 0x7a, 0x00, 0x82, 0x37, 0x79, 0x02, 0x80, 0x43, 0x7a, 0x06, 0x83,
  0x53, 0x71, 0x04, 0x47, 0x71, 0x08, 0x89, 0x23, 0x7c, 0x12, 0x81, 0x1f,
  0x7d, 0x12, 0x91, 0x1f, 0x7b, 0x00, 0x99, 0x23, 0x7b, 0x00, 0x2b, 0x7b,
  0x02, 0x90, 0x2b, 0x7b, 0x00, 0x37, 0x7b, 0x00, 0x41, 0x7b, 0x00, 0x43,
  0x7b, 0x00, 0x47, 0x76, 0x00, 0x92, 0x37, 0x75, 0x00, 0x41, 0x75, 0x00,
  0x43, 0x77, 0x00, 0x47, 0x79, 0x00, 0x93, 0x47, 0x71, 0x00, 0x53, 0x71,
  0x00, 0x9c, 0x47, 0x7b, 0x00, 0x9a, 0x24, 0x7a, 0x00, 0x30, 0x79, 0x08,
  0x99, 0x51, 0x73, 0x02, 0x89, 0x31, 0x7c, 0x06, 0x23, 0x7b, 0x00, 0x8a,
  0x30, 0x79, 0x02, 0x8c, 0x47, 0x7b, 0x00, 0x89, 0x2b, 0x7b, 0x02, 0x80,
  0x43, 0x7b, 0x00, 0x81, 0x1f, 0x7b, 0x00, 0x83, 0x53, 0x71, 0x00, 0x47,
  0x71, 0x00, 0x8a, 0x24, 0x7a, 0x02, 0x80, 0x2b, 0x7b, 0x02, 0x41, 0x7b,
  0x00, 0x82, 0x41, 0x75, 0x02, 0x80, 0x47, 0x76, 0x02, 0x37, 0x7b, 0x00,
  0x82, 0x43, 0x77, 0x02, 0x47, 0x79, 0x00, 0x89, 0x51, 0x73, 0x02, 0x82,
  0x37, 0x75, 0x0e, 0x91, 0x1f, 0x7b, 0x00, 0x99, 0x23, 0x7c, 0x00, 0x2b,
  0x7b, 0x02, 0x90, 0x2b, 0x71, 0x00, 0x37, 0x7b, 0x00, 0x41, 0x79, 0x00,
  0x43, 0x7a, 0x00, 0x47, 0x73, 0x00, 0x92, 0x37, 0x73, 0x00, 0x41, 0x73,
  0x00, 0x43, 0x73, 0x00, 0x47, 0x74, 0x00, 0x93, 0x47, 0x71, 0x00, 0x53,
  0x71, 0x00, 0x9c, 0x47, 0x7c, 0x06, 0x99, 0x51, 0x70, 0x0a, 0x89, 0x2b,
  0x7b, 0x04, 0x80, 0x41, 0x79, 0x02, 0x8c, 0x47, 0x7c, 0x00, 0x89, 0x23,
  0x7c, 0x02, 0x80, 0x43, 0x7a, 0x02, 0x83, 0x53, 0x71, 0x00, 0x89, 0x51,
  0x70, 0x06, 0x82, 0x43, 0x73, 0x00, 0x41, 0x73, 0x00, 0x83, 0x47, 0x71,
  0x02, 0x80, 0x47, 0x73, 0x0c, 0x2b, 0x71, 0x00, 0x91, 0x24, 0x7d, 0x00,
  0x82, 0x47, 0x74, 0x00, 0x99, 0x23, 0x7c, 0x00, 0x2e, 0x7b, 0x02, 0x80,
  0x37, 0x7b, 0x00, 0x90, 0x30, 0x7a, 0x00, 0x3c, 0x7a, 0x00, 0x43, 0x7b,
  0x00, 0x48, 0x7a, 0x00, 0x81, 0x1f, 0x7b, 0x00, 0x92, 0x30, 0x77, 0x00,
  0x3c, 0x79, 0x00, 0x40, 0x77, 0x00, 0x43, 0x79, 0x00, 0x48, 0x77, 0x00,
  0x93, 0x48, 0x71, 0x00, 0x54, 0x71, 0x00, 0x9c, 0x48, 0x7b, 0x00, 0x9a,
  0x24, 0x7a, 0x00, 0x30, 0x7a, 0x02, 0x99, 0x51, 0x75, 0x06, 0x82, 0x37,
  0x73, 0x0a, 0x8a, 0x30, 0x7a, 0x06, 0x24, 0x7a, 0x02, 0x80, 0x3c, 0x7a,
  0x00, 0x8c, 0x48, 0x7b, 0x00, 0x89, 0x51, 0x75, 0x0a, 0x83, 0x54, 0x71,
  0x04, 0x80, 0x43, 0x7b, 0x06, 0x82, 0x30, 0x77, 0x02, 0x3c, 0x79, 0x00,
  0x83, 0x48, 0x71, 0x02, 0x80, 0x48, 0x7a, 0x00, 0x82, 0x40, 0x77, 0x02,
  0x43, 0x79, 0x06, 0x48, 0x77, 0x0c, 0x81, 0x24, 0x7d, 0x02, 0x80, 0x30,
  0x7a, 0x16, 0x89, 0x2e, 0x7b, 0x02, 0x90, 0x48, 0x7b, 0x14, 0x80, 0x48,
  0x7b, 0x1c, 0x90, 0x48, 0x79, 0x08, 0x89, 0x23, 0x7c, 0x20, 0x80, 0x48,
  0x79, 0x08, 0x90, 0x46, 0x7a, 0x00, 0x4a, 0x77, 0x24, 0x80, 0x4a, 0x77,
  0x0c, 0x90, 0x4d, 0x75, 0x2e, 0x80, 0x4d, 0x75, 0x02, 0x46, 0x7a, 0x00,
  0x90, 0x45, 0x7b, 0x00, 0x48, 0x79, 0x30, 0x80, 0x48, 0x79, 0x00, 0x90,
  0x4d, 0x79, 0x20, 0x80, 0x45, 0x7b, 0x10, 0x90, 0x44, 0x76, 0x00, 0x47,
  0x76, 0x02, 0x80, 0x4d, 0x79, 0x2a, 0x47, 0x76, 0x04, 0x90, 0x4d, 0x76,
  0x30, 0x80, 0x44, 0x76, 0x00, 0x90, 0x43, 0x7a, 0x00, 0x46, 0x7b, 0x04,
  0x80, 0x4d, 0x76, 0x28, 0x43, 0x7a, 0x04, 0x90, 0x4d, 0x78, 0x06, 0x80,
  0x46, 0x7b, 0x0c, 0x4d, 0x78, 0x1c, 0x91, 0x25, 0x76, 0x02, 0x90, 0x3d,
  0x7b, 0x00, 0x41, 0x78, 0x00, 0x44, 0x7a, 0x00, 0x49, 0x78, 0x00, 0x92,
  0x31, 0x71, 0x00, 0x38, 0x71, 0x00, 0x3d, 0x71, 0x06, 0x82, 0x31, 0x71,
  0x06, 0x3d, 0x71, 0x00, 0x38, 0x71, 0x02, 0x80, 0x41, 0x78, 0x04, 0x44,
  0x7a, 0x04, 0x49, 0x78, 0x06, 0x81, 0x25, 0x76, 0x06, 0x80, 0x3d, 0x7b,
  0x0c, 0x91, 0x25, 0x6a, 0x02, 0x90, 0x3d, 0x7b, 0x00, 0x41, 0x78, 0x00,
  0x44, 0x7a, 0x00, 0x49, 0x78, 0x00, 0x92, 0x31, 0x71, 0x00, 0x38, 0x73,
  0x0e, 0x80, 0x41, 0x78, 0x00, 0x82, 0x38, 0x73, 0x02, 0x31, 0x71, 0x02,
  0x80, 0x44, 0x7a, 0x04, 0x49, 0x78, 0x0c, 0x3d, 0x7b, 0x06, 0x81, 0x25,
  0x6a, 0x06, 0x91, 0x24, 0x79, 0x02, 0x90, 0x3c, 0x7b, 0x00, 0x40, 0x77,
  0x00, 0x43, 0x77, 0x00, 0x48, 0x70, 0x00, 0x92, 0x24, 0x72, 0x00, 0x2b,
  0x74, 0x00, 0x30, 0x76, 0x0c, 0x82, 0x24, 0x72, 0x02, 0x30, 0x76, 0x00,
  0x2b, 0x74, 0x02, 0x80, 0x40, 0x77, 0x02, 0x48, 0x70, 0x00, 0x43, 0x77,
  0x02, 0x3c, 0x7b, 0x0e, 0x81, 0x24, 0x79, 0x3c, 0x91, 0x23, 0x74, 0x02,
  0x90, 0x3b, 0x75, 0x00, 0x3f, 0x75, 0x00, 0x42, 0x75, 0x00, 0x47, 0x70,
  0x00, 0x92, 0x23, 0x67, 0x00, 0x2a, 0x71, 0x00, 0x2f, 0x70, 0x08, 0x82,
  0x23, 0x67, 0x02, 0x2f, 0x70, 0x02, 0x2a, 0x71, 0x02, 0x80, 0x3f, 0x75,
  0x04, 0x3b, 0x75, 0x02, 0x47, 0x70, 0x02, 0x81, 0x23, 0x74, 0x02, 0x80,
  0x42, 0x75, 0x16, 0x91, 0x23, 0x6f, 0x02, 0x90, 0x3b, 0x75, 0x00, 0x3f,
  0x5f, 0x00, 0x42, 0x6d, 0x00, 0x47, 0x66, 0x00, 0x92, 0x23, 0x6c, 0x00,
  0x2a, 0x70, 0x00, 0x2f, 0x64, 0x0a, 0x82, 0x2f, 0x64, 0x00, 0x23, 0x6c,
  0x02, 0x2a, 0x70, 0x0c, 0x80, 0x3f, 0x5f, 0x02, 0x47, 0x66, 0x00, 0x42,
  0x6d, 0x0e, 0x81, 0x23, 0x6f, 0x06, 0x91, 0x24, 0x76, 0x02, 0x80, 0x3b,
  0x75, 0x00, 0x90, 0x3c, 0x7a, 0x00, 0x40, 0x76, 0x00, 0x43, 0x71, 0x00,
  0x48, 0x74, 0x00, 0x92, 0x24, 0x76, 0x00, 0x2b, 0x70, 0x00, 0x30, 0x71,
  0x12, 0x82, 0x2b, 0x70, 0x02, 0x80, 0x40, 0x76, 0x00, 0x82, 0x30, 0x71,
  0x00, 0x24, 0x76, 0x02, 0x80, 0x43, 0x71, 0x02, 0x48, 0x74, 0x06, 0x3c,
  0x7a, 0x10, 0x81, 0x24, 0x76, 0x30, 0x91, 0x25, 0x76, 0x02, 0x90, 0x3d,
  0x77, 0x00, 0x41, 0x73, 0x00, 0x44, 0x78, 0x00, 0x49, 0x76, 0x00, 0x92,
  0x25, 0x73, 0x00, 0x2c, 0x75, 0x00, 0x31, 0x70, 0x0c, 0x82, 0x2c, 0x75,
  0x04, 0x81, 0x25, 0x76, 0x00, 0x82, 0x31, 0x70, 0x00, 0x25, 0x73, 0x02,
  0x80, 0x41, 0x73, 0x02, 0x44, 0x78, 0x04, 0x3d, 0x77, 0x02, 0x49, 0x76,
  0x14, 0x91, 0x25, 0x76, 0x02, 0x90, 0x3d, 0x75, 0x00, 0x41, 0x6b, 0x00,
  0x44, 0x78, 0x00, 0x49, 0x78, 0x00, 0x92, 0x25, 0x73, 0x00, 0x2c, 0x70,
  0x00, 0x31, 0x68, 0x0a, 0x80, 0x41, 0x6b, 0x06, 0x82, 0x31, 0x68, 0x00,
  0x2c, 0x70, 0x00, 0x25, 0x73, 0x02, 0x80, 0x49, 0x78, 0x02, 0x44, 0x78,
  0x08, 0x81, 0x25, 0x76, 0x06, 0x80, 0x3d, 0x75, 0x0c, 0x91, 0x24, 0x75,
  0x02, 0x90, 0x3c, 0x76, 0x00, 0x40, 0x79, 0x00, 0x43, 0x75, 0x00, 0x48,
  0x75, 0x00, 0x92, 0x24, 0x6f, 0x00, 0x2b, 0x70, 0x00, 0x30, 0x6f, 0x0e,
  0x80, 0x43, 0x75, 0x00, 0x82, 0x2b, 0x70, 0x02, 0x80, 0x40, 0x79, 0x00,
  0x82, 0x30, 0x6f, 0x02, 0x80, 0x48, 0x75, 0x00, 0x3c, 0x76, 0x00, 0x82,
  0x24, 0x6f, 0x0a, 0x81, 0x24, 0x75, 0x12, 0x91, 0x24, 0x72, 0x02, 0x90,
  0x3c, 0x70, 0x00, 0x43, 0x6c, 0x00, 0x48, 0x69, 0x00, 0x92, 0x24, 0x68,
  0x00, 0x30, 0x64, 0x12, 0x80, 0x48, 0x69, 0x00, 0x82, 0x30, 0x64, 0x02,
  0x80, 0x43, 0x6c, 0x02, 0x82, 0x24, 0x68, 0x12, 0x80, 0x3c, 0x70, 0x06,
  0x81, 0x24, 0x72, 0x00, 0x91, 0x23, 0x78, 0x02, 0x90, 0x3b, 0x78, 0x00,
  0x3f, 0x7b, 0x00, 0x42, 0x71, 0x00, 0x47, 0x77, 0x00, 0x92, 0x23, 0x73,
  0x00, 0x2a, 0x72, 0x00, 0x2f, 0x73, 0x10, 0x82, 0x2a, 0x72, 0x04, 0x80,
  0x42, 0x71, 0x02, 0x82, 0x2f, 0x73, 0x12, 0x23, 0x73, 0x04, 0x80, 0x3f,
  0x7b, 0x06, 0x47, 0x77, 0x20, 0x81, 0x23, 0x78, 0x02, 0x80, 0x3b, 0x78,
  0x0a, 0x91, 0x24, 0x7d, 0x00, 0x99, 0x23, 0x7c, 0x00, 0x31, 0x7b, 0x02,
  0x90, 0x30, 0x7b, 0x00, 0x3c, 0x7b, 0x00, 0x40, 0x7b, 0x00, 0x43, 0x7b,
  0x00, 0x48, 0x7b, 0x00, 0x92, 0x30, 0x74, 0x00, 0x3c, 0x74, 0x00, 0x40,
  0x74, 0x00, 0x43, 0x74, 0x00, 0x48, 0x74, 0x00, 0x9c, 0x3c, 0x7a, 0x00,
  0x48, 0x7c, 0x00, 0x9a, 0x24, 0x7a, 0x00, 0x30, 0x79, 0x02, 0x99, 0x51,
  0x6f, 0x10, 0x8a, 0x30, 0x79, 0x00, 0x24, 0x7a, 0x02, 0x80, 0x43, 0x7b,
  0x00, 0x40, 0x7b, 0x02, 0x89, 0x51, 0x6f, 0x02, 0x80, 0x3c, 0x7b, 0x02,
  0x82, 0x3c, 0x74, 0x00, 0x89, 0x23, 0x7c, 0x02, 0x82, 0x30, 0x74, 0x02,
  0x80, 0x48, 0x7b, 0x02, 0x82, 0x40, 0x74, 0x02, 0x43, 0x74, 0x04, 0x81,
  0x24, 0x7d, 0x00, 0x89, 0x31, 0x7b, 0x0a, 0x80, 0x30, 0x7b, 0x00, 0x82,
  0x48, 0x74, 0x12, 0x8c, 0x48, 0x7c, 0x00, 0x3c, 0x7a, 0x1c, 0x91, 0x1d,
  0x7d, 0x00, 0x99, 0x23, 0x7c, 0x00, 0x34, 0x7b, 0x02, 0x90, 0x29, 0x7b,
  0x00, 0x35, 0x7b, 0x00, 0x41, 0x7b, 0x00, 0x45, 0x7b, 0x00, 0x48, 0x7b,
  0x00, 0x4d, 0x7b, 0x00, 0x92, 0x29, 0x74, 0x00, 0x3c, 0x74, 0x00, 0x41,
  0x74, 0x00, 0x45, 0x74, 0x00, 0x48, 0x74, 0x00, 0x4d, 0x74, 0x00, 0x9a,
  0x24, 0x7b, 0x00, 0x30, 0x79, 0x02, 0x9c, 0x41, 0x7c, 0x00, 0x4d, 0x7a,
  0x02, 0x99, 0x51, 0x75, 0x0e, 0x8a, 0x30, 0x79, 0x00, 0x24, 0x7b, 0x04,
  0x80, 0x45, 0x7b, 0x02, 0x35, 0x7b, 0x00, 0x82, 0x3c, 0x74, 0x02, 0x89,
  0x51, 0x75, 0x02, 0x80, 0x4d, 0x7b, 0x00, 0x48, 0x7b, 0x02, 0x41, 0x7b,
  0x00, 0x82, 0x41, 0x74, 0x00, 0x29, 0x74, 0x02, 0x48, 0x74, 0x00, 0x45,
  0x74, 0x02, 0x80, 0x29, 0x7b, 0x06, 0x81, 0x1d, 0x7d, 0x02, 0x89, 0x23,
  0x7c, 0x02, 0x34, 0x7b, 0x04, 0x82, 0x4d, 0x74, 0x10, 0x8c, 0x4d, 0x7a,
  0x08, 0x41, 0x7c, 0x16, 0x91, 0x24, 0x7d, 0x00, 0x99, 0x23, 0x7c, 0x00,
  0x31, 0x7a, 0x02, 0x90, 0x24, 0x7b, 0x00, 0x30, 0x7b, 0x00, 0x40, 0x7b,
  0x00, 0x43, 0x7b, 0x00, 0x48, 0x7b, 0x00, 0x92, 0x30, 0x75, 0x00, 0x3c,
  0x77, 0x00, 0x40, 0x76, 0x00, 0x43, 0x78, 0x00, 0x9a, 0x24, 0x7a, 0x00,
  0x30, 0x79, 0x04, 0x9c, 0x3c, 0x78, 0x04, 0x48, 0x79, 0x00, 0x99, 0x51,
  0x75, 0x06, 0x80, 0x40, 0x7b, 0x04, 0x43, 0x7b, 0x00, 0x8a, 0x30, 0x79,
  0x00, 0x24, 0x7a, 0x02, 0x82, 0x3c, 0x77, 0x02, 0x80, 0x30, 0x7b, 0x04,
  0x89, 0x23, 0x7c, 0x02, 0x80, 0x48, 0x7b, 0x00, 0x82, 0x40, 0x76, 0x00,
  0x89, 0x51, 0x75, 0x04, 0x82, 0x43, 0x78, 0x02, 0x80, 0x24, 0x7b, 0x02,
  0x82, 0x30, 0x75, 0x08, 0x89, 0x31, 0x7a, 0x04, 0x81, 0x24, 0x7d, 0x0c,
  0x8c, 0x48, 0x79, 0x04, 0x3c, 0x78, 0x1e, 0x91, 0x1d, 0x7d, 0x00, 0x29,
  0x7d, 0x00, 0x99, 0x23, 0x7c, 0x00, 0x39, 0x7b, 0x02, 0x90, 0x1d, 0x7b,
  0x00, 0x29, 0x7b, 0x00, 0x41, 0x7b, 0x00, 0x45, 0x7b, 0x00, 0x48, 0x7b,
  0x00, 0x4d, 0x7b, 0x00, 0x92, 0x29, 0x72, 0x00, 0x41, 0x77, 0x00, 0x45,
  0x79, 0x00, 0x48, 0x77, 0x00, 0x4d, 0x7a, 0x00, 0x9a, 0x24, 0x7a, 0x00,
  0x30, 0x7a, 0x08, 0x9c, 0x41, 0x7c, 0x00, 0x4d, 0x7b, 0x00, 0x99, 0x51,
  0x77, 0x0c, 0x8a, 0x30, 0x7a, 0x00, 0x24, 0x7a, 0x0c, 0x89, 0x51, 0x77,
  0x3a, 0x82, 0x41, 0x77, 0x04, 0x89, 0x23, 0x7c, 0x02, 0x82, 0x4d, 0x7a,
  0x02, 0x48, 0x77, 0x00, 0x45, 0x79, 0x00, 0x29, 0x72, 0x06, 0x80, 0x4d,
  0x7b, 0x02, 0x48, 0x7b, 0x04, 0x45, 0x7b, 0x02, 0x41, 0x7b, 0x04, 0x89,
  0x39, 0x7b, 0x0a, 0x81, 0x29, 0x7d, 0x0a, 0x80, 0x1d, 0x7b, 0x00, 0x81,
  0x1d, 0x7d, 0x02, 0x8c, 0x41, 0x7c, 0x04, 0x80, 0x29, 0x7b, 0x02, 0x90,
  0x3c, 0x75, 0x00, 0x40, 0x75, 0x00, 0x43, 0x75, 0x00, 0x96, 0x3c, 0x79,
  0x00, 0x40, 0x77, 0x00, 0x43, 0x79, 0x00, 0x8c, 0x4d, 0x7b, 0x00, 0x9a,
  0x24, 0x72, 0x00, 0x30, 0x6f, 0x02, 0x99, 0x51, 0x68, 0x0c, 0x80, 0x40,
  0x75, 0x00, 0x3c, 0x75, 0x00, 0x8a, 0x30, 0x6f, 0x04, 0x80, 0x43, 0x75,
  0x00, 0x8a, 0x24, 0x72, 0x02, 0x86, 0x43, 0x79, 0x00, 0x3c, 0x79, 0x02,
  0x40, 0x77, 0x00, 0x89, 0x51, 0x68, 0x18, 0x99, 0x51, 0x6c, 0x02, 0x90,
  0x3c, 0x76, 0x00, 0x40, 0x76, 0x00, 0x43, 0x76, 0x00, 0x96, 0x3c, 0x78,
  0x00, 0x40, 0x77, 0x00, 0x43, 0x78, 0x00, 0x9a, 0x24, 0x74, 0x00, 0x30,
  0x70, 0x0a, 0x80, 0x3c, 0x76, 0x04, 0x8a, 0x30, 0x70, 0x00, 0x24, 0x74,
  0x04, 0x86, 0x40, 0x77, 0x00, 0x3c, 0x78, 0x00, 0x89, 0x51, 0x6c, 0x04,
  0x86, 0x43, 0x78, 0x12, 0x80, 0x43, 0x76, 0x08, 0x40, 0x76, 0x00, 0x90,
  0x3c, 0x74, 0x00, 0x41, 0x74, 0x00, 0x45, 0x74, 0x00, 0x96, 0x3c, 0x77,
  0x00, 0x41, 0x76, 0x00, 0x45, 0x77, 0x00, 0x99, 0x51, 0x71, 0x00, 0x9a,
  0x24, 0x7a, 0x00, 0x30, 0x76, 0x0e, 0x86, 0x41, 0x76, 0x00, 0x8a, 0x30,
  0x76, 0x02, 0x86, 0x45, 0x77, 0x00, 0x3c, 0x77, 0x02, 0x80, 0x3c, 0x74,
  0x00, 0x89, 0x51, 0x71, 0x00, 0x8a, 0x24, 0x7a, 0x1c, 0x99, 0x51, 0x74,
  0x02, 0x80, 0x41, 0x74, 0x00, 0x90, 0x3c, 0x75, 0x00, 0x43, 0x75, 0x00,
  0x46, 0x75, 0x00, 0x96, 0x3c, 0x75, 0x00, 0x43, 0x77, 0x00, 0x46, 0x78,
  0x00, 0x9a, 0x24, 0x78, 0x00, 0x30, 0x75, 0x0a, 0x80, 0x45, 0x74, 0x04,
  0x46, 0x75, 0x00, 0x86, 0x43, 0x77, 0x02, 0x3c, 0x75, 0x02, 0x89, 0x51,
  0x74, 0x00, 0x8a, 0x30, 0x75, 0x00, 0x24, 0x78, 0x06, 0x86, 0x46, 0x78,
  0x12, 0x80, 0x3c, 0x75, 0x02, 0x99, 0x51, 0x76, 0x04, 0x80, 0x43, 0x75,
  0x00, 0x90, 0x41, 0x76, 0x00, 0x45, 0x76, 0x00, 0x96, 0x3c, 0x77, 0x00,
  0x41, 0x78, 0x00, 0x45, 0x77, 0x00, 0x9a, 0x24, 0x7a, 0x00, 0x30, 0x77,
  0x12, 0x86, 0x45, 0x77, 0x00, 0x41, 0x78, 0x00, 0x89, 0x51, 0x76, 0x00,
  0x8a, 0x30, 0x77, 0x00, 0x24, 0x7a, 0x02, 0x86, 0x3c, 0x77, 0x1c, 0x80,
  0x41, 0x76, 0x00, 0x90, 0x40, 0x7b, 0x00, 0x43, 0x7b, 0x00, 0x96, 0x3c,
  0x79, 0x00, 0x40, 0x79, 0x00, 0x43, 0x7a, 0x00, 0x99, 0x51, 0x78, 0x00,
  0x9a, 0x24, 0x78, 0x00, 0x30, 0x79, 0x08, 0x80, 0x43, 0x7b, 0x08, 0x45,
  0x76, 0x02, 0x8a, 0x30, 0x79, 0x02, 0x24, 0x78, 0x04, 0x89, 0x51, 0x78,
  0x02, 0x86, 0x43, 0x7a, 0x00, 0x40, 0x79, 0x02, 0x3c, 0x79, 0x12, 0x91,
  0x1d, 0x7d, 0x00, 0x29, 0x7d, 0x00, 0x99, 0x23, 0x7a, 0x00, 0x31, 0x7b,
  0x02, 0x80, 0x40, 0x7b, 0x00, 0x90, 0x29, 0x7b, 0x00, 0x35, 0x7b, 0x00,
  0x41, 0x7b, 0x00, 0x45, 0x7b, 0x00, 0x48, 0x7b, 0x00, 0x4d, 0x7b, 0x00,
  0x92, 0x1d, 0x76, 0x00, 0x29, 0x7b, 0x00, 0x41, 0x77, 0x00, 0x48, 0x77,
  0x00, 0x4d, 0x76, 0x06, 0x9c, 0x41, 0x7b, 0x00, 0x4d, 0x78, 0x0a, 0x80,
  0x41, 0x7b, 0x00, 0x89, 0x31, 0x7b, 0x02, 0x23, 0x7a, 0x02, 0x80, 0x45,
  0x7b, 0x02, 0x82, 0x29, 0x7b, 0x02, 0x80, 0x4d, 0x7b, 0x00, 0x48, 0x7b,
  0x00, 0x81, 0x29, 0x7d, 0x00, 0x1d, 0x7d, 0x02, 0x82, 0x41, 0x77, 0x02,
  0x1d, 0x76, 0x02, 0x80, 0x35, 0x7b, 0x02, 0x29, 0x7b, 0x00, 0x82, 0x4d,
  0x76, 0x00, 0x48, 0x77, 0x00, 0x8c, 0x4d, 0x78, 0x02, 0x41, 0x7b, 0x0c,
  0x91, 0x1d, 0x7c, 0x00, 0x29, 0x7d, 0x00, 0x99, 0x23, 0x7c, 0x00, 0x39,
  0x7a, 0x02, 0x90, 0x29, 0x78, 0x00, 0x35, 0x7b, 0x00, 0x41, 0x7b, 0x00,
  0x45, 0x7b, 0x00, 0x48, 0x7b, 0x00, 0x4d, 0x7b, 0x00, 0x92, 0x1d, 0x74,
  0x00, 0x29, 0x74, 0x00, 0x41, 0x77, 0x00, 0x48, 0x77, 0x00, 0x4d, 0x75,
  0x06, 0x9c, 0x4d, 0x78, 0x02, 0x41, 0x79, 0x0a, 0x80, 0x41, 0x7b, 0x02,
  0x45, 0x7b, 0x00, 0x89, 0x39, 0x7a, 0x00, 0x23, 0x7c, 0x02, 0x80, 0x4d,
  0x7b, 0x00, 0x81, 0x29, 0x7d, 0x02, 0x80, 0x48, 0x7b, 0x00, 0x81, 0x1d,
  0x7c, 0x04, 0x80, 0x29, 0x78, 0x00, 0x82, 0x41, 0x77, 0x02, 0x80, 0x35,
  0x7b, 0x00, 0x82, 0x4d, 0x75, 0x02, 0x29, 0x74, 0x00, 0x1d, 0x74, 0x02,
  0x48, 0x77, 0x00, 0x8c, 0x41, 0x79, 0x00, 0x4d, 0x78, 0x0c, 0x91, 0x1d,
  0x7d, 0x00, 0x29, 0x7d, 0x00, 0x99, 0x23, 0x7c, 0x00, 0x31, 0x7b, 0x02,
  0x90, 0x29, 0x7b, 0x00, 0x35, 0x7b, 0x00, 0x41, 0x7b, 0x00, 0x45, 0x7b,
  0x00, 0x48, 0x7b, 0x00, 0x4d, 0x7b, 0x00, 0x92, 0x1d, 0x71, 0x00, 0x29,
  0x7a, 0x00, 0x41, 0x7b, 0x00, 0x48, 0x74, 0x00, 0x4d, 0x77, 0x08, 0x9c,
  0x4d, 0x7b, 0x06, 0x41, 0x7b, 0x38, 0x80, 0x4d, 0x7b, 0x02, 0x48, 0x7b,
  0x06, 0x45, 0x7b, 0x00, 0x41, 0x7b, 0x00, 0x35, 0x7b, 0x0e, 0x29, 0x7b,
  0x04, 0x89, 0x31, 0x7b, 0x00, 0x23, 0x7c, 0x08, 0x82, 0x4d, 0x77, 0x04,
  0x48, 0x74, 0x00, 0x41, 0x7b, 0x06, 0x81, 0x29, 0x7d, 0x04, 0x8c, 0x41,
  0x7b, 0x00, 0x4d, 0x7b, 0x12, 0x82, 0x29, 0x7a, 0x00, 0x1d, 0x71, 0x06,
  0x91, 0x24, 0x7d, 0x00, 0x99, 0x23, 0x7c, 0x00, 0x2b, 0x7c, 0x02, 0x90,
  0x24, 0x7b, 0x00, 0x30, 0x7b, 0x00, 0x3c, 0x7b, 0x00, 0x40, 0x7b, 0x00,
  0x43, 0x7b, 0x00, 0x48, 0x7b, 0x00, 0x92, 0x24, 0x78, 0x00, 0x3c, 0x77,
  0x00, 0x48, 0x78, 0x00, 0x9c, 0x3c, 0x79, 0x00, 0x9a, 0x24, 0x7b, 0x00,
  0x30, 0x79, 0x02, 0x81, 0x1d, 0x7d, 0x02, 0x99, 0x51, 0x7a, 0x02, 0x9c,
  0x48, 0x7b, 0x0c, 0x82, 0x3c, 0x77, 0x00, 0x8a, 0x30, 0x79, 0x00, 0x24,
  0x7b, 0x02, 0x80, 0x3c, 0x7b, 0x04, 0x40, 0x7b, 0x04, 0x43, 0x7b, 0x02,
  0x89, 0x51, 0x7a, 0x02, 0x80, 0x30, 0x7b, 0x04, 0x48, 0x7b, 0x02, 0x82,
  0x48, 0x78, 0x02, 0x80, 0x24, 0x7b, 0x00, 0x89, 0x23, 0x7c, 0x04, 0x2b,
  0x7c, 0x02, 0x81, 0x24, 0x7d, 0x04, 0x82, 0x24, 0x78, 0x0a, 0x8c, 0x48,
  0x7b, 0x08, 0x3c, 0x79, 0x1a, 0x91, 0x1d, 0x7d, 0x00, 0x29, 0x7d, 0x00,
  0x99, 0x23, 0x7c, 0x00, 0x2b, 0x7c, 0x02, 0x90, 0x1d, 0x7b, 0x00, 0x29,
  0x7b, 0x00, 0x41, 0x7b, 0x00, 0x45, 0x7b, 0x00, 0x48, 0x7b, 0x00, 0x4d,
  0x7b, 0x00, 0x92, 0x1d, 0x77, 0x00, 0x29, 0x78, 0x00, 0x41, 0x78, 0x00,
  0x45, 0x78, 0x00, 0x48, 0x76, 0x00, 0x4d, 0x7a, 0x00, 0x9a, 0x24, 0x7a,
  0x00, 0x30, 0x7a, 0x06, 0x99, 0x51, 0x76, 0x04, 0x9c, 0x41, 0x7c, 0x00,
  0x4d, 0x7b, 0x06, 0x80, 0x29, 0x7b, 0x02, 0x8a, 0x30, 0x7a, 0x00, 0x24,
  0x7a, 0x06, 0x80, 0x1d, 0x7b, 0x02, 0x41, 0x7b, 0x02, 0x4d, 0x7b, 0x00,
  0x48, 0x7b, 0x02, 0x82, 0x41, 0x78, 0x00, 0x89, 0x51, 0x76, 0x02, 0x80,
  0x45, 0x7b, 0x02, 0x82, 0x4d, 0x7a, 0x00, 0x89, 0x23, 0x7c, 0x02, 0x82,
  0x48, 0x76, 0x00, 0x45, 0x78, 0x04, 0x89, 0x2b, 0x7c, 0x02, 0x82, 0x29,
  0x78, 0x00, 0x1d, 0x77, 0x04, 0x81, 0x1d, 0x7d, 0x0c, 0x29, 0x7d, 0x02,
  0x8c, 0x4d, 0x7b, 0x08, 0x41, 0x7c, 0x1a, 0x91, 0x24, 0x7d, 0x00, 0x99,
  0x23, 0x7c, 0x00, 0x2b, 0x7c, 0x02, 0x90, 0x24, 0x7b, 0x00, 0x30, 0x7b,
  0x00, 0x3c, 0x7b, 0x00, 0x40, 0x7b, 0x00, 0x43, 0x7b, 0x00, 0x48, 0x7b,
  0x00, 0x92, 0x24, 0x76, 0x00, 0x3c, 0x79, 0x00, 0x40, 0x77, 0x00, 0x43,
  0x7a, 0x00, 0x48, 0x79, 0x00, 0x9a, 0x24, 0x7a, 0x00, 0x30, 0x79, 0x04,
  0x9c, 0x3c, 0x7a, 0x00, 0x48, 0x7c, 0x00, 0x99, 0x51, 0x74, 0x0a, 0x80,
  0x40, 0x7b, 0x00, 0x3c, 0x7b, 0x04, 0x43, 0x7b, 0x00, 0x8a, 0x24, 0x7a,
  0x02, 0x30, 0x79, 0x02, 0x80, 0x30, 0x7b, 0x00, 0x82, 0x3c, 0x79, 0x04,
  0x80, 0x24, 0x7b, 0x00, 0x82, 0x40, 0x77, 0x02, 0x43, 0x7a, 0x02, 0x80,
  0x48, 0x7b, 0x00, 0x89, 0x51, 0x74, 0x04, 0x82, 0x48, 0x79, 0x02, 0x89,
  0x2b, 0x7c, 0x02, 0x23, 0x7c, 0x04, 0x81, 0x24, 0x7d, 0x0a, 0x82, 0x24,
  0x76, 0x06, 0x8c, 0x48, 0x7c, 0x08, 0x3c, 0x7a, 0x1c, 0x91, 0x1d, 0x7d,
  0x00, 0x29, 0x7d, 0x00, 0x99, 0x23, 0x7c, 0x00, 0x31, 0x7b, 0x02, 0x90,
  0x1d, 0x7b, 0x00, 0x29, 0x7b, 0x00, 0x41, 0x7b, 0x00, 0x45, 0x7b, 0x00,
  0x48, 0x7b, 0x00, 0x4d, 0x7b, 0x00, 0x92, 0x1d, 0x75, 0x00, 0x29, 0x7b,
  0x00, 0x41, 0x77, 0x00, 0x45, 0x79, 0x00, 0x48, 0x7a, 0x00, 0x4d, 0x7b,
  0x00, 0x9a, 0x24, 0x79, 0x00, 0x30, 0x78, 0x06, 0x9c, 0x41, 0x7b, 0x00,
  0x4d, 0x7b, 0x00, 0x99, 0x51, 0x76, 0x0c, 0x8a, 0x30, 0x78, 0x04, 0x24,
  0x79, 0x08, 0x89, 0x51, 0x76, 0x3a, 0x80, 0x4d, 0x7b, 0x06, 0x48, 0x7b,
  0x06, 0x45, 0x7b, 0x02, 0x41, 0x7b, 0x10, 0x8c, 0x4d, 0x7b, 0x02, 0x80,
  0x29, 0x7b, 0x02, 0x1d, 0x7b, 0x00, 0x8c, 0x41, 0x7b, 0x04, 0x82, 0x48,
  0x7a, 0x00, 0x41, 0x77, 0x02, 0x4d, 0x7b, 0x00, 0x45, 0x79, 0x02, 0x81,
  0x29, 0x7d, 0x02, 0x1d, 0x7d, 0x00, 0x82, 0x29, 0x7b, 0x00, 0x1d, 0x75,
  0x04, 0x99, 0x51, 0x64, 0x08, 0x90, 0x3c, 0x71, 0x00, 0x40, 0x71, 0x00,
  0x43, 0x71, 0x00, 0x96, 0x3c, 0x74, 0x00, 0x40, 0x73, 0x00, 0x43, 0x75,
  0x00, 0x9a, 0x24, 0x6f, 0x00, 0x30, 0x69, 0x0e, 0x89, 0x51, 0x64, 0x00,
  0x8a, 0x24, 0x6f, 0x04, 0x30, 0x69, 0x02, 0x80, 0x3c, 0x71, 0x02, 0x40,
  0x71, 0x00, 0x86, 0x3c, 0x74, 0x02, 0x43, 0x75, 0x00, 0x40, 0x73, 0x06,
  0x80, 0x43, 0x71, 0x0e, 0x99, 0x51, 0x6b, 0x04, 0x90, 0x40, 0x71, 0x00,
  0x43, 0x71, 0x00, 0x96, 0x3c, 0x73, 0x00, 0x40, 0x71, 0x00, 0x43, 0x74,
  0x00, 0x9a, 0x24, 0x71, 0x00, 0x30, 0x6e, 0x08, 0x89, 0x31, 0x7b, 0x08,
  0x51, 0x6b, 0x00, 0x23, 0x7c, 0x00, 0x8a, 0x30, 0x6e, 0x02, 0x24, 0x71,
  0x04, 0x86, 0x40, 0x71, 0x04, 0x3c, 0x73, 0x04, 0x80, 0x40, 0x71, 0x06,
  0x86, 0x43, 0x74, 0x06, 0x80, 0x43, 0x71, 0x00, 0x99, 0x51, 0x72, 0x06,
  0x90, 0x41, 0x71, 0x00, 0x45, 0x71, 0x00, 0x96, 0x3c, 0x77, 0x00, 0x41,
  0x75, 0x00, 0x45, 0x75, 0x00, 0x9a, 0x24, 0x7a, 0x00, 0x30, 0x78, 0x0c,
  0x89, 0x51, 0x72, 0x06, 0x8a, 0x30, 0x78, 0x02, 0x86, 0x41, 0x75, 0x00,
  0x8a, 0x24, 0x7a, 0x02, 0x86, 0x3c, 0x77, 0x08, 0x45, 0x75, 0x04, 0x80,
  0x41, 0x71, 0x04, 0x45, 0x71, 0x04, 0x99, 0x51, 0x76, 0x06, 0x90, 0x3c,
  0x71, 0x00, 0x43, 0x71, 0x00, 0x46, 0x71, 0x00, 0x96, 0x3c, 0x72, 0x00,
  0x43, 0x77, 0x00, 0x46, 0x77, 0x00, 0x9a, 0x24, 0x7a, 0x00, 0x30, 0x78,
  0x0c, 0x80, 0x3c, 0x71, 0x00, 0x89, 0x51, 0x76, 0x02, 0x8a, 0x30, 0x78,
  0x04, 0x24, 0x7a, 0x04, 0x80, 0x46, 0x71, 0x04, 0x86, 0x3c, 0x72, 0x02,
  0x80, 0x43, 0x71, 0x04, 0x86, 0x43, 0x77, 0x04, 0x46, 0x77, 0x06, 0x99,
  0x51, 0x76, 0x06, 0x90, 0x41, 0x71, 0x00, 0x45, 0x71, 0x00, 0x96, 0x3c,
  0x77, 0x00, 0x41, 0x75, 0x00, 0x45, 0x77, 0x00, 0x9a, 0x24, 0x78, 0x00,
  0x30, 0x76, 0x0e, 0x89, 0x51, 0x76, 0x04, 0x8a, 0x30, 0x76, 0x04, 0x86,
  0x41, 0x75, 0x00, 0x8a, 0x24, 0x78, 0x02, 0x86, 0x3c, 0x77, 0x04, 0x45,
  0x77, 0x10, 0x80, 0x41, 0x71, 0x00, 0x99, 0x51, 0x77, 0x04, 0x90, 0x40,
  0x71, 0x00, 0x43, 0x71, 0x00, 0x96, 0x3c, 0x77, 0x00, 0x40, 0x77, 0x00,
  0x43, 0x77, 0x00, 0x9a, 0x24, 0x78, 0x00, 0x30, 0x7a, 0x0e, 0x80, 0x43,
  0x71, 0x00, 0x45, 0x71, 0x06, 0x89, 0x51, 0x77, 0x02, 0x8a, 0x30, 0x7a,
  0x00, 0x24, 0x78, 0x06, 0x86, 0x3c, 0x77, 0x02, 0x40, 0x77, 0x06, 0x43,
  0x77, 0x0a, 0x91, 0x1d, 0x7b, 0x00, 0x29, 0x7d, 0x00, 0x99, 0x23, 0x7c,
  0x00, 0x2b, 0x7b, 0x02, 0x80, 0x40, 0x71, 0x00, 0x90, 0x1d, 0x7b, 0x00,
  0x29, 0x7b, 0x00, 0x41, 0x7b, 0x00, 0x45, 0x7b, 0x00, 0x48, 0x7b, 0x00,
  0x4d, 0x7b, 0x00, 0x92, 0x41, 0x77, 0x00, 0x48, 0x76, 0x00, 0x4d, 0x6f,
  0x02, 0x9c, 0x41, 0x7c, 0x06, 0x4d, 0x7b, 0x06, 0x80, 0x41, 0x7b, 0x02,
  0x45, 0x7b, 0x04, 0x48, 0x7b, 0x00, 0x89, 0x2b, 0x7b, 0x00, 0x23, 0x7c,
  0x02, 0x81, 0x29, 0x7d, 0x00, 0x1d, 0x7b, 0x04, 0x80, 0x29, 0x7b, 0x00,
  0x8c, 0x4d, 0x7b, 0x02, 0x80, 0x4d, 0x7b, 0x02, 0x8c, 0x41, 0x7c, 0x02,
  0x82, 0x4d, 0x6f, 0x00, 0x48, 0x76, 0x00, 0x41, 0x77, 0x02, 0x80, 0x1d,
  0x7b, 0x0c, 0x91, 0x1d, 0x7c, 0x00, 0x29, 0x7d, 0x00, 0x99, 0x23, 0x7c,
  0x00, 0x2b, 0x7c, 0x02, 0x90, 0x1d, 0x7b, 0x00, 0x29, 0x7b, 0x00, 0x41,
  0x7b, 0x00, 0x45, 0x7b, 0x00, 0x48, 0x7b, 0x00, 0x4d, 0x7b, 0x00, 0x92,
  0x41, 0x75, 0x00, 0x48, 0x75, 0x00, 0x4d, 0x75, 0x08, 0x9c, 0x41, 0x7b,
  0x00, 0x4d, 0x7b, 0x0a, 0x80, 0x4d, 0x7b, 0x00, 0x48, 0x7b, 0x00, 0x45,
  0x7b, 0x02, 0x41, 0x7b, 0x02, 0x81, 0x29, 0x7d, 0x00, 0x1d, 0x7c, 0x00,
  0x89, 0x2b, 0x7c, 0x00, 0x23, 0x7c, 0x06, 0x8c, 0x4d, 0x7b, 0x04, 0x41,
  0x7b, 0x02, 0x82, 0x41, 0x75, 0x04, 0x4d, 0x75, 0x02, 0x80, 0x1d, 0x7b,
  0x00, 0x82, 0x48, 0x75, 0x04, 0x80, 0x29, 0x7b, 0x02, 0x91, 0x1d, 0x7d,
  0x00, 0x29, 0x7d, 0x00, 0x99, 0x23, 0x7c, 0x00, 0x2b, 0x7c, 0x02, 0x90,
  0x3c, 0x70, 0x00, 0x40, 0x70, 0x00, 0x43, 0x70, 0x00, 0x92, 0x41, 0x75,
  0x00, 0x48, 0x75, 0x00, 0x4d, 0x75, 0x00, 0x96, 0x3c, 0x77, 0x00, 0x40,
  0x75, 0x00, 0x43, 0x76, 0x06, 0x9c, 0x41, 0x7a, 0x00, 0x4d, 0x7c, 0x0e,
  0x80, 0x3c, 0x70, 0x00, 0x86, 0x43, 0x76, 0x02, 0x80, 0x40, 0x70, 0x02,
  0x82, 0x4d, 0x75, 0x00, 0x86, 0x3c, 0x77, 0x02, 0x40, 0x75, 0x04, 0x80,
  0x43, 0x70, 0x12, 0x90, 0x40, 0x70, 0x00, 0x43, 0x70, 0x00, 0x82, 0x48,
  0x75, 0x00, 0x41, 0x75, 0x00, 0x92, 0x4d, 0x62, 0x00, 0x96, 0x3c, 0x74,
  0x00, 0x40, 0x73, 0x00, 0x43, 0x77, 0x00, 0x9a, 0x24, 0x77, 0x00, 0x30,
  0x72, 0x0a, 0x89, 0x2b, 0x7c, 0x00, 0x23, 0x7c, 0x04, 0x99, 0x51, 0x66,
  0x02, 0x81, 0x1d, 0x7d, 0x00, 0x8a, 0x24, 0x77, 0x04, 0x86, 0x40, 0x73,
  0x00, 0x8a, 0x30, 0x72, 0x02, 0x81, 0x29, 0x7d, 0x00, 0x86, 0x3c, 0x74,
  0x08, 0x80, 0x40, 0x70, 0x00, 0x86, 0x43, 0x77, 0x08, 0x89, 0x51, 0x66,
  0x04, 0x80, 0x43, 0x70, 0x04, 0x8c, 0x4d, 0x7c, 0x00, 0x41, 0x7a, 0x02,
  0x90, 0x41, 0x70, 0x00, 0x45, 0x70, 0x00, 0x96, 0x3c, 0x79, 0x00, 0x41,
  0x76, 0x00, 0x45, 0x78, 0x00, 0x9a, 0x24, 0x79, 0x00, 0x30, 0x74, 0x08,
  0x99, 0x51, 0x6a, 0x06, 0x8a, 0x30, 0x74, 0x00, 0x24, 0x79, 0x04, 0x86,
  0x41, 0x76, 0x04, 0x3c, 0x79, 0x04, 0x45, 0x78, 0x02, 0x89, 0x51, 0x6a,
  0x06, 0x80, 0x41, 0x70, 0x04, 0x45, 0x70, 0x0a, 0x90, 0x3c, 0x70, 0x00,
  0x43, 0x70, 0x00, 0x46, 0x70, 0x00, 0x96, 0x3c, 0x79, 0x00, 0x43, 0x78,
  0x00, 0x46, 0x77, 0x00, 0x9a, 0x24, 0x7a, 0x00, 0x30, 0x76, 0x06, 0x99,
  0x51, 0x75, 0x06, 0x80, 0x3c, 0x70, 0x04, 0x8a, 0x24, 0x7a, 0x02, 0x30,
  0x76, 0x02, 0x86, 0x3c, 0x79, 0x02, 0x80, 0x46, 0x70, 0x06, 0x43, 0x70,
  0x00, 0x89, 0x51, 0x75, 0x02, 0x86, 0x43, 0x78, 0x06, 0x46, 0x77, 0x0c,
  0x90, 0x41, 0x70, 0x00, 0x45, 0x70, 0x00, 0x96, 0x3c, 0x75, 0x00, 0x41,
  0x78, 0x00, 0x45, 0x77, 0x00, 0x9a, 0x24, 0x77, 0x00, 0x30, 0x78, 0x06,
  0x99, 0x51, 0x76, 0x0c, 0x8a, 0x30, 0x78, 0x04, 0x86, 0x41, 0x78, 0x00,
  0x8a, 0x24, 0x77, 0x04, 0x86, 0x3c, 0x75, 0x00, 0x89, 0x51, 0x76, 0x04,
  0x86, 0x45, 0x77, 0x0e, 0x80, 0x41, 0x70, 0x04, 0x90, 0x40, 0x70, 0x00,
  0x43, 0x70, 0x00, 0x96, 0x3c, 0x79, 0x00, 0x40, 0x78, 0x00, 0x43, 0x79,
  0x00, 0x9a, 0x24, 0x79, 0x00, 0x30, 0x7a, 0x06, 0x99, 0x51, 0x79, 0x08,
  0x80, 0x43, 0x70, 0x00, 0x45, 0x70, 0x04, 0x8a, 0x30, 0x7a, 0x04, 0x24,
  0x79, 0x04, 0x89, 0x51, 0x79, 0x06, 0x86, 0x43, 0x79, 0x00, 0x40, 0x78,
  0x00, 0x3c, 0x79, 0x06, 0x82, 0x4d, 0x62, 0x08, 0x91, 0x1d, 0x7d, 0x00,
  0x29, 0x7d, 0x00, 0x99, 0x23, 0x7b, 0x00, 0x2b, 0x7c, 0x02, 0x80, 0x40,
  0x70, 0x00, 0x90, 0x1d, 0x7b, 0x00, 0x29, 0x7b, 0x00, 0x41, 0x7b, 0x00,
  0x45, 0x7b, 0x00, 0x4d, 0x7b, 0x00, 0x92, 0x41, 0x77, 0x00, 0x48, 0x77,
  0x00, 0x4d, 0x72, 0x06, 0x9c, 0x41, 0x7c, 0x04, 0x4d, 0x7b, 0x06, 0x80,
  0x41, 0x7b, 0x02, 0x89, 0x23, 0x7b, 0x02, 0x2b, 0x7c, 0x02, 0x80, 0x45,
  0x7b, 0x02, 0x4d, 0x7b, 0x00, 0x81, 0x1d, 0x7d, 0x02, 0x29, 0x7d, 0x02,
  0x80, 0x29, 0x7b, 0x00, 0x82, 0x41, 0x77, 0x02, 0x80, 0x1d, 0x7b, 0x00,
  0x8c, 0x4d, 0x7b, 0x00, 0x41, 0x7c, 0x02, 0x82, 0x4d, 0x72, 0x00, 0x48,
  0x77, 0x0e, 0x91, 0x1d, 0x7d, 0x00, 0x29, 0x7d, 0x00, 0x99, 0x23, 0x7c,
  0x00, 0x2b, 0x7c, 0x02, 0x90, 0x1d, 0x7b, 0x00, 0x29, 0x7b, 0x00, 0x41,
  0x7b, 0x00, 0x45, 0x7b, 0x00, 0x4d, 0x7b, 0x00, 0x92, 0x41, 0x76, 0x00,
  0x48, 0x76, 0x00, 0x4d, 0x75, 0x0a, 0x9c, 0x41, 0x7c, 0x02, 0x4d, 0x7c,
  0x08, 0x80, 0x41, 0x7b, 0x02, 0x81, 0x29, 0x7d, 0x00, 0x89, 0x2b, 0x7c,
  0x00, 0x23, 0x7c, 0x02, 0x81, 0x1d, 0x7d, 0x02, 0x80, 0x45, 0x7b, 0x02,
  0x4d, 0x7b, 0x04, 0x8c, 0x4d, 0x7c, 0x00, 0x41, 0x7c, 0x02, 0x80, 0x29,
  0x7b, 0x00, 0x1d, 0x7b, 0x0c, 0x91, 0x1d, 0x7d, 0x00, 0x29, 0x7d, 0x00,
  0x82, 0x4d, 0x75, 0x00, 0x99, 0x23, 0x7c, 0x00, 0x2b, 0x7c, 0x02, 0x90,
  0x3c, 0x70, 0x00, 0x40, 0x70, 0x00, 0x43, 0x70, 0x00, 0x82, 0x48, 0x75,
  0x00, 0x41, 0x75, 0x00, 0x92, 0x41, 0x75, 0x00, 0x48, 0x75, 0x00, 0x4d,
  0x75, 0x00, 0x96, 0x3c, 0x78, 0x00, 0x40, 0x79, 0x00, 0x43, 0x79, 0x0a,
  0x9c, 0x41, 0x7b, 0x00, 0x4d, 0x7c, 0x0a, 0x80, 0x3c, 0x70, 0x02, 0x40,
  0x70, 0x00, 0x86, 0x43, 0x79, 0x00, 0x40, 0x79, 0x02, 0x82, 0x4d, 0x75,
  0x00, 0x86, 0x3c, 0x78, 0x06, 0x80, 0x43, 0x70, 0x08, 0x89, 0x23, 0x7c,
  0x02, 0x2b, 0x7c, 0x06, 0x8c, 0x4d, 0x7c, 0x00, 0x41, 0x7b, 0x02, 0x90,
  0x40, 0x70, 0x00, 0x43, 0x70, 0x00, 0x82, 0x48, 0x76, 0x00, 0x41, 0x76,
  0x00, 0x92, 0x4d, 0x5e, 0x00, 0x96, 0x3c, 0x75, 0x00, 0x40, 0x77, 0x00,
  0x43, 0x78, 0x00, 0x9a, 0x24, 0x74, 0x00, 0x30, 0x76, 0x0a, 0x99, 0x51,
  0x68, 0x04, 0x8a, 0x24, 0x74, 0x04, 0x30, 0x76, 0x02, 0x86, 0x40, 0x77,
  0x06, 0x3c, 0x75, 0x02, 0x81, 0x29, 0x7d, 0x02, 0x80, 0x40, 0x70, 0x02,
  0x81, 0x1d, 0x7d, 0x00, 0x86, 0x43, 0x78, 0x00, 0x89, 0x51, 0x68, 0x0a,
  0x80, 0x43, 0x70, 0x06, 0x90, 0x41, 0x70, 0x00, 0x45, 0x70, 0x00, 0x96,
  0x3c, 0x77, 0x00, 0x41, 0x78, 0x00, 0x45, 0x78, 0x00, 0x9a, 0x24, 0x79,
  0x00, 0x30, 0x77, 0x06, 0x99, 0x51, 0x6e, 0x08, 0x8a, 0x30, 0x77, 0x00,
  0x24, 0x79, 0x06, 0x86, 0x41, 0x78, 0x02, 0x3c, 0x77, 0x06, 0x45, 0x78,
  0x00, 0x89, 0x51, 0x6e, 0x06, 0x80, 0x41, 0x70, 0x04, 0x45, 0x70, 0x0a,
  0x90, 0x3c, 0x70, 0x00, 0x43, 0x70, 0x00, 0x46, 0x70, 0x00, 0x96, 0x3c,
  0x78, 0x00, 0x43, 0x78, 0x00, 0x46, 0x77, 0x00, 0x9a, 0x24, 0x7a, 0x00,
  0x30, 0x76, 0x06, 0x99, 0x51, 0x76, 0x06, 0x80, 0x3c, 0x70, 0x02, 0x8a,
  0x30, 0x76, 0x04, 0x24, 0x7a, 0x04, 0x80, 0x46, 0x70, 0x02, 0x86, 0x3c,
  0x78, 0x00, 0x89, 0x51, 0x76, 0x04, 0x80, 0x43, 0x70, 0x02, 0x86, 0x43,
  0x78, 0x06, 0x46, 0x77, 0x0c, 0x90, 0x41, 0x70, 0x00, 0x45, 0x70, 0x00,
  0x96, 0x3c, 0x79, 0x00, 0x41, 0x78, 0x00, 0x45, 0x78, 0x00, 0x9a, 0x24,
  0x77, 0x00, 0x30, 0x78, 0x02, 0x99, 0x51, 0x76, 0x0e, 0x8a, 0x30, 0x78,
  0x02, 0x86, 0x41, 0x78, 0x02, 0x89, 0x51, 0x76, 0x02, 0x8a, 0x24, 0x77,
  0x02, 0x86, 0x3c, 0x79, 0x04, 0x45, 0x78, 0x10, 0x80, 0x41, 0x70, 0x04,
  0x90, 0x40, 0x70, 0x00, 0x43, 0x70, 0x00, 0x96, 0x3c, 0x7a, 0x00, 0x40,
  0x77, 0x00, 0x43, 0x79, 0x00, 0x9a, 0x24, 0x78, 0x00, 0x30, 0x7a, 0x02,
  0x99, 0x51, 0x79, 0x0c, 0x80, 0x43, 0x70, 0x00, 0x45, 0x70, 0x04, 0x8a,
  0x24, 0x78, 0x04, 0x30, 0x7a, 0x04, 0x89, 0x51, 0x79, 0x06, 0x86, 0x40,
  0x77, 0x02, 0x43, 0x79, 0x00, 0x3c, 0x7a, 0x0e, 0x80, 0x40, 0x70, 0x00,
  0x90, 0x41, 0x7b, 0x00, 0x82, 0x4d, 0x5e, 0x06, 0x9c, 0x41, 0x7c, 0x00,
  0x4d, 0x7b, 0x16, 0x8c, 0x41, 0x7c, 0x02, 0x4d, 0x7b, 0x12, 0x80, 0x41,
  0x7b, 0x00, 0x90, 0x4d, 0x7b, 0x00, 0x92, 0x4d, 0x74, 0x06, 0x9c, 0x4d,
  0x7a, 0x02, 0x41, 0x7c, 0x14, 0x8c, 0x41, 0x7c, 0x00, 0x4d, 0x7a, 0x02,
  0x82, 0x4d, 0x74, 0x02, 0x80, 0x4d, 0x7b, 0x10, 0x90, 0x4d, 0x79, 0x00,
  0x92, 0x4d, 0x74, 0x06, 0x9c, 0x41, 0x7c, 0x00, 0x4d, 0x7c, 0x24, 0x8c,
  0x41, 0x7c, 0x04, 0x4d, 0x7c, 0x02, 0x90, 0x4b, 0x7a, 0x00, 0x92, 0x4b,
  0x74, 0x30, 0x95, 0x54, 0x79, 0x00, 0x90, 0x48, 0x7b, 0x00, 0x92, 0x48,
  0x6b, 0x00, 0x96, 0x48, 0x77, 0x00, 0x97, 0x48, 0x77, 0x20, 0x80, 0x4d,
  0x79, 0x40, 0x95, 0x50, 0x78, 0x00, 0x90, 0x44, 0x7b, 0x00, 0x92, 0x44,
  0x76, 0x00, 0x96, 0x44, 0x77, 0x00, 0x97, 0x44, 0x77, 0x02, 0x82, 0x4d,
  0x74, 0x5e, 0x95, 0x4d, 0x78, 0x00, 0x90, 0x41, 0x7b, 0x00, 0x92, 0x41,
  0x76, 0x00, 0x96, 0x41, 0x77, 0x00, 0x97, 0x41, 0x77, 0x60, 0x95, 0x4b,
  0x79, 0x00, 0x90, 0x3f, 0x7b, 0x00, 0x92, 0x3f, 0x75, 0x00, 0x96, 0x3f,
  0x77, 0x00, 0x97, 0x3f, 0x77, 0x06, 0x82, 0x3f, 0x75, 0x02, 0x48, 0x6b,
  0x60, 0x85, 0x54, 0x79, 0x00, 0x86, 0x48, 0x77, 0x00, 0x87, 0x48, 0x77,
  0x06, 0x85, 0x50, 0x78, 0x00, 0x86, 0x44, 0x77, 0x00, 0x87, 0x44, 0x77,
  0x0a, 0x85, 0x4d, 0x78, 0x00, 0x82, 0x44, 0x76, 0x00, 0x86, 0x41, 0x77,
  0x00, 0x87, 0x41, 0x77, 0x02, 0x82, 0x4b, 0x74, 0x04, 0x41, 0x76, 0x04,
  0x85, 0x4b, 0x79, 0x00, 0x86, 0x3f, 0x77, 0x00, 0x87, 0x3f, 0x77, 0x28,
  0x80, 0x41, 0x7b, 0x04, 0x44, 0x7b, 0x06, 0x48, 0x7b, 0x06, 0x3f, 0x7b,
  0x02, 0x4b, 0x7a, 0x02, 0x91, 0x2b, 0x7d, 0x00, 0x99, 0x23, 0x7b, 0x00,
  0x2b, 0x7c, 0x00, 0x51, 0x76, 0x02, 0x95, 0x3c, 0x7a, 0x00, 0x90, 0x30,
  0x7b, 0x00, 0x3c, 0x7b, 0x00, 0x48, 0x7b, 0x00, 0x54, 0x7b, 0x00, 0x92,
  0x3c, 0x74, 0x00, 0x43, 0x74, 0x00, 0x48, 0x74, 0x00, 0x96, 0x30, 0x78,
  0x00, 0x97, 0x30, 0x78, 0x00, 0x9c, 0x3c, 0x7b, 0x00, 0x9a, 0x24, 0x6c,
  0x14, 0x8a, 0x24, 0x6c, 0x02, 0x89, 0x51, 0x76, 0x12, 0x82, 0x3c, 0x74,
  0x04, 0x80, 0x3c, 0x7b, 0x02, 0x82, 0x48, 0x74, 0x02, 0x80, 0x48, 0x7b,
  0x00, 0x30, 0x7b, 0x00, 0x82, 0x43, 0x74, 0x02, 0x80, 0x54, 0x7b, 0x04,
  0x89, 0x2b, 0x7c, 0x00, 0x23, 0x7b, 0x06, 0x8c, 0x3c, 0x7b, 0x06, 0x85,
  0x3c, 0x7a, 0x00, 0x86, 0x30, 0x78, 0x00, 0x87, 0x30, 0x78, 0x08, 0x81,
  0x2b, 0x7d, 0x14, 0x99, 0x23, 0x7c, 0x00, 0x2b, 0x7c, 0x00, 0x2d, 0x7c,
  0x02, 0x95, 0x3b, 0x7a, 0x00, 0x90, 0x2f, 0x7b, 0x00, 0x3b, 0x7b, 0x00,
  0x47, 0x7b, 0x00, 0x53, 0x7b, 0x00, 0x92, 0x3b, 0x72, 0x00, 0x41, 0x72,
  0x00, 0x47, 0x72, 0x00, 0x4a, 0x72, 0x00, 0x96, 0x2f, 0x79, 0x00, 0x97,
  0x2f, 0x78, 0x00, 0x9c, 0x3b, 0x79, 0x00, 0x99, 0x51, 0x79, 0x00, 0x9a,
  0x24, 0x69, 0x02, 0x91, 0x29, 0x7d, 0x18, 0x89, 0x51, 0x79, 0x00, 0x8a,
  0x24, 0x69, 0x02, 0x80, 0x47, 0x7b, 0x08, 0x82, 0x3b, 0x72, 0x06, 0x80,
  0x3b, 0x7b, 0x06, 0x53, 0x7b, 0x00, 0x2f, 0x7b, 0x00, 0x82, 0x4a, 0x72,
  0x00, 0x47, 0x72, 0x00, 0x41, 0x72, 0x00, 0x89, 0x2b, 0x7c, 0x08, 0x2d,
  0x7c, 0x02, 0x23, 0x7c, 0x02, 0x85, 0x3b, 0x7a, 0x00, 0x86, 0x2f, 0x79,
  0x00, 0x87, 0x2f, 0x78, 0x00, 0x8c, 0x3b, 0x79, 0x14, 0x81, 0x29, 0x7d,
  0x0e, 0x91, 0x26, 0x7d, 0x00, 0x99, 0x23, 0x7c, 0x00, 0x2d, 0x7c, 0x02,
  0x95, 0x38, 0x7b, 0x00, 0x41, 0x7b, 0x00, 0x90, 0x33, 0x7b, 0x00, 0x3f,
  0x7b, 0x00, 0x4b, 0x7b, 0x00, 0x57, 0x7b, 0x00, 0x92, 0x3f, 0x73, 0x00,
  0x47, 0x73, 0x00, 0x4b, 0x73, 0x00, 0x96, 0x2c, 0x7a, 0x00, 0x35, 0x7a,
  0x00, 0x97, 0x2c, 0x78, 0x00, 0x35, 0x78, 0x00, 0x9c, 0x3f, 0x7a, 0x00,
  0x9a, 0x24, 0x75, 0x02, 0x99, 0x51, 0x79, 0x1a, 0x89, 0x51, 0x79, 0x04,
  0x8a, 0x24, 0x75, 0x0e, 0x80, 0x4b, 0x7b, 0x00, 0x82, 0x4b, 0x73, 0x00,
  0x3f, 0x73, 0x02, 0x85, 0x41, 0x7b, 0x00, 0x80, 0x33, 0x7b, 0x00, 0x82,
  0x47, 0x73, 0x00, 0x86, 0x35, 0x7a, 0x00, 0x87, 0x35, 0x78, 0x02, 0x80,
  0x57, 0x7b, 0x02, 0x89, 0x23, 0x7c, 0x02, 0x8c, 0x3f, 0x7a, 0x00, 0x89,
  0x2d, 0x7c, 0x04, 0x81, 0x26, 0x7d, 0x06, 0x80, 0x3f, 0x7b, 0x08, 0x85,
  0x38, 0x7b, 0x00, 0x86, 0x2c, 0x7a, 0x00, 0x87, 0x2c, 0x78, 0x16, 0x91,
  0x23, 0x7d, 0x00, 0x99, 0x23, 0x7c, 0x00, 0x2b, 0x7c, 0x00, 0x51, 0x77,
  0x02, 0x95, 0x37, 0x7b, 0x00, 0x3e, 0x7b, 0x00, 0x90, 0x32, 0x7b, 0x00,
  0x3e, 0x7b, 0x00, 0x4a, 0x7b, 0x00, 0x56, 0x7b, 0x00, 0x92, 0x3e, 0x74,
  0x00, 0x43, 0x74, 0x00, 0x4a, 0x74, 0x00, 0x4d, 0x74, 0x00, 0x96, 0x2b,
  0x7a, 0x00, 0x32, 0x7a, 0x00, 0x97, 0x2b, 0x79, 0x00, 0x32, 0x79, 0x00,
  0x9c, 0x3e, 0x7b, 0x00, 0x9a, 0x24, 0x7a, 0x18, 0x80, 0x4a, 0x7b, 0x02,
  0x89, 0x51, 0x77, 0x04, 0x8a, 0x24, 0x7a, 0x08, 0x82, 0x3e, 0x74, 0x04,
  0x80, 0x56, 0x7b, 0x00, 0x3e, 0x7b, 0x04, 0x89, 0x23, 0x7c, 0x02, 0x80,
  0x32, 0x7b, 0x00, 0x82, 0x4d, 0x74, 0x00, 0x4a, 0x74, 0x00, 0x43, 0x74,
  0x00, 0x89, 0x2b, 0x7c, 0x02, 0x8c, 0x3e, 0x7b, 0x0c, 0x85, 0x37, 0x7b,
  0x00, 0x86, 0x2b, 0x7a, 0x00, 0x87, 0x2b, 0x79, 0x08, 0x81, 0x23, 0x7d,
  0x18, 0x91, 0x20, 0x7d, 0x00, 0x99, 0x23, 0x7c, 0x00, 0x2d, 0x7c, 0x00,
  0x51, 0x78, 0x02, 0x85, 0x3e, 0x7b, 0x00, 0x95, 0x35, 0x7b, 0x00, 0x44,
  0x7b, 0x00, 0x90, 0x38, 0x7b, 0x00, 0x44, 0x7b, 0x00, 0x50, 0x7b, 0x00,
  0x5c, 0x7b, 0x00, 0x92, 0x3b, 0x78, 0x00, 0x44, 0x78, 0x00, 0x4a, 0x78,
  0x00, 0x50, 0x78, 0x00, 0x86, 0x32, 0x7a, 0x00, 0x96, 0x29, 0x7a, 0x00,
  0x38, 0x7a, 0x00, 0x87, 0x32, 0x79, 0x00, 0x97, 0x29, 0x79, 0x00, 0x38,
  0x79, 0x00, 0x9c, 0x44, 0x79, 0x00, 0x9a, 0x24, 0x79, 0x1c, 0x80, 0x50,
  0x7b, 0x00, 0x89, 0x51, 0x78, 0x02, 0x8a, 0x24, 0x79, 0x02, 0x80, 0x44,
  0x7b, 0x0a, 0x82, 0x50, 0x78, 0x00, 0x44, 0x78, 0x04, 0x80, 0x5c, 0x7b,
  0x00, 0x89, 0x23, 0x7c, 0x02, 0x85, 0x44, 0x7b, 0x00, 0x80, 0x38, 0x7b,
  0x00, 0x82, 0x4a, 0x78, 0x00, 0x3b, 0x78, 0x00, 0x86, 0x38, 0x7a, 0x00,
  0x87, 0x38, 0x79, 0x00, 0x89, 0x2d, 0x7c, 0x02, 0x8c, 0x44, 0x79, 0x0a,
  0x85, 0x35, 0x7b, 0x00, 0x86, 0x29, 0x7a, 0x00, 0x87, 0x29, 0x79, 0x04,
  0x81, 0x20, 0x7d, 0x1c, 0x91, 0x1f, 0x7d, 0x02, 0x99, 0x23, 0x7c, 0x00,
  0x2b, 0x7c, 0x02, 0x95, 0x32, 0x7b, 0x00, 0x43, 0x7b, 0x00, 0x90, 0x37,
  0x7b, 0x00, 0x43, 0x7b, 0x00, 0x4f, 0x7b, 0x00, 0x5b, 0x7b, 0x00, 0x92,
  0x37, 0x78, 0x00, 0x43, 0x78, 0x00, 0x4d, 0x78, 0x00, 0x53, 0x78, 0x00,
  0x96, 0x26, 0x7a, 0x00, 0x37, 0x7a, 0x00, 0x97, 0x26, 0x79, 0x00, 0x37,
  0x79, 0x00, 0x9c, 0x43, 0x7b, 0x00, 0x9a, 0x24, 0x7a, 0x02, 0x99, 0x51,
  0x78, 0x18, 0x80, 0x4f, 0x7b, 0x04, 0x8a, 0x24, 0x7a, 0x02, 0x89, 0x51,
  0x78, 0x06, 0x2b, 0x7c, 0x02, 0x80, 0x5b, 0x7b, 0x02, 0x82, 0x43, 0x78,
  0x02, 0x80, 0x43, 0x7b, 0x04, 0x85, 0x43, 0x7b, 0x00, 0x80, 0x37, 0x7b,
  0x00, 0x82, 0x53, 0x78, 0x00, 0x4d, 0x78, 0x00, 0x37, 0x78, 0x00, 0x86,
  0x37, 0x7a, 0x00, 0x87, 0x37, 0x79, 0x04, 0x8c, 0x43, 0x7b, 0x02, 0x89,
  0x23, 0x7c, 0x04, 0x81, 0x1f, 0x7d, 0x04, 0x85, 0x32, 0x7b, 0x00, 0x86,
  0x26, 0x7a, 0x00, 0x87, 0x26, 0x79, 0x1e, 0x99, 0x51, 0x78, 0x02, 0x91,
  0x24, 0x62, 0x00, 0x99, 0x23, 0x7c, 0x00, 0x31, 0x7b, 0x02, 0x95, 0x30,
  0x7a, 0x00, 0x48, 0x7b, 0x00, 0x90, 0x30, 0x7b, 0x00, 0x3c, 0x7b, 0x00,
  0x48, 0x7b, 0x00, 0x54, 0x7b, 0x00, 0x60, 0x7b, 0x00, 0x92, 0x18, 0x78,
  0x00, 0x30, 0x78, 0x00, 0x3c, 0x78, 0x00, 0x48, 0x78, 0x00, 0x96, 0x0c,
  0x79, 0x00, 0x24, 0x7a, 0x00, 0x97, 0x24, 0x78, 0x00, 0x3c, 0x79, 0x00,
  0x9c, 0x48, 0x7b, 0x00, 0x9a, 0x24, 0x7b, 0x02, 0x91, 0x18, 0x7d, 0x18,
  0x8a, 0x24, 0x7b, 0x06, 0x89, 0x51, 0x78, 0x0e, 0x81, 0x18, 0x7d, 0x02,
  0x80, 0x30, 0x7b, 0x00, 0x82, 0x30, 0x78, 0x02, 0x3c, 0x78, 0x04, 0x80,
  0x54, 0x7b, 0x00, 0x82, 0x48, 0x78, 0x00, 0x18, 0x78, 0x02, 0x80, 0x3c,
  0x7b, 0x00, 0x8c, 0x48, 0x7b, 0x02, 0x89, 0x23, 0x7c, 0x02, 0x80, 0x60,
  0x7b, 0x00, 0x89, 0x31, 0x7b, 0x02, 0x80, 0x48, 0x7b, 0x1c, 0x81, 0x24,
  0x62, 0x06, 0x85, 0x48, 0x7b, 0x00, 0x86, 0x24, 0x7a, 0x00, 0x87, 0x3c,
  0x79, 0x00, 0x97, 0x4f, 0x77, 0x02, 0x85, 0x30, 0x7a, 0x00, 0x86, 0x0c,
  0x79, 0x00, 0x87, 0x24, 0x78, 0x1a, 0x4f, 0x77, 0x14, 0x97, 0x4f, 0x78,
  0x26, 0x87, 0x4f, 0x78, 0x0a, 0x97, 0x51, 0x78, 0x2a, 0x87, 0x51, 0x78,
  0x06, 0x97, 0x4f, 0x78, 0x30, 0x92, 0x43, 0x71, 0x00, 0x96, 0x2b, 0x70,
  0x00, 0x37, 0x6f, 0x10, 0x86, 0x2b, 0x70, 0x04, 0x82, 0x43, 0x71, 0x00,
  0x86, 0x37, 0x6f, 0x1c, 0x92, 0x43, 0x6c, 0x00, 0x96, 0x2b, 0x71, 0x00,
  0x37, 0x71, 0x14, 0x86, 0x37, 0x71, 0x00, 0x2b, 0x71, 0x1a, 0x82, 0x43,
  0x6c, 0x02, 0x92, 0x45, 0x76, 0x00, 0x96, 0x2d, 0x75, 0x00, 0x39, 0x74,
  0x2a, 0x82, 0x45, 0x76, 0x04, 0x86, 0x39, 0x74, 0x02, 0x92, 0x43, 0x76,
  0x00, 0x96, 0x2b, 0x74, 0x00, 0x37, 0x73, 0x02, 0x86, 0x2d, 0x75, 0x1c,
  0x87, 0x4f, 0x78, 0x10, 0x91, 0x2b, 0x79, 0x00, 0x86, 0x37, 0x73, 0x02,
  0x90, 0x48, 0x7b, 0x00, 0x4c, 0x79, 0x00, 0x92, 0x30, 0x78, 0x00, 0x37,
  0x78, 0x00, 0x40, 0x77, 0x00, 0x96, 0x34, 0x79, 0x00, 0x37, 0x78, 0x00,
  0x97, 0x4c, 0x78, 0x00, 0x4f, 0x78, 0x00, 0x9c, 0x4c, 0x7a, 0x00, 0x9a,
  0x24, 0x73, 0x00, 0x30, 0x6e, 0x08, 0x99, 0x51, 0x67, 0x06, 0x8a, 0x30,
  0x6e, 0x04, 0x8c, 0x4c, 0x7a, 0x00, 0x8a, 0x24, 0x73, 0x02, 0x81, 0x2b,
  0x79, 0x00, 0x82, 0x37, 0x78, 0x02, 0x80, 0x48, 0x7b, 0x00, 0x86, 0x37,
  0x78, 0x02, 0x82, 0x30, 0x78, 0x00, 0x86, 0x2b, 0x74, 0x00, 0x87, 0x4f,
  0x78, 0x04, 0x80, 0x4c, 0x79, 0x02, 0x82, 0x40, 0x77, 0x00, 0x86, 0x34,
  0x79, 0x00, 0x87, 0x4c, 0x78, 0x02, 0x89, 0x51, 0x67, 0x0e, 0x91, 0x2b,
  0x7b, 0x02, 0x90, 0x48, 0x7b, 0x00, 0x4c, 0x74, 0x00, 0x92, 0x30, 0x71,
  0x00, 0x37, 0x74, 0x00, 0x40, 0x76, 0x00, 0x96, 0x2b, 0x65, 0x00, 0x34,
  0x76, 0x00, 0x37, 0x77, 0x00, 0x97, 0x4c, 0x76, 0x00, 0x4f, 0x77, 0x00,
  0x9c, 0x4c, 0x7b, 0x00, 0x9a, 0x24, 0x6f, 0x00, 0x30, 0x6e, 0x04, 0x86,
  0x2b, 0x65, 0x00, 0x99, 0x51, 0x67, 0x02, 0x82, 0x43, 0x76, 0x08, 0x8a,
  0x30, 0x6e, 0x02, 0x24, 0x6f, 0x02, 0x8c, 0x4c, 0x7b, 0x02, 0x82, 0x40,
  0x76, 0x00, 0x37, 0x74, 0x00, 0x30, 0x71, 0x04, 0x81, 0x2b, 0x7b, 0x02,
  0x89, 0x51, 0x67, 0x02, 0x80, 0x48, 0x7b, 0x02, 0x4c, 0x74, 0x08, 0x86,
  0x34, 0x76, 0x00, 0x87, 0x4c, 0x76, 0x08, 0x91, 0x2d, 0x79, 0x02, 0x90,
  0x4a, 0x7b, 0x00, 0x4d, 0x7a, 0x00, 0x92, 0x32, 0x7a, 0x00, 0x39, 0x77,
  0x00, 0x41, 0x73, 0x00, 0x96, 0x35, 0x77, 0x00, 0x97, 0x4d, 0x77, 0x00,
  0x9c, 0x4d, 0x7c, 0x00, 0x9a, 0x24, 0x79, 0x00, 0x30, 0x77, 0x06, 0x99,
  0x51, 0x72, 0x0c, 0x8a, 0x30, 0x77, 0x00, 0x24, 0x79, 0x02, 0x82, 0x41,
  0x73, 0x00, 0x39, 0x77, 0x00, 0x32, 0x7a, 0x02, 0x80, 0x4a, 0x7b, 0x02,
  0x81, 0x2d, 0x79, 0x02, 0x8c, 0x4d, 0x7c, 0x02, 0x89, 0x51, 0x72, 0x08,
  0x80, 0x4d, 0x7a, 0x00, 0x86, 0x37, 0x77, 0x00, 0x87, 0x4f, 0x77, 0x02,
  0x86, 0x35, 0x77, 0x00, 0x87, 0x4d, 0x77, 0x08, 0x91, 0x2b, 0x7a, 0x02,
  0x90, 0x48, 0x76, 0x00, 0x4c, 0x7a, 0x00, 0x92, 0x30, 0x6c, 0x00, 0x37,
  0x79, 0x00, 0x40, 0x78, 0x00, 0x96, 0x34, 0x77, 0x00, 0x37, 0x77, 0x00,
  0x97, 0x4c, 0x77, 0x00, 0x4f, 0x77, 0x00, 0x9c, 0x4c, 0x7a, 0x00, 0x9a,
  0x24, 0x75, 0x00, 0x30, 0x6b, 0x06, 0x99, 0x51, 0x75, 0x04, 0x8a, 0x30,
  0x6b, 0x02, 0x24, 0x75, 0x08, 0x81, 0x2b, 0x7a, 0x00, 0x82, 0x40, 0x78,
  0x00, 0x37, 0x79, 0x00, 0x30, 0x6c, 0x02, 0x8c, 0x4c, 0x7a, 0x06, 0x80,
  0x48, 0x76, 0x00, 0x89, 0x51, 0x75, 0x04, 0x86, 0x37, 0x77, 0x00, 0x34,
  0x77, 0x00, 0x87, 0x4f, 0x77, 0x00, 0x4c, 0x77, 0x02, 0x80, 0x4c, 0x7a,
  0x0c, 0x91, 0x29, 0x7d, 0x02, 0x90, 0x47, 0x7b, 0x00, 0x4a, 0x78, 0x00,
  0x92, 0x2f, 0x77, 0x00, 0x35, 0x76, 0x00, 0x3e, 0x77, 0x00, 0x96, 0x32,
  0x78, 0x00, 0x37, 0x77, 0x00, 0x97, 0x4a, 0x78, 0x00, 0x4f, 0x77, 0x00,
  0x9c, 0x4a, 0x7b, 0x00, 0x9a, 0x24, 0x7a, 0x00, 0x30, 0x77, 0x06, 0x99,
  0x51, 0x75, 0x0c, 0x8a, 0x30, 0x77, 0x02, 0x80, 0x4a, 0x78, 0x00, 0x47,
  0x7b, 0x00, 0x81, 0x29, 0x7d, 0x00, 0x82, 0x3e, 0x77, 0x00, 0x35, 0x76,
  0x00, 0x2f, 0x77, 0x02, 0x8a, 0x24, 0x7a, 0x04, 0x8c, 0x4a, 0x7b, 0x00,
  0x89, 0x51, 0x75, 0x04, 0x86, 0x32, 0x78, 0x00, 0x87, 0x4a, 0x78, 0x02,
  0x86, 0x37, 0x77, 0x00, 0x87, 0x4f, 0x77, 0x0e, 0x91, 0x28, 0x7a, 0x02,
  0x90, 0x45, 0x7b, 0x00, 0x48, 0x7b, 0x00, 0x92, 0x2d, 0x77, 0x00, 0x34,
  0x79, 0x00, 0x3c, 0x77, 0x00, 0x96, 0x30, 0x78, 0x00, 0x37, 0x77, 0x00,
  0x97, 0x48, 0x78, 0x00, 0x4f, 0x77, 0x00, 0x9c, 0x48, 0x7a, 0x00, 0x9a,
  0x24, 0x79, 0x00, 0x30, 0x77, 0x06, 0x99, 0x51, 0x76, 0x0c, 0x82, 0x3c,
  0x77, 0x00, 0x8a, 0x30, 0x77, 0x00, 0x24, 0x79, 0x02, 0x82, 0x34, 0x79,
  0x00, 0x2d, 0x77, 0x02, 0x80, 0x48, 0x7b, 0x00, 0x45, 0x7b, 0x00, 0x8c,
  0x48, 0x7a, 0x02, 0x81, 0x28, 0x7a, 0x02, 0x86, 0x30, 0x78, 0x00, 0x87,
  0x48, 0x78, 0x04, 0x86, 0x37, 0x77, 0x00, 0x87, 0x4f, 0x77, 0x00, 0x89,
  0x51, 0x76, 0x10, 0x91, 0x26, 0x79, 0x02, 0x90, 0x43, 0x7b, 0x00, 0x47,
  0x7b, 0x00, 0x92, 0x2b, 0x7b, 0x00, 0x32, 0x7b, 0x00, 0x3b, 0x7a, 0x00,
  0x96, 0x2f, 0x79, 0x00, 0x37, 0x79, 0x00, 0x97, 0x47, 0x78, 0x00, 0x4f,
  0x78, 0x00, 0x9c, 0x47, 0x7a, 0x00, 0x9a, 0x24, 0x79, 0x00, 0x30, 0x79,
  0x08, 0x99, 0x51, 0x78, 0x0c, 0x8a, 0x24, 0x79, 0x02, 0x30, 0x79, 0x0a,
  0x89, 0x51, 0x78, 0x02, 0x80, 0x47, 0x7b, 0x00, 0x43, 0x7b, 0x10, 0x86,
  0x2f, 0x79, 0x00, 0x87, 0x47, 0x78, 0x02, 0x8c, 0x47, 0x7a, 0x02, 0x86,
  0x37, 0x79, 0x00, 0x87, 0x4f, 0x78, 0x02, 0x82, 0x32, 0x7b, 0x04, 0x3b,
  0x7a, 0x00, 0x2b, 0x7b, 0x0e, 0x81, 0x26, 0x79, 0x16, 0x90, 0x3e, 0x7b,
  0x00, 0x43, 0x7b, 0x00, 0x47, 0x7b, 0x00, 0x93, 0x37, 0x71, 0x00, 0x96,
  0x37, 0x77, 0x02, 0x97, 0x4f, 0x77, 0x22, 0x80, 0x3e, 0x7b, 0x22, 0x43,
  0x7b, 0x02, 0x86, 0x37, 0x77, 0x02, 0x87, 0x4f, 0x77, 0x0a, 0x80, 0x47,
  0x7b, 0x0a, 0x91, 0x24, 0x7b, 0x00, 0x26, 0x6e, 0x00, 0x83, 0x37, 0x71,
  0x00, 0x99, 0x23, 0x7b, 0x00, 0x31, 0x7b, 0x02, 0x90, 0x30, 0x77, 0x00,
  0x37, 0x7b, 0x00, 0x3c, 0x7b, 0x00, 0x40, 0x7b, 0x00, 0x43, 0x7b, 0x00,
  0x48, 0x7a, 0x00, 0x92, 0x37, 0x77, 0x00, 0x3c, 0x77, 0x00, 0x93, 0x30,
  0x71, 0x00, 0x34, 0x71, 0x00, 0x3c, 0x71, 0x00, 0x96, 0x3b, 0x79, 0x00,
  0x3c, 0x76, 0x04, 0x86, 0x3b, 0x79, 0x00, 0x97, 0x54, 0x77, 0x02, 0x53,
  0x78, 0x00, 0x99, 0x51, 0x78, 0x04, 0x87, 0x53, 0x78, 0x0a, 0x81, 0x26,
  0x6e, 0x0a, 0x89, 0x51, 0x78, 0x42, 0x99, 0x51, 0x6a, 0x08, 0x80, 0x40,
  0x7b, 0x08, 0x48, 0x7a, 0x00, 0x43, 0x7b, 0x00, 0x82, 0x37, 0x77, 0x00,
  0x86, 0x3c, 0x76, 0x02, 0x80, 0x3c, 0x7b, 0x00, 0x30, 0x77, 0x00, 0x82,
  0x3c, 0x77, 0x02, 0x81, 0x24, 0x7b, 0x00, 0x87, 0x54, 0x77, 0x04, 0x80,
  0x37, 0x7b, 0x04, 0x89, 0x51, 0x6a, 0x0a, 0x31, 0x7b, 0x00, 0x23, 0x7b,
  0x04, 0x97, 0x54, 0x78, 0x04, 0x91, 0x24, 0x7a, 0x00, 0x99, 0x23, 0x77,
  0x00, 0x39, 0x77, 0x02, 0x90, 0x30, 0x79, 0x00, 0x37, 0x75, 0x00, 0x3c,
  0x7b, 0x00, 0x40, 0x7b, 0x00, 0x43, 0x7b, 0x00, 0x48, 0x7a, 0x00, 0x92,
  0x37, 0x75, 0x00, 0x3c, 0x6e, 0x00, 0x96, 0x3c, 0x78, 0x00, 0x9a, 0x24,
  0x75, 0x00, 0x30, 0x6e, 0x14, 0x8a, 0x30, 0x6e, 0x00, 0x24, 0x75, 0x02,
  0x80, 0x40, 0x7b, 0x00, 0x30, 0x79, 0x02, 0x82, 0x37, 0x75, 0x00, 0x87,
  0x54, 0x78, 0x04, 0x82, 0x3c, 0x6e, 0x00, 0x83, 0x34, 0x71, 0x00, 0x86,
  0x3c, 0x78, 0x08, 0x80, 0x3c, 0x7b, 0x02, 0x48, 0x7a, 0x02, 0x43, 0x7b,
  0x02, 0x81, 0x24, 0x7a, 0x04, 0x80, 0x37, 0x75, 0x00, 0x91, 0x21, 0x79,
  0x00, 0x83, 0x3c, 0x71, 0x00, 0x30, 0x71, 0x00, 0x89, 0x23, 0x7a, 0x00,
  0x39, 0x77, 0x00, 0x99, 0x23, 0x7a, 0x00, 0x34, 0x7c, 0x02, 0x90, 0x35,
  0x7a, 0x00, 0x3c, 0x79, 0x00, 0x41, 0x7b, 0x00, 0x45, 0x7b, 0x00, 0x48,
  0x7a, 0x00, 0x92, 0x35, 0x77, 0x00, 0x39, 0x77, 0x00, 0x3c, 0x75, 0x00,
  0x93, 0x35, 0x71, 0x00, 0x39, 0x71, 0x00, 0x96, 0x3c, 0x79, 0x00, 0x97,
  0x54, 0x78, 0x00, 0x99, 0x51, 0x75, 0x00, 0x9a, 0x24, 0x7a, 0x00, 0x30,
  0x7a, 0x12, 0x8a, 0x24, 0x7a, 0x02, 0x82, 0x35, 0x77, 0x02, 0x39, 0x77,
  0x00, 0x8a, 0x30, 0x7a, 0x02, 0x89, 0x51, 0x75, 0x08, 0x80, 0x41, 0x7b,
  0x00, 0x82, 0x3c, 0x75, 0x04, 0x80, 0x48, 0x7a, 0x00, 0x86, 0x3c, 0x79,
  0x00, 0x87, 0x54, 0x78, 0x04, 0x80, 0x45, 0x7b, 0x02, 0x35, 0x7a, 0x02,
  0x3c, 0x79, 0x02, 0x89, 0x23, 0x77, 0x2e, 0x81, 0x21, 0x79, 0x02, 0x91,
  0x21, 0x78, 0x00, 0x97, 0x54, 0x77, 0x02, 0x90, 0x35, 0x77, 0x00, 0x3c,
  0x7a, 0x00, 0x41, 0x7b, 0x00, 0x45, 0x7b, 0x00, 0x48, 0x7b, 0x00, 0x92,
  0x35, 0x77, 0x00, 0x39, 0x77, 0x00, 0x3c, 0x77, 0x00, 0x96, 0x3c, 0x77,
  0x0a, 0x99, 0x51, 0x74, 0x08, 0x82, 0x35, 0x77, 0x02, 0x80, 0x41, 0x7b,
  0x00, 0x81, 0x21, 0x78, 0x02, 0x80, 0x45, 0x7b, 0x00, 0x82, 0x39, 0x77,
  0x04, 0x80, 0x3c, 0x7a, 0x00, 0x82, 0x3c, 0x77, 0x00, 0x87, 0x54, 0x77,
  0x02, 0x80, 0x35, 0x77, 0x00, 0x86, 0x3c, 0x77, 0x02, 0x80, 0x48, 0x7b,
  0x00, 0x89, 0x51, 0x74, 0x0c, 0x97, 0x54, 0x76, 0x04, 0x91, 0x21, 0x76,
  0x00, 0x89, 0x34, 0x7c, 0x02, 0x90, 0x35, 0x77, 0x00, 0x3c, 0x77, 0x00,
  0x41, 0x7a, 0x00, 0x45, 0x7b, 0x00, 0x48, 0x7a, 0x00, 0x92, 0x35, 0x72,
  0x00, 0x39, 0x72, 0x00, 0x3c, 0x6f, 0x00, 0x96, 0x3c, 0x75, 0x10, 0x82,
  0x39, 0x72, 0x04, 0x80, 0x41, 0x7a, 0x00, 0x82, 0x35, 0x72, 0x04, 0x81,
  0x21, 0x76, 0x04, 0x80, 0x3c, 0x77, 0x00, 0x82, 0x3c, 0x6f, 0x02, 0x80,
  0x45, 0x7b, 0x02, 0x87, 0x54, 0x76, 0x04, 0x80, 0x48, 0x7a, 0x00, 0x86,
  0x3c, 0x75, 0x04, 0x80, 0x35, 0x77, 0x04, 0x83, 0x35, 0x71, 0x00, 0x97,
  0x53, 0x77, 0x02, 0x91, 0x23, 0x7c, 0x00, 0x83, 0x39, 0x71, 0x00, 0x99,
  0x23, 0x7c, 0x00, 0x37, 0x7f, 0x02, 0x90, 0x34, 0x7b, 0x00, 0x3b, 0x7b,
  0x00, 0x40, 0x7b, 0x00, 0x44, 0x7a, 0x00, 0x47, 0x7b, 0x00, 0x92, 0x34,
  0x76, 0x00, 0x38, 0x76, 0x00, 0x3b, 0x76, 0x00, 0x93, 0x34, 0x71, 0x00,
  0x38, 0x71, 0x00, 0x3b, 0x71, 0x00, 0x96, 0x3b, 0x76, 0x00, 0x9a, 0x24,
  0x7a, 0x00, 0x30, 0x7a, 0x06, 0x99, 0x51, 0x76, 0x0a, 0x8a, 0x30, 0x7a,
  0x02, 0x82, 0x34, 0x76, 0x04, 0x80, 0x40, 0x7b, 0x00, 0x82, 0x38, 0x76,
  0x02, 0x8a, 0x24, 0x7a, 0x04, 0x80, 0x44, 0x7a, 0x00, 0x3b, 0x7b, 0x00,
  0x34, 0x7b, 0x00, 0x82, 0x3b, 0x76, 0x00, 0x87, 0x53, 0x77, 0x02, 0x89,
  0x51, 0x76, 0x02, 0x80, 0x47, 0x7b, 0x00, 0x86, 0x3b, 0x76, 0x0e, 0x97,
  0x53, 0x76, 0x02, 0x90, 0x34, 0x71, 0x00, 0x3b, 0x7b, 0x00, 0x40, 0x79,
  0x00, 0x44, 0x7b, 0x00, 0x47, 0x78, 0x00, 0x92, 0x34, 0x6a, 0x00, 0x38,
  0x6b, 0x00, 0x3b, 0x6e, 0x00, 0x96, 0x3b, 0x74, 0x10, 0x82, 0x34, 0x6a,
  0x08, 0x80, 0x40, 0x79, 0x00, 0x82, 0x3b, 0x6e, 0x00, 0x38, 0x6b, 0x00,
  0x89, 0x37, 0x7f, 0x00, 0x23, 0x7c, 0x02, 0x80, 0x3b, 0x7b, 0x00, 0x34,
  0x71, 0x02, 0x47, 0x78, 0x00, 0x87, 0x53, 0x76, 0x02, 0x80, 0x44, 0x7b,
  0x00, 0x86, 0x3b, 0x74, 0x10, 0x99, 0x23, 0x7b, 0x00, 0x31, 0x7b, 0x02,
  0x90, 0x34, 0x70, 0x00, 0x3b, 0x7a, 0x00, 0x40, 0x7b, 0x00, 0x44, 0x7a,
  0x00, 0x47, 0x7a, 0x00, 0x92, 0x34, 0x74, 0x00, 0x38, 0x74, 0x00, 0x3b,
  0x75, 0x00, 0x96, 0x3b, 0x77, 0x00, 0x97, 0x53, 0x77, 0x04, 0x99, 0x51,
  0x74, 0x0a, 0x81, 0x23, 0x7c, 0x06, 0x80, 0x40, 0x7b, 0x00, 0x82, 0x34,
  0x74, 0x02, 0x80, 0x3b, 0x7a, 0x00, 0x34, 0x70, 0x02, 0x47, 0x7a, 0x00,
  0x44, 0x7a, 0x00, 0x82, 0x38, 0x74, 0x02, 0x3b, 0x75, 0x02, 0x89, 0x51,
  0x74, 0x02, 0x86, 0x3b, 0x77, 0x00, 0x87, 0x53, 0x77, 0x10, 0x91, 0x23,
  0x7c, 0x02, 0x90, 0x34, 0x7a, 0x00, 0x3b, 0x7b, 0x00, 0x40, 0x7b, 0x00,
  0x44, 0x7b, 0x00, 0x47, 0x79, 0x00, 0x92, 0x34, 0x74, 0x00, 0x38, 0x74,
  0x00, 0x3b, 0x73, 0x00, 0x96, 0x3b, 0x75, 0x00, 0x97, 0x53, 0x76, 0x00,
  0x9a, 0x24, 0x76, 0x00, 0x30, 0x73, 0x06, 0x89, 0x31, 0x7b, 0x08, 0x23,
  0x7b, 0x04, 0x8a, 0x30, 0x73, 0x00, 0x24, 0x76, 0x02, 0x80, 0x3b, 0x7b,
  0x00, 0x82, 0x34, 0x74, 0x04, 0x80, 0x40, 0x7b, 0x04, 0x34, 0x7a, 0x02,
  0x82, 0x38, 0x74, 0x02, 0x81, 0x23, 0x7c, 0x00, 0x82, 0x3b, 0x73, 0x02,
  0x80, 0x47, 0x79, 0x00, 0x44, 0x7b, 0x04, 0x86, 0x3b, 0x75, 0x00, 0x87,
  0x53, 0x76, 0x08, 0x91, 0x28, 0x7b, 0x00, 0x83, 0x3b, 0x71, 0x00, 0x38,
  0x71, 0x00, 0x34, 0x71, 0x00, 0x99, 0x23, 0x7c, 0x00, 0x39, 0x7b, 0x02,
  0x90, 0x2d, 0x7b, 0x00, 0x39, 0x7b, 0x00, 0x40, 0x7b, 0x00, 0x45, 0x7b,
  0x00, 0x48, 0x7a, 0x00, 0x92, 0x34, 0x76, 0x00, 0x39, 0x77, 0x00, 0x3c,
  0x74, 0x00, 0x93, 0x39, 0x71, 0x00, 0x3c, 0x71, 0x00, 0x96, 0x34, 0x79,
  0x00, 0x9a, 0x24, 0x79, 0x00, 0x30, 0x7a, 0x02, 0x97, 0x4c, 0x78, 0x02,
  0x99, 0x51, 0x77, 0x0e, 0x8a, 0x30, 0x7a, 0x00, 0x24, 0x79, 0x0a, 0x89,
  0x51, 0x77, 0x06, 0x82, 0x34, 0x76, 0x04, 0x80, 0x45, 0x7b, 0x00, 0x82,
  0x39, 0x77, 0x02, 0x80, 0x48, 0x7a, 0x02, 0x82, 0x3c, 0x74, 0x02, 0x80,
  0x40, 0x7b, 0x00, 0x2d, 0x7b, 0x04, 0x39, 0x7b, 0x06, 0x86, 0x34, 0x79,
  0x02, 0x87, 0x4c, 0x78, 0x28, 0x90, 0x2d, 0x7a, 0x00, 0x39, 0x7b, 0x00,
  0x40, 0x7b, 0x00, 0x45, 0x7b, 0x00, 0x48, 0x7b, 0x00, 0x92, 0x34, 0x78,
  0x00, 0x39, 0x7a, 0x00, 0x3c, 0x76, 0x00, 0x96, 0x34, 0x79, 0x02, 0x97,
  0x4c, 0x78, 0x08, 0x99, 0x51, 0x76, 0x06, 0x81, 0x28, 0x7b, 0x06, 0x80,
  0x2d, 0x7a, 0x08, 0x45, 0x7b, 0x00, 0x40, 0x7b, 0x02, 0x39, 0x7b, 0x04,
  0x48, 0x7b, 0x02, 0x82, 0x34, 0x78, 0x00, 0x89, 0x51, 0x76, 0x04, 0x82,
  0x3c, 0x76, 0x02, 0x39, 0x7a, 0x02, 0x91, 0x28, 0x7b, 0x0c, 0x89, 0x39,
  0x7b, 0x02, 0x83, 0x39, 0x71, 0x06, 0x89, 0x23, 0x7c, 0x06, 0x86, 0x34,
  0x79, 0x02, 0x87, 0x4c, 0x78, 0x10, 0x81, 0x28, 0x7b, 0x04, 0x91, 0x24,
  0x7b, 0x00, 0x83, 0x3c, 0x71, 0x00, 0x99, 0x23, 0x7c, 0x00, 0x31, 0x7b,
  0x02, 0x90, 0x30, 0x79, 0x00, 0x3a, 0x7b, 0x00, 0x3c, 0x7b, 0x00, 0x40,
  0x7b, 0x00, 0x43, 0x7b, 0x00, 0x46, 0x7b, 0x00, 0x92, 0x34, 0x76, 0x00,
  0x37, 0x77, 0x00, 0x3a, 0x67, 0x00, 0x93, 0x30, 0x71, 0x00, 0x37, 0x71,
  0x00, 0x3a, 0x71, 0x00, 0x96, 0x32, 0x78, 0x00, 0x9a, 0x24, 0x7a, 0x00,
  0x30, 0x77, 0x02, 0x97, 0x4a, 0x78, 0x04, 0x83, 0x37, 0x71, 0x04, 0x99,
  0x51, 0x75, 0x0e, 0x8a, 0x30, 0x77, 0x04, 0x24, 0x7a, 0x06, 0x89, 0x51,
  0x75, 0x22, 0x23, 0x7c, 0x1a, 0x99, 0x23, 0x7b, 0x02, 0x9a, 0x24, 0x6b,
  0x00, 0x30, 0x6b, 0x04, 0x99, 0x51, 0x73, 0x0c, 0x8a, 0x24, 0x6b, 0x02,
  0x30, 0x6b, 0x0e, 0x89, 0x51, 0x73, 0x18, 0x23, 0x7b, 0x26, 0x99, 0x23,
  0x7b, 0x02, 0x86, 0x32, 0x78, 0x00, 0x99, 0x51, 0x75, 0x00, 0x9a, 0x24,
  0x6c, 0x0c, 0x8a, 0x24, 0x6c, 0x10, 0x89, 0x51, 0x75, 0x14, 0x9a, 0x30,
  0x50, 0x08, 0x8a, 0x30, 0x50, 0x04, 0x81, 0x24, 0x7b, 0x0a, 0x89, 0x23,
  0x7b, 0x18, 0x80, 0x30, 0x79, 0x00, 0x91, 0x24, 0x7b, 0x00, 0x99, 0x23,
  0x7b, 0x00, 0x51, 0x74, 0x02, 0x9a, 0x24, 0x6e, 0x00, 0x30, 0x6e, 0x10,
  0x80, 0x3a, 0x7b, 0x00, 0x8a, 0x24, 0x6e, 0x02, 0x30, 0x6e, 0x06, 0x89,
  0x51, 0x74, 0x16, 0x87, 0x4a, 0x78, 0x02, 0x96, 0x30, 0x77, 0x00, 0x97,
  0x48, 0x77, 0x06, 0x89, 0x31, 0x7b, 0x06, 0x23, 0x7b, 0x02, 0x81, 0x24,
  0x7b, 0x02, 0x80, 0x3c, 0x7b, 0x04, 0x43, 0x7b, 0x04, 0x86, 0x30, 0x77,
  0x00, 0x87, 0x48, 0x77, 0x02, 0x80, 0x40, 0x7b, 0x00, 0x97, 0x4a, 0x76,
  0x0a, 0x80, 0x46, 0x7b, 0x02, 0x82, 0x34, 0x76, 0x04, 0x83, 0x30, 0x71,
  0x00, 0x99, 0x51, 0x6b, 0x04, 0x91, 0x24, 0x7a, 0x00, 0x83, 0x3a, 0x71,
  0x00, 0x99, 0x23, 0x7c, 0x00, 0x39, 0x7b, 0x02, 0x90, 0x34, 0x7b, 0x00,
  0x3a, 0x7b, 0x00, 0x3c, 0x7b, 0x00, 0x40, 0x7b, 0x00, 0x43, 0x7b, 0x00,
  0x46, 0x7b, 0x00, 0x48, 0x7b, 0x00, 0x92, 0x3c, 0x6b, 0x00, 0x40, 0x74,
  0x00, 0x93, 0x34, 0x71, 0x00, 0x40, 0x71, 0x00, 0x43, 0x71, 0x00, 0x87,
  0x4a, 0x76, 0x00, 0x97, 0x48, 0x76, 0x00, 0x9a, 0x24, 0x6e, 0x00, 0x30,
  0x6c, 0x12, 0x8a, 0x30, 0x6c, 0x00, 0x24, 0x6e, 0x02, 0x87, 0x48, 0x76,
  0x02, 0x89, 0x51, 0x6b, 0x02, 0x97, 0x4a, 0x77, 0x12, 0x87, 0x4a, 0x77,
  0x02, 0x97, 0x48, 0x76, 0x10, 0x89, 0x23, 0x7c, 0x06, 0x97, 0x4a, 0x77,
  0x02, 0x87, 0x4a, 0x77, 0x00, 0x48, 0x76, 0x14, 0x97, 0x48, 0x75, 0x06,
  0x99, 0x23, 0x7b, 0x00, 0x51, 0x6e, 0x02, 0x9a, 0x24, 0x6e, 0x00, 0x30,
  0x69, 0x0e, 0x97, 0x4a, 0x77, 0x02, 0x87, 0x48, 0x75, 0x02, 0x8a, 0x30,
  0x69, 0x00, 0x24, 0x6e, 0x04, 0x89, 0x51, 0x6e, 0x08, 0x87, 0x4a, 0x77,
  0x06, 0x97, 0x48, 0x75, 0x14, 0x4a, 0x77, 0x00, 0x89, 0x23, 0x7b, 0x02,
  0x87, 0x48, 0x75, 0x12, 0x4a, 0x77, 0x04, 0x97, 0x48, 0x76, 0x0e, 0x99,
  0x23, 0x7c, 0x00, 0x51, 0x6f, 0x02, 0x9a, 0x24, 0x70, 0x00, 0x30, 0x70,
  0x06, 0x87, 0x48, 0x76, 0x00, 0x97, 0x4a, 0x77, 0x0c, 0x8a, 0x30, 0x70,
  0x02, 0x24, 0x70, 0x02, 0x89, 0x51, 0x6f, 0x04, 0x87, 0x4a, 0x77, 0x04,
  0x97, 0x48, 0x76, 0x14, 0x4a, 0x77, 0x02, 0x87, 0x48, 0x76, 0x0e, 0x89,
  0x23, 0x7c, 0x04, 0x87, 0x4a, 0x77, 0x06, 0x97, 0x48, 0x77, 0x12, 0x99,
  0x23, 0x7b, 0x00, 0x51, 0x70, 0x02, 0x80, 0x40, 0x7b, 0x00, 0x97, 0x4a,
  0x76, 0x00, 0x9a, 0x24, 0x74, 0x00, 0x30, 0x77, 0x02, 0x87, 0x48, 0x77,
  0x02, 0x80, 0x43, 0x7b, 0x04, 0x34, 0x7b, 0x06, 0x48, 0x7b, 0x00, 0x3c,
  0x7b, 0x00, 0x8a, 0x24, 0x74, 0x02, 0x80, 0x46, 0x7b, 0x00, 0x87, 0x4a,
  0x76, 0x00, 0x8a, 0x30, 0x77, 0x02, 0x80, 0x3a, 0x7b, 0x04, 0x81, 0x24,
  0x7a, 0x00, 0x97, 0x48, 0x76, 0x00, 0x89, 0x51, 0x70, 0x16, 0x87, 0x48,
  0x76, 0x00, 0x97, 0x4a, 0x77, 0x02, 0x91, 0x24, 0x7a, 0x0a, 0x89, 0x39,
  0x7b, 0x04, 0x83, 0x40, 0x71, 0x04, 0x87, 0x4a, 0x77, 0x00, 0x89, 0x23,
  0x7b, 0x06, 0x97, 0x48, 0x77, 0x02, 0x81, 0x24, 0x7a, 0x0c, 0x83, 0x43,
  0x71, 0x06, 0x99, 0x51, 0x71, 0x02, 0x97, 0x4a, 0x77, 0x02, 0x91, 0x24,
  0x7b, 0x00, 0x83, 0x34, 0x71, 0x00, 0x87, 0x48, 0x77, 0x00, 0x99, 0x23,
  0x7b, 0x00, 0x31, 0x7b, 0x02, 0x90, 0x37, 0x7b, 0x00, 0x3a, 0x7b, 0x00,
  0x3c, 0x7b, 0x00, 0x40, 0x7b, 0x00, 0x43, 0x7b, 0x00, 0x46, 0x7b, 0x00,
  0x48, 0x7b, 0x00, 0x4c, 0x7b, 0x00, 0x92, 0x43, 0x71, 0x00, 0x93, 0x37,
  0x71, 0x00, 0x43, 0x71, 0x04, 0x82, 0x40, 0x74, 0x0a, 0x87, 0x4a, 0x77,
  0x04, 0x89, 0x51, 0x71, 0x02, 0x97, 0x48, 0x76, 0x14, 0x87, 0x48, 0x76,
  0x00, 0x97, 0x4a, 0x77, 0x06, 0x81, 0x24, 0x7b, 0x02, 0x9a, 0x2f, 0x4a,
  0x00, 0x30, 0x6b, 0x04, 0x8a, 0x2f, 0x4a, 0x04, 0x87, 0x4a, 0x77, 0x06,
  0x8a, 0x30, 0x6b, 0x02, 0x97, 0x48, 0x76, 0x02, 0x89, 0x23, 0x7b, 0x12,
  0x87, 0x48, 0x76, 0x00, 0x97, 0x4a, 0x77, 0x0a, 0x99, 0x23, 0x7a, 0x00,
  0x51, 0x70, 0x02, 0x9a, 0x30, 0x62, 0x02, 0x8a, 0x30, 0x62, 0x06, 0x87,
  0x4a, 0x77, 0x06, 0x97, 0x48, 0x76, 0x08, 0x89, 0x51, 0x70, 0x0c, 0x87,
  0x48, 0x76, 0x00, 0x97, 0x4a, 0x77, 0x0e, 0x9a, 0x30, 0x64, 0x06, 0x87,
  0x4a, 0x77, 0x06, 0x97, 0x48, 0x76, 0x00, 0x8a, 0x30, 0x64, 0x02, 0x87,
  0x48, 0x76, 0x04, 0x89, 0x23, 0x7a, 0x0e, 0x97, 0x4a, 0x77, 0x0e, 0x99,
  0x23, 0x7b, 0x00, 0x51, 0x6f, 0x02, 0x9a, 0x30, 0x5b, 0x04, 0x87, 0x4a,
  0x77, 0x06, 0x97, 0x48, 0x77, 0x04, 0x8a, 0x30, 0x5b, 0x08, 0x89, 0x51,
  0x6f, 0x08, 0x87, 0x48, 0x77, 0x02, 0x97, 0x4a, 0x76, 0x10, 0x9a, 0x30,
  0x7a, 0x02, 0x87, 0x4a, 0x76, 0x04, 0x97, 0x48, 0x77, 0x08, 0x8a, 0x30,
  0x7a, 0x04, 0x89, 0x23, 0x7b, 0x0c, 0x87, 0x48, 0x77, 0x00, 0x97, 0x4a,
  0x76, 0x10, 0x82, 0x3a, 0x67, 0x00, 0x87, 0x4a, 0x76, 0x00, 0x97, 0x48,
  0x75, 0x00, 0x99, 0x23, 0x7b, 0x00, 0x51, 0x6f, 0x02, 0x9a, 0x30, 0x76,
  0x04, 0x80, 0x43, 0x7b, 0x00, 0x3c, 0x7b, 0x02, 0x37, 0x7b, 0x02, 0x46,
  0x7b, 0x02, 0x82, 0x37, 0x77, 0x04, 0x80, 0x48, 0x7b, 0x00, 0x8a, 0x30,
  0x76, 0x04, 0x80, 0x40, 0x7b, 0x02, 0x4c, 0x7b, 0x00, 0x3a, 0x7b, 0x00,
  0x82, 0x3c, 0x6b, 0x00, 0x87, 0x48, 0x75, 0x00, 0x97, 0x4a, 0x75, 0x02,
  0x89, 0x51, 0x6f, 0x0c, 0x97, 0x48, 0x75, 0x04, 0x87, 0x4a, 0x75, 0x0a,
  0x9a, 0x30, 0x75, 0x0a, 0x87, 0x48, 0x75, 0x04, 0x97, 0x47, 0x6f, 0x00,
  0x8a, 0x30, 0x75, 0x08, 0x89, 0x23, 0x7b, 0x00, 0x31, 0x7b, 0x0c, 0x97,
  0x48, 0x77, 0x02, 0x87, 0x47, 0x6f, 0x00, 0x99, 0x51, 0x73, 0x0a, 0x83,
  0x43, 0x71, 0x00, 0x37, 0x71, 0x00, 0x99, 0x23, 0x7c, 0x00, 0x31, 0x7c,
  0x02, 0x90, 0x3c, 0x7b, 0x00, 0x43, 0x7b, 0x00, 0x46, 0x7b, 0x00, 0x48,
  0x7b, 0x00, 0x4c, 0x7b, 0x00, 0x52, 0x7b, 0x00, 0x54, 0x7b, 0x00, 0x92,
  0x3c, 0x77, 0x00, 0x48, 0x71, 0x00, 0x54, 0x73, 0x00, 0x93, 0x40, 0x71,
  0x00, 0x46, 0x71, 0x00, 0x48, 0x71, 0x0a, 0x82, 0x43, 0x71, 0x02, 0x89,
  0x51, 0x73, 0x0e, 0x99, 0x51, 0x66, 0x02, 0x89, 0x51, 0x66, 0x14, 0x9a,
  0x30, 0x5a, 0x02, 0x8a, 0x30, 0x5a, 0x02, 0x99, 0x51, 0x70, 0x0a, 0x89,
  0x23, 0x7c, 0x06, 0x51, 0x70, 0x12, 0x99, 0x51, 0x69, 0x02, 0x89, 0x51,
  0x69, 0x08, 0x9a, 0x30, 0x59, 0x02, 0x8a, 0x30, 0x59, 0x12, 0x99, 0x51,
  0x73, 0x08, 0x89, 0x51, 0x73, 0x14, 0xff, 0x51, 0x03, 0x05, 0xf1, 0xea,
  0x00, 0x9a, 0x30, 0x56, 0x0e, 0x8a, 0x30, 0x56, 0x22, 0x9a, 0x30, 0x7b,
  0x1a, 0x8a, 0x30, 0x7b, 0x16, 0x9a, 0x30, 0x56, 0x1a, 0x8a, 0x30, 0x56,
  0x16, 0x9a, 0x30, 0x5b, 0x18, 0x8a, 0x30, 0x5b, 0x02, 0x82, 0x54, 0x73,
  0x0a, 0x48, 0x71, 0x00, 0x3c, 0x77, 0x0a, 0x99, 0x28, 0x77, 0x02, 0x9a,
  0x30, 0x7b, 0x16, 0x89, 0x28, 0x77, 0x06, 0x8a, 0x30, 0x7b, 0x14, 0x83,
  0x48, 0x71, 0x00, 0x40, 0x71, 0x00, 0x9a, 0x30, 0x61, 0x04, 0x83, 0x46,
  0x71, 0x0a, 0x99, 0x28, 0x7a, 0x06, 0x89, 0x31, 0x7c, 0x00, 0x8a, 0x30,
  0x61, 0x04, 0x87, 0x48, 0x77, 0x0e, 0x89, 0x28, 0x7a, 0x0a, 0x9a, 0x30,
  0x7b, 0x18, 0x8a, 0x30, 0x7b, 0x06, 0x99, 0x2d, 0x7a, 0x12, 0x9a, 0x30,
  0x7a, 0x06, 0x89, 0x2d, 0x7a, 0x0c, 0x80, 0x48, 0x7b, 0x02, 0x52, 0x7b,
  0x00, 0x4c, 0x7b, 0x02, 0x54, 0x7b, 0x02, 0x43, 0x7b, 0x02, 0x46, 0x7b,
  0x00, 0x8a, 0x30, 0x7a, 0x02, 0x80, 0x3c, 0x7b, 0x12, 0x91, 0x29, 0x7d,
  0x00, 0x99, 0x23, 0x79, 0x00, 0x31, 0x7a, 0x02, 0x90, 0x41, 0x7b, 0x00,
  0x98, 0x35, 0x7a, 0x30, 0x9a, 0x30, 0x7b, 0x1a, 0x8a, 0x30, 0x7b, 0x04,
  0x89, 0x23, 0x79, 0x12, 0x9b, 0x35, 0x75, 0x1c, 0x81, 0x29, 0x7d, 0x02,
  0x91, 0x21, 0x7c, 0x00, 0x99, 0x23, 0x78, 0x02, 0x90, 0x39, 0x7b, 0x00,
  0x98, 0x2d, 0x7a, 0x04, 0x80, 0x41, 0x7b, 0x06, 0x88, 0x35, 0x7a, 0x34,
  0x99, 0x28, 0x79, 0x00, 0x2a, 0x79, 0x00, 0x33, 0x7a, 0x22, 0x9b, 0x2d,
  0x75, 0x0a, 0x8b, 0x35, 0x75, 0x06, 0x81, 0x21, 0x7c, 0x0e, 0x91, 0x22,
  0x7c, 0x02, 0x90, 0x3a, 0x7a, 0x00, 0x88, 0x2d, 0x7a, 0x00, 0x98, 0x2e,
  0x79, 0x06, 0x80, 0x39, 0x7b, 0x1a, 0x89, 0x33, 0x7a, 0x24, 0x23, 0x78,
  0x1c, 0xb0, 0x5b, 0x3c, 0x00, 0x8b, 0x2d, 0x75, 0x00, 0x9b, 0x2e, 0x73,
  0x10, 0x80, 0x3a, 0x7a, 0x06, 0x81, 0x22, 0x7c, 0x04, 0x88, 0x2e, 0x79,
  0x04, 0x91, 0x23, 0x7d, 0x00, 0x99, 0x23, 0x79, 0x00, 0x33, 0x7a, 0x02,
  0x90, 0x3b, 0x7b, 0x00, 0x98, 0x2f, 0x79, 0x24, 0x89, 0x2a, 0x79, 0x34,
  0x23, 0x79, 0x02, 0x8b, 0x2e, 0x73, 0x02, 0x89, 0x33, 0x7a, 0x04, 0x9b,
  0x2f, 0x74, 0x08, 0x80, 0x3b, 0x7b, 0x14, 0x88, 0x2f, 0x79, 0x02, 0x91,
  0x24, 0x7c, 0x00, 0x99, 0x23, 0x78, 0x02, 0x90, 0x3c, 0x7a, 0x00, 0x98,
  0x30, 0x79, 0x02, 0x81, 0x23, 0x7d, 0x02, 0x89, 0x28, 0x79, 0x30, 0x80,
  0x3c, 0x7a, 0x0a, 0x91, 0x26, 0x77, 0x00, 0x99, 0x28, 0x79, 0x00, 0x2a,
  0x79, 0x00, 0x33, 0x79, 0x02, 0x90, 0x3e, 0x7b, 0x00, 0x98, 0x32, 0x77,
  0x08, 0x81, 0x24, 0x7c, 0x04, 0x88, 0x30, 0x79, 0x10, 0x8b, 0x2f, 0x74,
  0x04, 0x9b, 0x30, 0x73, 0x14, 0x80, 0x3e, 0x7b, 0x04, 0x81, 0x26, 0x77,
  0x06, 0x91, 0x28, 0x78, 0x02, 0x90, 0x40, 0x7b, 0x00, 0x98, 0x34, 0x79,
  0x02, 0x88, 0x32, 0x77, 0x1e, 0x9b, 0x32, 0x71, 0x00, 0x89, 0x33, 0x79,
  0x0c, 0x8b, 0x30, 0x73, 0x04, 0x81, 0x28, 0x78, 0x0c, 0x80, 0x40, 0x7b,
  0x02, 0x91, 0x29, 0x7b, 0x02, 0x90, 0x41, 0x7a, 0x00, 0x98, 0x35, 0x79,
  0x0e, 0x89, 0x23, 0x78, 0x0a, 0x88, 0x34, 0x79, 0x08, 0x81, 0x29, 0x7b,
  0x00, 0x9b, 0x34, 0x74, 0x02, 0x8b, 0x32, 0x71, 0x08, 0x88, 0x35, 0x79,
  0x06, 0x80, 0x41, 0x7a, 0x0e, 0x91, 0x29, 0x7c, 0x00, 0x99, 0x23, 0x78,
  0x00, 0x33, 0x7a, 0x02, 0x90, 0x41, 0x7a, 0x00, 0x98, 0x35, 0x79, 0x20,
  0x9b, 0x35, 0x73, 0x18, 0x8b, 0x34, 0x74, 0x0a, 0x89, 0x2a, 0x79, 0x08,
  0x8b, 0x35, 0x73, 0x0c, 0x89, 0x23, 0x78, 0x0a, 0x9b, 0x35, 0x73, 0x0e,
  0x89, 0x33, 0x7a, 0x10, 0x91, 0x21, 0x7c, 0x00, 0x99, 0x23, 0x79, 0x02,
  0x90, 0x39, 0x7b, 0x00, 0x98, 0x2d, 0x79, 0x04, 0x80, 0x41, 0x7a, 0x04,
  0x88, 0x35, 0x79, 0x02, 0x81, 0x29, 0x7c, 0x06, 0x89, 0x28, 0x79, 0x2e,
  0x99, 0x28, 0x7b, 0x00, 0x2a, 0x79, 0x00, 0x33, 0x7a, 0x22, 0x9b, 0x2d,
  0x73, 0x08, 0x8b, 0x35, 0x73, 0x16, 0x91, 0x22, 0x79, 0x02, 0x90, 0x3a,
  0x7a, 0x00, 0x98, 0x2e, 0x79, 0x08, 0x80, 0x39, 0x7b, 0x0c, 0x81, 0x21,
  0x7c, 0x02, 0x88, 0x2d, 0x79, 0x16, 0x89, 0x33, 0x7a, 0x24, 0x23, 0x79,
  0x10, 0x81, 0x22, 0x79, 0x00, 0x9b, 0x2e, 0x73, 0x16, 0x8b, 0x2d, 0x73,
  0x04, 0x80, 0x3a, 0x7a, 0x00, 0x88, 0x2e, 0x79, 0x04, 0x91, 0x23, 0x79,
  0x00, 0x99, 0x23, 0x79, 0x00, 0x33, 0x79, 0x02, 0x90, 0x3b, 0x7b, 0x00,
  0x98, 0x2f, 0x78, 0x3a, 0x81, 0x23, 0x79, 0x04, 0x91, 0x24, 0x76, 0x02,
  0x90, 0x3c, 0x7b, 0x00, 0x98, 0x30, 0x75, 0x0c, 0x89, 0x23, 0x79, 0x06,
  0x80, 0x3b, 0x7b, 0x00, 0x88, 0x2f, 0x78, 0x04, 0x89, 0x2a, 0x79, 0x04,
  0x8b, 0x2e, 0x73, 0x06, 0x9b, 0x2f, 0x72, 0x06, 0x89, 0x33, 0x79, 0x08,
  0x80, 0x3c, 0x7b, 0x04, 0x81, 0x24, 0x76, 0x02, 0x88, 0x30, 0x75, 0x0a,
  0x91, 0x26, 0x76, 0x00, 0x99, 0x23, 0x79, 0x02, 0x90, 0x3e, 0x7b, 0x00,
  0x98, 0x32, 0x79, 0x08, 0x89, 0x28, 0x7b, 0x18, 0x9b, 0x30, 0x6e, 0x12,
  0x8b, 0x2f, 0x72, 0x0a, 0x81, 0x26, 0x76, 0x02, 0x91, 0x24, 0x7c, 0x00,
  0x99, 0x28, 0x7b, 0x00, 0x2a, 0x79, 0x00, 0x33, 0x7a, 0x02, 0x90, 0x3c,
  0x7b, 0x00, 0x98, 0x30, 0x7b, 0x04, 0x88, 0x32, 0x79, 0x10, 0x80, 0x3e,
  0x7b, 0x00, 0x8b, 0x30, 0x6e, 0x06, 0x89, 0x23, 0x79, 0x06, 0x9b, 0x32,
  0x74, 0x40, 0x30, 0x75, 0x04, 0x8b, 0x32, 0x74, 0x12, 0x89, 0x33, 0x7a,
  0x08, 0x99, 0x23, 0x78, 0x22, 0x89, 0x23, 0x78, 0x04, 0x80, 0x3c, 0x7b,
  0x00, 0x88, 0x30, 0x7b, 0x1a, 0x91, 0x29, 0x7d, 0x00, 0x99, 0x23, 0x7a,
  0x00, 0x33, 0x7a, 0x02, 0x90, 0x41, 0x7b, 0x00, 0x98, 0x35, 0x78, 0x08,
  0x81, 0x24, 0x7c, 0x3c, 0x8b, 0x30, 0x75, 0x06, 0x89, 0x2a, 0x79, 0x16,
  0x9b, 0x35, 0x72, 0x04, 0x89, 0x23, 0x7a, 0x06, 0x33, 0x7a, 0x14, 0x91,
  0x21, 0x7b, 0x00, 0x99, 0x23, 0x7a, 0x02, 0x90, 0x39, 0x7b, 0x00, 0x81,
  0x29, 0x7d, 0x00, 0x98, 0x2d, 0x78, 0x08, 0x89, 0x28, 0x7b, 0x02, 0x80,
  0x41, 0x7b, 0x00, 0x88, 0x35, 0x78, 0x34, 0x99, 0x28, 0x7c, 0x00, 0x2a,
  0x7a, 0x00, 0x33, 0x7a, 0x22, 0x9b, 0x2d, 0x72, 0x0a, 0x8b, 0x35, 0x72,
  0x0c, 0x88, 0x2d, 0x78, 0x08, 0x91, 0x22, 0x7c, 0x02, 0x90, 0x3a, 0x7a,
  0x00, 0x98, 0x2e, 0x79, 0x02, 0x80, 0x39, 0x7b, 0x00, 0x81, 0x21, 0x7b,
  0x28, 0x89, 0x33, 0x7a, 0x26, 0x23, 0x7a, 0x06, 0x8b, 0x2d, 0x72, 0x0a,
  0x9b, 0x2e, 0x73, 0x0e, 0x80, 0x3a, 0x7a, 0x0c, 0x81, 0x22, 0x7c, 0x04,
  0x91, 0x23, 0x7d, 0x00, 0x99, 0x23, 0x79, 0x00, 0x33, 0x7a, 0x02, 0x90,
  0x3b, 0x7b, 0x00, 0x98, 0x2f, 0x79, 0x04, 0x88, 0x2e, 0x79, 0x14, 0x89,
  0x31, 0x7a, 0x2e, 0x23, 0x79, 0x1a, 0x9b, 0x2f, 0x73, 0x04, 0x8b, 0x2e,
  0x73, 0x0c, 0x89, 0x2a, 0x7a, 0x04, 0x80, 0x3b, 0x7b, 0x00, 0x81, 0x23,
  0x7d, 0x02, 0x89, 0x33, 0x7a, 0x08, 0x91, 0x24, 0x7a, 0x00, 0x99, 0x23,
  0x7b, 0x02, 0x90, 0x3c, 0x7b, 0x00, 0x98, 0x30, 0x77, 0x0a, 0x88, 0x2f,
  0x79, 0x04, 0x89, 0x28, 0x7c, 0x28, 0x80, 0x3c, 0x7b, 0x08, 0x91, 0x26,
  0x7a, 0x00, 0x99, 0x28, 0x7b, 0x00, 0x2a, 0x79, 0x00, 0x33, 0x7a, 0x02,
  0x90, 0x3e, 0x7b, 0x00, 0x98, 0x32, 0x78, 0x04, 0x81, 0x24, 0x7a, 0x12,
  0x88, 0x30, 0x77, 0x0a, 0x9b, 0x30, 0x71, 0x0a, 0x8b, 0x2f, 0x73, 0x0a,
  0x81, 0x26, 0x7a, 0x06, 0x80, 0x3e, 0x7b, 0x04, 0x91, 0x28, 0x7a, 0x02,
  0x90, 0x40, 0x7a, 0x00, 0x98, 0x34, 0x77, 0x02, 0x88, 0x32, 0x78, 0x1e,
  0x9b, 0x32, 0x72, 0x0c, 0x81, 0x28, 0x7a, 0x04, 0x89, 0x33, 0x7a, 0x06,
  0x8b, 0x30, 0x71, 0x08, 0x91, 0x29, 0x77, 0x02, 0x90, 0x41, 0x7a, 0x00,
  0x98, 0x35, 0x76, 0x0c, 0x89, 0x23, 0x7b, 0x08, 0x80, 0x40, 0x7a, 0x06,
  0x88, 0x34, 0x77, 0x06, 0x9b, 0x34, 0x71, 0x02, 0x8b, 0x32, 0x72, 0x02,
  0x81, 0x29, 0x77, 0x0a, 0x80, 0x41, 0x7a, 0x02, 0x88, 0x35, 0x76, 0x0e,
  0x91, 0x2b, 0x7d, 0x00, 0x99, 0x23, 0x79, 0x00, 0x33, 0x7a, 0x02, 0x90,
  0x43, 0x7b, 0x00, 0x98, 0x37, 0x7a, 0x20, 0x9b, 0x35, 0x70, 0x1a, 0x8b,
  0x34, 0x71, 0x0e, 0x89, 0x23, 0x79, 0x08, 0x8b, 0x35, 0x70, 0x04, 0x89,
  0x2a, 0x79, 0x0c, 0x9b, 0x37, 0x75, 0x16, 0x89, 0x33, 0x7a, 0x08, 0x81,
  0x2b, 0x7d, 0x00, 0x91, 0x23, 0x7d, 0x00, 0x88, 0x37, 0x7a, 0x00, 0x99,
  0x23, 0x7b, 0x02, 0x80, 0x43, 0x7b, 0x00, 0x90, 0x3b, 0x7b, 0x00, 0x98,
  0x2f, 0x79, 0x10, 0x89, 0x28, 0x7b, 0x2e, 0x99, 0x28, 0x7b, 0x00, 0x2a,
  0x79, 0x00, 0x33, 0x7a, 0x20, 0x8b, 0x37, 0x75, 0x02, 0x9b, 0x2f, 0x73,
  0x1e, 0x91, 0x24, 0x79, 0x02, 0x90, 0x3c, 0x7b, 0x00, 0x98, 0x30, 0x74,
  0x08, 0x80, 0x3b, 0x7b, 0x16, 0x88, 0x2f, 0x79, 0x04, 0x81, 0x23, 0x7d,
  0x10, 0x89, 0x33, 0x7a, 0x02, 0x23, 0x7b, 0x28, 0x81, 0x24, 0x79, 0x04,
  0x9b, 0x30, 0x6d, 0x0c, 0x88, 0x30, 0x74, 0x02, 0x80, 0x3c, 0x7b, 0x10,
  0x91, 0x25, 0x77, 0x00, 0x8b, 0x2f, 0x73, 0x00, 0x99, 0x23, 0x79, 0x00,
  0x33, 0x7a, 0x02, 0x90, 0x3d, 0x7a, 0x00, 0x98, 0x31, 0x75, 0x0a, 0x89,
  0x28, 0x7b, 0x1e, 0x23, 0x79, 0x0a, 0x80, 0x3d, 0x7a, 0x06, 0x81, 0x25,
  0x77, 0x06, 0x91, 0x26, 0x7a, 0x00, 0x99, 0x28, 0x7a, 0x02, 0x90, 0x3e,
  0x7b, 0x0c, 0x88, 0x31, 0x75, 0x00, 0x8b, 0x30, 0x6d, 0x14, 0x98, 0x32,
  0x79, 0x00, 0x9b, 0x31, 0x6e, 0x0a, 0x89, 0x28, 0x7a, 0x02, 0x2a, 0x79,
  0x02, 0x33, 0x7a, 0x02, 0x81, 0x26, 0x7a, 0x0a, 0x80, 0x3e, 0x7b, 0x04,
  0x91, 0x28, 0x7a, 0x00, 0x99, 0x28, 0x79, 0x02, 0x90, 0x40, 0x7b, 0x1a,
  0x89, 0x28, 0x79, 0x06, 0x98, 0x34, 0x76, 0x0c, 0x8b, 0x31, 0x6e, 0x08,
  0x80, 0x40, 0x7b, 0x00, 0x88, 0x32, 0x79, 0x0a, 0x91, 0x26, 0x7d, 0x00,
  0x99, 0x2a, 0x79, 0x00, 0x2b, 0x7a, 0x00, 0x33, 0x7b, 0x02, 0x90, 0x3e,
  0x7b, 0x00, 0x81, 0x28, 0x7a, 0x00, 0x98, 0x32, 0x72, 0x00, 0x9b, 0x32,
  0x74, 0x10, 0x88, 0x34, 0x76, 0x14, 0x89, 0x2b, 0x7a, 0x1a, 0x99, 0x28,
  0x79, 0x02, 0x9b, 0x34, 0x70, 0x10, 0x80, 0x3e, 0x7b, 0x04, 0x8b, 0x32,
  0x74, 0x02, 0x89, 0x28, 0x79, 0x0a, 0x9b, 0x32, 0x6b, 0x10, 0x8b, 0x34,
  0x70, 0x0e, 0x99, 0x2d, 0x7b, 0x2e, 0x89, 0x33, 0x7b, 0x04, 0x2a, 0x79,
  0x02, 0x81, 0x26, 0x7d, 0x02, 0x88, 0x32, 0x72, 0x0a, 0x91, 0x24, 0x7d,
  0x00, 0x99, 0x23, 0x7c, 0x00, 0x31, 0x7b, 0x02, 0x90, 0x3c, 0x7b, 0x00,
  0x43, 0x7b, 0x00, 0x48, 0x7b, 0x00, 0x98, 0x2b, 0x7b, 0x00, 0x30, 0x79,
  0x02, 0x89, 0x2d, 0x7b, 0x4e, 0x81, 0x24, 0x7d, 0x04, 0x8b, 0x32, 0x6b,
  0x02, 0x89, 0x23, 0x7c, 0x0a, 0x9b, 0x2b, 0x75, 0x00, 0x30, 0x73, 0x06,
  0xe4, 0x00, 0x3a, 0x08, 0x00, 0x30, 0x08, 0x00, 0x24, 0x04, 0x94, 0x46,
  0x7a, 0x04, 0xe4, 0x00, 0x18, 0x00, 0x91, 0x24, 0x77, 0x00, 0x99, 0x23,
  0x77, 0x08, 0xe4, 0x00, 0x19, 0x0a, 0x00, 0x23, 0x0a, 0x00, 0x37, 0x06,
  0x81, 0x24, 0x77, 0x02, 0xe4, 0x00, 0x40, 0x1c, 0x91, 0x24, 0x78, 0x00,
  0x99, 0x28, 0x7b, 0x00, 0x2a, 0x7a, 0x00, 0x2e, 0x7a, 0x0a, 0x89, 0x31,
  0x7b, 0x22, 0x84, 0x46, 0x7a, 0x22, 0x94, 0x46, 0x7a, 0x16, 0x81, 0x24,
  0x78, 0x06, 0x89, 0x2e, 0x7a, 0x02, 0x23, 0x77, 0x14, 0x91, 0x24, 0x68,
  0x18, 0x81, 0x24, 0x68, 0x0c, 0x84, 0x46, 0x7a, 0x1c, 0x91, 0x24, 0x72,
  0x00, 0x99, 0x23, 0x7a, 0x00, 0x2e, 0x7a, 0x16, 0x94, 0x46, 0x7b, 0x02,
  0xe4, 0x00, 0x30, 0x00, 0x89, 0x2a, 0x7a, 0x08, 0xe4, 0x00, 0x1c, 0x08,
  0x00, 0x12, 0x0c, 0x00, 0x1a, 0x0a, 0x00, 0x40, 0x08, 0x00, 0x40, 0x00,
  0x89, 0x23, 0x7a, 0x1a, 0x81, 0x24, 0x72, 0x20, 0x91, 0x24, 0x77, 0x00,
  0x99, 0x23, 0x78, 0x0c, 0x89, 0x28, 0x7b, 0x06, 0x94, 0x45, 0x77, 0x06,
  0x84, 0x46, 0x7b, 0x00, 0x81, 0x24, 0x77, 0x0c, 0x89, 0x2e, 0x7a, 0x1c,
  0x91, 0x24, 0x7a, 0x00, 0x99, 0x28, 0x7b, 0x00, 0x2a, 0x7a, 0x00, 0x2e,
  0x7a, 0x2e, 0x84, 0x45, 0x77, 0x22, 0x94, 0x45, 0x76, 0x16, 0x81, 0x24,
  0x7a, 0x02, 0x89, 0x2e, 0x7a, 0x14, 0x23, 0x78, 0x04, 0x91, 0x24, 0x6e,
  0x1c, 0x81, 0x24, 0x6e, 0x04, 0x84, 0x45, 0x76, 0x18, 0xe4, 0x00, 0x3b,
  0x04, 0x89, 0x2a, 0x7a, 0x04, 0xe4, 0x00, 0x2c, 0x00, 0x91, 0x24, 0x74,
  0x00, 0x99, 0x23, 0x76, 0x00, 0x2e, 0x7a, 0x08, 0xe4, 0x00, 0x1c, 0x02,
  0x94, 0x45, 0x7a, 0x08, 0xe4, 0x00, 0x1c, 0x0a, 0x00, 0x2a, 0x08, 0x00,
  0x40, 0x20, 0x89, 0x23, 0x76, 0x16, 0x81, 0x24, 0x74, 0x0c, 0x89, 0x2e,
  0x7a, 0x1a, 0x91, 0x24, 0x78, 0x00, 0x99, 0x23, 0x79, 0x06, 0x84, 0x45,
  0x7a, 0x04, 0x89, 0x28, 0x7b, 0x06, 0x94, 0x43, 0x7b, 0x12, 0x81, 0x24,
  0x78, 0x0e, 0x80, 0x48, 0x7b, 0x10, 0x91, 0x24, 0x79, 0x00, 0x99, 0x28,
  0x7b, 0x00, 0x2e, 0x7b, 0x1e, 0x80, 0x43, 0x7b, 0x08, 0x84, 0x43, 0x7b,
  0x20, 0x81, 0x24, 0x79, 0x06, 0x94, 0x43, 0x7a, 0x2e, 0x89, 0x23, 0x79,
  0x06, 0x91, 0x24, 0x74, 0x02, 0x80, 0x3c, 0x7b, 0x04, 0x89, 0x2e, 0x7b,
  0x0a, 0x84, 0x43, 0x7a, 0x1e, 0xe4, 0x00, 0x2e, 0x0a, 0x94, 0x43, 0x78,
  0x00, 0xe4, 0x00, 0x14, 0x04, 0x81, 0x24, 0x74, 0x04, 0xe4, 0x00, 0x00,
  0x00, 0x91, 0x1d, 0x7d, 0x00, 0x99, 0x23, 0x7b, 0x00, 0x2e, 0x7b, 0x02,
  0x90, 0x3c, 0x7b, 0x00, 0x41, 0x7b, 0x00, 0x45, 0x7b, 0x00, 0x48, 0x7b,
  0x00, 0x98, 0x29, 0x79, 0x08, 0xe4, 0x00, 0x01, 0x06, 0x88, 0x2b, 0x7b,
  0x02, 0xe4, 0x00, 0x14, 0x08, 0x00, 0x35, 0x08, 0x00, 0x40, 0x08, 0x00,
  0x40, 0x08, 0x89, 0x23, 0x7b, 0x30, 0x9b, 0x29, 0x73, 0x0e, 0x8b, 0x2b,
  0x75, 0x0c, 0x89, 0x28, 0x7b, 0x04, 0x99, 0x23, 0x7a, 0x08, 0x89, 0x2e,
  0x7b, 0x1e, 0x81, 0x1d, 0x7d, 0x0c, 0x84, 0x43, 0x78, 0x0a, 0x94, 0x41,
  0x7b, 0x04, 0x91, 0x1d, 0x7d, 0x00, 0x99, 0x28, 0x7b, 0x00, 0x2e, 0x7b,
  0x7e, 0x80, 0x48, 0x7b, 0x04, 0x89, 0x23, 0x7a, 0x0a, 0x2e, 0x7b, 0x08,
  0x80, 0x41, 0x7b, 0x0c, 0x45, 0x7b, 0x0c, 0x3c, 0x7b, 0x02, 0xe4, 0x00,
  0x2a, 0x06, 0x84, 0x41, 0x7b, 0x00, 0x81, 0x1d, 0x7d, 0x00, 0x88, 0x29,
  0x79, 0x02, 0xe4, 0x00, 0x12, 0x04, 0x94, 0x40, 0x7b, 0x04, 0xe4, 0x00,
  0x00, 0x02, 0x91, 0x24, 0x7b, 0x00, 0x88, 0x30, 0x79, 0x00, 0x99, 0x23,
  0x7b, 0x00, 0x2e, 0x7b, 0x02, 0x90, 0x3c, 0x7b, 0x00, 0x40, 0x7b, 0x00,
  0x43, 0x7b, 0x00, 0x48, 0x7b, 0x00, 0x98, 0x2b, 0x75, 0x00, 0x30, 0x7a,
  0x0a, 0x88, 0x30, 0x7a, 0x14, 0xe4, 0x00, 0x03, 0x08, 0x00, 0x27, 0x0a,
  0x18, 0x4c, 0x08, 0x00, 0x31, 0x08, 0x0a, 0x45, 0x00, 0x89, 0x23, 0x7b,
  0x08, 0xe4, 0x00, 0x40, 0x06, 0x81, 0x24, 0x7b, 0x04, 0x8b, 0x29, 0x73,
  0x0c, 0x30, 0x73, 0x02, 0x9b, 0x2b, 0x6e, 0x00, 0x30, 0x75, 0x0a, 0x8b,
  0x30, 0x75, 0x08, 0x89, 0x28, 0x7b, 0x0c, 0x91, 0x24, 0x6f, 0x00, 0x99,
  0x23, 0x79, 0x06, 0x84, 0x40, 0x7b, 0x08, 0x89, 0x2e, 0x7b, 0x02, 0x94,
  0x41, 0x7b, 0x14, 0x81, 0x24, 0x6f, 0x1c, 0x91, 0x24, 0x70, 0x00, 0x99,
  0x28, 0x7b, 0x00, 0x2e, 0x7a, 0x02, 0x84, 0x41, 0x7b, 0x10, 0x94, 0x43,
  0x7a, 0x02, 0x41, 0x71, 0x0e, 0x84, 0x41, 0x71, 0x1e, 0x81, 0x24, 0x70,
  0x38, 0x89, 0x23, 0x79, 0x08, 0x91, 0x24, 0x79, 0x18, 0x89, 0x2e, 0x7a,
  0x12, 0x81, 0x24, 0x79, 0x16, 0x91, 0x24, 0x73, 0x00, 0x99, 0x23, 0x7b,
  0x00, 0x2e, 0x7a, 0x1c, 0xb4, 0x01, 0x0b, 0x12, 0x01, 0x23, 0x10, 0x01,
  0x35, 0x00, 0x89, 0x23, 0x7b, 0x10, 0xb4, 0x01, 0x4b, 0x0e, 0x81, 0x24,
  0x73, 0x02, 0xb4, 0x01, 0x60, 0x10, 0x01, 0x6e, 0x12, 0x01, 0x7c, 0x00,
  0x91, 0x24, 0x72, 0x00, 0x99, 0x23, 0x7b, 0x16, 0xb4, 0x01, 0x7f, 0x02,
  0x89, 0x28, 0x7b, 0x02, 0x2e, 0x7a, 0x08, 0x81, 0x24, 0x72, 0x1e, 0x91,
  0x24, 0x77, 0x00, 0x99, 0x28, 0x7b, 0x00, 0x2e, 0x7a, 0x44, 0x89, 0x23,
  0x7b, 0x18, 0x81, 0x24, 0x77, 0x12, 0x80, 0x43, 0x7b, 0x10, 0x40, 0x7b,
  0x02, 0xb4, 0x01, 0x79, 0x00, 0x91, 0x24, 0x6e, 0x00, 0x99, 0x23, 0x7b,
  0x12, 0xb4, 0x01, 0x6c, 0x08, 0x80, 0x3c, 0x7b, 0x06, 0x89, 0x23, 0x7b,
  0x02, 0xb4, 0x01, 0x59, 0x02, 0x89, 0x2e, 0x7a, 0x02, 0x80, 0x48, 0x7b,
  0x04, 0x84, 0x43, 0x7a, 0x02, 0x88, 0x2b, 0x75, 0x06, 0xb4, 0x01, 0x33,
  0x0e, 0x91, 0x1f, 0x78, 0x00, 0x99, 0x23, 0x7b, 0x00, 0x2e, 0x7a, 0x02,
  0xb4, 0x01, 0x00, 0x00, 0x90, 0x37, 0x7a, 0x00, 0x43, 0x7b, 0x00, 0x98,
  0x2b, 0x76, 0x02, 0x89, 0x28, 0x7b, 0x02, 0x81, 0x24, 0x6e, 0x22, 0x89,
  0x23, 0x7b, 0x08, 0x81, 0x1f, 0x78, 0x10, 0x91, 0x22, 0x78, 0x00, 0x99,
  0x28, 0x7b, 0x02, 0x90, 0x3a, 0x7a, 0x00, 0x46, 0x7a, 0x00, 0x98, 0x2e,
  0x78, 0x08, 0x80, 0x43, 0x7b, 0x02, 0x8b, 0x2b, 0x6e, 0x04, 0x80, 0x37,
  0x7a, 0x04, 0x88, 0x2b, 0x76, 0x0c, 0x89, 0x28, 0x7b, 0x02, 0x9b, 0x2b,
  0x70, 0x0e, 0x81, 0x22, 0x78, 0x08, 0x80, 0x46, 0x7a, 0x02, 0x88, 0x2e,
  0x78, 0x06, 0x91, 0x24, 0x72, 0x00, 0x99, 0x28, 0x7a, 0x02, 0x90, 0x3c,
  0x7a, 0x00, 0x48, 0x7a, 0x00, 0x98, 0x30, 0x79, 0x08, 0x80, 0x3a, 0x7a,
  0x0c, 0x89, 0x2e, 0x7a, 0x0a, 0x81, 0x24, 0x72, 0x02, 0x9b, 0x2e, 0x72,
  0x02, 0x89, 0x28, 0x7a, 0x02, 0x80, 0x48, 0x7a, 0x06, 0x3c, 0x7a, 0x06,
  0x88, 0x30, 0x79, 0x02, 0x8b, 0x2b, 0x70, 0x0c, 0x91, 0x24, 0x7c, 0x00,
  0x99, 0x28, 0x7a, 0x00, 0x2e, 0x7a, 0x02, 0x90, 0x3c, 0x75, 0x00, 0x48,
  0x7b, 0x00, 0x98, 0x30, 0x79, 0x18, 0x8b, 0x2e, 0x72, 0x08, 0x9b, 0x30,
  0x73, 0x10, 0x89, 0x28, 0x7a, 0x0c, 0x81, 0x24, 0x7c, 0x02, 0x91, 0x22,
  0x7b, 0x00, 0x99, 0x23, 0x7b, 0x02, 0x90, 0x3a, 0x7b, 0x00, 0x46, 0x7b,
  0x00, 0x98, 0x2e, 0x77, 0x06, 0x80, 0x48, 0x7b, 0x02, 0x88, 0x30, 0x79,
  0x08, 0x80, 0x3c, 0x75, 0x00, 0x8b, 0x30, 0x73, 0x10, 0x9b, 0x30, 0x73,
  0x06, 0x89, 0x2e, 0x7a, 0x02, 0x81, 0x22, 0x7b, 0x06, 0x80, 0x46, 0x7b,
  0x06, 0x88, 0x2e, 0x77, 0x0a, 0x91, 0x27, 0x7d, 0x00, 0x99, 0x28, 0x7c,
  0x00, 0x31, 0x7c, 0x02, 0x90, 0x3f, 0x7b, 0x00, 0x43, 0x7b, 0x00, 0x46,
  0x7b, 0x00, 0x4b, 0x7a, 0x00, 0x98, 0x33, 0x79, 0x04, 0x80, 0x3a, 0x7b,
  0x1a, 0x89, 0x23, 0x7b, 0x02, 0x9b, 0x2e, 0x71, 0x08, 0x8b, 0x30, 0x73,
  0x16, 0x89, 0x28, 0x7c, 0x16, 0x8b, 0x2e, 0x71, 0x0c, 0x9b, 0x33, 0x73,
  0x32, 0xb4, 0x01, 0x02, 0x28, 0x01, 0x00, 0x81, 0x04, 0x91, 0x22, 0x7b,
  0x00, 0x99, 0x28, 0x7b, 0x0a, 0x81, 0x27, 0x7d, 0x1e, 0x89, 0x28, 0x7b,
  0x04, 0x81, 0x22, 0x7b, 0x0e, 0x80, 0x43, 0x7b, 0x06, 0x91, 0x23, 0x79,
  0x00, 0x99, 0x28, 0x7b, 0x1a, 0x80, 0x46, 0x7b, 0x00, 0x3f, 0x7b, 0x04,
  0x4b, 0x7a, 0x04, 0x89, 0x31, 0x7c, 0x08, 0x28, 0x7b, 0x02, 0x81, 0x23,
  0x79, 0x14, 0x91, 0x24, 0x78, 0x00, 0x99, 0x23, 0x7c, 0x00, 0x31, 0x7a,
  0x02, 0x90, 0x3c, 0x7b, 0x00, 0x43, 0x7b, 0x00, 0x48, 0x7b, 0x00, 0x98,
  0x2b, 0x7c, 0x00, 0x30, 0x7a, 0x0a, 0x88, 0x33, 0x79, 0x2e, 0xe4, 0x00,
  0x3b, 0x08, 0x00, 0x36, 0x0a, 0x00, 0x2d, 0x08, 0x00, 0x29, 0x0a, 0x81,
  0x24, 0x78, 0x04, 0xe4, 0x00, 0x2d, 0x00, 0x9b, 0x2b, 0x77, 0x00, 0x30,
  0x75, 0x06, 0x89, 0x23, 0x7c, 0x02, 0xe4, 0x00, 0x40, 0x02, 0x8b, 0x33,
  0x73, 0x04, 0x94, 0x46, 0x7b, 0x10, 0x91, 0x24, 0x74, 0x00, 0x99, 0x23,
  0x7a, 0x16, 0x81, 0x24, 0x74, 0x2a, 0x91, 0x24, 0x77, 0x00, 0x99, 0x28,
  0x7c, 0x00, 0x2e, 0x7a, 0x08, 0x84, 0x46, 0x7b, 0x00, 0x89, 0x31, 0x7a,
  0x30, 0x94, 0x46, 0x78, 0x24, 0x81, 0x24, 0x77, 0x04, 0x89, 0x23, 0x7a,
  0x20, 0x91, 0x24, 0x6f, 0x00, 0x99, 0x23, 0x79, 0x0a, 0x84, 0x46, 0x78,
  0x12, 0x89, 0x2e, 0x7a, 0x02, 0x23, 0x79, 0x0a, 0x81, 0x24, 0x6f, 0x04,
  0xe4, 0x00, 0x3d, 0x08, 0x00, 0x34, 0x08, 0x00, 0x29, 0x04, 0x91, 0x24,
  0x71, 0x00, 0x99, 0x23, 0x78, 0x00, 0x2e, 0x7a, 0x04, 0xe4, 0x00, 0x23,
  0x02, 0x94, 0x46, 0x7a, 0x06, 0xe4, 0x00, 0x23, 0x08, 0x00, 0x3b, 0x08,
  0x00, 0x40, 0x3e, 0x81, 0x24, 0x71, 0x0a, 0x89, 0x23, 0x78, 0x1c, 0x91,
  0x24, 0x73, 0x00, 0x99, 0x23, 0x79, 0x0c, 0x94, 0x45, 0x77, 0x06, 0x84,
  0x46, 0x7a, 0x08, 0x89, 0x28, 0x7c, 0x08, 0x2e, 0x7a, 0x02, 0x81, 0x24,
  0x73, 0x1c, 0x91, 0x24, 0x72, 0x00, 0x99, 0x28, 0x7b, 0x00, 0x2e, 0x7a,
  0x2c, 0x84, 0x45, 0x77, 0x06, 0x81, 0x24, 0x72, 0x0e, 0x91, 0x22, 0x77,
  0x0a, 0x89, 0x23, 0x79, 0x18, 0x94, 0x45, 0x7b, 0x02, 0x81, 0x22, 0x77,
  0x10, 0x94, 0x43, 0x51, 0x0c, 0x91, 0x23, 0x70, 0x00, 0x99, 0x23, 0x74,
  0x08, 0x84, 0x43, 0x51, 0x14, 0x81, 0x23, 0x70, 0x0a, 0x89, 0x23, 0x74,
  0x00, 0x2e, 0x7a, 0x06, 0x84, 0x45, 0x7b, 0x12, 0xe4, 0x00, 0x3d, 0x02,
  0x91, 0x24, 0x7b, 0x00, 0x99, 0x23, 0x7b, 0x00, 0x2e, 0x7a, 0x06, 0xe4,
  0x00, 0x35, 0x08, 0x00, 0x2c, 0x08, 0x00, 0x23, 0x02, 0x94, 0x45, 0x78,
  0x06, 0xe4, 0x00, 0x22, 0x08, 0x00, 0x3b, 0x08, 0x00, 0x40, 0x08, 0x00,
  0x40, 0x26, 0x81, 0x24, 0x7b, 0x08, 0x89, 0x23, 0x7b, 0x1c, 0x91, 0x24,
  0x70, 0x00, 0x99, 0x23, 0x79, 0x08, 0x89, 0x28, 0x7b, 0x0e, 0x94, 0x43,
  0x7a, 0x0a, 0x84, 0x45, 0x78, 0x04, 0x89, 0x2e, 0x7a, 0x02, 0x81, 0x24,
  0x70, 0x1a, 0x91, 0x24, 0x74, 0x00, 0x99, 0x28, 0x7b, 0x00, 0x2e, 0x7a,
  0x28, 0x84, 0x43, 0x7a, 0x20, 0x94, 0x43, 0x78, 0x0a, 0x89, 0x23, 0x79,
  0x0a, 0x81, 0x24, 0x74, 0x24, 0x91, 0x24, 0x7a, 0x00, 0x99, 0x23, 0x79,
  0x0a, 0x80, 0x48, 0x7b, 0x08, 0x43, 0x7b, 0x0c, 0x3c, 0x7b, 0x04, 0x88,
  0x2b, 0x7c, 0x00, 0x89, 0x2e, 0x7a, 0x02, 0x23, 0x79, 0x04, 0x84, 0x43,
  0x78, 0x10, 0xe4, 0x00, 0x3a, 0x00, 0x81, 0x24, 0x7a, 0x08, 0xe4, 0x00,
  0x2c, 0x00, 0x91, 0x1d, 0x7b, 0x00, 0x99, 0x23, 0x79, 0x00, 0x2e, 0x7a,
  0x02, 0x90, 0x35, 0x7a, 0x00, 0x3c, 0x7b, 0x00, 0x41, 0x7b, 0x00, 0x45,
  0x7b, 0x00, 0x48, 0x7b, 0x00, 0x98, 0x29, 0x79, 0x08, 0xe4, 0x00, 0x20,
  0x06, 0x94, 0x43, 0x7a, 0x02, 0xe4, 0x00, 0x19, 0x0c, 0x00, 0x1a, 0x08,
  0x00, 0x33, 0x08, 0x0a, 0x45, 0x08, 0x00, 0x40, 0x0c, 0x8b, 0x2b, 0x77,
  0x0c, 0x89, 0x23, 0x79, 0x14, 0x81, 0x1d, 0x7b, 0x00, 0x9b, 0x29, 0x73,
  0x1e, 0x91, 0x1d, 0x77, 0x00, 0x99, 0x23, 0x7a, 0x0c, 0x89, 0x28, 0x7b,
  0x14, 0x2e, 0x7a, 0x10, 0x81, 0x1d, 0x77, 0x0e, 0x89, 0x23, 0x7a, 0x02,
  0x91, 0x1d, 0x7b, 0x00, 0x99, 0x28, 0x7b, 0x00, 0x2e, 0x7a, 0x02, 0x84,
  0x43, 0x7a, 0x0a, 0x94, 0x41, 0x7b, 0x24, 0x89, 0x28, 0x7b, 0x10, 0x99,
  0x28, 0x7a, 0x10, 0x80, 0x35, 0x7a, 0x08, 0x81, 0x1d, 0x7b, 0x16, 0x89,
  0x28, 0x7a, 0x02, 0x80, 0x41, 0x7b, 0x10, 0x91, 0x1d, 0x70, 0x00, 0x99,
  0x28, 0x79, 0x0a, 0x80, 0x48, 0x7b, 0x04, 0x45, 0x7b, 0x04, 0x3c, 0x7b,
  0x18, 0x88, 0x29, 0x79, 0x04, 0xe4, 0x00, 0x3b, 0x00, 0x81, 0x1d, 0x70,
  0x02, 0x84, 0x41, 0x7b, 0x00, 0x89, 0x2e, 0x7a, 0x06, 0xe4, 0x00, 0x28,
  0x08, 0x00, 0x12, 0x02, 0x94, 0x46, 0x7b, 0x00, 0x91, 0x22, 0x7a, 0x00,
  0x99, 0x23, 0x7b, 0x00, 0x31, 0x7a, 0x02, 0x90, 0x3a, 0x7b, 0x00, 0x3e,
  0x7b, 0x00, 0x41, 0x7b, 0x00, 0x46, 0x7b, 0x00, 0x4a, 0x7b, 0x00, 0x98,
  0x2e, 0x79, 0x00, 0x35, 0x79, 0x06, 0xe4, 0x00, 0x00, 0x0e, 0x00, 0x22,
  0x08, 0x0a, 0x45, 0x06, 0x88, 0x30, 0x7a, 0x04, 0xe4, 0x00, 0x40, 0x22,
  0x81, 0x22, 0x7a, 0x00, 0x8b, 0x29, 0x73, 0x18, 0x9b, 0x2e, 0x74, 0x00,
  0x35, 0x74, 0x08, 0x89, 0x23, 0x7b, 0x16, 0x91, 0x22, 0x76, 0x00, 0x99,
  0x23, 0x79, 0x04, 0x8b, 0x30, 0x75, 0x0c, 0x89, 0x28, 0x79, 0x14, 0x84,
  0x46, 0x7b, 0x04, 0x94, 0x43, 0x7a, 0x04, 0x89, 0x31, 0x7a, 0x06, 0x81,
  0x22, 0x76, 0x0e, 0x91, 0x22, 0x79, 0x00, 0x99, 0x28, 0x7c, 0x00, 0x2e,
  0x7b, 0x18, 0x84, 0x43, 0x7a, 0x04, 0x94, 0x41, 0x7b, 0x2e, 0x89, 0x23,
  0x79, 0x08, 0x81, 0x22, 0x79, 0x2e, 0x91, 0x22, 0x79, 0x00, 0x99, 0x23,
  0x78, 0x22, 0x89, 0x23, 0x78, 0x02, 0x2e, 0x7b, 0x0e, 0x81, 0x22, 0x79,
  0x0e, 0x91, 0x22, 0x79, 0x00, 0x99, 0x23, 0x79, 0x00, 0x2e, 0x7a, 0x18,
  0xe4, 0x00, 0x3a, 0x08, 0x00, 0x32, 0x08, 0x00, 0x2c, 0x08, 0x00, 0x2b,
  0x08, 0x00, 0x2d, 0x06, 0x81, 0x22, 0x79, 0x02, 0xe4, 0x00, 0x31, 0x08,
  0x00, 0x40, 0x06, 0x89, 0x23, 0x79, 0x32, 0x91, 0x22, 0x79, 0x00, 0x99,
  0x23, 0x7b, 0x12, 0x89, 0x28, 0x7c, 0x0e, 0x2e, 0x7a, 0x0a, 0x81, 0x22,
  0x79, 0x16, 0x91, 0x22, 0x7c, 0x00, 0x99, 0x28, 0x7b, 0x00, 0x2e, 0x7b,
  0x26, 0x89, 0x23, 0x7b, 0x08, 0x81, 0x22, 0x7c, 0x12, 0x91, 0x22, 0x7a,
  0x00, 0x99, 0x2b, 0x79, 0x06, 0x89, 0x28, 0x7b, 0x26, 0x81, 0x22, 0x7a,
  0x02, 0x80, 0x41, 0x7b, 0x12, 0x3e, 0x7b, 0x00, 0x91, 0x21, 0x78, 0x00,
  0x99, 0x2d, 0x79, 0x06, 0x80, 0x4a, 0x7b, 0x04, 0x89, 0x2b, 0x79, 0x1a,
  0x80, 0x46, 0x7b, 0x02, 0x89, 0x2e, 0x7b, 0x12, 0x88, 0x2e, 0x79, 0x06,
  0x81, 0x21, 0x78, 0x00, 0x88, 0x35, 0x79, 0x02, 0x84, 0x41, 0x7b, 0x00,
  0xe4, 0x00, 0x21, 0x00, 0x91, 0x1f, 0x7b, 0x00, 0x99, 0x23, 0x7c, 0x00,
  0x31, 0x7a, 0x02, 0x90, 0x37, 0x7a, 0x00, 0x3e, 0x7b, 0x00, 0x43, 0x7b,
  0x00, 0x46, 0x7b, 0x00, 0x4a, 0x7b, 0x00, 0x98, 0x2b, 0x78, 0x00, 0x32,
  0x7a, 0x06, 0xe4, 0x00, 0x12, 0x04, 0x80, 0x3a, 0x7b, 0x04, 0xe4, 0x00,
  0x04, 0x04, 0x94, 0x46, 0x7a, 0x06, 0x45, 0x73, 0x02, 0xe4, 0x00, 0x06,
  0x0a, 0x00, 0x1f, 0x0a, 0x0e, 0x47, 0x08, 0x84, 0x45, 0x73, 0x02, 0xe4,
  0x00, 0x40, 0x08, 0x00, 0x40, 0x0a, 0x89, 0x2d, 0x79, 0x0c, 0x8b, 0x2e,
  0x74, 0x04, 0x89, 0x23, 0x7c, 0x02, 0x8b, 0x35, 0x74, 0x04, 0x9b, 0x2b,
  0x72, 0x00, 0x32, 0x75, 0x04, 0x81, 0x1f, 0x7b, 0x1a, 0x91, 0x1f, 0x79,
  0x00, 0x99, 0x23, 0x7b, 0x20, 0x81, 0x1f, 0x79, 0x18, 0x89, 0x31, 0x7a,
  0x08, 0x91, 0x1f, 0x77, 0x00, 0x99, 0x28, 0x7c, 0x00, 0x2e, 0x7b, 0x1e,
  0x89, 0x23, 0x7b, 0x3a, 0x81, 0x1f, 0x77, 0x28, 0x91, 0x1f, 0x75, 0x00,
  0x99, 0x23, 0x79, 0x24, 0x89, 0x2e, 0x7b, 0x02, 0x23, 0x79, 0x04, 0x81,
  0x1f, 0x75, 0x16, 0x91, 0x1f, 0x77, 0x00, 0x99, 0x23, 0x79, 0x00, 0x2e,
  0x7a, 0x54, 0x81, 0x1f, 0x77, 0x08, 0x89, 0x23, 0x79, 0x24, 0x91, 0x1f,
  0x74, 0x00, 0x99, 0x23, 0x7b, 0x06, 0x89, 0x2e, 0x7a, 0x1c, 0x28, 0x7c,
  0x08, 0x81, 0x1f, 0x74, 0x16, 0x91, 0x1f, 0x73, 0x00, 0x99, 0x28, 0x7c,
  0x00, 0x2e, 0x7a, 0x18, 0x89, 0x23, 0x7b, 0x1a, 0x81, 0x1f, 0x73, 0x0e,
  0x91, 0x22, 0x73, 0x0a, 0x80, 0x4a, 0x7b, 0x28, 0x81, 0x22, 0x73, 0x0c,
  0x80, 0x43, 0x7b, 0x02, 0x91, 0x23, 0x70, 0x00, 0x99, 0x23, 0x79, 0x04,
  0x80, 0x46, 0x7b, 0x0c, 0x37, 0x7a, 0x06, 0x3e, 0x7b, 0x08, 0x89, 0x2e,
  0x7a, 0x06, 0x88, 0x2b, 0x78, 0x04, 0x89, 0x23, 0x79, 0x0c, 0x81, 0x23,
  0x70, 0x0c, 0x91, 0x24, 0x77, 0x00, 0x99, 0x23, 0x7a, 0x00, 0x31, 0x7b,
  0x02, 0x90, 0x3c, 0x7b, 0x00, 0x40, 0x7b, 0x00, 0x43, 0x7b, 0x00, 0x48,
  0x7b, 0x00, 0x4c, 0x7b, 0x00, 0x98, 0x30, 0x78, 0x04, 0x94, 0x45, 0x74,
  0x10, 0x88, 0x32, 0x7a, 0x04, 0x84, 0x46, 0x7a, 0x2a, 0x8b, 0x2b, 0x72,
  0x1e, 0x9b, 0x30, 0x72, 0x00, 0x89, 0x23, 0x7a, 0x04, 0x81, 0x24, 0x77,
  0x10, 0x8b, 0x32, 0x75, 0x0a, 0x91, 0x24, 0x78, 0x00, 0x99, 0x23, 0x79,
  0x02, 0x89, 0x28, 0x7c, 0x1a, 0x81, 0x24, 0x78, 0x16, 0x89, 0x31, 0x7b,
  0x06, 0x84, 0x45, 0x74, 0x00, 0x94, 0x43, 0x7b, 0x08, 0x91, 0x24, 0x71,
  0x00, 0x99, 0x28, 0x7b, 0x00, 0x2e, 0x7a, 0x1c, 0x89, 0x23, 0x79, 0x3e,
  0x81, 0x24, 0x71, 0x26, 0x91, 0x24, 0x72, 0x00, 0x99, 0x23, 0x79, 0x04,
  0x89, 0x2e, 0x7a, 0x20, 0x81, 0x24, 0x72, 0x04, 0x89, 0x23, 0x79, 0x18,
  0x91, 0x24, 0x76, 0x00, 0x99, 0x23, 0x79, 0x00, 0x2e, 0x7a, 0x54, 0x81,
  0x24, 0x76, 0x00, 0x89, 0x23, 0x79, 0x1e, 0xe4, 0x00, 0x40, 0x08, 0x26,
  0x53, 0x06, 0x91, 0x24, 0x68, 0x00, 0x99, 0x23, 0x79, 0x02, 0xe4, 0x3c,
  0x5e, 0x06, 0x89, 0x2e, 0x7a, 0x02, 0xe4, 0x56, 0x6b, 0x0a, 0x72, 0x79,
  0x08, 0x7e, 0x7f, 0x00, 0x81, 0x24, 0x68, 0x00, 0x89, 0x28, 0x7b, 0x24,
  0x91, 0x24, 0x70, 0x00, 0x99, 0x28, 0x7c, 0x00, 0x2e, 0x7a, 0x08, 0xe4,
  0x72, 0x79, 0x08, 0x48, 0x64, 0x08, 0x00, 0x40, 0x32, 0x89, 0x23, 0x79,
  0x1c, 0x80, 0x40, 0x7b, 0x02, 0x81, 0x24, 0x70, 0x18, 0x91, 0x24, 0x79,
  0x00, 0x99, 0x23, 0x7a, 0x02, 0x84, 0x43, 0x7b, 0x02, 0x80, 0x43, 0x7b,
  0x18, 0x89, 0x2e, 0x7a, 0x06, 0x80, 0x4c, 0x7b, 0x04, 0x89, 0x23, 0x7a,
  0x02, 0x80, 0x48, 0x7b, 0x18, 0x81, 0x24, 0x79, 0x00, 0x91, 0x1f, 0x7b,
  0x00, 0x99, 0x23, 0x79, 0x00, 0x2e, 0x7a, 0x02, 0x80, 0x3c, 0x7b, 0x00,
  0x90, 0x37, 0x7b, 0x00, 0x3e, 0x7b, 0x00, 0x41, 0x7b, 0x00, 0x46, 0x7b,
  0x00, 0x4a, 0x7b, 0x00, 0x98, 0x2b, 0x7a, 0x00, 0x2e, 0x78, 0x16, 0x88,
  0x30, 0x78, 0x34, 0x81, 0x1f, 0x7b, 0x14, 0x89, 0x23, 0x79, 0x02, 0x9b,
  0x2b, 0x75, 0x00, 0x2e, 0x72, 0x06, 0xe4, 0x00, 0x3d, 0x0a, 0x00, 0x27,
  0x06, 0x8b, 0x30, 0x72, 0x02, 0xe4, 0x00, 0x14, 0x06, 0x94, 0x46, 0x7a,
  0x00, 0x91, 0x1f, 0x5c, 0x00, 0x99, 0x23, 0x79, 0x02, 0xe4, 0x00, 0x00,
  0x00, 0x89, 0x2e, 0x7a, 0x0c, 0xe4, 0x00, 0x04, 0x02, 0x89, 0x28, 0x7c,
  0x06, 0xe4, 0x00, 0x31, 0x08, 0x22, 0x51, 0x04, 0x81, 0x1f, 0x5c, 0x04,
  0xe4, 0x00, 0x31, 0x08, 0x04, 0x42, 0x08, 0x00, 0x40, 0x0a, 0x91, 0x1f,
  0x7a, 0x00, 0x99, 0x28, 0x7b, 0x00, 0x2e, 0x7a, 0x28, 0x84, 0x46, 0x7a,
  0x20, 0x94, 0x46, 0x7b, 0x00, 0x89, 0x23, 0x79, 0x06, 0x81, 0x1f, 0x7a,
  0x32, 0x91, 0x1f, 0x73, 0x00, 0x99, 0x23, 0x78, 0x0c, 0x89, 0x2e, 0x7a,
  0x1c, 0x81, 0x1f, 0x73, 0x00, 0x89, 0x23, 0x78, 0x0a, 0x84, 0x46, 0x7b,
  0x08, 0xe4, 0x00, 0x3d, 0x06, 0x91, 0x1f, 0x76, 0x00, 0x99, 0x23, 0x79,
  0x00, 0x2e, 0x7a, 0x02, 0xe4, 0x00, 0x30, 0x08, 0x00, 0x25, 0x08, 0x94,
  0x46, 0x7b, 0x00, 0xe4, 0x00, 0x1d, 0x12, 0x00, 0x37, 0x08, 0x00, 0x40,
  0x08, 0x00, 0x40, 0x1a, 0x81, 0x1f, 0x76, 0x04, 0x89, 0x23, 0x79, 0x16,
  0x84, 0x46, 0x7b, 0x18, 0x91, 0x1f, 0x72, 0x00, 0x99, 0x23, 0x79, 0x0a,
  0x89, 0x2e, 0x7a, 0x02, 0x94, 0x46, 0x77, 0x08, 0x89, 0x28, 0x7b, 0x10,
  0x81, 0x1f, 0x72, 0x1c, 0x91, 0x1f, 0x78, 0x00, 0x99, 0x28, 0x7c, 0x00,
  0x2e, 0x7a, 0x28, 0x84, 0x46, 0x77, 0x0c, 0x81, 0x1f, 0x78, 0x0c, 0x91,
  0x22, 0x77, 0x0c, 0x94, 0x46, 0x7a, 0x02, 0x89, 0x23, 0x79, 0x18, 0x80,
  0x41, 0x7b, 0x0a, 0x81, 0x22, 0x77, 0x10, 0x91, 0x23, 0x6a, 0x00, 0x99,
  0x23, 0x79, 0x14, 0x89, 0x2e, 0x7a, 0x06, 0x88, 0x2b, 0x7a, 0x02, 0x80,
  0x37, 0x7b, 0x02, 0x4a, 0x7b, 0x08, 0x46, 0x7b, 0x02, 0x89, 0x23, 0x79,
  0x06, 0x80, 0x3e, 0x7b, 0x02, 0x81, 0x23, 0x6a, 0x02, 0x88, 0x2e, 0x78,
  0x0e, 0x91, 0x24, 0x78, 0x00, 0x99, 0x23, 0x7b, 0x00, 0x2e, 0x7a, 0x02,
  0x90, 0x3c, 0x7b, 0x00, 0x40, 0x7b, 0x00, 0x43, 0x7b, 0x00, 0x48, 0x7b,
  0x00, 0x4c, 0x7b, 0x00, 0x98, 0x2b, 0x78, 0x00, 0x30, 0x76, 0x0c, 0x94,
  0x45, 0x78, 0x04, 0x84, 0x46, 0x7a, 0x28, 0x8b, 0x2b, 0x75, 0x18, 0x2e,
  0x72, 0x04, 0x81, 0x24, 0x78, 0x00, 0x89, 0x23, 0x7b, 0x0c, 0x9b, 0x2b,
  0x72, 0x00, 0x30, 0x70, 0x1e, 0x91, 0x24, 0x70, 0x00, 0x99, 0x23, 0x79,
  0x0a, 0x89, 0x2e, 0x7a, 0x04, 0x28, 0x7c, 0x14, 0x81, 0x24, 0x70, 0x18,
  0xe4, 0x00, 0x3d, 0x06, 0x91, 0x24, 0x76, 0x00, 0x99, 0x28, 0x7b, 0x00,
  0x2e, 0x7a, 0x02, 0xe4, 0x00, 0x33, 0x08, 0x84, 0x45, 0x78, 0x00, 0xe4,
  0x00, 0x2e, 0x02, 0x94, 0x43, 0x7b, 0x06, 0xe4, 0x00, 0x2f, 0x08, 0x00,
  0x40, 0x2a, 0x89, 0x23, 0x79, 0x0e, 0x81, 0x24, 0x76, 0x2e, 0x91, 0x24,
  0x73, 0x00, 0x99, 0x23, 0x7b, 0x0e, 0x89, 0x2e, 0x7a, 0x14, 0x81, 0x24,
  0x73, 0x06, 0x89, 0x23, 0x7b, 0x18, 0x91, 0x24, 0x74, 0x00, 0x99, 0x23,
  0x7a, 0x00, 0x2e, 0x79, 0x4e, 0x89, 0x23, 0x7a, 0x02, 0x81, 0x24, 0x74,
  0x2e, 0xe4, 0x22, 0x51, 0x02, 0x91, 0x24, 0x72, 0x00, 0x99, 0x23, 0x7b,
  0x04, 0x89, 0x2e, 0x79, 0x02, 0xe4, 0x38, 0x5c, 0x08, 0x48, 0x64, 0x08,
  0x48, 0x64, 0x00, 0x89, 0x28, 0x7b, 0x08, 0xe4, 0x30, 0x58, 0x02, 0x84,
  0x43, 0x7b, 0x06, 0xe4, 0x00, 0x40, 0x08, 0x00, 0x40, 0x02, 0x81, 0x24,
  0x72, 0x10, 0x91, 0x24, 0x76, 0x00, 0x99, 0x28, 0x7b, 0x00, 0x2e, 0x79,
  0x1e, 0x89, 0x23, 0x7b, 0x24, 0x81, 0x24, 0x76, 0x3e, 0x91, 0x24, 0x71,
  0x00, 0x99, 0x23, 0x7b, 0x04, 0x80, 0x43, 0x7b, 0x12, 0x4c, 0x7b, 0x04,
  0x40, 0x7b, 0x06, 0x48, 0x7b, 0x08, 0x89, 0x23, 0x7b, 0x02, 0x2e, 0x79,
  0x04, 0x88, 0x2b, 0x78, 0x0a, 0x94, 0x41, 0x7b, 0x00, 0x80, 0x3c, 0x7b,
  0x00, 0x81, 0x24, 0x71, 0x08, 0x91, 0x1f, 0x7d, 0x00, 0x99, 0x23, 0x7c,
  0x00, 0x31, 0x7b, 0x02, 0x90, 0x37, 0x79, 0x00, 0x3e, 0x7b, 0x00, 0x41,
  0x7b, 0x00, 0x46, 0x7b, 0x00, 0x4a, 0x7b, 0x00, 0x98, 0x2b, 0x76, 0x00,
  0x2e, 0x79, 0x06, 0x88, 0x30, 0x76, 0x46, 0x8b, 0x2b, 0x72, 0x14, 0x9b,
  0x2b, 0x70, 0x00, 0x2e, 0x73, 0x06, 0x8b, 0x30, 0x70, 0x02, 0x84, 0x41,
  0x7b, 0x08, 0x89, 0x23, 0x7c, 0x0e, 0x94, 0x41, 0x78, 0x00, 0x99, 0x23,
  0x7b, 0x1e, 0x89, 0x28, 0x7b, 0x22, 0x99, 0x28, 0x7b, 0x00, 0x2e, 0x7a,
  0x0c, 0x84, 0x41, 0x78, 0x08, 0x89, 0x23, 0x7b, 0x30, 0x94, 0x41, 0x7a,
  0x10, 0x80, 0x41, 0x7b, 0x18, 0x84, 0x41, 0x7a, 0x14, 0x99, 0x23, 0x7c,
  0x08, 0x94, 0x41, 0x7a, 0x06, 0x89, 0x2e, 0x7a, 0x06, 0x31, 0x7b, 0x08,
  0x94, 0x40, 0x51, 0x04, 0x84, 0x40, 0x51, 0x02, 0x80, 0x46, 0x7b, 0x08,
  0x4a, 0x7b, 0x02, 0x88, 0x2b, 0x76, 0x04, 0x84, 0x41, 0x7a, 0x06, 0x80,
  0x37, 0x79, 0x06, 0x3e, 0x7b, 0x04, 0x81, 0x1f, 0x7d, 0x00, 0x91, 0x24,
  0x7b, 0x00, 0x99, 0x31, 0x7b, 0x02, 0x90, 0x3c, 0x7b, 0x00, 0x40, 0x7b,
  0x00, 0x43, 0x7b, 0x00, 0x48, 0x7b, 0x00, 0x4c, 0x7a, 0x00, 0x88, 0x2e,
  0x79, 0x00, 0x98, 0x2b, 0x7a, 0x00, 0x30, 0x76, 0x08, 0x94, 0x43, 0x7a,
  0x08, 0xe4, 0x00, 0x36, 0x08, 0x00, 0x1a, 0x0a, 0x00, 0x00, 0x0a, 0x00,
  0x0f, 0x08, 0x54, 0x6a, 0x08, 0x00, 0x3a, 0x08, 0x00, 0x40, 0x06, 0x8b,
  0x2b, 0x70, 0x02, 0xe4, 0x10, 0x48, 0x08, 0x00, 0x38, 0x08, 0x00, 0x40,
  0x04, 0x8b, 0x2e, 0x73, 0x00, 0x9b, 0x2b, 0x75, 0x00, 0x30, 0x70, 0x04,
  0xe4, 0x00, 0x40, 0x18, 0x89, 0x23, 0x7c, 0x02, 0x99, 0x23, 0x7b, 0x22,
  0x89, 0x28, 0x7b, 0x1e, 0x99, 0x28, 0x7b, 0x00, 0x2e, 0x7a, 0x5c, 0x89,
  0x23, 0x7b, 0x18, 0x2e, 0x7a, 0x06, 0x31, 0x7b, 0x06, 0x99, 0x23, 0x79,
  0x06, 0x80, 0x43, 0x7b, 0x14, 0x4c, 0x7a, 0x06, 0x88, 0x2b, 0x7a, 0x08,
  0x80, 0x40, 0x7b, 0x00, 0x89, 0x23, 0x79, 0x0a, 0x80, 0x48, 0x7b, 0x0e,
  0x81, 0x24, 0x7b, 0x00, 0x91, 0x1f, 0x7d, 0x00, 0x99, 0x23, 0x7a, 0x00,
  0x31, 0x7b, 0x02, 0x80, 0x3c, 0x7b, 0x00, 0x90, 0x37, 0x7b, 0x00, 0x3e,
  0x7b, 0x00, 0x41, 0x7b, 0x00, 0x46, 0x7b, 0x00, 0x4a, 0x7b, 0x00, 0x98,
  0x2b, 0x77, 0x00, 0x2e, 0x79, 0x0a, 0x88, 0x30, 0x76, 0x02, 0x84, 0x43,
  0x7a, 0x02, 0x94, 0x41, 0x76, 0x30, 0x8b, 0x2b, 0x75, 0x22, 0x9b, 0x2b,
  0x71, 0x00, 0x2e, 0x73, 0x0a, 0x8b, 0x30, 0x70, 0x04, 0x84, 0x41, 0x76,
  0x04, 0x89, 0x23, 0x7a, 0x0c, 0x99, 0x23, 0x7c, 0x0c, 0x94, 0x41, 0x77,
  0x20, 0x89, 0x28, 0x7b, 0x14, 0x23, 0x7c, 0x00, 0x99, 0x28, 0x7c, 0x00,
  0x2e, 0x7a, 0x02, 0x84, 0x41, 0x77, 0x26, 0x94, 0x41, 0x7a, 0x2c, 0x84,
  0x41, 0x7a, 0x0c, 0x89, 0x28, 0x7c, 0x0e, 0x94, 0x41, 0x7a, 0x00, 0x80,
  0x41, 0x7b, 0x06, 0x89, 0x2e, 0x7a, 0x10, 0x31, 0x7b, 0x1a, 0x80, 0x4a,
  0x7b, 0x06, 0x46, 0x7b, 0x08, 0x3e, 0x7b, 0x02, 0x37, 0x7b, 0x0e, 0x84,
  0x41, 0x7a, 0x04, 0x81, 0x1f, 0x7d, 0x00, 0x91, 0x24, 0x79, 0x00, 0x99,
  0x23, 0x7b, 0x00, 0x31, 0x7b, 0x02, 0x90, 0x3c, 0x7b, 0x00, 0x40, 0x7b,
  0x00, 0x43, 0x7b, 0x00, 0x48, 0x7b, 0x00, 0x4c, 0x79, 0x00, 0x98, 0x30,
  0x74, 0x02, 0x88, 0x2e, 0x79, 0x0e, 0xe4, 0x00, 0x32, 0x08, 0x00, 0x1d,
  0x04, 0x94, 0x43, 0x7b, 0x08, 0xe4, 0x00, 0x36, 0x08, 0x00, 0x40, 0x12,
  0x89, 0x23, 0x7b, 0x22, 0x9b, 0x30, 0x6d, 0x02, 0x8b, 0x2e, 0x73, 0x1c,
  0x99, 0x23, 0x7b, 0x1a, 0x94, 0x41, 0x7b, 0x0e, 0x84, 0x43, 0x7b, 0x04,
  0x89, 0x23, 0x7b, 0x14, 0x99, 0x28, 0x7c, 0x00, 0x2e, 0x7a, 0x04, 0x89,
  0x31, 0x7b, 0x32, 0x2e, 0x7a, 0x0a, 0x81, 0x24, 0x79, 0x00, 0x99, 0x23,
  0x7c, 0x00, 0x31, 0x7b, 0x0a, 0x84, 0x41, 0x7b, 0x08, 0x94, 0x40, 0x7b,
  0x0e, 0x91, 0x1f, 0x76, 0x00, 0x89, 0x28, 0x7c, 0x14, 0x80, 0x40, 0x7b,
  0x08, 0x89, 0x31, 0x7b, 0x04, 0x23, 0x7c, 0x00, 0x99, 0x28, 0x7b, 0x00,
  0x2e, 0x7b, 0x08, 0x80, 0x4c, 0x79, 0x06, 0x43, 0x7b, 0x0a, 0x81, 0x1f,
  0x76, 0x10, 0x80, 0x48, 0x7b, 0x10, 0x84, 0x40, 0x7b, 0x06, 0x80, 0x3c,
  0x7b, 0x02, 0x91, 0x29, 0x7c, 0x00, 0x88, 0x2b, 0x77, 0x00, 0x99, 0x23,
  0x7b, 0x00, 0x31, 0x7b, 0x02, 0x90, 0x41, 0x7b, 0x00, 0x4d, 0x7b, 0x00,
  0x98, 0x35, 0x79, 0x08, 0x94, 0x41, 0x7a, 0x02, 0x88, 0x30, 0x74, 0x32,
  0x89, 0x2e, 0x7b, 0x22, 0x8b, 0x2b, 0x71, 0x00, 0x89, 0x23, 0x7b, 0x02,
  0x9b, 0x35, 0x73, 0x0a, 0x8b, 0x30, 0x6d, 0x10, 0x81, 0x29, 0x7c, 0x02,
  0x80, 0x4d, 0x7b, 0x00, 0x41, 0x7b, 0x00, 0x88, 0x35, 0x79, 0x02, 0x91,
  0x21, 0x7c, 0x00, 0x99, 0x23, 0x79, 0x02, 0x90, 0x39, 0x7b, 0x00, 0x45,
  0x7b, 0x00, 0x98, 0x2d, 0x79, 0x0c, 0x84, 0x41, 0x7a, 0x00, 0x94, 0x3e,
  0x78, 0x00, 0x89, 0x28, 0x7b, 0x2e, 0x94, 0x3c, 0x77, 0x04, 0x99, 0x28,
  0x7b, 0x00, 0x2e, 0x7a, 0x10, 0x84, 0x3e, 0x78, 0x0e, 0x8b, 0x35, 0x73,
  0x04, 0x9b, 0x2d, 0x74, 0x1c, 0x80, 0x45, 0x7b, 0x00, 0x39, 0x7b, 0x00,
  0x81, 0x21, 0x7c, 0x00, 0x88, 0x2d, 0x79, 0x02, 0x91, 0x22, 0x7b, 0x02,
  0x90, 0x3a, 0x7a, 0x00, 0x46, 0x7a, 0x00, 0x98, 0x2e, 0x78, 0x36, 0x89,
  0x23, 0x79, 0x26, 0x8b, 0x2d, 0x74, 0x04, 0x9b, 0x2e, 0x72, 0x04, 0x89,
  0x2e, 0x7a, 0x0e, 0x81, 0x22, 0x7b, 0x0a, 0x80, 0x46, 0x7a, 0x00, 0x3a,
  0x7a, 0x00, 0x88, 0x2e, 0x78, 0x02, 0x91, 0x23, 0x7d, 0x00, 0x99, 0x23,
  0x7b, 0x00, 0x2e, 0x7a, 0x02, 0x90, 0x3b, 0x7b, 0x00, 0x47, 0x7b, 0x00,
  0x98, 0x2f, 0x7a, 0x0e, 0xe4, 0x00, 0x3d, 0x08, 0x00, 0x3a, 0x10, 0x00,
  0x40, 0x22, 0x89, 0x23, 0x7b, 0x14, 0x8b, 0x2e, 0x72, 0x04, 0x9b, 0x2f,
  0x75, 0x14, 0x81, 0x23, 0x7d, 0x0a, 0x91, 0x24, 0x7a, 0x00, 0x99, 0x23,
  0x79, 0x02, 0x90, 0x3c, 0x78, 0x00, 0x48, 0x78, 0x00, 0x98, 0x30, 0x75,
  0x02, 0x89, 0x28, 0x7b, 0x04, 0x2e, 0x7a, 0x0a, 0x80, 0x47, 0x7b, 0x00,
  0x3b, 0x7b, 0x00, 0x88, 0x2f, 0x7a, 0x20, 0xe4, 0x00, 0x39, 0x0c, 0x00,
  0x3b, 0x02, 0x91, 0x26, 0x77, 0x00, 0x99, 0x28, 0x7b, 0x00, 0x2e, 0x7a,
  0x02, 0x90, 0x3e, 0x79, 0x00, 0x4a, 0x79, 0x00, 0x98, 0x32, 0x76, 0x04,
  0x81, 0x24, 0x7a, 0x02, 0xe4, 0x00, 0x40, 0x0a, 0x80, 0x48, 0x78, 0x00,
  0x3c, 0x78, 0x00, 0x88, 0x30, 0x75, 0x10, 0x9b, 0x30, 0x6e, 0x10, 0x8b,
  0x2f, 0x75, 0x0a, 0x81, 0x26, 0x77, 0x04, 0x91, 0x28, 0x78, 0x02, 0x90,
  0x40, 0x7a, 0x00, 0x4c, 0x7a, 0x00, 0x98, 0x34, 0x78, 0x02, 0x80, 0x4a,
  0x79, 0x00, 0x3e, 0x79, 0x00, 0x88, 0x32, 0x76, 0x1e, 0xe4, 0x00, 0x32,
  0x00, 0x9b, 0x32, 0x70, 0x08, 0xe4, 0x00, 0x24, 0x08, 0x00, 0x1b, 0x00,
  0x8b, 0x30, 0x6e, 0x0a, 0xe4, 0x00, 0x3a, 0x04, 0x91, 0x29, 0x7b, 0x02,
  0x90, 0x41, 0x7b, 0x00, 0x4d, 0x7b, 0x00, 0x98, 0x35, 0x79, 0x02, 0xe4,
  0x00, 0x40, 0x02, 0x89, 0x23, 0x79, 0x06, 0x81, 0x28, 0x78, 0x00, 0x89,
  0x2e, 0x7a, 0x0c, 0x80, 0x4c, 0x7a, 0x00, 0x40, 0x7a, 0x00, 0x88, 0x34,
  0x78, 0x0a, 0x9b, 0x34, 0x72, 0x02, 0x8b, 0x32, 0x70, 0x02, 0x81, 0x29,
  0x7b, 0x0a, 0x80, 0x4d, 0x7b, 0x00, 0x41, 0x7b, 0x00, 0x88, 0x35, 0x79,
  0x10, 0x91, 0x29, 0x7d, 0x00, 0x99, 0x23, 0x7b, 0x00, 0x2e, 0x7b, 0x02,
  0x90, 0x41, 0x7b, 0x00, 0x4d, 0x7b, 0x00, 0x98, 0x35, 0x79, 0x20, 0x9b,
  0x35, 0x73, 0x04, 0x94, 0x3b, 0x6d, 0x10, 0x84, 0x3c, 0x77, 0x02, 0x8b,
  0x34, 0x72, 0x06, 0x94, 0x39, 0x6e, 0x04, 0x84, 0x3b, 0x6d, 0x0c, 0x39,
  0x6e, 0x02, 0x8b, 0x35, 0x73, 0x00, 0x89, 0x23, 0x7b, 0x04, 0x94, 0x37,
  0x68, 0x0c, 0x84, 0x37, 0x68, 0x02, 0x9b, 0x35, 0x73, 0x1c, 0x80, 0x4d,
  0x7b, 0x00, 0x41, 0x7b, 0x00, 0x88, 0x35, 0x79, 0x02, 0x91, 0x21, 0x7d,
  0x00, 0x99, 0x23, 0x78, 0x02, 0x90, 0x39, 0x7b, 0x00, 0x45, 0x7b, 0x00,
  0x98, 0x2d, 0x79, 0x06, 0x89, 0x28, 0x7b, 0x02, 0x81, 0x29, 0x7d, 0x02,
  0x89, 0x2e, 0x7b, 0x34, 0x99, 0x28, 0x7b, 0x00, 0x2e, 0x7b, 0x1e, 0x8b,
  0x35, 0x73, 0x04, 0x9b, 0x2d, 0x74, 0x20, 0x90, 0x3a, 0x7a, 0x00, 0x46,
  0x7a, 0x00, 0x98, 0x2e, 0x78, 0x06, 0x80, 0x45, 0x7b, 0x00, 0x39, 0x7b,
  0x00, 0x88, 0x2d, 0x79, 0x06, 0x81, 0x21, 0x7d, 0x02, 0x91, 0x22, 0x7b,
  0x22, 0x89, 0x23, 0x78, 0x20, 0x2e, 0x7b, 0x10, 0x9b, 0x2e, 0x72, 0x06,
  0x8b, 0x2d, 0x74, 0x10, 0x80, 0x46, 0x7a, 0x00, 0x3a, 0x7a, 0x00, 0x88,
  0x2e, 0x78, 0x08, 0x81, 0x22, 0x7b, 0x00, 0x91, 0x23, 0x7b, 0x00, 0x89,
  0x31, 0x7b, 0x00, 0x99, 0x23, 0x79, 0x00, 0x2e, 0x7b, 0x02, 0x90, 0x3b,
  0x7a, 0x00, 0x47, 0x7a, 0x00, 0x98, 0x2f, 0x78, 0x36, 0x89, 0x23, 0x79,
  0x08, 0x91, 0x24, 0x77, 0x02, 0x90, 0x3c, 0x78, 0x00, 0x48, 0x78, 0x00,
  0x98, 0x30, 0x75, 0x04, 0x81, 0x23, 0x7b, 0x02, 0x80, 0x47, 0x7a, 0x00,
  0x3b, 0x7a, 0x00, 0x88, 0x2f, 0x78, 0x10, 0x8b, 0x2e, 0x72, 0x0a, 0x9b,
  0x2f, 0x72, 0x14, 0x81, 0x24, 0x77, 0x02, 0x80, 0x48, 0x78, 0x00, 0x3c,
  0x78, 0x00, 0x88, 0x30, 0x75, 0x08, 0x91, 0x26, 0x7c, 0x00, 0x99, 0x23,
  0x7a, 0x02, 0x90, 0x3e, 0x7b, 0x00, 0x4a, 0x7b, 0x00, 0x98, 0x32, 0x7a,
  0x06, 0x89, 0x2e, 0x7b, 0x0a, 0x28, 0x7b, 0x10, 0x9b, 0x30, 0x6e, 0x06,
  0x8b, 0x2f, 0x72, 0x18, 0x91, 0x24, 0x7c, 0x00, 0x99, 0x28, 0x7b, 0x00,
  0x2e, 0x7a, 0x02, 0x90, 0x3c, 0x7b, 0x00, 0x48, 0x7b, 0x00, 0x98, 0x30,
  0x7a, 0x04, 0x80, 0x4a, 0x7b, 0x00, 0x3e, 0x7b, 0x00, 0x88, 0x32, 0x7a,
  0x0a, 0x81, 0x26, 0x7c, 0x08, 0x8b, 0x30, 0x6e, 0x0a, 0x9b, 0x32, 0x75,
  0x40, 0x30, 0x75, 0x04, 0x8b, 0x32, 0x75, 0x0a, 0x89, 0x23, 0x7a, 0x1c,
  0x2e, 0x7a, 0x28, 0x80, 0x48, 0x7b, 0x00, 0x3c, 0x7b, 0x00, 0x81, 0x24,
  0x7c, 0x00, 0x88, 0x30, 0x7a, 0x0c, 0x91, 0x29, 0x7d, 0x00, 0x99, 0x23,
  0x7b, 0x00, 0x2e, 0x7a, 0x02, 0x90, 0x41, 0x7b, 0x00, 0x4d, 0x7b, 0x00,
  0x98, 0x35, 0x7a, 0x36, 0x89, 0x23, 0x7b, 0x1c, 0x8b, 0x30, 0x75, 0x0e,
  0x9b, 0x35, 0x75, 0x1e, 0x91, 0x21, 0x7d, 0x00, 0x99, 0x23, 0x7a, 0x02,
  0x90, 0x39, 0x7b, 0x00, 0x45, 0x7b, 0x00, 0x98, 0x2d, 0x7a, 0x06, 0x81,
  0x29, 0x7d, 0x00, 0x89, 0x28, 0x7b, 0x02, 0x80, 0x4d, 0x7b, 0x00, 0x41,
  0x7b, 0x00, 0x88, 0x35, 0x7a, 0x00, 0x89, 0x2e, 0x7a, 0x36, 0x99, 0x28,
  0x7b, 0x00, 0x2e, 0x7a, 0x22, 0x9b, 0x2d, 0x75, 0x08, 0x8b, 0x35, 0x75,
  0x16, 0x91, 0x22, 0x78, 0x02, 0x90, 0x3a, 0x7b, 0x00, 0x46, 0x7b, 0x00,
  0x98, 0x2e, 0x79, 0x04, 0x80, 0x45, 0x7b, 0x00, 0x39, 0x7b, 0x00, 0x88,
  0x2d, 0x7a, 0x08, 0x81, 0x21, 0x7d, 0x1c, 0x89, 0x23, 0x7a, 0x22, 0x2e,
  0x7a, 0x16, 0x9b, 0x2e, 0x73, 0x04, 0x8b, 0x2d, 0x75, 0x0e, 0x81, 0x22,
  0x78, 0x08, 0x80, 0x46, 0x7b, 0x00, 0x3a, 0x7b, 0x00, 0x88, 0x2e, 0x79,
  0x04, 0x91, 0x23, 0x7d, 0x00, 0x99, 0x23, 0x7b, 0x00, 0x2e, 0x7a, 0x02,
  0x90, 0x3b, 0x7b, 0x00, 0x47, 0x7b, 0x00, 0x98, 0x2f, 0x79, 0x3a, 0x89,
  0x23, 0x7b, 0x20, 0x8b, 0x2e, 0x73, 0x06, 0x9b, 0x2f, 0x73, 0x1a, 0x81,
  0x23, 0x7d, 0x04, 0x91, 0x24, 0x7c, 0x00, 0x99, 0x23, 0x7b, 0x02, 0x90,
  0x3c, 0x77, 0x00, 0x48, 0x77, 0x00, 0x98, 0x30, 0x74, 0x06, 0x80, 0x47,
  0x7b, 0x00, 0x3b, 0x7b, 0x00, 0x88, 0x2f, 0x79, 0x08, 0x89, 0x2e, 0x7a,
  0x0a, 0x28, 0x7b, 0x26, 0x91, 0x26, 0x77, 0x00, 0x99, 0x28, 0x7b, 0x00,
  0x2e, 0x7b, 0x02, 0x90, 0x3e, 0x78, 0x00, 0x4a, 0x78, 0x00, 0x98, 0x32,
  0x75, 0x02, 0x80, 0x48, 0x77, 0x00, 0x3c, 0x77, 0x00, 0x88, 0x30, 0x74,
  0x02, 0x81, 0x24, 0x7c, 0x1c, 0x9b, 0x30, 0x6d, 0x06, 0x8b, 0x2f, 0x73,
  0x10, 0x81, 0x26, 0x77, 0x02, 0x80, 0x4a, 0x78, 0x00, 0x3e, 0x78, 0x00,
  0x88, 0x32, 0x75, 0x06, 0x91, 0x28, 0x72, 0x02, 0x90, 0x40, 0x79, 0x00,
  0x4c, 0x79, 0x00, 0x98, 0x34, 0x76, 0x20, 0x9b, 0x32, 0x6e, 0x02, 0x8b,
  0x30, 0x6d, 0x0c, 0x89, 0x23, 0x7b, 0x08, 0x81, 0x28, 0x72, 0x08, 0x91,
  0x29, 0x79, 0x02, 0x90, 0x41, 0x79, 0x00, 0x4d, 0x79, 0x00, 0x98, 0x35,
  0x76, 0x18, 0x8b, 0x32, 0x6e, 0x02, 0x89, 0x2e, 0x7b, 0x06, 0x81, 0x29,
  0x79, 0x00, 0x9b, 0x34, 0x70, 0x02, 0x80, 0x4c, 0x79, 0x00, 0x40, 0x79,
  0x00, 0x88, 0x34, 0x76, 0x0a, 0x80, 0x4d, 0x79, 0x00, 0x41, 0x79, 0x00,
  0x88, 0x35, 0x76, 0x12, 0x91, 0x2b, 0x7d, 0x00, 0x99, 0x23, 0x7b, 0x00,
  0x31, 0x7b, 0x02, 0x90, 0x43, 0x7b, 0x00, 0x4f, 0x7b, 0x00, 0x98, 0x37,
  0x79, 0x20, 0x9b, 0x35, 0x70, 0x22, 0x8b, 0x34, 0x70, 0x00, 0x89, 0x23,
  0x7b, 0x0a, 0x8b, 0x35, 0x70, 0x14, 0x9b, 0x37, 0x74, 0x10, 0x89, 0x31,
  0x7b, 0x06, 0x81, 0x2b, 0x7d, 0x06, 0x80, 0x4f, 0x7b, 0x00, 0x43, 0x7b,
  0x00, 0x88, 0x37, 0x79, 0x02, 0x91, 0x23, 0x7c, 0x00, 0x99, 0x23, 0x7b,
  0x02, 0x90, 0x3b, 0x7b, 0x00, 0x47, 0x7b, 0x00, 0x98, 0x2f, 0x79, 0x04,
  0x89, 0x28, 0x7b, 0x3a, 0x99, 0x28, 0x7b, 0x00, 0x2e, 0x7a, 0x1e, 0x8b,
  0x37, 0x74, 0x04, 0x9b, 0x2f, 0x74, 0x1e, 0x91, 0x24, 0x7b, 0x02, 0x90,
  0x3c, 0x7a, 0x00, 0x48, 0x7a, 0x00, 0x98, 0x30, 0x77, 0x22, 0x80, 0x47,
  0x7b, 0x00, 0x3b, 0x7b, 0x00, 0x88, 0x2f, 0x79, 0x00, 0x89, 0x23, 0x7b,
  0x06, 0x81, 0x23, 0x7c, 0x1e, 0x89, 0x2e, 0x7a, 0x1a, 0x9b, 0x30, 0x71,
  0x0a, 0x81, 0x24, 0x7b, 0x12, 0x80, 0x48, 0x7a, 0x00, 0x3c, 0x7a, 0x00,
  0x88, 0x30, 0x77, 0x02, 0x91, 0x26, 0x7b, 0x00, 0x99, 0x23, 0x7a, 0x00,
  0x2e, 0x7a, 0x02, 0x90, 0x3e, 0x7a, 0x00, 0x4a, 0x7a, 0x00, 0x98, 0x32,
  0x78, 0x02, 0x8b, 0x2f, 0x74, 0x44, 0x89, 0x23, 0x7a, 0x16, 0x8b, 0x30,
  0x71, 0x04, 0x9b, 0x32, 0x72, 0x0a, 0x81, 0x26, 0x7b, 0x08, 0x80, 0x4a,
  0x7a, 0x00, 0x3e, 0x7a, 0x00, 0x88, 0x32, 0x78, 0x0c, 0x91, 0x27, 0x7b,
  0x00, 0x99, 0x23, 0x7b, 0x02, 0x90, 0x3f, 0x78, 0x00, 0x4b, 0x78, 0x00,
  0x98, 0x33, 0x75, 0x12, 0x89, 0x2e, 0x7a, 0x02, 0x28, 0x7b, 0x28, 0x80,
  0x4b, 0x78, 0x00, 0x3f, 0x78, 0x00, 0x88, 0x33, 0x75, 0x02, 0x91, 0x28,
  0x78, 0x00, 0x99, 0x28, 0x7b, 0x00, 0x2e, 0x7b, 0x02, 0x90, 0x40, 0x7b,
  0x00, 0x4c, 0x7b, 0x00, 0x98, 0x34, 0x79, 0x02, 0x89, 0x23, 0x7b, 0x0a,
  0x81, 0x27, 0x7b, 0x06, 0x8b, 0x32, 0x72, 0x0e, 0x9b, 0x33, 0x6e, 0x1a,
  0x81, 0x28, 0x78, 0x04, 0x91, 0x29, 0x7d, 0x00, 0x99, 0x2b, 0x79, 0x02,
  0x80, 0x4c, 0x7b, 0x00, 0x40, 0x7b, 0x00, 0x90, 0x41, 0x77, 0x00, 0x4d,
  0x77, 0x00, 0x88, 0x34, 0x79, 0x00, 0x98, 0x35, 0x74, 0x08, 0x89, 0x28,
  0x7b, 0x14, 0x8b, 0x33, 0x6e, 0x04, 0x9b, 0x34, 0x73, 0x0e, 0x80, 0x4d,
  0x77, 0x00, 0x41, 0x77, 0x00, 0x88, 0x35, 0x74, 0x10, 0x91, 0x2b, 0x78,
  0x00, 0x99, 0x2d, 0x7a, 0x02, 0x90, 0x43, 0x7a, 0x00, 0x4f, 0x7a, 0x00,
  0x98, 0x37, 0x78, 0x08, 0x81, 0x29, 0x7d, 0x02, 0x89, 0x2b, 0x79, 0x16,
  0x8b, 0x34, 0x73, 0x00, 0x9b, 0x35, 0x6d, 0x18, 0x81, 0x2b, 0x78, 0x04,
  0x80, 0x4f, 0x7a, 0x00, 0x43, 0x7a, 0x00, 0x88, 0x37, 0x78, 0x00, 0x89,
  0x2d, 0x7a, 0x02, 0x94, 0x42, 0x7a, 0x00, 0x91, 0x2a, 0x7d, 0x00, 0x99,
  0x23, 0x7a, 0x00, 0x31, 0x7a, 0x02, 0x90, 0x42, 0x7a, 0x00, 0x4e, 0x7a,
  0x00, 0x98, 0x36, 0x78, 0x04, 0x89, 0x2e, 0x7b, 0x0a, 0x8b, 0x35, 0x6d,
  0x12, 0x9b, 0x37, 0x72, 0x1e, 0x84, 0x42, 0x7a, 0x00, 0x91, 0x2c, 0x7d,
  0x02, 0x90, 0x44, 0x7a, 0x00, 0x50, 0x7a, 0x00, 0x81, 0x2a, 0x7d, 0x00,
  0x98, 0x38, 0x77, 0x14, 0x80, 0x4e, 0x7a, 0x00, 0x42, 0x7a, 0x00, 0x88,
  0x36, 0x78, 0x08, 0x8b, 0x37, 0x72, 0x04, 0x9b, 0x36, 0x72, 0x1e, 0x91,
  0x2e, 0x7d, 0x02, 0x90, 0x46, 0x7b, 0x00, 0x52, 0x7b, 0x00, 0x98, 0x3a,
  0x79, 0x02, 0x80, 0x50, 0x7a, 0x00, 0x44, 0x7a, 0x00, 0x88, 0x38, 0x77,
  0x06, 0x81, 0x2c, 0x7d, 0x18, 0x9b, 0x38, 0x71, 0x14, 0x8b, 0x36, 0x72,
  0x02, 0x80, 0x52, 0x7b, 0x00, 0x46, 0x7b, 0x00, 0x88, 0x3a, 0x79, 0x02,
  0x81, 0x2e, 0x7d, 0x06, 0x99, 0x28, 0x7c, 0x12, 0x89, 0x31, 0x7a, 0x10,
  0x9b, 0x3a, 0x73, 0x02, 0x8b, 0x38, 0x71, 0x12, 0x89, 0x23, 0x7a, 0x08,
  0x28, 0x7c, 0x02, 0x91, 0x2c, 0x7d, 0x00, 0x99, 0x28, 0x7b, 0x02, 0x90,
  0x44, 0x7a, 0x00, 0x50, 0x7a, 0x00, 0x98, 0x38, 0x78, 0x16, 0x8b, 0x3a,
  0x73, 0x1e, 0x89, 0x28, 0x7b, 0x06, 0x81, 0x2c, 0x7d, 0x04, 0x91, 0x2e,
  0x7d, 0x00, 0x99, 0x2b, 0x79, 0x02, 0x90, 0x46, 0x79, 0x00, 0x52, 0x79,
  0x00, 0x98, 0x3a, 0x76, 0x04, 0x80, 0x50, 0x7a, 0x00, 0x44, 0x7a, 0x00,
  0x88, 0x38, 0x78, 0x1c, 0x9b, 0x38, 0x72, 0x1a, 0x81, 0x2e, 0x7d, 0x04,
  0x91, 0x30, 0x7b, 0x00, 0x99, 0x23, 0x79, 0x00, 0x31, 0x79, 0x02, 0x90,
  0x48, 0x7b, 0x00, 0x54, 0x7b, 0x00, 0x98, 0x3c, 0x79, 0x06, 0x80, 0x52,
  0x79, 0x00, 0x46, 0x79, 0x00, 0x88, 0x3a, 0x76, 0x12, 0x89, 0x2b, 0x79,
  0x08, 0x9b, 0x3a, 0x70, 0x04, 0x8b, 0x38, 0x72, 0x26, 0x81, 0x30, 0x7b,
  0x02, 0x80, 0x54, 0x7b, 0x00, 0x48, 0x7b, 0x00, 0x88, 0x3c, 0x79, 0x14,
  0x9b, 0x3c, 0x74, 0x06, 0x8b, 0x3a, 0x70, 0x24, 0x89, 0x23, 0x79, 0x22,
  0x8b, 0x3c, 0x74, 0x12, 0x91, 0x2e, 0x7d, 0x00, 0x89, 0x31, 0x79, 0x00,
  0x99, 0x28, 0x7a, 0x02, 0x90, 0x46, 0x7a, 0x00, 0x52, 0x7a, 0x00, 0x98,
  0x3a, 0x78, 0x36, 0x89, 0x28, 0x7a, 0x02, 0x81, 0x2e, 0x7d, 0x02, 0x80,
  0x52, 0x7a, 0x00, 0x46, 0x7a, 0x00, 0x88, 0x3a, 0x78, 0x04, 0x91, 0x30,
  0x79, 0x00, 0x99, 0x2b, 0x79, 0x02, 0x90, 0x48, 0x7a, 0x00, 0x54, 0x7a,
  0x00, 0x98, 0x3c, 0x77, 0x20, 0x9b, 0x3a, 0x72, 0x1e, 0x91, 0x32, 0x7d,
  0x00, 0x99, 0x23, 0x7a, 0x00, 0x39, 0x7a, 0x02, 0x90, 0x4a, 0x79, 0x00,
  0x56, 0x79, 0x00, 0x98, 0x3e, 0x76, 0x00, 0x89, 0x2b, 0x79, 0x04, 0x81,
  0x30, 0x79, 0x0c, 0xb0, 0x5b, 0x7f, 0x02, 0x80, 0x54, 0x7a, 0x00, 0x48,
  0x7a, 0x00, 0x88, 0x3c, 0x77, 0x08, 0x8b, 0x3a, 0x72, 0x04, 0x89, 0x23,
  0x7a, 0x02, 0x81, 0x32, 0x7d, 0x00, 0x9b, 0x3c, 0x71, 0x06, 0x80, 0x56,
  0x79, 0x00, 0x4a, 0x79, 0x00, 0x88, 0x3e, 0x76, 0x00, 0x89, 0x39, 0x7a,
  0x18, 0x91, 0x23, 0x7d, 0x00, 0x99, 0x23, 0x7a, 0x00, 0x31, 0x7a, 0x02,
  0x90, 0x2f, 0x7b, 0x00, 0x3b, 0x7b, 0x00, 0x42, 0x7b, 0x00, 0x47, 0x7b,
  0x00, 0x4b, 0x7b, 0x00, 0x4e, 0x7b, 0x00, 0x98, 0x2f, 0x79, 0x20, 0x88,
  0x2f, 0x79, 0x00, 0x98, 0x31, 0x74, 0x00, 0x9b, 0x3e, 0x70, 0x12, 0x8b,
  0x3c, 0x71, 0x0e, 0x88, 0x31, 0x74, 0x00, 0x98, 0x33, 0x74, 0x06, 0x8b,
  0x3e, 0x70, 0x1a, 0x88, 0x33, 0x74, 0x00, 0x98, 0x31, 0x75, 0x00, 0x9b,
  0x2f, 0x73, 0x20, 0x88, 0x31, 0x75, 0x00, 0x98, 0x33, 0x75, 0x00, 0x8b,
  0x2f, 0x73, 0x00, 0x9b, 0x31, 0x6d, 0x20, 0x88, 0x33, 0x75, 0x00, 0x98,
  0x36, 0x76, 0x00, 0x8b, 0x31, 0x6d, 0x00, 0x9b, 0x33, 0x6d, 0x1e, 0x99,
  0x2e, 0x7a, 0x02, 0x88, 0x36, 0x76, 0x00, 0x98, 0x33, 0x76, 0x00, 0x8b,
  0x33, 0x6d, 0x00, 0x9b, 0x31, 0x6e, 0x20, 0x88, 0x33, 0x76, 0x00, 0x98,
  0x36, 0x76, 0x00, 0x8b, 0x31, 0x6e, 0x00, 0x9b, 0x33, 0x6f, 0x20, 0x88,
  0x36, 0x76, 0x00, 0x98, 0x34, 0x79, 0x00, 0x8b, 0x33, 0x6f, 0x00, 0x9b,
  0x36, 0x70, 0x20, 0x88, 0x34, 0x79, 0x00, 0x98, 0x36, 0x76, 0x00, 0x8b,
  0x36, 0x70, 0x00, 0x9b, 0x33, 0x70, 0x20, 0x88, 0x36, 0x77, 0x00, 0x98,
  0x36, 0x77, 0x00, 0x8b, 0x33, 0x70, 0x00, 0x9b, 0x36, 0x70, 0x20, 0x88,
  0x36, 0x76, 0x00, 0x98, 0x38, 0x79, 0x00, 0x8b, 0x36, 0x70, 0x00, 0x9b,
  0x34, 0x73, 0x20, 0x98, 0x3a, 0x78, 0x00, 0x8b, 0x34, 0x73, 0x00, 0x9b,
  0x36, 0x70, 0x10, 0x88, 0x38, 0x79, 0x10, 0x3a, 0x77, 0x00, 0x98, 0x3a,
  0x77, 0x00, 0x8b, 0x36, 0x71, 0x00, 0x9b, 0x36, 0x71, 0x20, 0x88, 0x3a,
  0x78, 0x00, 0x98, 0x38, 0x77, 0x00, 0x8b, 0x36, 0x70, 0x00, 0x9b, 0x38,
  0x73, 0x20, 0x98, 0x36, 0x77, 0x00, 0x9b, 0x3a, 0x72, 0x0a, 0x88, 0x38,
  0x77, 0x06, 0x8b, 0x38, 0x73, 0x10, 0x88, 0x36, 0x77, 0x00, 0x98, 0x35,
  0x77, 0x00, 0x8b, 0x3a, 0x71, 0x00, 0x9b, 0x3a, 0x71, 0x1a, 0x89, 0x2e,
  0x7a, 0x04, 0x80, 0x4b, 0x7b, 0x02, 0x88, 0x35, 0x77, 0x00, 0x98, 0x38,
  0x77, 0x00, 0x8b, 0x3a, 0x72, 0x00, 0x9b, 0x38, 0x71, 0x08, 0x80, 0x47,
  0x7b, 0x08, 0x4e, 0x7b, 0x0e, 0x99, 0x2e, 0x7b, 0x02, 0x98, 0x3a, 0x78,
  0x00, 0x9b, 0x36, 0x71, 0x0a, 0x80, 0x42, 0x7b, 0x00, 0x8b, 0x38, 0x71,
  0x04, 0x88, 0x38, 0x77, 0x06, 0x80, 0x2f, 0x7b, 0x06, 0x3b, 0x7b, 0x06,
  0x88, 0x3a, 0x78, 0x00, 0x98, 0x3b, 0x79, 0x00, 0x8b, 0x36, 0x71, 0x00,
  0x9b, 0x35, 0x71, 0x12, 0x89, 0x23, 0x7a, 0x0e, 0x98, 0x3d, 0x79, 0x00,
  0x8b, 0x35, 0x71, 0x00, 0x9b, 0x38, 0x71, 0x04, 0x88, 0x3b, 0x79, 0x1a,
  0x89, 0x31, 0x7a, 0x02, 0x98, 0x3e, 0x78, 0x00, 0x9b, 0x3a, 0x72, 0x06,
  0x88, 0x3d, 0x79, 0x08, 0x8b, 0x38, 0x71, 0x12, 0x88, 0x3e, 0x78, 0x00,
  0x98, 0x3f, 0x76, 0x00, 0x8b, 0x3a, 0x72, 0x00, 0x9b, 0x3b, 0x73, 0x20,
  0x3d, 0x73, 0x04, 0x8b, 0x3b, 0x73, 0x0e, 0x81, 0x23, 0x7d, 0x0c, 0x91,
  0x20, 0x7d, 0x00, 0x99, 0x23, 0x7c, 0x00, 0x2b, 0x7b, 0x02, 0x90, 0x2c,
  0x7b, 0x00, 0x38, 0x7b, 0x00, 0x3f, 0x7b, 0x00, 0x44, 0x7b, 0x00, 0x48,
  0x7b, 0x00, 0x4b, 0x7b, 0x00, 0x88, 0x3f, 0x76, 0x00, 0x98, 0x2c, 0x78,
  0x00, 0x9b, 0x3e, 0x72, 0x06, 0x8b, 0x3d, 0x73, 0x1a, 0x88, 0x2c, 0x78,
  0x00, 0x98, 0x2e, 0x7c, 0x00, 0x8b, 0x3e, 0x72, 0x00, 0x9b, 0x3f, 0x70,
  0x08, 0x89, 0x2e, 0x7b, 0x18, 0x88, 0x2e, 0x7c, 0x00, 0x98, 0x30, 0x7d,
  0x20, 0x88, 0x30, 0x7d, 0x00, 0x98, 0x2e, 0x7d, 0x00, 0x8b, 0x3f, 0x70,
  0x00, 0x9b, 0x2c, 0x72, 0x20, 0x88, 0x2e, 0x7d, 0x00, 0x98, 0x2c, 0x7d,
  0x00, 0x8b, 0x2c, 0x72, 0x00, 0x9b, 0x2e, 0x77, 0x20, 0x88, 0x2c, 0x7d,
  0x00, 0x98, 0x2e, 0x7d, 0x00, 0x8b, 0x2e, 0x77, 0x00, 0x9b, 0x30, 0x78,
  0x1e, 0x99, 0x2e, 0x7a, 0x02, 0x88, 0x2e, 0x7d, 0x00, 0x98, 0x30, 0x7d,
  0x00, 0x8b, 0x30, 0x78, 0x00, 0x9b, 0x2e, 0x78, 0x20, 0x88, 0x30, 0x7d,
  0x00, 0x98, 0x32, 0x7d, 0x00, 0x8b, 0x2e, 0x78, 0x00, 0x9b, 0x2c, 0x78,
  0x20, 0x88, 0x32, 0x7d, 0x00, 0x98, 0x33, 0x7d, 0x00, 0x8b, 0x2c, 0x78,
  0x00, 0x9b, 0x2e, 0x78, 0x20, 0x88, 0x33, 0x7d, 0x00, 0x98, 0x35, 0x7d,
  0x00, 0x8b, 0x2e, 0x78, 0x00, 0x9b, 0x30, 0x78, 0x20, 0x88, 0x35, 0x7d,
  0x00, 0x98, 0x38, 0x7d, 0x00, 0x8b, 0x30, 0x78, 0x00, 0x9b, 0x32, 0x78,
  0x20, 0x88, 0x38, 0x7d, 0x00, 0x98, 0x37, 0x7d, 0x00, 0x8b, 0x32, 0x78,
  0x00, 0x9b, 0x33, 0x78, 0x20, 0x88, 0x37, 0x7d, 0x00, 0x98, 0x38, 0x7d,
  0x00, 0x8b, 0x33, 0x78, 0x00, 0x9b, 0x35, 0x78, 0x20, 0x88, 0x38, 0x7d,
  0x00, 0x98, 0x3a, 0x7d, 0x00, 0x8b, 0x35, 0x78, 0x00, 0x9b, 0x38, 0x78,
  0x20, 0x88, 0x3a, 0x7d, 0x00, 0x98, 0x3c, 0x7d, 0x00, 0x8b, 0x38, 0x78,
  0x00, 0x9b, 0x37, 0x78, 0x20, 0x88, 0x3c, 0x7d, 0x00, 0x98, 0x3e, 0x7d,
  0x00, 0x8b, 0x37, 0x78, 0x00, 0x9b, 0x38, 0x78, 0x20, 0x88, 0x3e, 0x7d,
  0x00, 0x98, 0x3f, 0x7d, 0x00, 0x8b, 0x38, 0x78, 0x00, 0x9b, 0x3a, 0x78,
  0x00, 0x89, 0x2e, 0x7a, 0x1e, 0x80, 0x48, 0x7b, 0x02, 0x88, 0x3f, 0x7d,
  0x00, 0x98, 0x3c, 0x7a, 0x00, 0x8b, 0x3a, 0x78, 0x00, 0x9b, 0x3c, 0x78,
  0x04, 0x80, 0x3f, 0x7b, 0x06, 0x44, 0x7b, 0x14, 0x99, 0x2e, 0x7a, 0x02,
  0x88, 0x3c, 0x7a, 0x00, 0x98, 0x3f, 0x7d, 0x00, 0x8b, 0x3c, 0x78, 0x00,
  0x9b, 0x3e, 0x78, 0x08, 0x80, 0x4b, 0x7b, 0x18, 0x8b, 0x3e, 0x78, 0x00,
  0x9b, 0x3f, 0x78, 0x02, 0x80, 0x38, 0x7b, 0x02, 0x2c, 0x7b, 0x1c, 0x8b,
  0x3f, 0x78, 0x00, 0x9b, 0x3c, 0x74, 0x14, 0x89, 0x23, 0x7c, 0x0c, 0x8b,
  0x3c, 0x74, 0x00, 0x9b, 0x3f, 0x78, 0x4e, 0x89, 0x2b, 0x7b, 0x04, 0x81,
  0x20, 0x7d, 0x08, 0x89, 0x2e, 0x7a, 0x04, 0x91, 0x22, 0x7d, 0x00, 0x99,
  0x23, 0x7c, 0x00, 0x31, 0x7b, 0x02, 0x90, 0x2e, 0x7b, 0x00, 0x3a, 0x7b,
  0x00, 0x41, 0x7b, 0x00, 0x46, 0x7b, 0x00, 0x4a, 0x7b, 0x00, 0x4d, 0x7b,
  0x00, 0x88, 0x3f, 0x7d, 0x00, 0x98, 0x2e, 0x76, 0x20, 0x30, 0x77, 0x06,
  0x88, 0x2e, 0x76, 0x1a, 0x30, 0x77, 0x00, 0x98, 0x32, 0x77, 0x20, 0x30,
  0x77, 0x00, 0x8b, 0x3f, 0x78, 0x00, 0x9b, 0x2e, 0x70, 0x0c, 0x88, 0x32,
  0x77, 0x14, 0x98, 0x32, 0x77, 0x00, 0x9b, 0x30, 0x70, 0x06, 0x8b, 0x2e,
  0x70, 0x0a, 0x88, 0x30, 0x77, 0x10, 0x98, 0x33, 0x77, 0x00, 0x8b, 0x30,
  0x70, 0x00, 0x9b, 0x32, 0x70, 0x04, 0x88, 0x32, 0x77, 0x1c, 0x33, 0x77,
  0x00, 0x98, 0x32, 0x77, 0x00, 0x9b, 0x30, 0x71, 0x0c, 0x8b, 0x32, 0x70,
  0x14, 0x88, 0x32, 0x77, 0x00, 0x98, 0x33, 0x77, 0x00, 0x9b, 0x32, 0x71,
  0x10, 0x8b, 0x30, 0x71, 0x10, 0x88, 0x33, 0x77, 0x00, 0x98, 0x35, 0x78,
  0x00, 0x9b, 0x33, 0x71, 0x04, 0x8b, 0x32, 0x71, 0x1c, 0x88, 0x35, 0x78,
  0x00, 0x98, 0x34, 0x78, 0x00, 0x8b, 0x33, 0x71, 0x00, 0x9b, 0x32, 0x71,
  0x20, 0x88, 0x34, 0x78, 0x00, 0x98, 0x35, 0x78, 0x00, 0x8b, 0x32, 0x71,
  0x00, 0x9b, 0x33, 0x71, 0x20, 0x98, 0x37, 0x78, 0x00, 0x8b, 0x33, 0x71,
  0x00, 0x9b, 0x35, 0x72, 0x06, 0x88, 0x35, 0x78, 0x1a, 0x37, 0x78, 0x00,
  0x98, 0x35, 0x78, 0x00, 0x8b, 0x35, 0x72, 0x00, 0x9b, 0x34, 0x72, 0x20,
  0x88, 0x35, 0x78, 0x00, 0x98, 0x38, 0x79, 0x00, 0x8b, 0x34, 0x72, 0x00,
  0x9b, 0x35, 0x72, 0x20, 0x98, 0x37, 0x79, 0x00, 0x9b, 0x37, 0x72, 0x06,
  0x8b, 0x35, 0x72, 0x02, 0x88, 0x38, 0x79, 0x18, 0x98, 0x35, 0x79, 0x00,
  0x8b, 0x37, 0x72, 0x00, 0x9b, 0x35, 0x72, 0x02, 0x88, 0x37, 0x79, 0x1e,
  0x98, 0x37, 0x79, 0x00, 0x8b, 0x35, 0x72, 0x00, 0x9b, 0x38, 0x73, 0x02,
  0x88, 0x35, 0x79, 0x1c, 0x37, 0x79, 0x02, 0x98, 0x38, 0x79, 0x00, 0x9b,
  0x37, 0x73, 0x08, 0x8b, 0x38, 0x73, 0x18, 0x98, 0x3a, 0x79, 0x00, 0x9b,
  0x35, 0x73, 0x02, 0x8b, 0x37, 0x73, 0x06, 0x88, 0x38, 0x79, 0x0c, 0x3a,
  0x79, 0x0c, 0x98, 0x3c, 0x79, 0x00, 0x9b, 0x37, 0x73, 0x02, 0x8b, 0x35,
  0x73, 0x18, 0x88, 0x3c, 0x79, 0x04, 0x8b, 0x37, 0x73, 0x02, 0x98, 0x3e,
  0x7a, 0x00, 0x9b, 0x38, 0x73, 0x20, 0x98, 0x3f, 0x7a, 0x00, 0x9b, 0x3a,
  0x73, 0x02, 0x88, 0x3e, 0x7a, 0x06, 0x8b, 0x38, 0x73, 0x0c, 0x3a, 0x73,
  0x0c, 0x98, 0x3e, 0x7a, 0x00, 0x9b, 0x3c, 0x74, 0x02, 0x88, 0x3f, 0x7a,
  0x14, 0x3e, 0x7a, 0x04, 0x8b, 0x3c, 0x74, 0x06, 0x98, 0x3c, 0x7a, 0x00,
  0x9b, 0x3e, 0x74, 0x20, 0x88, 0x3c, 0x7a, 0x00, 0x98, 0x3e, 0x7a, 0x00,
  0x9b, 0x3f, 0x74, 0x02, 0x8b, 0x3e, 0x74, 0x1e, 0x88, 0x3e, 0x7a, 0x00,
  0x98, 0x3f, 0x7a, 0x00, 0x9b, 0x3e, 0x74, 0x02, 0x8b, 0x3f, 0x74, 0x14,
  0x3e, 0x74, 0x08, 0x88, 0x3f, 0x7a, 0x02, 0x98, 0x41, 0x7a, 0x00, 0x9b,
  0x3c, 0x74, 0x1c, 0x88, 0x41, 0x7a, 0x04, 0x98, 0x43, 0x7b, 0x00, 0x8b,
  0x3c, 0x74, 0x00, 0x9b, 0x3e, 0x75, 0x20, 0x98, 0x44, 0x7b, 0x00, 0x8b,
  0x3e, 0x75, 0x00, 0x9b, 0x3f, 0x75, 0x06, 0x88, 0x43, 0x7b, 0x18, 0x8b,
  0x3f, 0x75, 0x02, 0x98, 0x46, 0x7b, 0x00, 0x9b, 0x41, 0x75, 0x04, 0x88,
  0x44, 0x7b, 0x18, 0x8b, 0x41, 0x75, 0x04, 0x98, 0x44, 0x7b, 0x00, 0x9b,
  0x43, 0x75, 0x0a, 0x88, 0x46, 0x7b, 0x0e, 0x44, 0x7b, 0x08, 0x98, 0x41,
  0x7b, 0x00, 0x9b, 0x44, 0x75, 0x06, 0x8b, 0x43, 0x75, 0x16, 0x88, 0x41,
  0x7b, 0x04, 0x98, 0x43, 0x7b, 0x00, 0x9b, 0x46, 0x75, 0x04, 0x8b, 0x44,
  0x75, 0x18, 0x88, 0x43, 0x7b, 0x04, 0x98, 0x46, 0x7b, 0x00, 0x9b, 0x44,
  0x75, 0x0a, 0x8b, 0x46, 0x75, 0x08, 0x88, 0x46, 0x7b, 0x06, 0x8b, 0x44,
  0x75, 0x08, 0x98, 0x48, 0x7c, 0x00, 0x9b, 0x41, 0x76, 0x1c, 0x8b, 0x41,
  0x76, 0x04, 0x88, 0x48, 0x7c, 0x00, 0x98, 0x4a, 0x7c, 0x00, 0x9b, 0x43,
  0x76, 0x1c, 0x8b, 0x43, 0x76, 0x04, 0x98, 0x4b, 0x7c, 0x00, 0x9b, 0x46,
  0x76, 0x04, 0x88, 0x4a, 0x7c, 0x0e, 0x8b, 0x46, 0x76, 0x0e, 0xe8, 0x51,
  0x4b, 0x00, 0x9b, 0x48, 0x76, 0x20, 0xe8, 0x42, 0x55, 0x00, 0x8b, 0x48,
  0x76, 0x00, 0x9b, 0x4a, 0x76, 0x20, 0xe8, 0x34, 0x5f, 0x00, 0x9b, 0x4b,
  0x77, 0x04, 0x8b, 0x4a, 0x76, 0x0c, 0x89, 0x31, 0x7b, 0x10, 0xe8, 0x26,
  0x69, 0x00, 0xeb, 0x51, 0x4b, 0x20, 0xe8, 0x7f, 0x7f, 0x00, 0xeb, 0x42,
  0x55, 0x20, 0x34, 0x5f, 0x20, 0x26, 0x69, 0x20, 0x7f, 0x7f, 0x2a, 0x81,
  0x22, 0x7d, 0x44, 0x89, 0x23, 0x7c, 0x83, 0x12, 0x80, 0x4d, 0x7b, 0x00,
  0x4a, 0x7b, 0x00, 0x46, 0x7b, 0x00, 0x41, 0x7b, 0x00, 0x3a, 0x7b, 0x00,
  0x2e, 0x7b, 0x60, 0x90, 0x2e, 0x73, 0x00, 0x3a, 0x73, 0x60, 0x80, 0x3a,
  0x73, 0x00, 0x2e, 0x73, 0x00, 0x90, 0x2d, 0x75, 0x00, 0x39, 0x75, 0x60,
  0x80, 0x39, 0x75, 0x00, 0x2d, 0x75, 0x00, 0x90, 0x2e, 0x76, 0x00, 0x3a,
  0x76, 0x60, 0x80, 0x3a, 0x76, 0x00, 0x2e, 0x76, 0x00, 0x90, 0x30, 0x77,
  0x00, 0x3c, 0x77, 0x60, 0x80, 0x3c, 0x77, 0x00, 0x30, 0x77, 0x00, 0x90,
  0x2e, 0x78, 0x00, 0x3a, 0x78, 0x60, 0x80, 0x3a, 0x78, 0x00, 0x2e, 0x78,
  0x00, 0x90, 0x32, 0x7a, 0x00, 0x3e, 0x7a, 0x60, 0x80, 0x3e, 0x7a, 0x00,
  0x32, 0x7a, 0x00, 0x90, 0x2e, 0x7b, 0x00, 0x3a, 0x7b, 0x5e, 0x88, 0x4b,
  0x7c, 0x02, 0x80, 0x3a, 0x7b, 0x00, 0x2e, 0x7b, 0x00, 0x90, 0x33, 0x7b,
  0x00, 0x3f, 0x7b, 0x20, 0xe8, 0x00, 0x40, 0x3e, 0x8b, 0x4b, 0x77, 0x02,
  0x80, 0x3f, 0x7b, 0x00, 0x33, 0x7b, 0x00, 0x90, 0x2e, 0x7b, 0x00, 0x3a,
  0x7b, 0x20, 0xeb, 0x00, 0x40, 0x40, 0x80, 0x3a, 0x7b, 0x00, 0x2e, 0x7b,
  0x00, 0x90, 0x35, 0x7b, 0x00, 0x41, 0x7b, 0x60, 0x80, 0x41, 0x7b, 0x00,
  0x35, 0x7b, 0x00, 0x90, 0x2e, 0x7b, 0x00, 0x3a, 0x7b, 0x5e, 0x91, 0x27,
  0x7d, 0x00, 0x99, 0x23, 0x7c, 0x00, 0x34, 0x7b, 0x02, 0xff, 0x51, 0x03,
  0x0b, 0xbc, 0xce, 0x00, 0x80, 0x3a, 0x7b, 0x00, 0x2e, 0x7b, 0x00, 0x90,
  0x33, 0x7b, 0x00, 0x37, 0x7b, 0x00, 0x3a, 0x7b, 0x00, 0x3f, 0x7b, 0x00,
  0x43, 0x7b, 0x06, 0x80, 0x43, 0x7b, 0x00, 0x3f, 0x7b, 0x00, 0x90, 0x4b,
  0x7a, 0x02, 0x80, 0x33, 0x7b, 0x00, 0x90, 0x3f, 0x7b, 0x00, 0x43, 0x7b,
  0x02, 0x33, 0x7b, 0x00, 0x3a, 0x7b, 0x00, 0x46, 0x7b, 0x26, 0x94, 0x33,
  0x73, 0x00, 0x98, 0x37, 0x6f, 0x00, 0x3a, 0x73, 0x2e, 0x88, 0x3a, 0x73,
  0x00, 0x99, 0x2e, 0x78, 0x02, 0x94, 0x37, 0x74, 0x00, 0x80, 0x3a, 0x7b,
  0x00, 0x98, 0x3a, 0x6c, 0x06, 0x3f, 0x6e, 0x14, 0x84, 0x33, 0x73, 0x00,
  0x89, 0x2e, 0x78, 0x02, 0x88, 0x37, 0x6f, 0x02, 0x3a, 0x6c, 0x10, 0x3f,
  0x6e, 0x02, 0x94, 0x3a, 0x73, 0x00, 0x98, 0x3f, 0x69, 0x00, 0x9b, 0x37,
  0x66, 0x00, 0x3a, 0x6c, 0x02, 0x98, 0x43, 0x71, 0x02, 0x84, 0x37, 0x74,
  0x06, 0x88, 0x3f, 0x69, 0x02, 0x80, 0x3a, 0x7b, 0x1e, 0x37, 0x7b, 0x04,
  0x88, 0x43, 0x71, 0x00, 0x8b, 0x3a, 0x6c, 0x00, 0x99, 0x28, 0x7c, 0x00,
  0x2e, 0x7a, 0x02, 0x94, 0x3f, 0x72, 0x00, 0x90, 0x3a, 0x7b, 0x00, 0x98,
  0x43, 0x70, 0x00, 0x9b, 0x3a, 0x62, 0x04, 0x84, 0x3a, 0x73, 0x00, 0x98,
  0x46, 0x72, 0x02, 0x9b, 0x3f, 0x64, 0x04, 0xe8, 0x00, 0x25, 0x04, 0x88,
  0x43, 0x70, 0x04, 0xe8, 0x00, 0x40, 0x08, 0x00, 0x40, 0x02, 0x8b, 0x37,
  0x66, 0x02, 0x3a, 0x62, 0x02, 0x80, 0x4b, 0x7a, 0x00, 0x81, 0x27, 0x7d,
  0x02, 0x80, 0x3f, 0x7b, 0x02, 0x43, 0x7b, 0x02, 0x46, 0x7b, 0x04, 0x3a,
  0x7b, 0x04, 0x33, 0x7b, 0x00, 0x8b, 0x3f, 0x64, 0x02, 0x90, 0x3f, 0x7b,
  0x00, 0x43, 0x7b, 0x00, 0x46, 0x79, 0x00, 0x4b, 0x7a, 0x00, 0x9b, 0x3f,
  0x5e, 0x02, 0x43, 0x69, 0x08, 0x8b, 0x3f, 0x5e, 0x02, 0x89, 0x23, 0x7c,
  0x0e, 0x2e, 0x7a, 0x14, 0x91, 0x27, 0x7d, 0x00, 0x8b, 0x43, 0x69, 0x00,
  0x99, 0x23, 0x79, 0x00, 0x2e, 0x77, 0x02, 0x80, 0x3f, 0x7b, 0x00, 0x90,
  0x33, 0x7a, 0x00, 0x9b, 0x43, 0x68, 0x02, 0x80, 0x43, 0x7b, 0x02, 0x9b,
  0x46, 0x6a, 0x06, 0xeb, 0x00, 0x25, 0x04, 0x8b, 0x43, 0x68, 0x04, 0xeb,
  0x00, 0x40, 0x02, 0x80, 0x4b, 0x7a, 0x06, 0xeb, 0x00, 0x40, 0x04, 0x80,
  0x46, 0x79, 0x0c, 0x89, 0x23, 0x79, 0x0a, 0x34, 0x7b, 0x24, 0x80, 0x33,
  0x7a, 0x06, 0x91, 0x26, 0x7d, 0x00, 0x99, 0x23, 0x7c, 0x00, 0x31, 0x7b,
  0x02, 0x90, 0x32, 0x7b, 0x00, 0x3a, 0x7b, 0x00, 0x3e, 0x7b, 0x00, 0x41,
  0x7b, 0x00, 0x46, 0x7b, 0x00, 0x4a, 0x7a, 0x00, 0x81, 0x27, 0x7d, 0x14,
  0x89, 0x2e, 0x77, 0x0a, 0x84, 0x3f, 0x72, 0x12, 0x94, 0x32, 0x70, 0x00,
  0x98, 0x35, 0x6f, 0x04, 0x3a, 0x72, 0x22, 0x88, 0x46, 0x72, 0x08, 0x3a,
  0x72, 0x00, 0x99, 0x2e, 0x77, 0x02, 0x94, 0x35, 0x73, 0x00, 0x98, 0x3a,
  0x6e, 0x08, 0x3e, 0x71, 0x08, 0x84, 0x32, 0x70, 0x00, 0x88, 0x35, 0x6f,
  0x04, 0x80, 0x3a, 0x7b, 0x02, 0x89, 0x28, 0x7c, 0x08, 0x88, 0x3a, 0x6e,
  0x10, 0x3e, 0x71, 0x02, 0x94, 0x3a, 0x71, 0x00, 0x98, 0x3e, 0x6e, 0x00,
  0x9b, 0x35, 0x66, 0x00, 0x89, 0x2e, 0x77, 0x04, 0x98, 0x41, 0x70, 0x00,
  0x9b, 0x3a, 0x6b, 0x08, 0x88, 0x3e, 0x6e, 0x02, 0x84, 0x35, 0x73, 0x18,
  0x8b, 0x46, 0x6a, 0x08, 0x88, 0x41, 0x70, 0x00, 0xe8, 0x00, 0x32, 0x00,
  0x8b, 0x3a, 0x6b, 0x00, 0x99, 0x28, 0x7c, 0x00, 0x2e, 0x7a, 0x02, 0x94,
  0x3e, 0x72, 0x00, 0x90, 0x3a, 0x7a, 0x00, 0x98, 0x41, 0x71, 0x00, 0x46,
  0x70, 0x00, 0x9b, 0x3a, 0x65, 0x06, 0xe8, 0x00, 0x23, 0x02, 0x84, 0x3a,
  0x71, 0x00, 0x80, 0x3e, 0x7b, 0x00, 0x9b, 0x3e, 0x69, 0x02, 0x88, 0x41,
  0x71, 0x04, 0x80, 0x4a, 0x7a, 0x00, 0xe8, 0x00, 0x35, 0x02, 0x8b, 0x35,
  0x66, 0x02, 0x80, 0x41, 0x7b, 0x04, 0xe8, 0x00, 0x40, 0x02, 0x80, 0x46,
  0x7b, 0x06, 0x8b, 0x3a, 0x65, 0x06, 0x81, 0x26, 0x7d, 0x04, 0x89, 0x23,
  0x7c, 0x06, 0x80, 0x32, 0x7b, 0x00, 0x8b, 0x3e, 0x69, 0x02, 0x90, 0x3e,
  0x7b, 0x00, 0x41, 0x7b, 0x00, 0x46, 0x7a, 0x00, 0x4a, 0x78, 0x00, 0x9b,
  0x3e, 0x65, 0x04, 0x41, 0x68, 0x08, 0x8b, 0x3e, 0x65, 0x06, 0x89, 0x2e,
  0x7a, 0x1c, 0x91, 0x26, 0x7d, 0x00, 0x8b, 0x41, 0x68, 0x00, 0xeb, 0x00,
  0x32, 0x00, 0x99, 0x23, 0x78, 0x00, 0x2e, 0x78, 0x02, 0x90, 0x32, 0x75,
  0x00, 0x9b, 0x41, 0x69, 0x00, 0x46, 0x68, 0x06, 0x80, 0x4a, 0x78, 0x00,
  0x41, 0x7b, 0x00, 0xeb, 0x00, 0x23, 0x04, 0x80, 0x46, 0x7a, 0x00, 0x8b,
  0x41, 0x69, 0x04, 0xeb, 0x00, 0x35, 0x08, 0x00, 0x40, 0x0a, 0x80, 0x3e,
  0x7b, 0x02, 0x89, 0x23, 0x78, 0x0a, 0x31, 0x7b, 0x0c, 0x80, 0x3a, 0x7a,
  0x04, 0x32, 0x75, 0x22, 0x81, 0x26, 0x7d, 0x00, 0x91, 0x24, 0x7d, 0x00,
  0x99, 0x23, 0x7c, 0x00, 0x39, 0x7b, 0x02, 0x90, 0x30, 0x7a, 0x00, 0x37,
  0x7b, 0x00, 0x3c, 0x7b, 0x00, 0x3f, 0x7b, 0x00, 0x43, 0x7b, 0x00, 0x48,
  0x7a, 0x1c, 0x84, 0x3e, 0x72, 0x0e, 0x98, 0x3c, 0x70, 0x02, 0x88, 0x46,
  0x70, 0x00, 0x89, 0x2e, 0x78, 0x04, 0x94, 0x30, 0x71, 0x00, 0x98, 0x37,
  0x6f, 0x2a, 0x89, 0x28, 0x7c, 0x02, 0x98, 0x3f, 0x6d, 0x02, 0x88, 0x3c,
  0x70, 0x00, 0x99, 0x2e, 0x77, 0x02, 0x94, 0x33, 0x71, 0x00, 0x98, 0x3c,
  0x72, 0x08, 0x84, 0x30, 0x71, 0x0a, 0x88, 0x3c, 0x72, 0x0a, 0x37, 0x6f,
  0x02, 0x89, 0x2e, 0x77, 0x02, 0x80, 0x37, 0x7b, 0x0a, 0x9b, 0x3c, 0x68,
  0x02, 0x8b, 0x46, 0x68, 0x02, 0x88, 0x3f, 0x6d, 0x02, 0x84, 0x33, 0x71,
  0x00, 0x94, 0x37, 0x72, 0x00, 0x98, 0x3f, 0x6c, 0x00, 0x43, 0x6f, 0x00,
  0x9b, 0x37, 0x66, 0x06, 0x88, 0x3f, 0x6c, 0x26, 0x9b, 0x3f, 0x63, 0x02,
  0x88, 0x43, 0x6f, 0x00, 0x98, 0x46, 0x72, 0x00, 0x8b, 0x3c, 0x68, 0x00,
  0x99, 0x28, 0x7c, 0x00, 0x2e, 0x7a, 0x02, 0x94, 0x3a, 0x71, 0x00, 0x90,
  0x37, 0x7b, 0x00, 0x98, 0x41, 0x75, 0x00, 0x9b, 0x3c, 0x6a, 0x04, 0x80,
  0x3c, 0x7b, 0x02, 0x84, 0x37, 0x72, 0x02, 0xe8, 0x0a, 0x45, 0x02, 0x80,
  0x30, 0x7a, 0x02, 0xe4, 0x14, 0x4a, 0x04, 0xe8, 0x3a, 0x5d, 0x02, 0x8b,
  0x3c, 0x6a, 0x02, 0xe4, 0x38, 0x5c, 0x04, 0xe8, 0x14, 0x4a, 0x04, 0xe4,
  0x5e, 0x6f, 0x00, 0x8b, 0x37, 0x66, 0x04, 0xe8, 0x3c, 0x5e, 0x04, 0xe4,
  0x7e, 0x7f, 0x04, 0xe8, 0x66, 0x73, 0x06, 0x8b, 0x3f, 0x63, 0x00, 0x89,
  0x23, 0x7c, 0x02, 0x90, 0x3c, 0x78, 0x00, 0xe8, 0x7e, 0x7f, 0x00, 0x9b,
  0x3f, 0x61, 0x00, 0x43, 0x66, 0x04, 0x81, 0x24, 0x7d, 0x02, 0x8b, 0x3f,
  0x61, 0x10, 0x89, 0x2e, 0x7a, 0x18, 0x91, 0x24, 0x7d, 0x00, 0x8b, 0x43,
  0x66, 0x00, 0x9b, 0x46, 0x6b, 0x00, 0x99, 0x23, 0x78, 0x00, 0x2e, 0x7a,
  0x02, 0x90, 0x30, 0x76, 0x00, 0x9b, 0x41, 0x6e, 0x08, 0xeb, 0x0a, 0x45,
  0x04, 0x80, 0x48, 0x7a, 0x04, 0xeb, 0x3a, 0x5d, 0x02, 0x80, 0x43, 0x7b,
  0x06, 0xeb, 0x14, 0x4a, 0x00, 0x89, 0x39, 0x7b, 0x02, 0x80, 0x3f, 0x7b,
  0x04, 0x89, 0x23, 0x78, 0x02, 0xeb, 0x3c, 0x5e, 0x04, 0x80, 0x3c, 0x78,
  0x04, 0xeb, 0x66, 0x73, 0x02, 0x80, 0x30, 0x76, 0x04, 0x37, 0x7b, 0x02,
  0xeb, 0x7e, 0x7f, 0x00, 0x89, 0x28, 0x7c, 0x26, 0x84, 0x3a, 0x71, 0x02,
  0x81, 0x24, 0x7d, 0x06, 0x91, 0x1f, 0x7d, 0x00, 0x99, 0x23, 0x7b, 0x00,
  0x31, 0x7a, 0x02, 0x90, 0x2b, 0x7b, 0x00, 0x37, 0x7b, 0x00, 0x3b, 0x7b,
  0x00, 0x3e, 0x7b, 0x00, 0x43, 0x7b, 0x00, 0x92, 0x2b, 0x74, 0x00, 0x37,
  0x73, 0x00, 0x43, 0x68, 0x00, 0x47, 0x67, 0x00, 0x4a, 0x65, 0x00, 0x4f,
  0x71, 0x00, 0x89, 0x2e, 0x7a, 0x1a, 0xe4, 0x48, 0x64, 0x08, 0x00, 0x40,
  0x4a, 0x88, 0x46, 0x72, 0x16, 0x89, 0x23, 0x7b, 0x0e, 0x88, 0x41, 0x75,
  0x14, 0x89, 0x31, 0x7a, 0x08, 0x80, 0x3b, 0x7b, 0x02, 0x82, 0x47, 0x67,
  0x06, 0x80, 0x37, 0x7b, 0x00, 0x81, 0x1f, 0x7d, 0x02, 0x80, 0x43, 0x7b,
  0x06, 0x2b, 0x7b, 0x02, 0x91, 0x24, 0x7d, 0x00, 0x99, 0x23, 0x7c, 0x00,
  0x34, 0x7b, 0x02, 0x90, 0x30, 0x7b, 0x00, 0x37, 0x7b, 0x00, 0x3c, 0x7b,
  0x00, 0x3f, 0x7b, 0x00, 0x43, 0x7b, 0x00, 0x82, 0x2b, 0x74, 0x00, 0x92,
  0x30, 0x75, 0x00, 0x48, 0x74, 0x00, 0x4b, 0x65, 0x02, 0x82, 0x4a, 0x65,
  0x02, 0xe8, 0x72, 0x79, 0x02, 0x82, 0x37, 0x73, 0x06, 0x80, 0x3e, 0x7b,
  0x00, 0xe8, 0x46, 0x63, 0x00, 0x8b, 0x46, 0x6b, 0x08, 0xe8, 0x20, 0x50,
  0x08, 0x00, 0x40, 0x14, 0x8b, 0x41, 0x6e, 0x1a, 0x80, 0x43, 0x7b, 0x04,
  0x82, 0x30, 0x75, 0x02, 0x4f, 0x71, 0x00, 0x89, 0x23, 0x7c, 0x04, 0x80,
  0x37, 0x7b, 0x02, 0x30, 0x7b, 0x00, 0x82, 0x43, 0x68, 0x02, 0x80, 0x3f,
  0x7b, 0x00, 0x3c, 0x7b, 0x00, 0x82, 0x4b, 0x65, 0x02, 0x48, 0x74, 0x0a,
  0xeb, 0x72, 0x79, 0x04, 0x81, 0x24, 0x7d, 0x04, 0xeb, 0x46, 0x63, 0x02,
  0x89, 0x34, 0x7b, 0x04, 0xe8, 0x78, 0x7c, 0x02, 0xeb, 0x20, 0x50, 0x06,
  0xe8, 0x62, 0x71, 0x02, 0xeb, 0x00, 0x40, 0x06, 0xe8, 0x3c, 0x5e, 0x08,
  0x18, 0x4c, 0x08, 0x00, 0x40, 0x2c, 0x91, 0x23, 0x7d, 0x00, 0x99, 0x23,
  0x7c, 0x00, 0x37, 0x7f, 0x02, 0x90, 0x2b, 0x7b, 0x00, 0x37, 0x7b, 0x00,
  0x3b, 0x7b, 0x00, 0x3e, 0x7b, 0x00, 0x43, 0x7a, 0x00, 0x92, 0x2b, 0x74,
  0x00, 0x37, 0x76, 0x00, 0x43, 0x6f, 0x00, 0x47, 0x6f, 0x00, 0x4a, 0x70,
  0x00, 0x4f, 0x73, 0x12, 0xeb, 0x78, 0x7c, 0x08, 0x62, 0x71, 0x08, 0x3c,
  0x5e, 0x08, 0x18, 0x4c, 0x08, 0x00, 0x40, 0x58, 0x89, 0x23, 0x7c, 0x0c,
  0x80, 0x3b, 0x7b, 0x08, 0x82, 0x47, 0x6f, 0x08, 0x89, 0x37, 0x7f, 0x10,
  0x82, 0x2b, 0x74, 0x02, 0x80, 0x37, 0x7b, 0x02, 0x43, 0x7a, 0x00, 0x81,
  0x23, 0x7d, 0x02, 0x82, 0x4a, 0x70, 0x02, 0x91, 0x24, 0x7d, 0x00, 0x82,
  0x37, 0x76, 0x00, 0x99, 0x23, 0x7c, 0x00, 0x39, 0x7b, 0x02, 0x90, 0x30,
  0x7b, 0x00, 0x37, 0x7b, 0x00, 0x3c, 0x7b, 0x00, 0x3f, 0x7b, 0x00, 0x43,
  0x7b, 0x00, 0x92, 0x30, 0x77, 0x00, 0x48, 0x73, 0x00, 0x4b, 0x72, 0x06,
  0x80, 0x3e, 0x7b, 0x02, 0x2b, 0x7b, 0x36, 0x82, 0x4f, 0x73, 0x00, 0x89,
  0x39, 0x7b, 0x0a, 0x80, 0x30, 0x7b, 0x02, 0x89, 0x23, 0x7c, 0x02, 0x82,
  0x30, 0x77, 0x02, 0x80, 0x37, 0x7b, 0x06, 0x3c, 0x7b, 0x0a, 0x3f, 0x7b,
  0x06, 0x82, 0x43, 0x6f, 0x02, 0x80, 0x43, 0x7b, 0x02, 0x82, 0x48, 0x73,
  0x12, 0x4b, 0x72, 0x42, 0x81, 0x24, 0x7d, 0x02, 0x91, 0x22, 0x7d, 0x00,
  0x99, 0x23, 0x7c, 0x00, 0x34, 0x7b, 0x02, 0x94, 0x3e, 0x7a, 0x00, 0x90,
  0x2e, 0x78, 0x00, 0x35, 0x7b, 0x00, 0x38, 0x7b, 0x00, 0x3a, 0x7b, 0x00,
  0x3e, 0x7b, 0x00, 0x41, 0x7b, 0x00, 0x92, 0x2e, 0x6e, 0x00, 0x3a, 0x76,
  0x00, 0x41, 0x76, 0x00, 0x46, 0x73, 0x00, 0x4a, 0x74, 0x00, 0x4d, 0x77,
  0x6c, 0x82, 0x2e, 0x6e, 0x04, 0x89, 0x23, 0x7c, 0x10, 0x82, 0x3a, 0x76,
  0x08, 0x89, 0x34, 0x7b, 0x0e, 0x80, 0x3a, 0x7b, 0x0e, 0x82, 0x41, 0x76,
  0x06, 0x80, 0x38, 0x7b, 0x04, 0x81, 0x22, 0x7d, 0x06, 0x80, 0x41, 0x7b,
  0x04, 0x3e, 0x7b, 0x02, 0x84, 0x3e, 0x7a, 0x00, 0x80, 0x35, 0x7b, 0x04,
  0x2e, 0x78, 0x00, 0x91, 0x27, 0x7d, 0x00, 0x99, 0x23, 0x7b, 0x00, 0x31,
  0x7b, 0x02, 0x94, 0x3f, 0x73, 0x00, 0x90, 0x33, 0x7b, 0x00, 0x37, 0x7b,
  0x00, 0x3a, 0x7b, 0x00, 0x3f, 0x7a, 0x00, 0x43, 0x7b, 0x00, 0x82, 0x4a,
  0x74, 0x00, 0x92, 0x33, 0x74, 0x00, 0x3a, 0x73, 0x00, 0x3f, 0x75, 0x00,
  0x43, 0x72, 0x00, 0x4b, 0x70, 0x0c, 0x82, 0x4d, 0x77, 0x4e, 0x84, 0x3f,
  0x73, 0x06, 0x94, 0x43, 0x73, 0x00, 0x92, 0x4f, 0x70, 0x0c, 0x89, 0x31,
  0x7b, 0x0a, 0x23, 0x7b, 0x18, 0x82, 0x3a, 0x73, 0x04, 0x43, 0x72, 0x0c,
  0x46, 0x73, 0x10, 0x80, 0x3a, 0x7b, 0x06, 0x43, 0x7b, 0x06, 0x82, 0x3f,
  0x75, 0x02, 0x80, 0x3f, 0x7a, 0x00, 0x37, 0x7b, 0x00, 0x33, 0x7b, 0x00,
  0x81, 0x27, 0x7d, 0x02, 0x91, 0x26, 0x7d, 0x00, 0x99, 0x23, 0x7c, 0x00,
  0x39, 0x7b, 0x02, 0x84, 0x43, 0x73, 0x00, 0x94, 0x42, 0x7b, 0x00, 0x90,
  0x32, 0x7a, 0x00, 0x3c, 0x7b, 0x00, 0x3e, 0x7b, 0x00, 0x42, 0x7a, 0x00,
  0x92, 0x3e, 0x72, 0x00, 0x48, 0x72, 0x00, 0x4a, 0x72, 0x00, 0x4e, 0x6e,
  0x02, 0x82, 0x4b, 0x70, 0x02, 0x33, 0x74, 0x0e, 0x4f, 0x70, 0x81, 0x2c,
  0x91, 0x22, 0x7d, 0x00, 0x99, 0x28, 0x7c, 0x00, 0x2e, 0x7a, 0x02, 0x94,
  0x43, 0x7b, 0x00, 0x90, 0x43, 0x7a, 0x00, 0x92, 0x4f, 0x6f, 0x08, 0x82,
  0x4e, 0x6e, 0x02, 0x84, 0x42, 0x7b, 0x08, 0x81, 0x26, 0x7d, 0x04, 0x80,
  0x42, 0x7a, 0x02, 0x89, 0x23, 0x7c, 0x24, 0x2e, 0x7a, 0x0e, 0x80, 0x43,
  0x7a, 0x14, 0x91, 0x21, 0x7d, 0x00, 0x99, 0x23, 0x7b, 0x00, 0x2e, 0x70,
  0x02, 0x94, 0x45, 0x7a, 0x00, 0x90, 0x45, 0x7b, 0x00, 0x92, 0x51, 0x70,
  0x04, 0x84, 0x43, 0x7b, 0x00, 0x81, 0x22, 0x7d, 0x06, 0x82, 0x48, 0x72,
  0x16, 0x89, 0x2e, 0x70, 0x0a, 0x23, 0x7b, 0x06, 0x82, 0x51, 0x70, 0x06,
  0x80, 0x3c, 0x7b, 0x0a, 0x45, 0x7b, 0x1e, 0x91, 0x1f, 0x7d, 0x00, 0x99,
  0x23, 0x7c, 0x00, 0x2e, 0x7a, 0x02, 0x94, 0x46, 0x7a, 0x00, 0x90, 0x2b,
  0x7a, 0x00, 0x3a, 0x7a, 0x00, 0x43, 0x79, 0x00, 0x46, 0x79, 0x00, 0x92,
  0x52, 0x74, 0x02, 0x81, 0x21, 0x7d, 0x0a, 0x84, 0x45, 0x7a, 0x06, 0x80,
  0x32, 0x7a, 0x20, 0x89, 0x2e, 0x7a, 0x2c, 0x91, 0x26, 0x7a, 0x00, 0x99,
  0x2e, 0x70, 0x02, 0x90, 0x32, 0x7a, 0x0c, 0x81, 0x1f, 0x7d, 0x0c, 0x89,
  0x2e, 0x70, 0x0e, 0x28, 0x7c, 0x38, 0x91, 0x2b, 0x7d, 0x00, 0x99, 0x28,
  0x7b, 0x00, 0x2e, 0x7a, 0x02, 0x90, 0x37, 0x7b, 0x06, 0x81, 0x26, 0x7a,
  0x04, 0x89, 0x23, 0x7c, 0x0c, 0x80, 0x3a, 0x7a, 0x18, 0x99, 0x2b, 0x7a,
  0x06, 0x89, 0x2e, 0x7a, 0x02, 0x28, 0x7b, 0x20, 0x81, 0x2b, 0x7d, 0x08,
  0x91, 0x1f, 0x7d, 0x00, 0x99, 0x23, 0x7c, 0x00, 0x2d, 0x7a, 0x02, 0x90,
  0x3a, 0x6e, 0x02, 0x89, 0x2b, 0x7a, 0x0a, 0x80, 0x2b, 0x7a, 0x0e, 0x89,
  0x39, 0x7b, 0x0c, 0x23, 0x7c, 0x2e, 0x2d, 0x7a, 0x02, 0x80, 0x3a, 0x6e,
  0x04, 0x81, 0x1f, 0x7d, 0x04, 0x91, 0x20, 0x7d, 0x00, 0x99, 0x23, 0x7c,
  0x00, 0x31, 0x7b, 0x02, 0x94, 0x3c, 0x7a, 0x00, 0x80, 0x32, 0x7a, 0x00,
  0x90, 0x2c, 0x7b, 0x00, 0x82, 0x52, 0x74, 0x00, 0x4f, 0x6f, 0x00, 0x4a,
  0x72, 0x00, 0x3e, 0x72, 0x00, 0x92, 0x3c, 0x70, 0x00, 0x3f, 0x70, 0x00,
  0x44, 0x70, 0x00, 0x48, 0x70, 0x02, 0x84, 0x46, 0x7a, 0x00, 0x80, 0x43,
  0x79, 0x02, 0x37, 0x7b, 0x02, 0x3e, 0x7b, 0x02, 0x46, 0x79, 0x56, 0x99,
  0x2e, 0x6f, 0x02, 0x90, 0x33, 0x79, 0x2e, 0x89, 0x2e, 0x6f, 0x30, 0x99,
  0x28, 0x7a, 0x00, 0x2e, 0x7a, 0x02, 0x90, 0x38, 0x7b, 0x00, 0x3c, 0x7b,
  0x00, 0x3f, 0x7b, 0x00, 0x44, 0x78, 0x00, 0x82, 0x48, 0x71, 0x00, 0x92,
  0x48, 0x71, 0x14, 0x89, 0x23, 0x7c, 0x1c, 0x2e, 0x7a, 0x1e, 0x81, 0x20,
  0x7d, 0x04, 0x84, 0x3c, 0x7a, 0x0c, 0x91, 0x20, 0x7d, 0x00, 0x99, 0x23,
  0x7b, 0x00, 0x2e, 0x72, 0x02, 0x94, 0x3c, 0x75, 0x00, 0x92, 0x4a, 0x6e,
  0x10, 0x82, 0x3f, 0x70, 0x04, 0x89, 0x2e, 0x72, 0x0e, 0x82, 0x3c, 0x70,
  0x08, 0x89, 0x23, 0x7b, 0x06, 0x94, 0x3e, 0x72, 0x08, 0x84, 0x3c, 0x75,
  0x00, 0x80, 0x3c, 0x7b, 0x12, 0x33, 0x79, 0x08, 0x81, 0x20, 0x7d, 0x08,
  0x80, 0x3f, 0x7b, 0x02, 0x82, 0x4a, 0x6e, 0x02, 0x91, 0x27, 0x7d, 0x00,
  0x99, 0x23, 0x7b, 0x00, 0x2e, 0x7a, 0x02, 0x94, 0x3a, 0x74, 0x00, 0x90,
  0x33, 0x7a, 0x00, 0x3a, 0x75, 0x00, 0x3f, 0x73, 0x00, 0x43, 0x77, 0x00,
  0x82, 0x48, 0x70, 0x00, 0x92, 0x3f, 0x72, 0x00, 0x43, 0x72, 0x00, 0x46,
  0x72, 0x02, 0x80, 0x38, 0x7b, 0x04, 0x82, 0x44, 0x70, 0x06, 0x84, 0x3e,
  0x72, 0x02, 0x80, 0x44, 0x78, 0x00, 0x2c, 0x7b, 0x0c, 0x89, 0x2e, 0x7a,
  0x40, 0x80, 0x33, 0x7a, 0x04, 0x99, 0x2e, 0x6f, 0x02, 0x90, 0x33, 0x6d,
  0x1c, 0x89, 0x28, 0x7a, 0x12, 0x2e, 0x6f, 0x2c, 0x80, 0x43, 0x77, 0x02,
  0x3a, 0x75, 0x02, 0x99, 0x28, 0x7c, 0x00, 0x2e, 0x7b, 0x02, 0x90, 0x3a,
  0x73, 0x20, 0x89, 0x2e, 0x7b, 0x18, 0x23, 0x7b, 0x0e, 0x80, 0x3a, 0x73,
  0x0e, 0x3f, 0x73, 0x08, 0x33, 0x6d, 0x02, 0x99, 0x23, 0x7b, 0x00, 0x2e,
  0x78, 0x12, 0x89, 0x28, 0x7c, 0x08, 0x2e, 0x78, 0x06, 0x31, 0x7b, 0x02,
  0x84, 0x3a, 0x74, 0x10, 0x81, 0x27, 0x7d, 0x26, 0x89, 0x23, 0x7b, 0x08,
  0x91, 0x24, 0x7b, 0x00, 0x99, 0x23, 0x7b, 0x00, 0x31, 0x7a, 0x02, 0x95,
  0x50, 0x79, 0x00, 0x90, 0x30, 0x7a, 0x00, 0x43, 0x7b, 0x00, 0x48, 0x7a,
  0x00, 0x82, 0x46, 0x72, 0x00, 0x43, 0x72, 0x00, 0x3f, 0x72, 0x58, 0x85,
  0x50, 0x79, 0x08, 0x95, 0x4f, 0x7a, 0x00, 0x90, 0x37, 0x75, 0x00, 0x3f,
  0x78, 0x0a, 0x80, 0x48, 0x7a, 0x10, 0x43, 0x7b, 0x38, 0x89, 0x31, 0x7a,
  0x0c, 0x99, 0x28, 0x7b, 0x00, 0x2a, 0x7a, 0x02, 0x95, 0x4b, 0x78, 0x00,
  0x90, 0x3c, 0x7b, 0x00, 0x43, 0x7b, 0x00, 0x48, 0x7a, 0x02, 0x80, 0x37,
  0x75, 0x08, 0x85, 0x4f, 0x7a, 0x02, 0x80, 0x3f, 0x78, 0x16, 0x89, 0x23,
  0x7b, 0x14, 0x81, 0x24, 0x7b, 0x12, 0x89, 0x2a, 0x7a, 0x16, 0x85, 0x4b,
  0x78, 0x00, 0x80, 0x3c, 0x7b, 0x00, 0x91, 0x24, 0x77, 0x00, 0x99, 0x23,
  0x76, 0x00, 0x2a, 0x75, 0x02, 0x95, 0x43, 0x79, 0x00, 0x90, 0x37, 0x7a,
  0x00, 0x3f, 0x79, 0x02, 0x80, 0x30, 0x7a, 0x06, 0x43, 0x7b, 0x1e, 0x89,
  0x2a, 0x75, 0x08, 0x23, 0x76, 0x02, 0x95, 0x46, 0x77, 0x0c, 0x85, 0x43,
  0x79, 0x1c, 0x81, 0x24, 0x77, 0x02, 0x80, 0x37, 0x7a, 0x02, 0x3f, 0x79,
  0x02, 0x91, 0x1f, 0x7b, 0x00, 0x99, 0x23, 0x7a, 0x00, 0x2a, 0x79, 0x02,
  0x90, 0x2b, 0x79, 0x00, 0x43, 0x79, 0x00, 0x46, 0x7a, 0x0c, 0x80, 0x48,
  0x7a, 0x28, 0x89, 0x2a, 0x79, 0x2a, 0x99, 0x2a, 0x6f, 0x02, 0x90, 0x32,
  0x72, 0x00, 0x3e, 0x74, 0x12, 0x80, 0x43, 0x79, 0x06, 0x89, 0x28, 0x7b,
  0x04, 0x2a, 0x6f, 0x18, 0x80, 0x46, 0x7a, 0x2a, 0x99, 0x28, 0x7c, 0x00,
  0x2a, 0x7b, 0x02, 0x90, 0x37, 0x7a, 0x00, 0x43, 0x7b, 0x00, 0x46, 0x7a,
  0x0c, 0x80, 0x32, 0x72, 0x32, 0x89, 0x2a, 0x7b, 0x10, 0x80, 0x3e, 0x74,
  0x10, 0x91, 0x22, 0x78, 0x00, 0x99, 0x2a, 0x71, 0x02, 0x90, 0x32, 0x72,
  0x00, 0x3e, 0x7a, 0x04, 0x80, 0x2b, 0x79, 0x00, 0x81, 0x1f, 0x7b, 0x16,
  0x89, 0x23, 0x7a, 0x0a, 0x2a, 0x71, 0x02, 0x80, 0x32, 0x72, 0x18, 0x3e,
  0x7a, 0x14, 0x85, 0x46, 0x77, 0x08, 0x80, 0x37, 0x7a, 0x04, 0x91, 0x24,
  0x7d, 0x00, 0x99, 0x23, 0x7b, 0x00, 0x2a, 0x7a, 0x02, 0x95, 0x4f, 0x79,
  0x00, 0x90, 0x30, 0x79, 0x00, 0x3f, 0x7b, 0x00, 0x48, 0x7a, 0x02, 0x81,
  0x22, 0x78, 0x04, 0x80, 0x46, 0x7a, 0x2e, 0x89, 0x2a, 0x7a, 0x2a, 0x99,
  0x2a, 0x72, 0x02, 0x95, 0x4d, 0x78, 0x00, 0x90, 0x37, 0x77, 0x0a, 0x85,
  0x4f, 0x79, 0x02, 0x89, 0x28, 0x7c, 0x16, 0x80, 0x48, 0x7a, 0x00, 0x89,
  0x2a, 0x72, 0x12, 0x80, 0x43, 0x7b, 0x2a, 0x99, 0x28, 0x7c, 0x00, 0x2a,
  0x7a, 0x02, 0x95, 0x4b, 0x77, 0x00, 0x90, 0x3c, 0x7b, 0x00, 0x43, 0x7b,
  0x00, 0x48, 0x7a, 0x06, 0x80, 0x37, 0x77, 0x00, 0x3f, 0x7b, 0x04, 0x85,
  0x4d, 0x78, 0x18, 0x89, 0x23, 0x7b, 0x1a, 0x2a, 0x7a, 0x16, 0x81, 0x24,
  0x7d, 0x0c, 0x80, 0x3c, 0x7b, 0x00, 0x91, 0x24, 0x7b, 0x00, 0x99, 0x23,
  0x7b, 0x00, 0x2a, 0x75, 0x02, 0x95, 0x4a, 0x77, 0x00, 0x90, 0x37, 0x79,
  0x00, 0x3f, 0x79, 0x04, 0x80, 0x30, 0x79, 0x0a, 0x43, 0x7b, 0x02, 0x85,
  0x4b, 0x77, 0x10, 0x89, 0x2a, 0x75, 0x02, 0x80, 0x37, 0x79, 0x0c, 0x89,
  0x23, 0x7b, 0x02, 0x95, 0x46, 0x78, 0x0a, 0x85, 0x4a, 0x77, 0x16, 0x80,
  0x3f, 0x79, 0x02, 0x81, 0x24, 0x7b, 0x0c, 0x91, 0x1f, 0x7d, 0x00, 0x99,
  0x23, 0x7b, 0x00, 0x2a, 0x7a, 0x02, 0x90, 0x2b, 0x7b, 0x00, 0x3e, 0x76,
  0x00, 0x43, 0x7a, 0x00, 0x46, 0x7a, 0x12, 0x80, 0x48, 0x7a, 0x3e, 0x89,
  0x2a, 0x7a, 0x0e, 0x99, 0x2e, 0x79, 0x14, 0x89, 0x28, 0x7c, 0x4c, 0x99,
  0x28, 0x7c, 0x00, 0x2a, 0x7a, 0x02, 0x89, 0x2e, 0x79, 0x2a, 0x23, 0x7b,
  0x28, 0x2a, 0x7a, 0x08, 0x80, 0x2b, 0x7b, 0x04, 0x91, 0x22, 0x75, 0x00,
  0x99, 0x23, 0x7b, 0x00, 0x2e, 0x7a, 0x12, 0x81, 0x1f, 0x7d, 0x18, 0x80,
  0x3e, 0x76, 0x00, 0x89, 0x23, 0x7b, 0x1e, 0x80, 0x43, 0x7a, 0x16, 0x85,
  0x46, 0x78, 0x02, 0x91, 0x24, 0x7d, 0x00, 0x89, 0x2e, 0x7a, 0x00, 0x99,
  0x23, 0x7c, 0x00, 0x31, 0x7a, 0x02, 0x95, 0x4f, 0x78, 0x00, 0x90, 0x30,
  0x79, 0x00, 0x3f, 0x7b, 0x00, 0x43, 0x78, 0x00, 0x48, 0x7b, 0x02, 0x81,
  0x22, 0x75, 0x08, 0x80, 0x46, 0x7a, 0x52, 0x85, 0x4f, 0x78, 0x04, 0x95,
  0x4b, 0x76, 0x36, 0x80, 0x43, 0x78, 0x2a, 0x95, 0x4d, 0x77, 0x00, 0x90,
  0x43, 0x12, 0x02, 0x85, 0x4b, 0x76, 0x2a, 0x80, 0x48, 0x7b, 0x1a, 0x89,
  0x31, 0x7a, 0x1a, 0x95, 0x4f, 0x77, 0x00, 0x90, 0x48, 0x12, 0x0c, 0x89,
  0x23, 0x7c, 0x04, 0x85, 0x4d, 0x77, 0x10, 0x80, 0x48, 0x12, 0x10, 0x95,
  0x4b, 0x76, 0x06, 0x85, 0x4f, 0x77, 0x0c, 0x80, 0x3f, 0x7b, 0x08, 0x43,
  0x12, 0x06, 0x81, 0x24, 0x7d, 0x0e, 0x91, 0x20, 0x7b, 0x00, 0x99, 0x23,
  0x7c, 0x00, 0x39, 0x7b, 0x02, 0x90, 0x2c, 0x7a, 0x00, 0x38, 0x78, 0x00,
  0x3b, 0x7b, 0x00, 0x3f, 0x7a, 0x00, 0x44, 0x7a, 0x18, 0x80, 0x30, 0x79,
  0x18, 0x85, 0x4b, 0x76, 0x00, 0x95, 0x47, 0x75, 0x82, 0x4e, 0x99, 0x33,
  0x78, 0x34, 0x89, 0x33, 0x78, 0x2c, 0x99, 0x33, 0x77, 0x70, 0x89, 0x33,
  0x77, 0x20, 0x99, 0x33, 0x78, 0x36, 0x80, 0x3b, 0x7b, 0x18, 0x89, 0x39,
  0x7b, 0x06, 0x23, 0x7c, 0x10, 0x80, 0x3f, 0x7a, 0x06, 0x44, 0x7a, 0x10,
  0x85, 0x47, 0x75, 0x14, 0x80, 0x38, 0x78, 0x02, 0x91, 0x22, 0x7d, 0x00,
  0x99, 0x23, 0x7c, 0x00, 0x31, 0x7b, 0x02, 0x95, 0x4e, 0x75, 0x00, 0x4f,
  0x79, 0x00, 0x90, 0x2e, 0x7b, 0x00, 0x3c, 0x7b, 0x00, 0x3f, 0x7a, 0x00,
  0x44, 0x7b, 0x00, 0x92, 0x4f, 0x68, 0x00, 0x96, 0x42, 0x73, 0x00, 0x43,
  0x78, 0x0e, 0x80, 0x2c, 0x7a, 0x02, 0x81, 0x20, 0x7b, 0x0a, 0x85, 0x4e,
  0x75, 0x00, 0x86, 0x42, 0x73, 0x46, 0x85, 0x4f, 0x79, 0x00, 0x95, 0x4d,
  0x78, 0x00, 0x92, 0x4d, 0x6e, 0x00, 0x86, 0x43, 0x78, 0x00, 0x96, 0x41,
  0x77, 0x0c, 0x82, 0x4f, 0x68, 0x40, 0x80, 0x44, 0x7b, 0x06, 0x82, 0x4d,
  0x6e, 0x04, 0x85, 0x4d, 0x78, 0x00, 0x86, 0x41, 0x77, 0x04, 0x80, 0x3f,
  0x7a, 0x06, 0x95, 0x4d, 0x79, 0x00, 0x90, 0x3f, 0x75, 0x00, 0x44, 0x78,
  0x00, 0x92, 0x4d, 0x74, 0x00, 0x96, 0x41, 0x78, 0x26, 0x80, 0x3c, 0x7b,
  0x3a, 0x95, 0x4b, 0x76, 0x00, 0x90, 0x3a, 0x76, 0x00, 0x92, 0x4b, 0x70,
  0x00, 0x96, 0x3f, 0x75, 0x04, 0x80, 0x3f, 0x75, 0x0c, 0x85, 0x4d, 0x79,
  0x00, 0x82, 0x4d, 0x74, 0x00, 0x86, 0x41, 0x78, 0x0a, 0x80, 0x44, 0x78,
  0x38, 0x85, 0x4b, 0x76, 0x00, 0x86, 0x3f, 0x75, 0x0c, 0x82, 0x4b, 0x70,
  0x02, 0x95, 0x4b, 0x77, 0x00, 0x90, 0x3c, 0x77, 0x00, 0x3f, 0x76, 0x00,
  0x44, 0x76, 0x00, 0x92, 0x4b, 0x6f, 0x00, 0x96, 0x3f, 0x76, 0x12, 0x80,
  0x3a, 0x76, 0x4e, 0x85, 0x4b, 0x77, 0x00, 0x95, 0x48, 0x76, 0x00, 0x92,
  0x48, 0x72, 0x00, 0x86, 0x3f, 0x76, 0x00, 0x96, 0x3c, 0x74, 0x04, 0x82,
  0x4b, 0x6f, 0x2c, 0x90, 0x3a, 0x12, 0x81, 0x10, 0x95, 0x4a, 0x78, 0x00,
  0x92, 0x4a, 0x70, 0x00, 0x96, 0x3e, 0x77, 0x04, 0x82, 0x48, 0x72, 0x0a,
  0x85, 0x48, 0x76, 0x00, 0x86, 0x3c, 0x74, 0x04, 0x80, 0x3a, 0x12, 0x02,
  0x44, 0x76, 0x18, 0x3f, 0x76, 0x10, 0x89, 0x23, 0x7c, 0x08, 0x80, 0x3c,
  0x77, 0x12, 0x89, 0x31, 0x7b, 0x04, 0x80, 0x2e, 0x7b, 0x04, 0x85, 0x4a,
  0x78, 0x00, 0x81, 0x22, 0x7d, 0x00, 0x91, 0x27, 0x7c, 0x00, 0x82, 0x4a,
  0x70, 0x00, 0x86, 0x3e, 0x77, 0x00, 0x99, 0x23, 0x7a, 0x00, 0x34, 0x77,
  0x02, 0x95, 0x4b, 0x78, 0x00, 0x90, 0x27, 0x75, 0x00, 0x3a, 0x77, 0x00,
  0x3f, 0x79, 0x00, 0x43, 0x7a, 0x00, 0x92, 0x3f, 0x60, 0x00, 0x43, 0x41,
  0x00, 0x4b, 0x67, 0x00, 0x96, 0x3f, 0x77, 0x20, 0x89, 0x33, 0x78, 0x40,
  0x80, 0x3a, 0x77, 0x00, 0x90, 0x2e, 0x77, 0x38, 0x80, 0x3f, 0x79, 0x08,
  0x43, 0x7a, 0x1e, 0x99, 0x33, 0x77, 0x02, 0x90, 0x33, 0x7a, 0x00, 0x43,
  0x7b, 0x06, 0x80, 0x2e, 0x77, 0x02, 0x27, 0x75, 0x46, 0x89, 0x23, 0x7a,
  0x10, 0x33, 0x77, 0x00, 0x99, 0x23, 0x79, 0x02, 0x90, 0x46, 0x7a, 0x04,
  0x80, 0x43, 0x7b, 0x2a, 0x82, 0x43, 0x41, 0x0c, 0x80, 0x33, 0x7a, 0x0a,
  0x89, 0x23, 0x79, 0x16, 0x82, 0x4b, 0x67, 0x04, 0x99, 0x23, 0x7b, 0x00,
  0x33, 0x77, 0x02, 0x90, 0x38, 0x7a, 0x00, 0x3f, 0x75, 0x00, 0x44, 0x7a,
  0x00, 0x48, 0x78, 0x00, 0x92, 0x44, 0x6f, 0x00, 0x48, 0x6f, 0x0c, 0x80,
  0x46, 0x7a, 0x52, 0x89, 0x33, 0x77, 0x02, 0x90, 0x46, 0x7b, 0x00, 0x4a,
  0x76, 0x00, 0x92, 0x4a, 0x6e, 0x0e, 0x80, 0x48, 0x78, 0x06, 0x82, 0x48,
  0x6f, 0x04, 0x80, 0x44, 0x7a, 0x46, 0x99, 0x33, 0x77, 0x02, 0x90, 0x44,
  0x78, 0x00, 0x48, 0x79, 0x00, 0x92, 0x48, 0x6e, 0x02, 0x80, 0x4a, 0x76,
  0x0c, 0x46, 0x7b, 0x24, 0x82, 0x4a, 0x6e, 0x2c, 0x89, 0x33, 0x77, 0x02,
  0x90, 0x4a, 0x76, 0x00, 0x92, 0x4a, 0x59, 0x06, 0x82, 0x48, 0x6e, 0x3a,
  0x80, 0x44, 0x78, 0x08, 0x89, 0x23, 0x7b, 0x08, 0x82, 0x44, 0x6f, 0x0e,
  0x80, 0x48, 0x79, 0x00, 0x82, 0x4a, 0x59, 0x00, 0x99, 0x23, 0x7a, 0x00,
  0x33, 0x77, 0x02, 0x90, 0x37, 0x75, 0x00, 0x43, 0x7a, 0x00, 0x46, 0x79,
  0x00, 0x92, 0x43, 0x60, 0x00, 0x46, 0x65, 0x08, 0x80, 0x4a, 0x76, 0x0e,
  0x3f, 0x75, 0x0a, 0x38, 0x7a, 0x3e, 0x89, 0x33, 0x77, 0x02, 0x90, 0x3f,
  0x79, 0x1c, 0x80, 0x43, 0x7a, 0x06, 0x46, 0x79, 0x3c, 0x99, 0x33, 0x77,
  0x02, 0x90, 0x43, 0x79, 0x58, 0x89, 0x23, 0x7a, 0x04, 0x80, 0x43, 0x79,
  0x02, 0x99, 0x23, 0x75, 0x02, 0x90, 0x46, 0x78, 0x0e, 0x89, 0x33, 0x77,
  0x2e, 0x80, 0x3f, 0x79, 0x08, 0x89, 0x23, 0x75, 0x1a, 0x99, 0x23, 0x7a,
  0x00, 0x33, 0x78, 0x02, 0x80, 0x46, 0x78, 0x00, 0x37, 0x75, 0x00, 0x90,
  0x36, 0x79, 0x00, 0x42, 0x7a, 0x00, 0x45, 0x7a, 0x00, 0x48, 0x77, 0x00,
  0x82, 0x46, 0x65, 0x00, 0x92, 0x42, 0x6e, 0x00, 0x48, 0x67, 0x0c, 0x82,
  0x43, 0x60, 0x06, 0x85, 0x4b, 0x78, 0x00, 0x86, 0x3f, 0x77, 0x4e, 0x90,
  0x4a, 0x75, 0x00, 0x92, 0x4a, 0x70, 0x0e, 0x80, 0x48, 0x77, 0x08, 0x82,
  0x48, 0x67, 0x02, 0x89, 0x33, 0x78, 0x40, 0x82, 0x4a, 0x70, 0x06, 0x80,
  0x4a, 0x75, 0x00, 0x99, 0x33, 0x77, 0x02, 0x90, 0x48, 0x75, 0x00, 0x92,
  0x48, 0x6c, 0x06, 0x81, 0x27, 0x7c, 0x5a, 0x90, 0x4a, 0x76, 0x00, 0x92,
  0x4a, 0x64, 0x0a, 0x80, 0x45, 0x7a, 0x02, 0x48, 0x75, 0x08, 0x42, 0x7a,
  0x0e, 0x82, 0x48, 0x6c, 0x12, 0x89, 0x33, 0x77, 0x0a, 0x23, 0x7a, 0x20,
  0x82, 0x3f, 0x60, 0x00, 0x99, 0x23, 0x79, 0x00, 0x33, 0x77, 0x02, 0x90,
  0x35, 0x78, 0x00, 0x41, 0x79, 0x00, 0x46, 0x7a, 0x00, 0x92, 0x3e, 0x71,
  0x00, 0x41, 0x47, 0x00, 0x46, 0x6a, 0x04, 0x80, 0x4a, 0x76, 0x06, 0x82,
  0x3e, 0x71, 0x04, 0x80, 0x36, 0x79, 0x08, 0x82, 0x42, 0x6e, 0x4a, 0x90,
  0x3e, 0x7a, 0x0a, 0x80, 0x41, 0x79, 0x18, 0x89, 0x33, 0x77, 0x3c, 0x99,
  0x33, 0x77, 0x02, 0x90, 0x41, 0x74, 0x16, 0x80, 0x46, 0x7a, 0x3a, 0x3e,
  0x7a, 0x10, 0x90, 0x46, 0x78, 0x1a, 0x89, 0x33, 0x77, 0x20, 0x80, 0x41,
  0x74, 0x0c, 0x46, 0x78, 0x08, 0x82, 0x46, 0x6a, 0x06, 0x89, 0x23, 0x79,
  0x0a, 0x99, 0x23, 0x78, 0x00, 0x33, 0x78, 0x02, 0x90, 0x3d, 0x79, 0x00,
  0x41, 0x7a, 0x00, 0x46, 0x7b, 0x00, 0x92, 0x3d, 0x74, 0x00, 0x46, 0x6e,
  0x0a, 0x82, 0x4a, 0x64, 0x56, 0x90, 0x44, 0x76, 0x00, 0x92, 0x44, 0x70,
  0x0e, 0x82, 0x46, 0x6e, 0x08, 0x80, 0x46, 0x7b, 0x06, 0x89, 0x33, 0x78,
  0x28, 0x80, 0x44, 0x76, 0x14, 0x82, 0x44, 0x70, 0x06, 0x99, 0x33, 0x76,
  0x02, 0x90, 0x44, 0x79, 0x00, 0x92, 0x44, 0x74, 0x32, 0x89, 0x23, 0x78,
  0x1c, 0x82, 0x44, 0x74, 0x10, 0x99, 0x23, 0x76, 0x02, 0x80, 0x41, 0x7a,
  0x00, 0x90, 0x43, 0x75, 0x00, 0x92, 0x43, 0x72, 0x02, 0x80, 0x44, 0x79,
  0x0c, 0x89, 0x33, 0x76, 0x10, 0x80, 0x3d, 0x79, 0x14, 0x82, 0x41, 0x47,
  0x02, 0x80, 0x43, 0x75, 0x12, 0x89, 0x23, 0x76, 0x18, 0x99, 0x23, 0x79,
  0x00, 0x33, 0x76, 0x02, 0x90, 0x34, 0x73, 0x00, 0x3c, 0x75, 0x00, 0x40,
  0x73, 0x00, 0x43, 0x79, 0x00, 0x92, 0x3c, 0x6f, 0x00, 0x40, 0x6a, 0x0e,
  0x82, 0x3d, 0x74, 0x02, 0x80, 0x35, 0x78, 0x3a, 0x3c, 0x75, 0x16, 0x90,
  0x3c, 0x72, 0x1a, 0x89, 0x33, 0x76, 0x04, 0x80, 0x40, 0x73, 0x40, 0x99,
  0x33, 0x76, 0x02, 0x90, 0x40, 0x7a, 0x12, 0x80, 0x43, 0x79, 0x4c, 0x91,
  0x2e, 0x70, 0x02, 0x90, 0x46, 0x75, 0x16, 0x89, 0x33, 0x76, 0x20, 0x80,
  0x46, 0x75, 0x08, 0x81, 0x2e, 0x70, 0x20, 0x91, 0x2e, 0x72, 0x00, 0x99,
  0x33, 0x76, 0x02, 0x90, 0x46, 0x78, 0x00, 0x92, 0x46, 0x65, 0x0e, 0x82,
  0x40, 0x6a, 0x50, 0x91, 0x2c, 0x76, 0x02, 0x90, 0x44, 0x76, 0x00, 0x92,
  0x44, 0x71, 0x04, 0x82, 0x43, 0x72, 0x06, 0x89, 0x33, 0x76, 0x02, 0x81,
  0x2e, 0x72, 0x00, 0x82, 0x46, 0x65, 0x08, 0x80, 0x46, 0x78, 0x2c, 0x44,
  0x76, 0x1c, 0x82, 0x44, 0x71, 0x02, 0x99, 0x33, 0x77, 0x02, 0x90, 0x44,
  0x73, 0x00, 0x92, 0x44, 0x75, 0x08, 0x89, 0x34, 0x77, 0x3e, 0x80, 0x44,
  0x73, 0x04, 0x34, 0x73, 0x14, 0x91, 0x2b, 0x77, 0x00, 0x82, 0x44, 0x75,
  0x02, 0x90, 0x43, 0x73, 0x00, 0x92, 0x43, 0x75, 0x10, 0x81, 0x2c, 0x76,
  0x18, 0x80, 0x3c, 0x72, 0x04, 0x89, 0x33, 0x77, 0x16, 0x81, 0x2b, 0x77,
  0x02, 0x80, 0x43, 0x73, 0x0c, 0x82, 0x43, 0x75, 0x0e, 0x91, 0x2b, 0x78,
  0x00, 0x99, 0x33, 0x76, 0x02, 0x90, 0x24, 0x7b, 0x00, 0x30, 0x78, 0x00,
  0x3c, 0x79, 0x00, 0x43, 0x7b, 0x00, 0x92, 0x43, 0x74, 0x08, 0x80, 0x40,
  0x7a, 0x56, 0x81, 0x2b, 0x78, 0x00, 0x91, 0x28, 0x77, 0x02, 0x80, 0x3c,
  0x79, 0x00, 0x90, 0x40, 0x7a, 0x00, 0x92, 0x40, 0x72, 0x04, 0x80, 0x24,
  0x7b, 0x06, 0x82, 0x3c, 0x6f, 0x30, 0x89, 0x33, 0x76, 0x12, 0x81, 0x28,
  0x77, 0x12, 0x91, 0x24, 0x78, 0x00, 0x99, 0x33, 0x6c, 0x02, 0x90, 0x3c,
  0x65, 0x00, 0x92, 0x3c, 0x6c, 0x08, 0x80, 0x40, 0x7a, 0x0c, 0x82, 0x40,
  0x72, 0x4a, 0x91, 0x22, 0x78, 0x02, 0x90, 0x3a, 0x7a, 0x00, 0x92, 0x3a,
  0x6c, 0x02, 0x81, 0x24, 0x78, 0x48, 0x80, 0x3c, 0x65, 0x0c, 0x3a, 0x7a,
  0x08, 0x91, 0x21, 0x78, 0x00, 0x99, 0x31, 0x75, 0x02, 0x80, 0x30, 0x78,
  0x00, 0x90, 0x35, 0x7b, 0x00, 0x39, 0x7b, 0x00, 0x3c, 0x7b, 0x00, 0x41,
  0x7b, 0x00, 0x92, 0x39, 0x6f, 0x00, 0x41, 0x6a, 0x06, 0x81, 0x22, 0x78,
  0x02, 0x82, 0x3a, 0x6c, 0x04, 0x43, 0x74, 0x04, 0x89, 0x33, 0x6c, 0x48,
  0x90, 0x30, 0x73, 0x08, 0x80, 0x41, 0x7b, 0x00, 0x3c, 0x7b, 0x00, 0x39,
  0x7b, 0x00, 0x35, 0x7b, 0x5c, 0x30, 0x73, 0x00, 0x90, 0x35, 0x78, 0x02,
  0x80, 0x43, 0x7b, 0x00, 0x89, 0x28, 0x7c, 0x02, 0x90, 0x41, 0x78, 0x6a,
  0x30, 0x66, 0x0e, 0x89, 0x23, 0x79, 0x06, 0x80, 0x35, 0x78, 0x30, 0x81,
  0x21, 0x78, 0x10, 0x82, 0x3c, 0x6c, 0x02, 0x92, 0x3a, 0x6b, 0x00, 0x3c,
  0x12, 0x06, 0x90, 0x3e, 0x76, 0x02, 0x2e, 0x77, 0x00, 0x35, 0x75, 0x00,
  0x3a, 0x7a, 0x02, 0x80, 0x41, 0x78, 0x06, 0x89, 0x31, 0x75, 0x04, 0x80,
  0x30, 0x66, 0x04, 0x82, 0x39, 0x6f, 0x02, 0x3c, 0x12, 0x64, 0x80, 0x3e,
  0x76, 0x0a, 0x90, 0x3e, 0x69, 0x24, 0x82, 0x3a, 0x6b, 0x14, 0x92, 0x39,
  0x6e, 0x1e, 0x90, 0x39, 0x6d, 0x02, 0x3c, 0x79, 0x02, 0x2d, 0x78, 0x04,
  0x80, 0x3e, 0x69, 0x04, 0x3a, 0x7a, 0x02, 0x2e, 0x77, 0x4c, 0x39, 0x6d,
  0x12, 0x3c, 0x79, 0x14, 0x90, 0x3c, 0x77, 0x02, 0x39, 0x77, 0x50, 0x92,
  0x38, 0x6a, 0x08, 0x80, 0x39, 0x77, 0x02, 0x82, 0x39, 0x6e, 0x16, 0x80,
  0x3c, 0x77, 0x08, 0x90, 0x3b, 0x72, 0x02, 0x2c, 0x75, 0x02, 0x38, 0x7a,
  0x0a, 0x80, 0x2d, 0x78, 0x81, 0x18, 0x90, 0x41, 0x77, 0x81, 0x02, 0x92,
  0x37, 0x59, 0x00, 0x3e, 0x4c, 0x04, 0x82, 0x38, 0x6a, 0x1a, 0x80, 0x3b,
  0x72, 0x16, 0x38, 0x7a, 0x04, 0x90, 0x37, 0x73, 0x02, 0x2b, 0x7a, 0x00,
  0x3a, 0x7a, 0x18, 0x80, 0x2c, 0x75, 0x16, 0x41, 0x77, 0x81, 0x32, 0x90,
  0x41, 0x77, 0x82, 0x12, 0x82, 0x37, 0x59, 0x44, 0x92, 0x29, 0x12, 0x00,
  0x35, 0x12, 0x00, 0x39, 0x12, 0x5e, 0x80, 0x41, 0x77, 0x00, 0x35, 0x75,
  0x00, 0x82, 0x3e, 0x4c, 0x02, 0x80, 0x37, 0x73, 0x00, 0x90, 0x29, 0x7a,
  0x04, 0x80, 0x3a, 0x7a, 0x06, 0x2b, 0x7a, 0x02, 0x90, 0x35, 0x7a, 0x0c,
  0x39, 0x7a, 0x0c, 0x3c, 0x7a, 0x0c, 0x41, 0x7b, 0x86, 0x7a, 0x82, 0x29,
  0x12, 0x10, 0x35, 0x12, 0x02, 0x41, 0x6a, 0x08, 0x39, 0x12, 0x81, 0x3c,
  0x80, 0x29, 0x7a, 0x24, 0x3c, 0x7a, 0x18, 0x35, 0x7a, 0x0c, 0x39, 0x7a,
  0x48, 0x41, 0x7b, 0x82, 0x20, 0xb5, 0x78, 0x00, 0x00, 0xb4, 0x78, 0x00,
  0x00, 0xb0, 0x78, 0x00, 0x00, 0xb1, 0x78, 0x00, 0x00, 0xb2, 0x78, 0x00,
  0x00, 0xb3, 0x78, 0x00, 0x00, 0xb6, 0x78, 0x00, 0x00, 0xb7, 0x78, 0x00,
  0x00, 0xb8, 0x78, 0x00, 0x00, 0xbb, 0x78, 0x00, 0x00, 0xbc, 0x78, 0x00,
  0x00, 0xb9, 0x78, 0x00, 0x00, 0xba, 0x78, 0x00, 0x02, 0xb5, 0x7b, 0x00,
  0x00, 0xb4, 0x7b, 0x00, 0x00, 0xb0, 0x7b, 0x00, 0x00, 0xb1, 0x7b, 0x00,
  0x00, 0xb2, 0x7b, 0x00, 0x00, 0xb3, 0x7b, 0x00, 0x00, 0xb6, 0x7b, 0x00,
  0x00, 0xbb, 0x7b, 0x00, 0x00, 0xbc, 0x7b, 0x00, 0x00, 0xba, 0x7b, 0x00,
  0x8a, 0xa9, 0x7d, 0xff, 0x2f, 0x00
};
unsigned int bora0_midi_len = 46410;
